<svg width="56" height="57" viewBox="0 0 56 57" fill="none" xmlns="http://www.w3.org/2000/svg">
<g clip-path="url(#clip0_1_1782)">
<path d="M55.0669 50.9H52.2669V33.1666C52.2666 32.6512 51.8483 32.2337 51.3329 32.234C51.0287 32.2342 50.7437 32.3826 50.5692 32.6318L37.5025 51.2985C37.2071 51.721 37.3101 52.3029 37.7326 52.5982C37.8893 52.7077 38.0757 52.7665 38.2669 52.7666H50.4002V55.5666C50.4002 56.0821 50.8181 56.5 51.3336 56.5C51.849 56.5 52.2669 56.0821 52.2669 55.5666V52.7666H55.0669C55.5823 52.7666 56.0002 52.3487 56.0002 51.8333C56.0002 51.3179 55.5823 50.9 55.0669 50.9ZM50.4002 50.9H40.0589L50.4002 36.1272V50.9Z" fill="#10D0A1"/>
<path d="M38.2666 54.6333H27.2169L37.4901 42.5364C37.5134 42.5086 37.5352 42.4797 37.5554 42.4496C39.4881 39.5891 38.8443 35.7164 36.0901 33.6352C32.7412 31.2289 28.0757 31.9932 25.6695 35.3421C24.7571 36.612 24.2664 38.1363 24.2666 39.7C24.2666 40.2154 24.6845 40.6333 25.1999 40.6333C25.7154 40.6333 26.1333 40.2154 26.1333 39.7C26.1329 36.6071 28.64 34.0997 31.7327 34.0994C32.905 34.0993 34.0477 34.467 34.9999 35.1509C36.9293 36.6292 37.3785 39.3517 36.0266 41.3716L24.4887 54.9628C24.1552 55.3558 24.2035 55.9448 24.5965 56.2783C24.7651 56.4213 24.9789 56.4999 25.1999 56.5H38.2666C38.782 56.5 39.1999 56.0821 39.1999 55.5666C39.1999 55.0512 38.782 54.6333 38.2666 54.6333Z" fill="#10D0A1"/>
<path d="M25.2205 49.9844C25.24 49.4693 24.8381 49.036 24.323 49.0165C24.3229 49.0165 24.3228 49.0165 24.3227 49.0165C12.1462 48.5646 2.37312 38.809 1.89933 26.6333H5.6C6.11543 26.6333 6.53333 26.2154 6.53333 25.7C6.53333 25.1846 6.11543 24.7667 5.6 24.7667H1.89933C2.36635 12.6124 12.1123 2.86682 24.2667 2.40027V5.16667C24.2667 5.6821 24.6846 6.1 25.2 6.1C25.7154 6.1 26.1333 5.6821 26.1333 5.16667V2.40027C38.1213 2.8639 47.7967 12.3566 48.4885 24.3336L44.8485 20.6936C44.4778 20.3354 43.887 20.3457 43.5288 20.7165C43.1795 21.0781 43.1795 21.6515 43.5288 22.0133L48.7387 27.2232C48.8368 27.342 48.9632 27.434 49.1064 27.4911C49.1429 27.502 49.18 27.5111 49.2175 27.5181C49.2815 27.5412 49.3478 27.5572 49.4153 27.5657C49.4247 27.5657 49.4331 27.5657 49.4424 27.5657C49.4517 27.5657 49.4601 27.5657 49.4685 27.5657C49.5396 27.5604 49.6098 27.5466 49.6776 27.5247C49.716 27.52 49.754 27.5129 49.7915 27.5032C49.9178 27.4583 50.0328 27.3863 50.1284 27.2923L55.4092 22.0133C55.7673 21.6426 55.7571 21.0518 55.3863 20.6936C55.0247 20.3443 54.4512 20.3443 54.0895 20.6936L50.3589 24.4213C49.6922 11.0432 38.661 0.532783 25.2663 0.513067C25.2429 0.512133 25.2233 0.5 25.2 0.5C25.1767 0.5 25.1571 0.512133 25.1337 0.513067C11.2679 0.532083 0.0320833 11.7679 0.0130667 25.6337C0.0130667 25.6571 0 25.6767 0 25.7C0 25.7233 0.0121333 25.7429 0.0130667 25.7663C0.0362833 39.2899 10.7393 50.3794 24.2536 50.8823H24.2881C24.7897 50.8821 25.2015 50.4856 25.2205 49.9844Z" fill="#171151"/>
<path d="M37.7395 13.1607C37.375 12.7964 36.7842 12.7964 36.4198 13.1607L26.3902 23.1894C25.6324 22.8515 24.7669 22.8515 24.0092 23.1894L19.2604 18.4406C18.8897 18.0825 18.2987 18.0928 17.9407 18.4636C17.5914 18.8252 17.5914 19.3986 17.9407 19.7603L22.6802 24.4998C22.0147 25.8928 22.6046 27.5616 23.9977 28.2269C25.0669 28.7377 26.3421 28.5187 27.1798 27.6806C28.022 26.8455 28.2389 25.5668 27.7192 24.5007L37.7395 14.4804C38.1038 14.116 38.1038 13.5252 37.7395 13.1607ZM25.8603 26.3597C25.8601 26.3598 25.8601 26.3598 25.86 26.3599C25.4909 26.7128 24.9094 26.7128 24.5403 26.3599C24.1757 25.9954 24.1757 25.4045 24.5401 25.0399C24.9045 24.6754 25.4954 24.6754 25.86 25.0397C26.2246 25.4042 26.2246 25.9952 25.8603 26.3597Z" fill="#171151"/>
</g>
<defs>
<clipPath id="clip0_1_1782">
<rect width="56" height="56" fill="white" transform="translate(0 0.5)"/>
</clipPath>
</defs>
</svg>
