<svg width="39" height="33" viewBox="0 0 39 33" fill="none" xmlns="http://www.w3.org/2000/svg">
<path d="M35.7497 24.42H34.4495V19.14C34.4495 18.7899 34.3125 18.4542 34.0687 18.2066C33.8249 17.9591 33.4942 17.82 33.1494 17.82H31.8493C31.5044 17.82 31.1737 17.9591 30.9299 18.2066C30.6861 18.4542 30.5491 18.7899 30.5491 19.14V24.42H29.8991V15.18C29.8991 14.8299 29.7621 14.4942 29.5183 14.2466C29.2744 13.9991 28.9437 13.86 28.5989 13.86H27.2988C26.954 13.86 26.6233 13.9991 26.3794 14.2466C26.1356 14.4942 25.9986 14.8299 25.9986 15.18V24.42H25.3486V17.16C25.3486 16.8099 25.2116 16.4742 24.9678 16.2266C24.724 15.9791 24.3933 15.84 24.0484 15.84H22.7483C22.4035 15.84 22.0728 15.9791 21.829 16.2266C21.5852 16.4742 21.4482 16.8099 21.4482 17.16V24.42C21.2758 24.4198 21.1106 24.3502 20.9887 24.2265C20.8668 24.1028 20.7983 23.935 20.7981 23.76V13.2C20.7981 13.025 20.7296 12.8571 20.6077 12.7333C20.4858 12.6095 20.3204 12.54 20.148 12.54C19.9756 12.54 19.8103 12.6095 19.6884 12.7333C19.5665 12.8571 19.498 13.025 19.498 13.2V23.76C19.4985 24.285 19.7042 24.7882 20.0698 25.1594C20.4354 25.5306 20.9311 25.7394 21.4482 25.74H35.7497C35.9221 25.74 36.0874 25.6705 36.2093 25.5467C36.3312 25.4229 36.3997 25.255 36.3997 25.08C36.3997 24.905 36.3312 24.7371 36.2093 24.6133C36.0874 24.4895 35.9221 24.42 35.7497 24.42ZM22.7483 24.42L22.7474 17.16H24.0484V24.42H22.7483ZM27.2988 24.42L27.2978 15.18H28.5989V24.42H27.2988ZM31.8493 24.42L31.8483 19.14H33.1494V24.42H31.8493ZM28.5989 4.62C28.5989 4.53332 28.6157 4.44749 28.6484 4.3674C28.681 4.28732 28.7289 4.21455 28.7893 4.15326C28.8496 4.09197 28.9213 4.04335 29.0002 4.01019C29.0791 3.97703 29.1636 3.95998 29.249 3.96H35.0996C35.272 3.96 35.4374 4.02954 35.5593 4.15331C35.6812 4.27708 35.7497 4.44496 35.7497 4.62C35.7497 4.79504 35.6812 4.96292 35.5593 5.08669C35.4374 5.21047 35.272 5.28 35.0996 5.28H29.249C29.1636 5.28002 29.0791 5.26297 29.0002 5.22981C28.9213 5.19665 28.8496 5.14803 28.7893 5.08674C28.7289 5.02545 28.681 4.95268 28.6484 4.8726C28.6157 4.79251 28.5989 4.70668 28.5989 4.62ZM26.6487 4.62C26.6487 4.48947 26.6868 4.36186 26.7583 4.25332C26.8297 4.14479 26.9312 4.06019 27.05 4.01024C27.1688 3.96029 27.2995 3.94722 27.4256 3.97268C27.5517 3.99815 27.6675 4.06101 27.7585 4.15331C27.8494 4.24561 27.9113 4.36321 27.9364 4.49124C27.9614 4.61927 27.9486 4.75197 27.8994 4.87257C27.8502 4.99317 27.7668 5.09625 27.6599 5.16877C27.553 5.24129 27.4274 5.28 27.2988 5.28C27.1264 5.28 26.961 5.21047 26.8391 5.08669C26.7172 4.96292 26.6487 4.79504 26.6487 4.62ZM28.5989 7.26C28.5989 7.17332 28.6157 7.08749 28.6484 7.0074C28.681 6.92732 28.7289 6.85455 28.7893 6.79326C28.8496 6.73197 28.9213 6.68336 29.0002 6.6502C29.0791 6.61704 29.1636 6.59998 29.249 6.6H35.0996C35.272 6.6 35.4374 6.66954 35.5593 6.79331C35.6812 6.91708 35.7497 7.08496 35.7497 7.26C35.7497 7.43504 35.6812 7.60292 35.5593 7.72669C35.4374 7.85047 35.272 7.92 35.0996 7.92H29.249C29.1636 7.92002 29.0791 7.90297 29.0002 7.86981C28.9213 7.83665 28.8496 7.78803 28.7893 7.72674C28.7289 7.66545 28.681 7.59269 28.6484 7.5126C28.6157 7.43252 28.5989 7.34668 28.5989 7.26ZM28.5989 9.9C28.5989 9.81332 28.6157 9.72749 28.6484 9.6474C28.681 9.56732 28.7289 9.49455 28.7893 9.43326C28.8496 9.37197 28.9213 9.32336 29.0002 9.2902C29.0791 9.25704 29.1636 9.23998 29.249 9.24H35.0996C35.272 9.24 35.4374 9.30954 35.5593 9.43331C35.6812 9.55709 35.7497 9.72496 35.7497 9.9C35.7497 10.075 35.6812 10.2429 35.5593 10.3667C35.4374 10.4905 35.272 10.56 35.0996 10.56H29.249C29.1636 10.56 29.0791 10.543 29.0002 10.5098C28.9213 10.4766 28.8496 10.428 28.7893 10.3667C28.7289 10.3055 28.681 10.2327 28.6484 10.1526C28.6157 10.0725 28.5989 9.98668 28.5989 9.9ZM26.6487 7.26C26.6487 7.12947 26.6868 7.00186 26.7583 6.89332C26.8297 6.78479 26.9312 6.70019 27.05 6.65024C27.1688 6.60029 27.2995 6.58722 27.4256 6.61268C27.5517 6.63815 27.6675 6.70101 27.7585 6.79331C27.8494 6.88561 27.9113 7.00321 27.9364 7.13124C27.9614 7.25927 27.9486 7.39197 27.8994 7.51257C27.8502 7.63317 27.7668 7.73625 27.6599 7.80877C27.553 7.88129 27.4274 7.92 27.2988 7.92C27.1264 7.92 26.961 7.85047 26.8391 7.72669C26.7172 7.60292 26.6487 7.43504 26.6487 7.26ZM26.6487 9.9C26.6487 9.76947 26.6868 9.64186 26.7583 9.53333C26.8297 9.42479 26.9312 9.3402 27.05 9.29024C27.1688 9.24029 27.2995 9.22722 27.4256 9.25268C27.5517 9.27815 27.6675 9.34101 27.7585 9.43331C27.8494 9.52561 27.9113 9.64321 27.9364 9.77124C27.9614 9.89927 27.9486 10.032 27.8994 10.1526C27.8502 10.2732 27.7668 10.3763 27.6599 10.4488C27.553 10.5213 27.4274 10.56 27.2988 10.56C27.1264 10.56 26.961 10.4905 26.8391 10.3667C26.7172 10.2429 26.6487 10.075 26.6487 9.9ZM37.0498 0H4.54642C4.02937 0.000573009 3.53365 0.209364 3.16804 0.580562C2.80243 0.95176 2.59678 1.45505 2.59622 1.98V10.5934C2.05539 10.6703 1.56015 10.943 1.20177 11.3614C0.843394 11.7798 0.64602 12.3155 0.64602 12.87C0.64602 13.4245 0.843394 13.9602 1.20177 14.3786C1.56015 14.797 2.05539 15.0697 2.59622 15.1466V18.243C1.71253 19.1043 1.024 20.1505 0.578415 21.309C0.132831 22.4675 -0.0591387 23.7106 0.015827 24.9519C0.0907928 26.1933 0.430898 27.4032 1.01254 28.4978C1.59419 29.5924 2.40344 30.5453 3.38416 31.2905C4.36487 32.0358 5.49354 32.5554 6.69187 32.8135C7.89019 33.0715 9.12947 33.0617 10.3237 32.7848C11.5179 32.5079 12.6385 31.9705 13.6077 31.2099C14.5769 30.4492 15.3714 29.4836 15.9363 28.38H37.0498C37.5668 28.3794 38.0626 28.1706 38.4282 27.7994C38.7938 27.4282 38.9994 26.925 39 26.4V1.98C38.9994 1.45505 38.7938 0.95176 38.4282 0.580562C38.0626 0.209364 37.5668 0.000573009 37.0498 0ZM1.94615 12.87C1.94615 12.6742 2.00334 12.4828 2.11049 12.32C2.21763 12.1572 2.36992 12.0303 2.5481 11.9554C2.72627 11.8804 2.92233 11.8608 3.11148 11.899C3.30064 11.9372 3.47438 12.0315 3.61075 12.17C3.74712 12.3084 3.83999 12.4848 3.87762 12.6769C3.91524 12.8689 3.89593 13.068 3.82213 13.2489C3.74833 13.4298 3.62334 13.5844 3.46299 13.6932C3.30263 13.8019 3.11411 13.86 2.92125 13.86C2.66273 13.8597 2.41487 13.7553 2.23206 13.5697C2.04926 13.3841 1.94643 13.1325 1.94615 12.87ZM7.79676 17.1934V24.0255L1.86965 27.2658C1.42726 26.2135 1.23631 25.0699 1.31238 23.9284C1.38846 22.7868 1.72941 21.6797 2.30739 20.6975C2.88537 19.7153 3.68399 18.8859 4.63801 18.2769C5.59204 17.6679 6.67442 17.2966 7.79676 17.1934ZM9.09689 17.1934C10.7602 17.3498 12.3174 18.0919 13.4985 19.2911C14.6797 20.4903 15.4106 22.0712 15.5646 23.76H9.09689V17.1934ZM8.44683 31.68C7.26643 31.6793 6.10457 31.3819 5.06501 30.8142C4.02544 30.2465 3.14052 29.4263 2.48929 28.4268L8.61121 25.08H15.5646C15.4009 26.8825 14.5805 28.5581 13.264 29.7788C11.9475 30.9995 10.2297 31.6775 8.44683 31.68ZM37.6999 26.4C37.6997 26.575 37.6311 26.7428 37.5093 26.8665C37.3874 26.9902 37.2222 27.0598 37.0498 27.06H16.4841C17.0235 25.3788 17.0372 23.5693 16.5235 21.8798C16.0097 20.1903 14.9937 18.7036 13.6147 17.6236C12.2357 16.5437 10.5614 15.9233 8.82145 15.8478C7.08149 15.7722 5.36111 16.2451 3.89635 17.2016V14.9483C4.28427 14.7619 4.61225 14.4678 4.84234 14.1C5.07243 13.7322 5.19522 13.3057 5.19649 12.87C5.19457 12.5239 5.11515 12.1828 4.96426 11.8725L8.25372 8.90376C8.55831 9.08983 8.90156 9.20096 9.25602 9.22828C9.61048 9.2556 9.96632 9.19835 10.2951 9.0611L13.1598 11.3574C13.0214 11.7097 12.9706 12.0911 13.012 12.468C13.0533 12.8448 13.1854 13.2056 13.3966 13.5183C13.6079 13.8311 13.8917 14.0861 14.2231 14.261C14.5545 14.4359 14.9233 14.5252 15.2968 14.5211C15.6702 14.5169 16.037 14.4195 16.3645 14.2372C16.6921 14.055 16.9704 13.7937 17.1748 13.4763C17.3793 13.159 17.5036 12.7954 17.5367 12.4177C17.5699 12.04 17.5109 11.6598 17.365 11.3107L21.1228 8.159C21.5703 8.47416 22.1144 8.61533 22.6559 8.55672C23.1974 8.49812 23.7001 8.24364 24.072 7.8398C24.4439 7.43596 24.6603 6.90973 24.6816 6.35726C24.7029 5.8048 24.5277 5.26301 24.188 4.83089C23.8483 4.39877 23.3668 4.10518 22.8315 4.00378C22.2961 3.90238 21.7427 3.99994 21.2724 4.27863C20.8021 4.55731 20.4462 4.99852 20.2699 5.52161C20.0936 6.04471 20.1085 6.61476 20.312 7.12759L16.5385 10.2924C16.1568 10.0342 15.7073 9.89907 15.2487 9.9047C14.7901 9.91033 14.3439 10.0565 13.9686 10.3239L11.3213 8.20204C11.542 7.86543 11.6718 7.47589 11.6976 7.0724C11.7234 6.6689 11.6445 6.26558 11.4686 5.9028C11.2927 5.54002 11.0261 5.23049 10.6953 5.00517C10.3646 4.77986 9.98147 4.64666 9.58414 4.6189C9.18681 4.59114 8.78927 4.66979 8.43129 4.84699C8.0733 5.02419 7.76742 5.29372 7.54425 5.62862C7.32107 5.96352 7.18843 6.35205 7.15958 6.75534C7.13073 7.15863 7.2067 7.56254 7.37987 7.92666L4.08799 10.8975C4.02582 10.8593 3.96222 10.8237 3.89635 10.7917V1.98C3.89653 1.80501 3.96507 1.63724 4.08694 1.5135C4.20882 1.38977 4.37406 1.32018 4.54642 1.32H37.0498C37.2222 1.32018 37.3874 1.38977 37.5093 1.5135C37.6311 1.63724 37.6997 1.80501 37.6999 1.98V26.4ZM10.1114 7.63004C9.97506 7.7685 9.80132 7.86278 9.61217 7.90098C9.42301 7.93918 9.22696 7.91957 9.04878 7.84464C8.87061 7.76971 8.71832 7.64282 8.61117 7.48001C8.50403 7.31721 8.44684 7.1258 8.44684 6.93C8.44684 6.7342 8.50403 6.54279 8.61117 6.37999C8.71832 6.21718 8.87061 6.09029 9.04878 6.01536C9.22696 5.94043 9.42301 5.92082 9.61217 5.95902C9.80132 5.99722 9.97506 6.09151 10.1114 6.22996C10.294 6.41577 10.3966 6.66753 10.3966 6.93C10.3966 7.19248 10.294 7.44423 10.1114 7.63004ZM15.962 12.91C15.8257 13.0485 15.6519 13.1428 15.4628 13.181C15.2736 13.2192 15.0776 13.1996 14.8994 13.1246C14.7212 13.0497 14.5689 12.9228 14.4618 12.76C14.3546 12.5972 14.2974 12.4058 14.2974 12.21C14.2974 12.0142 14.3546 11.8228 14.4618 11.66C14.5689 11.4972 14.7212 11.3703 14.8994 11.2954C15.0776 11.2204 15.2736 11.2008 15.4628 11.239C15.6519 11.2772 15.8257 11.3715 15.962 11.51C16.1446 11.6958 16.2472 11.9475 16.2472 12.21C16.2472 12.4725 16.1446 12.7242 15.962 12.91ZM21.7338 5.56996C21.8701 5.43151 22.0439 5.33722 22.233 5.29902C22.4222 5.26082 22.6182 5.28043 22.7964 5.35536C22.9746 5.43029 23.1269 5.55718 23.234 5.71999C23.3412 5.88279 23.3984 6.0742 23.3984 6.27C23.3984 6.4658 23.3412 6.65721 23.234 6.82001C23.1269 6.98282 22.9746 7.10971 22.7964 7.18464C22.6182 7.25957 22.4222 7.27918 22.233 7.24098C22.0439 7.20278 21.8701 7.1085 21.7338 6.97004C21.5512 6.78424 21.4486 6.53248 21.4486 6.27C21.4486 6.00752 21.5512 5.75576 21.7338 5.56996Z" fill="white"/>
</svg>
