<svg width="15" height="14" viewBox="0 0 15 14" fill="none" xmlns="http://www.w3.org/2000/svg">
<path d="M7.26172 1.01758L6.67578 1.57422C6.5293 1.7207 6.5293 1.95508 6.67578 2.07227L11.2168 6.61328H1.22656C1.02148 6.61328 0.875 6.78906 0.875 6.96484V7.78516C0.875 7.99023 1.02148 8.13672 1.22656 8.13672H11.2168L6.67578 12.707C6.5293 12.8242 6.5293 13.0586 6.67578 13.2051L7.26172 13.7617C7.37891 13.9082 7.61328 13.9082 7.75977 13.7617L13.8828 7.63867C14.0293 7.49219 14.0293 7.28711 13.8828 7.14062L7.75977 1.01758C7.61328 0.871094 7.37891 0.871094 7.26172 1.01758Z" fill="white"/>
</svg>
