<svg width="15" height="14" viewBox="0 0 15 14" fill="none" xmlns="http://www.w3.org/2000/svg">
<path d="M7.73828 12.9824L8.32422 12.4258C8.4707 12.2793 8.4707 12.0449 8.32422 11.9277L3.7832 7.38672L13.7734 7.38672C13.9785 7.38672 14.125 7.21094 14.125 7.03516L14.125 6.21484C14.125 6.00977 13.9785 5.86328 13.7734 5.86328L3.7832 5.86328L8.32422 1.29297C8.4707 1.17578 8.4707 0.941406 8.32422 0.794921L7.73828 0.238281C7.62109 0.0917962 7.38672 0.0917962 7.24024 0.238281L1.11719 6.36133C0.970704 6.50781 0.970704 6.71289 1.11719 6.85937L7.24023 12.9824C7.38672 13.1289 7.62109 13.1289 7.73828 12.9824Z" fill="#188C99"/>
</svg>
