<svg width="36" height="36" viewBox="0 0 36 36" fill="none" xmlns="http://www.w3.org/2000/svg">
<mask id="mask0_1_1498" style="mask-type:luminance" maskUnits="userSpaceOnUse" x="0" y="0" width="36" height="36">
<path d="M0 3.8147e-06H36V36H0V3.8147e-06Z" fill="white"/>
</mask>
<g mask="url(#mask0_1_1498)">
<path d="M27.5298 4.59698H30.3254V6.79003C30.3254 9.41128 28.7954 11.8314 26.428 12.9564L24.8916 13.6863" stroke="white" stroke-miterlimit="10" stroke-linecap="round" stroke-linejoin="round"/>
<path d="M27.5713 2.48773H31.3808C31.963 2.48773 32.4355 2.95952 32.4355 3.54241V6.79015C32.4355 8.48327 31.9573 10.1335 31.0531 11.5644C30.1489 12.9952 28.8629 14.1357 27.3336 14.862L22.5137 17.1521" stroke="white" stroke-miterlimit="10" stroke-linecap="round" stroke-linejoin="round"/>
<path d="M8.46994 4.59705H5.67432V6.79009C5.67432 8.96106 6.7238 10.994 8.4293 12.2676" stroke="white" stroke-miterlimit="10" stroke-linecap="round" stroke-linejoin="round"/>
<path d="M8.42916 2.48773H4.61963C4.03744 2.48773 3.56494 2.95952 3.56494 3.54241V6.79015C3.56494 8.48327 4.04307 10.1335 4.94729 11.5644C5.8515 12.9952 7.13752 14.1357 8.66682 14.862L13.4867 17.1521" stroke="white" stroke-miterlimit="10" stroke-linecap="round" stroke-linejoin="round"/>
<path d="M27.5269 35.4727H8.47217C8.0839 35.4727 7.76904 35.1579 7.76904 34.7695V32.8008C7.76904 32.4124 8.0839 32.0977 8.47217 32.0977H27.5269C27.9151 32.0977 28.23 32.4124 28.23 32.8008V34.7695C28.23 35.1579 27.9151 35.4727 27.5269 35.4727Z" stroke="white" stroke-miterlimit="10" stroke-linecap="round" stroke-linejoin="round"/>
<path d="M15.7847 25.5586V21.7782" stroke="white" stroke-miterlimit="10" stroke-linecap="round" stroke-linejoin="round"/>
<path d="M20.2144 21.7782V25.5586" stroke="white" stroke-miterlimit="10" stroke-linecap="round" stroke-linejoin="round"/>
<path d="M9.87842 32.0977V27.668C9.87842 26.503 10.8229 25.5586 11.9878 25.5586H24.0112C25.1762 25.5586 26.1206 26.503 26.1206 27.668V29.9883" stroke="white" stroke-miterlimit="10" stroke-linecap="round" stroke-linejoin="round"/>
<path d="M14.8354 18.614C10.7359 14.5649 8.42871 9.04279 8.42871 3.28083V1.2303C8.42871 0.841967 8.74343 0.527179 9.13184 0.527179H26.867C27.2554 0.527179 27.5702 0.841967 27.5702 1.2303V3.28083C27.5702 9.04279 25.2629 14.5649 21.1635 18.614" stroke="white" stroke-miterlimit="10" stroke-linecap="round" stroke-linejoin="round"/>
<path d="M14.4844 21.7783H21.5156C21.9039 21.7783 22.2188 21.4635 22.2188 21.0752V19.3174C22.2188 18.929 21.9039 18.6143 21.5156 18.6143H14.4844C14.0961 18.6143 13.7812 18.929 13.7812 19.3174V21.0752C13.7812 21.4635 14.0961 21.7783 14.4844 21.7783Z" stroke="white" stroke-miterlimit="10" stroke-linecap="round" stroke-linejoin="round"/>
<path d="M18.5354 4.73169L19.1786 6.71169C19.254 6.94351 19.47 7.10037 19.7137 7.10037H21.7956C22.3405 7.10037 22.5671 7.79766 22.1262 8.11794L20.4419 9.34165C20.2448 9.48495 20.1623 9.73878 20.2376 9.9706L20.8809 11.9506C21.0493 12.4689 20.4562 12.8997 20.0154 12.5795L18.331 11.3558C18.1339 11.2125 17.8669 11.2125 17.6697 11.3558L15.9854 12.5795C15.5446 12.8997 14.9515 12.4689 15.1199 11.9506L15.7632 9.9706C15.8385 9.73878 15.756 9.48495 15.5589 9.34165L13.8746 8.11794C13.4337 7.79766 13.6603 7.10037 14.2052 7.10037H16.287C16.5307 7.10037 16.7468 6.94351 16.8221 6.71169L17.4654 4.73169C17.6338 4.21341 18.367 4.21341 18.5354 4.73169Z" stroke="white" stroke-miterlimit="10" stroke-linecap="round" stroke-linejoin="round"/>
</g>
</svg>
