<svg width="86" height="86" viewBox="0 0 86 86" fill="none" xmlns="http://www.w3.org/2000/svg">
<g clip-path="url(#clip0_1_1628)">
<path d="M70.6603 68.8532C64.7536 62.4276 59.5883 56.6394 55.0999 51.4095C62.6125 41.22 66.0622 34.6148 65.9535 30.6325C65.7169 21.9772 62.8152 13.764 57.5626 6.87983C57.5398 6.84825 57.5156 6.81802 57.4902 6.78896C53.8967 2.47418 48.6173 0 43.0006 0C37.3839 0 32.1045 2.47435 28.5109 6.7893C28.4856 6.81836 28.4616 6.84859 28.4385 6.88017C23.1858 13.7645 20.2843 21.9777 20.0478 30.6326C19.9294 34.9657 24.199 42.296 30.6117 51.0161C29.8994 51.8829 29.2362 52.6913 28.6144 53.4495C24.001 59.0743 21.4598 62.1728 15.3383 68.8532C14.9223 69.3073 14.8682 69.9862 15.2071 70.5007L25.0261 85.3962C25.2644 85.7578 25.6629 85.9824 26.0957 85.9993C26.1132 86 26.1307 86.0003 26.1481 86.0003C26.5618 86.0003 26.9539 85.8094 27.209 85.4812C28.6421 83.6372 31.1444 80.7024 34.3126 76.9868C36.9507 73.8926 39.9204 70.4097 43.009 66.6922C45.8263 70.0868 48.7505 73.5403 51.6883 76.986C54.8567 80.7019 57.3592 83.6372 58.7924 85.4812C59.0475 85.8094 59.4394 86.0003 59.8531 86.0003C59.8705 86.0003 59.888 86 59.9056 85.9993C60.3385 85.9824 60.7368 85.7578 60.9753 85.3962L70.7929 70.5025C71.1323 69.9872 71.0777 69.3073 70.6603 68.8532ZM58.109 12.5187C61.3209 18.0343 63.0903 24.2381 63.267 30.7059C63.3275 32.9185 61.6308 37.9403 53.3082 49.3091C49.8451 45.2239 46.8143 41.4928 44.1831 38.0763C49.679 30.5953 53.6115 24.2733 55.872 19.2843C57.0347 16.7183 57.7792 14.4715 58.109 12.5187ZM42.4868 35.8439C40.0062 32.5317 37.9251 29.5299 36.21 26.7986C35.2959 25.343 34.4893 23.9668 33.7835 22.6622C36.4777 20.7957 39.7158 19.7736 43.0008 19.7736C45.992 19.7736 48.8847 20.5918 51.4222 22.1427C49.4051 25.8066 46.5229 30.3086 42.4868 35.8439ZM30.6876 8.3766C33.7662 4.75839 38.2422 2.6875 43.0006 2.6875C47.757 2.6875 52.2311 4.75637 55.3095 8.37173C55.9923 10.2117 55.7429 13.585 52.6732 19.7588C49.7496 18.0086 46.4305 17.0863 43.0004 17.0863C39.2922 17.0863 35.6345 18.2023 32.5543 20.248C30.1337 15.1335 29.5414 11.2796 30.6876 8.3766ZM32.2674 75.2428C29.805 78.1307 27.7423 80.5503 26.2529 82.3739L18.0272 69.8952C23.6943 63.6859 26.2301 60.5941 30.6924 55.1535C31.1897 54.5472 31.7131 53.9091 32.2667 53.235C34.9969 56.8482 38.0453 60.6656 41.2667 64.583C38.0726 68.434 34.9927 72.0465 32.2674 75.2428ZM59.7484 82.3739C58.259 80.5501 56.1959 78.1302 53.7333 75.2419C47.9387 68.4458 40.0027 59.1379 33.6384 50.589C24.5119 38.3301 22.6713 33.0101 22.7343 30.7059C22.904 24.4942 24.5425 18.5266 27.5174 13.1777C27.9714 17.2005 30.0732 22.0793 33.934 28.2277C40.1255 38.0879 50.9529 51.3449 67.9718 69.8989L59.7484 82.3739Z" fill="white"/>
</g>
<defs>
<clipPath id="clip0_1_1628">
<rect width="86" height="86" fill="white"/>
</clipPath>
</defs>
</svg>
