<svg width="26" height="26" viewBox="0 0 26 26" fill="none" xmlns="http://www.w3.org/2000/svg">
<path d="M20.1823 2.42056H19.2494V1.47656C19.2494 0.937207 18.8122 0.5 18.2728 0.5C17.7334 0.5 17.2962 0.937207 17.2962 1.47656V2.42056H7.71484V1.47656C7.71484 0.937207 7.27764 0.5 6.73828 0.5C6.19893 0.5 5.76172 0.937207 5.76172 1.47656V2.42056H4.82886C2.16621 2.42056 0 4.58677 0 7.24937V20.6711C0 23.3338 2.16621 25.5 4.82886 25.5H20.1823C22.8449 25.5 25.0111 23.3338 25.0111 20.6711V7.24937C25.0111 4.58677 22.8449 2.42056 20.1823 2.42056ZM4.82886 4.37368H5.76172V6.27798C5.76172 6.81733 6.19893 7.25454 6.73828 7.25454C7.27764 7.25454 7.71484 6.81733 7.71484 6.27798V4.37368H17.2963V6.27798C17.2963 6.81733 17.7335 7.25454 18.2729 7.25454C18.8122 7.25454 19.2494 6.81733 19.2494 6.27798V4.37368H20.1823C21.768 4.37368 23.058 5.66372 23.058 7.24937V8.18228H1.95312V7.24937C1.95312 5.66372 3.24316 4.37368 4.82886 4.37368ZM20.1823 23.5469H4.82886C3.24316 23.5469 1.95312 22.2568 1.95312 20.6711V10.1354H23.058V20.6711C23.058 22.2568 21.768 23.5469 20.1823 23.5469ZM8.67515 13.9766C8.67515 14.5159 8.23794 14.9531 7.69858 14.9531H5.77803C5.23867 14.9531 4.80147 14.5159 4.80147 13.9766C4.80147 13.4372 5.23867 13 5.77803 13H7.69858C8.23789 13 8.67515 13.4372 8.67515 13.9766ZM20.2097 13.9766C20.2097 14.5159 19.7725 14.9531 19.2332 14.9531H17.3126C16.7732 14.9531 16.336 14.5159 16.336 13.9766C16.336 13.4372 16.7732 13 17.3126 13H19.2332C19.7725 13 20.2097 13.4372 20.2097 13.9766ZM14.4369 13.9766C14.4369 14.5159 13.9997 14.9531 13.4603 14.9531H11.5397C11.0004 14.9531 10.5632 14.5159 10.5632 13.9766C10.5632 13.4372 11.0004 13 11.5397 13H13.4603C13.9996 13 14.4369 13.4372 14.4369 13.9766ZM8.67515 19.7383C8.67515 20.2776 8.23794 20.7148 7.69858 20.7148H5.77803C5.23867 20.7148 4.80147 20.2776 4.80147 19.7383C4.80147 19.1989 5.23867 18.7617 5.77803 18.7617H7.69858C8.23789 18.7617 8.67515 19.1989 8.67515 19.7383ZM20.2097 19.7383C20.2097 20.2776 19.7725 20.7148 19.2332 20.7148H17.3126C16.7732 20.7148 16.336 20.2776 16.336 19.7383C16.336 19.1989 16.7732 18.7617 17.3126 18.7617H19.2332C19.7725 18.7617 20.2097 19.1989 20.2097 19.7383ZM14.4369 19.7383C14.4369 20.2776 13.9997 20.7148 13.4603 20.7148H11.5397C11.0004 20.7148 10.5632 20.2776 10.5632 19.7383C10.5632 19.1989 11.0004 18.7617 11.5397 18.7617H13.4603C13.9996 18.7617 14.4369 19.1989 14.4369 19.7383Z" fill="#188C99"/>
</svg>
