<svg width="22" height="22" viewBox="0 0 22 22" fill="none" xmlns="http://www.w3.org/2000/svg">
<path d="M1 0.25C0.585786 0.25 0.25 0.585786 0.25 1C0.25 1.41421 0.585786 1.75 1 1.75V0.25ZM10 6.75C9.58579 6.75 9.25 7.08579 9.25 7.5C9.25 7.91421 9.58579 8.25 10 8.25V6.75ZM16 8.25C16.4142 8.25 16.75 7.91421 16.75 7.5C16.75 7.08579 16.4142 6.75 16 6.75V8.25ZM10 10.75C9.58579 10.75 9.25 11.0858 9.25 11.5C9.25 11.9142 9.58579 12.25 10 12.25V10.75ZM16 12.25C16.4142 12.25 16.75 11.9142 16.75 11.5C16.75 11.0858 16.4142 10.75 16 10.75V12.25ZM5 3.75H17V2.25H5V3.75ZM20.25 7V12H21.75V7H20.25ZM17 15.25H9V16.75H17V15.25ZM5.75 12V3H4.25V12H5.75ZM3 0.25H1V1.75H3V0.25ZM5.75 3C5.75 1.48122 4.51878 0.25 3 0.25V1.75C3.69036 1.75 4.25 2.30964 4.25 3H5.75ZM9 15.25C7.20507 15.25 5.75 13.7949 5.75 12H4.25C4.25 14.6234 6.37665 16.75 9 16.75V15.25ZM20.25 12C20.25 13.7949 18.7949 15.25 17 15.25V16.75C19.6234 16.75 21.75 14.6234 21.75 12H20.25ZM17 3.75C18.7949 3.75 20.25 5.20507 20.25 7H21.75C21.75 4.37665 19.6234 2.25 17 2.25V3.75ZM9.25 19.5C9.25 19.9142 8.91421 20.25 8.5 20.25V21.75C9.74264 21.75 10.75 20.7426 10.75 19.5H9.25ZM8.5 20.25C8.08579 20.25 7.75 19.9142 7.75 19.5H6.25C6.25 20.7426 7.25736 21.75 8.5 21.75V20.25ZM7.75 19.5C7.75 19.0858 8.08579 18.75 8.5 18.75V17.25C7.25736 17.25 6.25 18.2574 6.25 19.5H7.75ZM8.5 18.75C8.91421 18.75 9.25 19.0858 9.25 19.5H10.75C10.75 18.2574 9.74264 17.25 8.5 17.25V18.75ZM18.25 19.5C18.25 19.9142 17.9142 20.25 17.5 20.25V21.75C18.7426 21.75 19.75 20.7426 19.75 19.5H18.25ZM17.5 20.25C17.0858 20.25 16.75 19.9142 16.75 19.5H15.25C15.25 20.7426 16.2574 21.75 17.5 21.75V20.25ZM16.75 19.5C16.75 19.0858 17.0858 18.75 17.5 18.75V17.25C16.2574 17.25 15.25 18.2574 15.25 19.5H16.75ZM17.5 18.75C17.9142 18.75 18.25 19.0858 18.25 19.5H19.75C19.75 18.2574 18.7426 17.25 17.5 17.25V18.75ZM10 8.25H16V6.75H10V8.25ZM10 12.25H16V10.75H10V12.25Z" fill="white"/>
</svg>
