<svg width="131" height="131" viewBox="0 0 131 131" fill="none" xmlns="http://www.w3.org/2000/svg">
<path d="M0 20C0 8.9543 8.9543 0 20 0H65.5C101.675 0 131 29.3253 131 65.5C131 101.675 101.675 131 65.5 131C29.3253 131 0 101.675 0 65.5V20Z" fill="#188C99"/>
<path d="M53.6539 58.7581H79.3588M53.6539 72.242H71.9854M66.5064 95C72.9147 94.9986 79.1483 92.9105 84.2644 89.0516C89.3805 85.1926 93.1009 79.7726 94.8629 73.6113C96.625 67.45 96.3328 60.8825 94.0306 54.902C91.7283 48.9215 87.5413 43.8533 82.1027 40.4639C76.6641 37.0746 70.2697 35.5483 63.8866 36.116C57.5035 36.6837 51.4788 39.3145 46.7238 43.6105C41.9687 47.9065 38.7418 53.6341 37.5312 59.927C36.3206 66.2199 37.1921 72.7359 40.0138 78.4896C40.3582 79.1912 40.473 79.9821 40.2976 80.7411L37.6952 92.0181C37.6219 92.3346 37.6303 92.6645 37.7197 92.9768C37.8091 93.2892 37.9766 93.5736 38.2063 93.8033C38.436 94.033 38.7204 94.2005 39.0327 94.2899C39.345 94.3793 39.675 94.3877 39.9915 94.3143L51.2652 91.7088C52.0264 91.5421 52.8218 91.6435 53.5168 91.9958C57.5588 93.9807 62.0033 95.0086 66.5064 95Z" stroke="white" stroke-width="4.78378" stroke-linecap="round" stroke-linejoin="round"/>
</svg>
