<svg width="40" height="38" viewBox="0 0 40 38" fill="none" xmlns="http://www.w3.org/2000/svg">
<path d="M38.4508 26.5206C38.4626 26.497 38.473 26.4729 38.4813 26.4481C40.8512 21.0354 40.4277 14.3997 37.3496 9.32783C38.9929 7.38391 36.8584 4.60009 34.5242 5.6772C34.114 5.2624 33.6833 4.86484 33.237 4.48895C34.1131 2.13239 31.1894 0.199217 29.3685 1.95991C24.0761 -0.684609 17.4936 -0.651118 12.2305 2.0494C10.3582 0.0859833 7.21389 2.19117 8.34746 4.65462C7.69826 5.21638 7.08375 5.82323 6.51716 6.46497C6.02795 7.01907 6.91422 7.77852 7.40007 7.22829C7.92719 6.63134 8.49831 6.06664 9.10156 5.54332C10.2681 6.37594 11.9596 5.95178 12.5996 4.68084C14.7116 5.28243 16.7284 6.14584 18.6078 7.25397C18.4505 7.81542 18.5147 8.44245 18.7847 8.96075C17.2379 10.283 15.8449 11.7787 14.6353 13.4179C13.5186 13.084 12.2877 13.6428 11.8021 14.6893C9.33948 14.7024 6.8692 14.9645 4.44386 15.4718C4.2297 15.0769 3.90502 14.7497 3.5114 14.5305C3.96708 12.772 4.68882 11.0993 5.66098 9.55259C6.04835 8.93615 5.07055 8.29534 4.66545 8.93979C3.63184 10.5841 2.86414 12.3624 2.37861 14.2317C-0.429725 14.2789 -0.901193 18.1234 1.77231 18.863C1.73292 24.3345 4.12355 29.6542 8.26907 33.278C7.40429 35.5896 10.2118 37.4963 12.0645 35.8659C17.4715 38.711 24.3051 38.7114 29.7124 35.8668C31.5968 37.711 34.6149 35.6507 33.5535 33.2398C35.69 31.3608 37.3498 29.0627 38.4508 26.5206ZM37.7122 25.2232C36.0895 23.6279 34.3137 22.1807 32.4177 20.9103C32.687 20.0757 32.453 19.1366 31.8242 18.5205C33.4185 15.8973 34.6701 13.0846 35.5511 10.1463C35.8447 10.1473 36.127 10.0937 36.387 9.99671C39.0866 14.5085 39.5803 20.3256 37.7122 25.2232ZM10.7368 31.7809C10.2434 26.999 11.1091 22.2284 13.2518 17.9173C14.5828 18.3283 16.0216 17.4621 16.28 16.11C20.3221 16.6031 24.2151 17.7774 27.8685 19.6063C27.6928 20.2821 27.8383 21.0273 28.2568 21.5895C24.1388 26.7523 18.7029 30.6371 12.4816 32.8636C12.1046 32.2729 11.4706 31.8597 10.7368 31.7809ZM28.9661 20.1941C28.9661 19.5367 29.5026 19.002 30.162 19.002C31.7485 19.0673 31.7481 21.3211 30.162 21.3862C29.5026 21.3862 28.9661 20.8514 28.9661 20.1941ZM36.7522 7.79407C36.7522 8.45143 36.2157 8.98619 35.5563 8.98619C33.9697 8.92084 33.9701 6.66707 35.5563 6.60194C36.2157 6.60194 36.7522 7.13671 36.7522 7.79407ZM33.6284 6.43031C32.8182 7.55685 33.1942 9.18536 34.4157 9.85494C33.5623 12.6892 32.3523 15.4023 30.8131 17.933C30.4913 17.8414 30.1341 17.8186 29.8032 17.8688C28.1944 14.4691 25.8534 11.4069 22.9936 8.9609C23.2638 8.4423 23.3282 7.81634 23.1706 7.25412C24.9808 6.18691 26.9197 5.34586 28.9473 4.74798C29.6212 6.03547 31.429 6.39899 32.5513 5.43519C32.9233 5.75184 33.2834 6.0845 33.6284 6.43031ZM19.6933 7.88387C19.6933 7.22651 20.2298 6.69174 20.8892 6.69174C22.4758 6.7571 22.4753 9.01079 20.8892 9.07591C20.2298 9.07591 19.6933 8.54115 19.6933 7.88387ZM31.0319 2.44038C31.6915 2.44038 32.228 2.97514 32.228 3.6325C32.1622 5.21398 29.9016 5.21359 29.836 3.6325C29.836 2.97514 30.3725 2.44038 31.0319 2.44038ZM10.4802 4.82455C9.8208 4.82455 9.2843 4.28978 9.2843 3.63242C9.35011 2.05087 11.6107 2.05141 11.6763 3.63242C11.6763 4.28978 11.1397 4.82455 10.4802 4.82455ZM12.8464 3.54348C12.8403 3.38244 12.818 3.22566 12.7808 3.07438C17.688 0.563204 23.8184 0.519427 28.7634 2.95759C28.6998 3.16789 28.6651 3.39025 28.6639 3.62051C26.5312 4.24484 24.4919 5.12674 22.588 6.24724C21.6729 5.31051 20.1059 5.3102 19.1904 6.24716C17.2065 5.0794 15.0768 4.17168 12.8464 3.54348ZM19.5609 9.83026C20.3536 10.3656 21.4246 10.3657 22.2174 9.83034C24.9477 12.1632 27.1844 15.0833 28.725 18.326C28.6206 18.4055 28.523 18.4934 28.4333 18.5886C24.5816 16.6554 20.4713 15.4262 16.2018 14.9317C16.0865 14.5864 15.893 14.2764 15.6418 14.0226C16.7876 12.4823 18.1026 11.0754 19.5609 9.83026ZM13.9537 14.4783C14.6132 14.4783 15.1497 15.0131 15.1497 15.6705C15.0839 17.252 12.8233 17.2516 12.7577 15.6705C12.7578 15.0131 13.2943 14.4783 13.9537 14.4783ZM1.16125 16.5835C1.16125 15.9262 1.69774 15.3914 2.35719 15.3914C3.94371 15.4568 3.94324 17.7104 2.35719 17.7756C1.69782 17.7756 1.16125 17.2409 1.16125 16.5835ZM2.94465 18.8625C2.94465 18.8625 4.72524 18.4783 4.72524 16.5988C4.72524 16.5988 9.29423 15.8761 11.593 15.8507C11.6362 16.4127 11.8787 16.9199 12.2507 17.3026C9.96618 21.8506 9.04474 26.8929 9.57514 31.9457C9.34675 32.0399 9.1365 32.1687 8.95063 32.3252C5.12613 28.9349 2.94465 23.2543 2.94465 18.8625ZM10.4802 35.3112C9.8208 35.3112 9.2843 34.7764 9.2843 34.119C9.2843 33.4617 9.8208 32.9269 10.4802 32.9269C11.1309 32.9269 11.6763 33.4846 11.6763 34.119C11.6763 34.7764 11.1397 35.3112 10.4802 35.3112ZM20.8892 36.8485C18.0441 36.8485 15.2306 36.1743 12.716 34.8941C12.818 34.6046 12.8631 34.2748 12.8432 33.9676C19.2788 31.6721 24.9026 27.6604 29.1629 22.3261C29.5129 22.4885 29.9013 22.5631 30.2871 22.5431C30.5476 23.4996 30.7534 24.4755 30.8992 25.4512C31.0109 26.1982 32.1711 26.0313 32.0591 25.2815C31.9042 24.2454 31.685 23.2092 31.4066 22.1942C31.5468 22.1079 31.677 22.0073 31.7957 21.8948C33.7519 23.2089 35.5757 24.7175 37.2279 26.3872C36.2032 28.6287 34.7118 30.6584 32.817 32.3354C32.6296 32.1962 32.4207 32.0842 32.1965 32.0046C32.3117 30.9261 32.3619 29.8373 32.345 28.7603C32.3331 28.0025 31.1608 28.0203 31.1727 28.7783C31.189 29.8134 31.1405 30.8602 31.0292 31.8968C29.6466 32.1144 28.7424 33.5331 29.1233 34.8626C26.5929 36.1631 23.7576 36.8485 20.8892 36.8485ZM31.4011 35.412C30.7417 35.412 30.2052 34.8772 30.2052 34.2199C30.271 32.6383 32.5315 32.6389 32.5971 34.2199C32.5971 34.8772 32.0606 35.412 31.4011 35.412Z" fill="white"/>
</svg>
