<svg width="31" height="32" viewBox="0 0 31 32" fill="none" xmlns="http://www.w3.org/2000/svg">
<path d="M15.1082 9.69005C13.8092 9.69005 12.5394 10.0727 11.4594 10.7895C10.3793 11.5064 9.53748 12.5253 9.04039 13.7174C8.5433 14.9095 8.41326 16.2213 8.6667 17.4868C8.92013 18.7523 9.54568 19.9147 10.4642 20.8271C11.3828 21.7395 12.553 22.3608 13.8271 22.6125C15.1011 22.8642 16.4217 22.7349 17.6218 22.2411C18.8219 21.7473 19.8476 20.9111 20.5692 19.8382C21.2909 18.7653 21.676 17.504 21.676 16.2137C21.674 14.4841 20.9813 12.8259 19.7501 11.6029C18.5188 10.3799 16.8495 9.69197 15.1082 9.69005ZM15.1082 21.8309C13.9898 21.8309 12.8965 21.5014 11.9666 20.8842C11.0367 20.267 10.3119 19.3898 9.88392 18.3634C9.45591 17.3371 9.34392 16.2077 9.56209 15.1181C9.78027 14.0285 10.3188 13.0277 11.1096 12.2421C11.9004 11.4566 12.908 10.9216 14.0049 10.7048C15.1018 10.4881 16.2388 10.5993 17.2721 11.0244C18.3053 11.4495 19.1885 12.1694 19.8099 13.0931C20.4313 14.0168 20.7629 15.1027 20.763 16.2137C20.7613 17.7029 20.1651 19.1307 19.1049 20.1838C18.0448 21.2368 16.6075 21.8292 15.1082 21.8309ZM30.5664 28.2802L25.0024 22.7534C24.8151 22.5677 24.5813 22.4351 24.325 22.3693C24.0688 22.3035 23.7995 22.3068 23.5451 22.3791L22.1088 20.9524C23.197 19.3682 23.7077 17.4622 23.5563 15.5503C23.4049 13.6384 22.6006 11.8352 21.2764 10.4395C19.9523 9.04372 18.1879 8.13919 16.2755 7.87571C14.363 7.61224 12.4174 8.00563 10.7608 8.99072V4.95012C11.2017 4.89742 11.6078 4.68625 11.9027 4.35647C12.1975 4.02669 12.3606 3.60112 12.3612 3.16008V1.80281C12.3606 1.32481 12.1691 0.866565 11.8288 0.528597C11.4885 0.19063 11.0272 0.000531343 10.546 0H1.81519C1.33398 0.000531377 0.87263 0.190632 0.532339 0.528601C0.192049 0.866571 0.000604106 1.32481 0 1.80281V3.16008C0.000581006 3.60113 0.163685 4.02672 0.458524 4.3565C0.753363 4.68628 1.15954 4.89744 1.60038 4.95012V27.4499C1.60495 28.6536 2.08953 29.8064 2.94799 30.6559C3.80645 31.5055 4.96884 31.9824 6.1806 31.9824C7.39237 31.9824 8.55476 31.5055 9.41322 30.6559C10.2717 29.8064 10.7563 28.6536 10.7608 27.4499V23.4369C12.1476 24.2624 13.7435 24.6758 15.3594 24.628C16.9754 24.5803 18.5438 24.0735 19.8787 23.1677L21.3151 24.5945C21.2775 24.7261 21.2583 24.8622 21.2581 24.999C21.2574 25.1927 21.2954 25.3846 21.3698 25.5636C21.4443 25.7427 21.5537 25.9052 21.6918 26.042L27.2558 31.5688C27.5345 31.8449 27.9121 32 28.3057 32C28.6993 32 29.0769 31.8449 29.3556 31.5688L30.5664 30.3661C30.8441 30.0891 31 29.7141 31 29.3232C31 28.9323 30.8441 28.5573 30.5664 28.2803V28.2802ZM6.63373 16.2137C6.63329 16.9248 6.7237 17.633 6.9028 18.3215H2.51335V15.3082H3.74874C3.8698 15.3082 3.98591 15.2604 4.07152 15.1754C4.15713 15.0904 4.20522 14.975 4.20522 14.8548C4.20522 14.7345 4.15713 14.6192 4.07152 14.5341C3.98591 14.4491 3.8698 14.4013 3.74874 14.4013H2.51335V12.1262H5.36829C5.48935 12.1262 5.60546 12.0785 5.69107 11.9934C5.77668 11.9084 5.82477 11.7931 5.82477 11.6728C5.82477 11.5525 5.77668 11.4372 5.69107 11.3522C5.60546 11.2671 5.48935 11.2194 5.36829 11.2194H2.51335V8.94401H3.74874C3.8698 8.94401 3.98591 8.89624 4.07152 8.8112C4.15713 8.72617 4.20522 8.61083 4.20522 8.49057C4.20522 8.37031 4.15713 8.25498 4.07152 8.16994C3.98591 8.08491 3.8698 8.03714 3.74874 8.03714H2.51335V4.96321H9.84786V9.61886C8.8458 10.4059 8.0361 11.408 7.47946 12.5501C6.92282 13.6923 6.63369 14.9447 6.63373 16.2137ZM0.912974 3.16008V1.80281C0.913302 1.56525 1.00847 1.33751 1.1776 1.16956C1.34674 1.0016 1.57603 0.907134 1.81519 0.906877H10.546C10.7852 0.907134 11.0145 1.00163 11.1837 1.16964C11.3528 1.33766 11.448 1.56546 11.4482 1.80307V3.16008C11.448 3.3977 11.3528 3.6255 11.1837 3.79352C11.0145 3.96154 10.7852 4.05606 10.546 4.05633H1.81519C1.57598 4.05606 1.34665 3.96154 1.17751 3.79352C1.00837 3.6255 0.913233 3.39769 0.912974 3.16008ZM9.84786 27.4499C9.84377 28.4134 9.45559 29.336 8.76829 30.0159C8.08099 30.6957 7.15055 31.0774 6.1806 31.0774C5.21066 31.0774 4.28022 30.6957 3.59292 30.0159C2.90562 29.336 2.51744 28.4134 2.51335 27.4499V19.2286H7.19613C7.74287 20.6355 8.6584 21.8716 9.84786 22.8088V27.4499ZM7.54671 16.2137C7.54675 14.7281 7.99025 13.276 8.82115 12.0408C9.65204 10.8057 10.833 9.84299 12.2147 9.27453C13.5964 8.70607 15.1167 8.55736 16.5835 8.84719C18.0503 9.13703 19.3976 9.8524 20.4551 10.9028C21.5126 11.9533 22.2327 13.2916 22.5245 14.7486C22.8162 16.2056 22.6664 17.7158 22.0941 19.0882C21.5218 20.4607 20.5526 21.6337 19.3091 22.4591C18.0657 23.2844 16.6037 23.7249 15.1082 23.7249C13.1034 23.7226 11.1814 22.9305 9.76385 21.5224C8.34628 20.1143 7.54892 18.2051 7.54671 16.2137ZM21.5487 21.6784L22.7666 22.8882L21.8276 23.821L20.6096 22.6112C20.9465 22.325 21.2605 22.0132 21.5487 21.6786V21.6784ZM29.9208 29.7248L28.7101 30.9275C28.6028 31.0338 28.4574 31.0935 28.3058 31.0935C28.1542 31.0935 28.0088 31.0338 27.9015 30.9275L22.3375 25.4007C22.231 25.2938 22.1713 25.1494 22.1713 24.999C22.1713 24.8486 22.231 24.7043 22.3375 24.5974L23.5484 23.3947C23.6557 23.2884 23.8011 23.2286 23.9527 23.2286C24.1043 23.2286 24.2497 23.2884 24.357 23.3947L29.921 28.9215C30.0275 29.0284 30.0872 29.1728 30.0872 29.3232C30.0872 29.4736 30.0275 29.6179 29.921 29.7248L29.9208 29.7248ZM15.4973 13.14C15.4565 13.0739 15.3993 13.0193 15.3312 12.9815C15.2631 12.9436 15.1863 12.9237 15.1082 12.9237C15.0302 12.9237 14.9534 12.9436 14.8853 12.9815C14.8172 13.0193 14.76 13.0739 14.7192 13.14L13.4084 15.2624C12.7628 16.3074 12.6049 17.97 13.4748 18.8342C13.9087 19.2634 14.496 19.5044 15.1083 19.5044C15.7207 19.5044 16.308 19.2634 16.7419 18.8342C17.6118 17.9702 17.4537 16.3074 16.8083 15.2624L15.4973 13.14ZM16.0962 18.193C15.8335 18.4519 15.4783 18.5973 15.1082 18.5973C14.7381 18.5973 14.383 18.4519 14.1202 18.193C13.5904 17.6666 13.73 16.476 14.1866 15.7366L15.1083 14.2444L16.0298 15.7368C16.4865 16.476 16.626 17.6666 16.0962 18.193Z" fill="white"/>
</svg>
