<svg width="45" height="45" viewBox="0 0 45 45" fill="none" xmlns="http://www.w3.org/2000/svg">
<path d="M32.9701 0.785159C32.463 0.277994 31.6407 0.277994 31.1336 0.785159L25.6238 6.29488C25.1167 6.80204 25.1167 7.62426 25.6238 8.13143L26.5421 9.04965L1.94014 33.6517C-0.591536 36.1835 -0.591536 40.3029 1.94014 42.8345C4.47137 45.3659 8.59086 45.3665 11.1229 42.8345L35.7249 18.2326L36.6432 19.1509C37.1503 19.6579 37.9726 19.658 38.4798 19.1509L43.9895 13.6411C44.4967 13.134 44.4967 12.3118 43.9895 11.8046C43.3547 11.1698 33.6301 1.44522 32.9701 0.785159ZM32.0518 10.8864L35.725 7.2132L37.5615 9.04974L33.8884 12.7229L32.0518 10.8864ZM32.0518 3.54002L33.8884 5.37656L30.2153 9.04974L28.3787 7.2132L32.0518 3.54002ZM22.869 16.3959L24.7056 18.2326L10.2046 32.7334L8.3681 30.8969L22.869 16.3959ZM9.28642 40.998C7.76734 42.517 5.29567 42.517 3.77668 40.998C2.2577 39.4789 2.2577 37.0073 3.77668 35.4883L6.53155 32.7334L9.28642 35.4883C9.7935 35.9954 10.6158 35.9955 11.123 35.4883L27.4605 19.1509C27.9676 18.6437 27.9676 17.8215 27.4605 17.3143L24.7056 14.5595L28.3787 10.8864C29.0733 11.581 33.0555 15.5631 33.8884 16.3961L9.28642 40.998ZM37.5615 16.396C36.9462 15.7807 36.4071 15.2416 35.7249 14.5594L39.3981 10.8862L41.2347 12.7228L37.5615 16.396Z" fill="#F72A75"/>
</svg>
