<svg width="31" height="40" viewBox="0 0 31 40" fill="none" xmlns="http://www.w3.org/2000/svg">
<path d="M27.0545 5.16966H23.4848V3.57272C23.4848 3.05605 22.9212 2.82122 22.4046 2.82122H19.6334C18.9759 0.942435 17.3319 0.00304121 15.4531 0.00304121C13.595 -0.0668132 11.9049 1.07252 11.2728 2.82122H8.54858C8.03191 2.82122 7.51524 3.05605 7.51524 3.57272V5.16966H3.94547C1.83006 5.19223 0.0994324 6.861 0 8.97417V35.8877C0 37.9544 1.87879 39.4574 3.94547 39.4574H27.0545C29.1212 39.4574 31 37.9544 31 35.8877V8.97426C30.9006 6.861 29.1699 5.19223 27.0545 5.16966ZM9.39394 4.70001H11.9773C12.4282 4.64499 12.7905 4.30192 12.8698 3.85457C13.1479 2.64322 14.2107 1.77368 15.4531 1.74095C16.6841 1.77826 17.7308 2.6505 17.9895 3.85457C18.0737 4.31738 18.4598 4.66486 18.9288 4.70001H21.6061V8.45759H9.39394V4.70001ZM29.1212 35.8878C29.1212 36.9212 28.0879 37.5787 27.0545 37.5787H3.94547C2.91213 37.5787 1.87879 36.9212 1.87879 35.8878V8.97426C1.97462 7.89866 2.86574 7.06823 3.94547 7.04854H7.51515V9.444C7.56478 9.97029 8.02058 10.364 8.54849 10.3365H22.4045C22.9421 10.3659 23.4122 9.97757 23.4848 9.444V7.04845H27.0544C28.1341 7.06823 29.0253 7.89857 29.1211 8.97417V35.8878H29.1212Z" fill="white"/>
<path d="M11.8836 20.9987C11.5312 20.6273 10.9463 20.6063 10.5684 20.9517L7.56229 23.8169L6.29412 22.5017C5.94179 22.1303 5.35688 22.1094 4.97893 22.4547C4.6151 22.8359 4.6151 23.4357 4.97893 23.8169L6.90465 25.7896C7.07133 25.9762 7.31209 26.0794 7.5622 26.0714C7.80997 26.0679 8.04632 25.9666 8.21975 25.7896L11.8834 22.3139C12.2466 21.9807 12.2709 21.4161 11.9376 21.053C11.9205 21.034 11.9024 21.0159 11.8836 20.9987Z" fill="white"/>
<path d="M25.3635 23.0183H14.5605C14.0417 23.0183 13.6211 23.4389 13.6211 23.9577C13.6211 24.4765 14.0417 24.8971 14.5605 24.8971H25.3635C25.8823 24.8971 26.3029 24.4765 26.3029 23.9577C26.3029 23.4389 25.8823 23.0183 25.3635 23.0183Z" fill="white"/>
<path d="M11.8836 13.4835C11.5312 13.1122 10.9463 13.0912 10.5684 13.4366L7.56229 16.3017L6.29412 14.9865C5.94179 14.6151 5.35688 14.5942 4.97893 14.9396C4.6151 15.3208 4.6151 15.9205 4.97893 16.3017L6.90465 18.2745C7.07133 18.4611 7.31209 18.5643 7.5622 18.5563C7.80997 18.5528 8.04632 18.4515 8.21975 18.2745L11.8834 14.7987C12.2466 14.4655 12.2709 13.901 11.9376 13.5378C11.9205 13.5189 11.9024 13.5008 11.8836 13.4835Z" fill="white"/>
<path d="M25.3635 15.5032H14.5605C14.0417 15.5032 13.6211 15.9237 13.6211 16.4426C13.6211 16.9614 14.0417 17.382 14.5605 17.382H25.3635C25.8823 17.382 26.3029 16.9614 26.3029 16.4426C26.3029 15.9237 25.8823 15.5032 25.3635 15.5032Z" fill="white"/>
<path d="M11.8836 28.5135C11.5312 28.1421 10.9463 28.1213 10.5684 28.4666L7.56229 31.3317L6.29412 30.0165C5.94179 29.6451 5.35688 29.6243 4.97893 29.9696C4.6151 30.3508 4.6151 30.9505 4.97893 31.3317L6.90465 33.3045C7.07133 33.4911 7.31209 33.5943 7.5622 33.5863C7.80997 33.5828 8.04632 33.4815 8.21975 33.3045L11.8834 29.8287C12.2466 29.4955 12.2709 28.931 11.9376 28.5678C11.9205 28.549 11.9024 28.5309 11.8836 28.5135Z" fill="white"/>
<path d="M25.3635 30.5334H14.5605C14.0417 30.5334 13.6211 30.954 13.6211 31.4728C13.6211 31.9917 14.0417 32.4122 14.5605 32.4122H25.3635C25.8823 32.4122 26.3029 31.9917 26.3029 31.4728C26.3029 30.954 25.8823 30.5334 25.3635 30.5334Z" fill="white"/>
</svg>
