<svg width="23" height="14" viewBox="0 0 23 14" fill="none" xmlns="http://www.w3.org/2000/svg">
<path d="M22.4937 0.997121C22.1695 0.678816 21.7297 0.500002 21.2712 0.500002C20.8127 0.500002 20.373 0.678816 20.0487 0.997121L11.4896 9.40166L2.93037 0.997119C2.60426 0.687835 2.16747 0.516698 1.7141 0.520566C1.26073 0.524435 0.827043 0.702999 0.506448 1.0178C0.185853 1.3326 0.00400455 1.75846 6.58374e-05 2.20364C-0.00387478 2.64882 0.170413 3.07771 0.485387 3.39793L10.2671 13.0029C10.5913 13.3212 11.0311 13.5 11.4896 13.5C11.9481 13.5 12.3878 13.3212 12.7121 13.0029L22.4937 3.39793C22.8179 3.07953 23 2.64775 23 2.19753C23 1.74731 22.8179 1.31552 22.4937 0.997121Z" fill="white"/>
</svg>
