<svg width="28" height="28" viewBox="0 0 28 28" fill="none" xmlns="http://www.w3.org/2000/svg">
<path d="M-6.11959e-07 14C-2.74531e-07 6.28053 6.28053 2.74531e-07 14 6.11959e-07C21.7195 9.49388e-07 28 6.28053 28 14C28 21.7195 21.7195 28 14 28C6.28053 28 -9.49388e-07 21.7195 -6.11959e-07 14ZM26.25 14C26.25 7.24522 20.7548 1.75 14 1.75C7.24522 1.75 1.75 7.24522 1.75 14C1.75 20.7548 7.24522 26.25 14 26.25C20.7548 26.25 26.25 20.7548 26.25 14ZM13.3814 19.8686C13.7233 20.2105 14.2769 20.2105 14.6186 19.8686L18.9936 15.4936C19.1645 15.3228 19.25 15.0988 19.25 14.875C19.25 14.6512 19.1645 14.4272 18.9936 14.2564C18.6517 13.9145 18.0981 13.9145 17.7564 14.2564L14.875 17.1378L14.875 8.75C14.875 8.26678 14.4837 7.875 14 7.875C13.5163 7.875 13.125 8.26678 13.125 8.75L13.125 17.1378L10.2436 14.2564C9.90172 13.9145 9.34806 13.9145 9.00637 14.2564C8.66469 14.5983 8.66447 15.1519 9.00637 15.4936L13.3814 19.8686Z" fill="#188C99"/>
</svg>
