<svg width="35" height="47" viewBox="0 0 35 47" fill="none" xmlns="http://www.w3.org/2000/svg">
<path d="M12.3811 22.1637C13.1129 22.1637 13.7062 21.5704 13.7062 20.8386C13.7062 20.1067 13.1129 19.5134 12.3811 19.5134C11.6492 19.5134 11.056 20.1067 11.056 20.8386C11.056 21.5704 11.6492 22.1637 12.3811 22.1637Z" fill="#0E63FF"/>
<path d="M17.6815 22.1637C18.4134 22.1637 19.0066 21.5704 19.0066 20.8386C19.0066 20.1067 18.4134 19.5134 17.6815 19.5134C16.9497 19.5134 16.3564 20.1067 16.3564 20.8386C16.3564 21.5704 16.9497 22.1637 17.6815 22.1637Z" fill="#0E63FF"/>
<path d="M22.9822 22.1637C23.7141 22.1637 24.3074 21.5704 24.3074 20.8386C24.3074 20.1067 23.7141 19.5134 22.9822 19.5134C22.2504 19.5134 21.6571 20.1067 21.6571 20.8386C21.6571 21.5704 22.2504 22.1637 22.9822 22.1637Z" fill="#0E63FF"/>
<path d="M28.2827 0.785034H7.0807C3.42733 0.785034 0.455078 3.75729 0.455078 7.41065V34.0898C0.455078 37.7432 3.42733 40.7154 7.0807 40.7154H8.40582V42.0406C8.40582 44.2326 10.1892 46.0159 12.3812 46.0159H22.9822C25.1742 46.0159 26.9576 44.2326 26.9576 42.0406V40.7154H28.2827C31.936 40.7154 34.9083 37.7432 34.9083 34.0898V7.41065C34.9083 3.75729 31.936 0.785034 28.2827 0.785034ZM24.3073 42.0406C24.3073 42.7712 23.7129 43.3657 22.9822 43.3657H12.3812C11.6505 43.3657 11.0561 42.7712 11.0561 42.0406V27.4642H24.3073V42.0406ZM32.2581 34.0898C32.2581 36.2818 30.4747 38.0652 28.2827 38.0652H26.9576V27.4642H28.2827C29.0145 27.4642 29.6078 26.8709 29.6078 26.1391C29.6078 25.4072 29.0145 24.8139 28.2827 24.8139C28.082 24.8139 7.27019 24.8139 7.0807 24.8139C6.34888 24.8139 5.75557 25.4072 5.75557 26.1391C5.75557 26.8709 6.34888 27.4642 7.0807 27.4642H8.40582V38.0652H7.0807C4.88868 38.0652 3.10533 36.2818 3.10533 34.0898V7.41065C3.10533 5.21863 4.88868 3.43528 7.0807 3.43528H28.2827C30.4747 3.43528 32.2581 5.21863 32.2581 7.41065V34.0898Z" fill="#0E63FF"/>
<path d="M28.2827 6.08569H7.08074C6.34892 6.08569 5.75562 6.679 5.75562 7.41082V15.5382C5.75562 16.2701 6.34892 16.8634 7.08074 16.8634H28.2827C29.0145 16.8634 29.6078 16.2701 29.6078 15.5382V7.41082C29.6078 6.679 29.0145 6.08569 28.2827 6.08569ZM26.9576 14.2131H8.40586V8.73594H26.9576V14.2131Z" fill="#0E63FF"/>
<path d="M21.2275 34.9411L18.8632 30.2872C18.6373 29.8424 18.1807 29.5623 17.6819 29.5623C17.183 29.5623 16.7264 29.8424 16.5005 30.2872L14.1363 34.9409C13.8551 35.4941 13.7065 36.1163 13.7065 36.74C13.7065 38.932 15.4898 40.7154 17.6819 40.7154C19.8739 40.7154 21.6572 38.932 21.6572 36.74C21.6572 36.1163 21.5086 35.4941 21.2275 34.9411ZM17.6819 38.0651C16.9512 38.0651 16.3567 37.4707 16.3567 36.74C16.3567 36.5286 16.4046 36.3273 16.499 36.1415L17.6819 33.8131L18.8648 36.1416C18.9592 36.3273 19.007 36.5285 19.007 36.7399C19.007 37.4707 18.4125 38.0651 17.6819 38.0651Z" fill="#0E63FF"/>
</svg>
