<svg width="60" height="60" viewBox="0 0 60 60" fill="none" xmlns="http://www.w3.org/2000/svg">
<g clip-path="url(#clip0_1_747)">
<path d="M57.0572 15.2248H46.2666C48.7861 12.7052 50.7224 10.769 53.2691 8.22224C54.1419 7.34989 54.1424 5.92571 53.2691 5.05302L50.1777 1.96138C49.3037 1.08774 47.8823 1.08774 47.0085 1.96138C42.2468 6.72306 38.7572 10.2127 33.7451 15.2248H13.866V7.46685C13.866 6.99692 13.4852 6.61618 13.0153 6.61618H6.98121C3.6123 6.61618 0.793945 9.34114 0.793945 12.8032V33.8262C0.793945 34.2961 1.17469 34.6768 1.64461 34.6768C2.11453 34.6768 2.49527 34.2961 2.49527 33.8262V12.8031C2.49527 10.2833 4.54922 8.31739 6.98121 8.31739H12.1646V46.3138H6.98121C5.23547 46.3138 3.61805 47.053 2.49527 48.2386C2.49527 44.5863 2.49527 41.9554 2.49527 38.1871C2.49527 37.7172 2.11453 37.3364 1.64461 37.3364C1.17469 37.3364 0.793945 37.7172 0.793945 38.1871V52.5008C0.793945 55.9157 3.56941 58.6936 6.98121 58.6936H57.0573C58.2422 58.6936 59.2064 57.7294 59.2064 56.5443V17.3741C59.2063 16.1889 58.2422 15.2248 57.0572 15.2248ZM38.5536 23.4445V28.1572H33.1774V25.8672L35.7666 25.487C36.0751 25.4418 36.2827 25.1937 36.3395 25.152L38.0469 23.4445H38.5536ZM43.9015 40.6904H39.4042C38.9343 40.6904 38.5535 41.0712 38.5535 41.5411V46.5147H21.5289V41.2861H27.9033C28.3732 41.2861 28.7539 40.9054 28.7539 40.4354V35.3879H35.1098C35.5798 35.3879 35.9605 35.0072 35.9605 34.5373V29.8586H48.6906V46.5147H40.2548V42.3918H43.9015C44.3714 42.3918 44.7522 42.011 44.7522 41.5411C44.7522 41.0712 44.3714 40.6904 43.9015 40.6904ZM30.7226 24.5081L31.205 21.221L33.9714 23.9871C33.9932 23.9979 34.0143 24.0106 34.0359 24.0215L30.7226 24.5081ZM29.1135 26.1172C29.3034 26.3074 29.5724 26.3966 29.8384 26.3574L31.4761 26.1169V28.1572H26.0999V23.4445H29.1593L28.8735 25.3923C28.8343 25.6584 28.9232 25.9273 29.1135 26.1172ZM34.2593 29.8586V33.6866H27.9034C27.4335 33.6866 27.0527 34.0674 27.0527 34.5373V39.5848H21.529V29.8586H34.2593ZM35.7379 23.3475L31.883 19.4929L45.2166 6.15903L49.0714 10.0142L35.7379 23.3475ZM52.0662 7.01931L50.2743 8.81087L46.4194 4.95599L48.2113 3.16407C48.4154 2.95993 48.7706 2.96052 48.9744 3.16407L52.0661 6.25571C52.2766 6.4663 52.2766 6.80884 52.0662 7.01931ZM57.505 56.5444C57.505 56.7914 57.3042 56.9924 57.0572 56.9924H6.98121C4.50762 56.9924 2.49527 54.9776 2.49527 52.5009C2.49527 49.9812 4.54922 48.0152 6.98121 48.0152H13.0153C13.4852 48.0152 13.866 47.6345 13.866 47.1646V16.9261H32.0438L30.0785 18.8913C30.0393 18.9483 29.7934 19.1204 29.7435 19.4643L29.409 21.7432H25.2492C24.7793 21.7432 24.3986 22.124 24.3986 22.5939V28.1572H20.6783C20.2084 28.1572 19.8277 28.538 19.8277 29.0079V47.3653C19.8277 47.8352 20.2084 48.216 20.6783 48.216H49.5415C50.0114 48.216 50.3922 47.8352 50.3922 47.3653V29.0079C50.3922 28.538 50.0114 28.1572 49.5415 28.1572H40.2551V22.5939C40.2551 22.2263 40.0207 21.9162 39.6943 21.7972L44.5655 16.9261H57.0574C57.3045 16.9261 57.5052 17.1272 57.5052 17.3741V56.5444H57.505Z" fill="#188C99"/>
</g>
<defs>
<clipPath id="clip0_1_747">
<rect width="60" height="60" fill="white"/>
</clipPath>
</defs>
</svg>
