<svg width="39" height="38" viewBox="0 0 39 38" fill="none" xmlns="http://www.w3.org/2000/svg">
<path d="M19.7201 0C9.30447 0 0.830566 8.47391 0.830566 18.8896C0.830566 29.3045 9.30447 37.7791 19.7201 37.7791C30.135 37.7791 38.6097 29.3045 38.6097 18.8896C38.6097 8.47391 30.1366 0 19.7201 0ZM24.4178 19.5546H21.3446V30.5082H16.7908C16.7908 30.5082 16.7908 24.5231 16.7908 19.5546H14.6261V15.6832H16.7908V13.1792C16.7908 11.3858 17.6429 8.58347 21.3865 8.58347L24.761 8.59641V12.3544C24.761 12.3544 22.7104 12.3544 22.3117 12.3544C21.913 12.3544 21.3461 12.5537 21.3461 13.409V15.684H24.8157L24.4178 19.5546Z" fill="#188C99"/>
</svg>
