<svg width="71" height="54" viewBox="0 0 71 54" fill="none" xmlns="http://www.w3.org/2000/svg">
<path d="M55.4769 53.1945H44.0014H40.9113H40.244V37.5852H45.2781C46.5548 37.5852 47.3092 36.114 46.5548 35.0547L36.7622 21.3138C36.1383 20.4311 34.8472 20.4311 34.2233 21.3138L24.4307 35.0547C23.6763 36.114 24.4162 37.5852 25.7074 37.5852H30.7415V53.1945H30.0742H26.9841H13.6806C6.06416 52.7678 0 45.5443 0 37.7176C0 32.3183 2.887 27.6105 7.16674 25.0653C6.77503 23.9914 6.57192 22.8438 6.57192 21.6375C6.57192 16.1205 10.9677 11.6628 16.4081 11.6628C17.5832 11.6628 18.7148 11.8688 19.7738 12.266C22.9219 5.49851 29.7115 0.80542 37.6036 0.80542C47.8169 0.820132 56.2313 8.74984 57.1888 18.8569C65.0374 20.2251 71 27.5958 71 35.9374C71 44.8528 64.1524 52.5766 55.4769 53.1945Z" fill="#188C99"/>
</svg>
