<svg width="346" height="560" viewBox="0 0 346 560" fill="none" xmlns="http://www.w3.org/2000/svg">
<path d="M249.973 2.85778L219.038 11.1468C218.653 10.1727 217.586 9.58842 216.543 9.86783C215.423 10.1679 214.773 11.2952 215.073 12.4163C215.249 13.0736 215.763 13.5989 216.358 13.8124L208.06 44.7922C207.759 44.7487 207.468 44.7438 207.197 44.8162C206.078 45.1163 205.427 46.2435 205.728 47.3647C206.028 48.4858 207.155 49.137 208.275 48.8369C208.584 48.7541 208.833 48.6044 209.034 48.4263L231.71 71.1068C231.301 71.5893 231.119 72.3009 231.295 72.9582C231.472 73.6154 231.985 74.1408 232.58 74.3542L224.282 105.334C223.981 105.291 223.69 105.286 223.42 105.358C222.3 105.658 221.65 106.785 221.95 107.907C222.25 109.028 223.377 109.679 224.497 109.379C224.806 109.296 225.056 109.146 225.256 108.968L247.932 131.649C247.523 132.131 247.341 132.843 247.518 133.5C247.611 133.848 247.771 134.137 248.008 134.404C248.235 134.634 248.49 134.814 248.764 134.906L240.466 165.886C240.165 165.843 239.874 165.838 239.603 165.91C238.56 166.19 237.928 167.229 238.082 168.265L207.147 176.554C206.762 175.58 205.694 174.996 204.652 175.276C204.343 175.358 204.093 175.508 203.892 175.686L181.217 153.006C181.625 152.523 181.807 151.811 181.631 151.154C181.331 150.033 180.204 149.382 179.084 149.682C178.041 149.961 177.409 151.001 177.563 152.037L146.628 160.326C146.243 159.352 145.175 158.768 144.133 159.047C143.824 159.13 143.574 159.28 143.374 159.458L120.698 136.777C121.106 136.295 121.288 135.583 121.112 134.926C120.812 133.805 119.685 133.154 118.565 133.454C117.523 133.733 116.89 134.773 117.044 135.809L86.1089 144.098C85.7237 143.124 84.6565 142.54 83.6138 142.819C82.4938 143.119 81.8438 144.246 82.1442 145.367C82.3203 146.025 82.8336 146.55 83.4289 146.763L75.1312 177.743C74.8298 177.7 74.5387 177.695 74.2684 177.767C73.1484 178.067 72.4984 179.195 72.7988 180.316C73.0992 181.437 74.2257 182.088 75.3458 181.788C75.6547 181.705 75.9043 181.556 76.105 181.377L98.7809 204.058C98.3721 204.54 98.1902 205.252 98.3663 205.909C98.5424 206.567 99.0558 207.092 99.6511 207.305L91.3534 238.285C91.3534 238.285 91.3148 238.296 91.3044 238.257C91.0416 238.203 90.7609 238.237 90.4906 238.309C89.4478 238.589 88.8157 239.628 88.9692 240.664L58.0342 248.953C57.649 247.979 56.5818 247.395 55.5391 247.674C54.4191 247.975 53.7691 249.102 54.0695 250.223C54.2456 250.88 54.7589 251.406 55.3542 251.619L47.0565 282.599C46.7551 282.555 46.4641 282.55 46.1937 282.623C45.151 282.902 44.5189 283.942 44.6723 284.978L13.7374 293.267C13.3522 292.293 12.285 291.709 11.2423 291.988C10.1223 292.288 9.47225 293.415 9.77266 294.536C9.94877 295.194 10.4621 295.719 11.0574 295.933L2.75976 326.912C2.45831 326.869 2.16723 326.864 1.89686 326.936C0.77688 327.236 0.126925 328.364 0.427337 329.485C0.727742 330.606 1.85422 331.257 2.97419 330.957C3.28318 330.874 3.53283 330.724 3.73351 330.546L26.4094 353.227C26.0006 353.709 25.8187 354.421 25.9948 355.078C26.2952 356.199 27.4218 356.851 28.5417 356.551C29.5845 356.271 30.2166 355.232 30.0631 354.195L60.998 345.906C61.1195 346.205 61.2693 346.455 61.4859 346.646C61.9889 347.133 62.7594 347.382 63.4932 347.185C63.8022 347.103 64.0518 346.953 64.2524 346.775L86.9284 369.455C86.5195 369.938 86.3377 370.649 86.5138 371.307C86.8142 372.428 87.9407 373.079 89.0607 372.779C90.1035 372.499 90.7356 371.46 90.5821 370.424L121.517 362.135C121.68 362.588 122.026 362.951 122.428 363.217C122.869 363.471 123.471 363.558 124.012 363.414C124.321 363.331 124.571 363.181 124.771 363.003L147.447 385.683C147.039 386.166 146.857 386.878 147.033 387.535C147.126 387.883 147.286 388.171 147.523 388.439C147.75 388.669 148.006 388.849 148.289 388.98L139.992 419.96C139.69 419.916 139.399 419.911 139.129 419.984C138.009 420.284 137.359 421.411 137.659 422.532C137.96 423.653 139.086 424.305 140.206 424.004C140.515 423.922 140.765 423.772 140.965 423.594L163.641 446.274C163.232 446.757 163.051 447.469 163.227 448.126C163.32 448.474 163.48 448.762 163.717 449.03C163.944 449.259 164.2 449.44 164.473 449.532L156.175 480.512C155.874 480.468 155.583 480.464 155.312 480.536C154.27 480.815 153.637 481.855 153.791 482.891L122.856 491.18C122.471 490.206 121.404 489.622 120.361 489.901C119.241 490.201 118.591 491.329 118.891 492.45C119.067 493.107 119.581 493.632 120.176 493.846L111.878 524.826C111.577 524.782 111.286 524.777 111.015 524.85C109.895 525.15 109.245 526.277 109.546 527.398C109.846 528.519 110.973 529.17 112.093 528.87C112.402 528.787 112.651 528.638 112.852 528.46L135.528 551.14C135.119 551.623 134.937 552.334 135.113 552.992C135.414 554.113 136.54 554.764 137.66 554.464C138.703 554.184 139.335 553.145 139.182 552.109L170.117 543.82C170.28 544.273 170.625 544.636 171.027 544.902C171.468 545.156 172.071 545.243 172.612 545.099C172.921 545.016 173.17 544.866 173.371 544.688L196.047 567.368C195.638 567.851 195.456 568.563 195.632 569.22C195.933 570.341 197.059 570.992 198.179 570.692C199.222 570.413 199.854 569.373 199.701 568.337L230.636 560.048C231.021 561.022 232.088 561.606 233.131 561.327C234.251 561.027 234.901 559.899 234.6 558.778C234.424 558.121 233.911 557.596 233.316 557.382L241.613 526.402C241.915 526.446 242.206 526.451 242.476 526.378C243.519 526.099 244.151 525.059 243.997 524.023L274.932 515.734C275.095 516.188 275.441 516.551 275.843 516.816C276.284 517.071 276.887 517.158 277.428 517.013C277.737 516.93 277.986 516.781 278.187 516.603L300.863 539.283C300.683 539.538 300.513 539.833 300.47 540.134C300.388 540.446 300.404 540.815 300.497 541.163C300.673 541.82 301.187 542.345 301.782 542.559L293.484 573.539C293.183 573.495 292.892 573.49 292.621 573.563C291.501 573.863 290.851 574.99 291.152 576.111C291.452 577.232 292.579 577.883 293.699 577.583C294.008 577.501 294.257 577.351 294.458 577.173L317.134 599.853C316.725 600.336 316.543 601.047 316.719 601.705C316.792 601.975 316.903 602.236 317.081 602.436C317.329 602.743 317.633 602.952 318.004 603.101L309.706 634.081C309.405 634.037 309.114 634.032 308.843 634.105C307.724 634.405 307.073 635.532 307.374 636.653C307.674 637.774 308.801 638.425 309.921 638.125C310.23 638.042 310.479 637.893 310.68 637.715L333.356 660.395C332.947 660.878 332.765 661.589 332.941 662.247C333.242 663.368 334.368 664.019 335.488 663.719C336.531 663.439 337.163 662.4 337.01 661.364L367.945 653.075C368.33 654.049 369.397 654.633 370.44 654.354C371.56 654.053 372.21 652.926 371.909 651.805C371.733 651.148 371.22 650.622 370.625 650.409L378.922 619.429C379.224 619.473 379.515 619.478 379.824 619.395C380.867 619.115 381.499 618.076 381.345 617.04L412.28 608.751C412.665 609.725 413.732 610.309 414.775 610.03C415.895 609.729 416.545 608.602 416.245 607.481C416.069 606.824 415.555 606.298 414.96 606.085L423.258 575.105C423.559 575.149 423.85 575.154 424.121 575.081C425.163 574.802 425.795 573.762 425.642 572.726L456.577 564.437C456.74 564.891 457.086 565.254 457.488 565.519C457.929 565.774 458.531 565.861 459.072 565.716C459.381 565.633 459.631 565.483 459.831 565.305L482.719 588.468C482.31 588.95 482.128 589.662 482.305 590.319C482.605 591.44 483.731 592.091 484.851 591.791C485.894 591.512 486.526 590.472 486.373 589.436L517.308 581.147C517.693 582.121 518.76 582.706 519.803 582.426C520.923 582.126 521.573 580.999 521.273 579.878C521.096 579.22 520.583 578.695 519.988 578.482L528.285 547.502C528.587 547.545 528.878 547.55 529.148 547.478C530.268 547.178 530.918 546.05 530.618 544.929C530.317 543.808 529.191 543.157 528.071 543.457C527.762 543.54 527.512 543.69 527.312 543.868L504.636 521.187C505.045 520.705 505.226 519.993 505.05 519.336C504.874 518.679 504.361 518.153 503.766 517.94L512.063 486.96C512.365 487.003 512.656 487.008 512.926 486.936C513.814 486.698 514.431 485.911 514.474 484.988C514.481 484.862 514.479 484.697 514.448 484.581L545.383 476.292C545.768 477.266 546.835 477.85 547.878 477.571C548.998 477.271 549.648 476.143 549.347 475.022C549.171 474.365 548.658 473.84 548.062 473.626L556.36 442.646C556.662 442.69 556.953 442.695 557.223 442.622C558.266 442.343 558.898 441.303 558.744 440.267L589.679 431.978C589.842 432.432 590.188 432.795 590.59 433.06C591.031 433.315 591.634 433.402 592.174 433.257C592.483 433.174 592.733 433.025 592.934 432.846L615.656 455.39C615.247 455.873 615.065 456.584 615.241 457.242C615.542 458.363 616.668 459.014 617.788 458.714C618.831 458.435 619.463 457.395 619.31 456.359L650.244 448.07C650.63 449.044 651.697 449.628 652.74 449.349C653.86 449.049 654.51 447.921 654.209 446.8C654.033 446.143 653.52 445.618 652.924 445.404L661.222 414.424C661.524 414.468 661.815 414.473 662.085 414.4C663.205 414.1 663.855 412.973 663.555 411.852C663.254 410.731 662.128 410.08 661.008 410.38C660.699 410.462 660.449 410.612 660.248 410.79L637.572 388.11C637.981 387.627 638.163 386.916 637.987 386.258C637.811 385.601 637.298 385.076 636.702 384.862L645 353.882C645.301 353.926 645.592 353.931 645.863 353.858C646.983 353.558 647.633 352.431 647.332 351.31C647.032 350.189 645.905 349.538 644.785 349.838C644.476 349.921 644.227 350.07 644.026 350.248L621.35 327.568C621.759 327.085 621.941 326.374 621.765 325.717C621.464 324.595 620.338 323.944 619.218 324.244C618.175 324.524 617.543 325.563 617.697 326.599L586.762 334.888C586.376 333.914 585.309 333.33 584.266 333.61C583.958 333.692 583.708 333.842 583.507 334.02L560.831 311.34C561.24 310.857 561.422 310.145 561.246 309.488C561.07 308.831 560.556 308.306 559.961 308.092L568.231 277.161C568.493 277.215 568.823 277.21 569.093 277.137C569.518 277.024 569.873 276.804 570.12 276.489C570.539 276.045 570.703 275.421 570.615 274.782L601.55 266.493C601.935 267.467 603.002 268.052 604.045 267.772C605.165 267.472 605.815 266.345 605.514 265.224C605.338 264.566 604.825 264.041 604.23 263.828L612.527 232.848C612.829 232.891 613.12 232.896 613.39 232.824C614.433 232.544 615.065 231.505 614.912 230.469L645.885 222.169C646.27 223.143 647.338 223.728 648.38 223.448C649.5 223.148 650.15 222.021 649.85 220.9C649.674 220.243 649.16 219.717 648.565 219.504L656.801 188.292C657.102 188.335 657.393 188.34 657.664 188.268C658.784 187.968 659.434 186.841 659.133 185.719C658.833 184.598 657.706 183.947 656.586 184.247C656.277 184.33 656.028 184.48 655.827 184.658L633.151 161.977C633.56 161.495 633.742 160.783 633.566 160.126C633.265 159.005 632.139 158.354 631.019 158.654C629.976 158.933 629.344 159.973 629.497 161.009L598.562 169.298C598.177 168.324 597.11 167.74 596.067 168.019C595.758 168.102 595.509 168.251 595.308 168.43L572.632 145.749C573.041 145.267 573.223 144.555 573.047 143.898C572.746 142.776 571.62 142.125 570.5 142.425C569.457 142.705 568.825 143.744 568.978 144.781L538.043 153.07C537.658 152.095 536.591 151.511 535.548 151.791C535.239 151.873 534.99 152.023 534.789 152.201L512.113 129.521C512.522 129.038 512.704 128.327 512.528 127.669C512.352 127.012 511.838 126.487 511.243 126.273L519.541 95.2935C519.842 95.337 520.133 95.3419 520.403 95.2695C521.523 94.9694 522.173 93.8421 521.873 92.721C521.573 91.5999 520.446 90.9487 519.326 91.2488C519.017 91.3316 518.768 91.4814 518.567 91.6594L495.891 68.9789C496.3 68.4965 496.482 67.7848 496.306 67.1275C496.005 66.0064 494.879 65.3552 493.759 65.6553C492.716 65.9347 492.084 66.9743 492.237 68.0104L461.302 76.2994C460.917 75.3253 459.85 74.7411 458.807 75.0205C457.687 75.3206 457.037 76.4478 457.338 77.569C457.514 78.2262 458.027 78.7516 458.622 78.965L450.325 109.945C450.023 109.901 449.732 109.896 449.462 109.969C448.419 110.248 447.787 111.288 447.94 112.324L416.967 120.623C416.876 120.44 416.786 120.257 416.657 120.085C416.151 119.433 415.321 119.117 414.472 119.344C414.163 119.427 413.913 119.577 413.712 119.755L391.037 97.0746C391.445 96.5921 391.627 95.8804 391.451 95.2232C391.151 94.102 390.024 93.4509 388.904 93.751C387.861 94.0304 387.229 95.0699 387.383 96.1061L356.448 104.395C356.112 103.449 355.142 102.922 354.146 103.064C354.069 103.085 353.991 103.106 353.953 103.116C353.875 103.137 353.798 103.158 353.76 103.168C353.538 103.269 353.355 103.359 353.183 103.488L330.507 80.8076C330.916 80.3251 331.098 79.6135 330.922 78.9563C330.746 78.299 330.232 77.7736 329.637 77.5602L337.935 46.5804C338.236 46.6239 338.527 46.6288 338.798 46.5564C339.918 46.2563 340.568 45.129 340.267 44.0079C339.967 42.8867 338.84 42.2356 337.72 42.5357C337.411 42.6185 337.162 42.7682 336.961 42.9463L314.285 20.2658C314.694 19.7833 314.876 19.0717 314.7 18.4144C314.399 17.2933 313.273 16.642 312.153 16.9421C311.11 17.2215 310.478 18.2611 310.631 19.2973L279.696 27.5863C279.311 26.6122 278.244 26.028 277.201 26.3074C276.892 26.3902 276.643 26.5399 276.442 26.718L253.766 4.03752C254.175 3.55504 254.357 2.84334 254.181 2.18611C253.88 1.06495 252.754 0.413799 251.634 0.713896C250.452 0.78207 249.809 1.78294 249.973 2.85778ZM243.174 522.959C242.733 522.705 242.131 522.617 241.59 522.762C241.281 522.845 241.031 522.995 240.831 523.173L218.155 500.492C218.564 500.01 218.745 499.298 218.569 498.641C218.393 497.984 217.88 497.458 217.285 497.245L224.606 469.883L225.582 466.265C225.884 466.309 226.175 466.314 226.445 466.241C227.488 465.962 228.12 464.922 227.966 463.886L258.901 455.597C259.013 455.857 259.162 456.107 259.34 456.308C259.854 456.834 260.624 457.083 261.397 456.876C261.706 456.793 261.955 456.643 262.156 456.465L284.832 479.146C284.423 479.628 284.241 480.34 284.417 480.997C284.593 481.654 285.107 482.18 285.702 482.393L277.404 513.373C277.103 513.33 276.812 513.325 276.541 513.397C275.499 513.677 274.867 514.716 275.02 515.752L244.085 524.041C243.922 523.588 243.615 523.214 243.174 522.959ZM522.208 319.824C522.384 320.481 522.898 321.007 523.493 321.22L515.195 352.2C514.894 352.156 514.603 352.152 514.332 352.224C513.29 352.503 512.658 353.543 512.811 354.579L481.876 362.868C481.765 362.608 481.615 362.358 481.437 362.157C480.924 361.632 480.153 361.382 479.381 361.589C479.072 361.672 478.822 361.822 478.622 362L455.984 339.309C456.231 338.994 456.39 338.662 456.413 338.283C456.467 338.02 456.433 337.739 456.35 337.429C456.174 336.772 455.661 336.247 455.065 336.033L463.335 305.102L463.373 305.092C463.636 305.146 463.917 305.112 464.187 305.04C465.037 304.812 465.597 304.123 465.709 303.306C465.735 303.092 465.722 302.888 465.709 302.685L496.644 294.396C497.029 295.37 498.096 295.954 499.139 295.674C499.448 295.592 499.697 295.442 499.937 295.254L522.612 317.934C522.214 318.455 522.022 319.128 522.208 319.824ZM441.964 501.558C440.921 501.837 440.289 502.877 440.442 503.913L409.507 512.202C409.122 511.228 408.055 510.644 407.012 510.923C406.703 511.006 406.454 511.156 406.253 511.334L383.577 488.653C383.986 488.171 384.168 487.459 383.992 486.802C383.826 486.183 383.4 485.676 382.844 485.452C382.795 485.424 382.756 485.434 382.707 485.406L391.005 454.426C391.306 454.47 391.597 454.474 391.867 454.402C392.91 454.123 393.542 453.083 393.389 452.047L424.324 443.758C424.709 444.732 425.776 445.316 426.819 445.037C427.128 444.954 427.378 444.804 427.578 444.626L450.244 467.268C449.969 467.632 449.792 468.052 449.79 468.508C449.764 468.722 449.816 468.916 449.878 469.148C450.054 469.805 450.568 470.33 451.163 470.544L442.865 501.524C442.553 501.441 442.273 501.475 441.964 501.558ZM227.853 463.461C227.467 462.487 226.4 461.902 225.357 462.182C225.048 462.265 224.799 462.414 224.598 462.592L201.922 439.912C202.331 439.429 202.513 438.718 202.337 438.061C202.171 437.442 201.745 436.935 201.189 436.711C201.14 436.682 201.101 436.693 201.052 436.664L209.35 405.685C209.651 405.728 209.942 405.733 210.213 405.661C211.255 405.381 211.887 404.342 211.734 403.305L242.669 395.016C242.759 395.199 242.85 395.382 242.979 395.555C243.485 396.207 244.314 396.523 245.164 396.295C245.473 396.213 245.723 396.063 245.923 395.885L268.599 418.565C268.19 419.048 268.009 419.759 268.185 420.417C268.33 420.958 268.696 421.398 269.147 421.692C269.245 421.748 269.343 421.805 269.431 421.823L261.133 452.803C260.832 452.759 260.541 452.754 260.27 452.827C259.228 453.106 258.595 454.146 258.749 455.182L227.853 463.461ZM186.094 377.441C186.001 377.093 185.83 376.766 185.603 376.537C185.376 376.308 185.121 376.127 184.848 376.035L193.146 345.055C193.447 345.099 193.738 345.104 194.008 345.031C195.051 344.752 195.683 343.712 195.53 342.676L226.465 334.387C226.555 334.57 226.646 334.753 226.775 334.925C227.28 335.577 228.11 335.894 228.96 335.666C229.269 335.583 229.518 335.433 229.719 335.255L252.395 357.936C251.986 358.418 251.804 359.13 251.98 359.787C252.053 360.058 252.164 360.318 252.342 360.519C252.471 360.692 252.628 360.815 252.786 360.939C252.933 361.024 253.08 361.109 253.265 361.183L244.967 392.163C244.666 392.12 244.375 392.115 244.105 392.187C243.255 392.415 242.695 393.104 242.582 393.921C242.557 394.135 242.57 394.339 242.583 394.542L211.648 402.831C211.537 402.571 211.387 402.321 211.209 402.12C210.696 401.595 209.926 401.345 209.153 401.552C208.844 401.635 208.595 401.785 208.394 401.963L185.718 379.282C186.078 378.772 186.27 378.099 186.094 377.441ZM169.851 316.822C169.675 316.165 169.162 315.639 168.566 315.426L175.888 288.064L176.864 284.446C177.165 284.49 177.457 284.495 177.727 284.422C178.77 284.143 179.402 283.103 179.248 282.067L210.183 273.778C210.294 274.038 210.444 274.288 210.622 274.489C211.135 275.015 211.906 275.264 212.678 275.057C212.987 274.974 213.237 274.824 213.438 274.646L236.113 297.327C235.705 297.809 235.523 298.521 235.699 299.178C235.875 299.836 236.388 300.361 236.984 300.574L228.686 331.554C228.385 331.511 228.093 331.506 227.823 331.578C226.78 331.858 226.148 332.897 226.302 333.933L195.367 342.222C195.276 342.039 195.186 341.856 195.057 341.684C194.551 341.032 193.721 340.716 192.872 340.943C192.563 341.026 192.313 341.176 192.112 341.354L169.437 318.674C169.845 318.191 170.027 317.479 169.851 316.822ZM420.192 218.087C420.697 218.738 421.527 219.055 422.377 218.827C422.686 218.744 422.935 218.594 423.136 218.416L445.812 241.097C445.403 241.579 445.221 242.291 445.397 242.948C445.574 243.606 446.087 244.131 446.682 244.344L438.384 275.324L438.346 275.335C438.083 275.281 437.802 275.314 437.532 275.387C436.489 275.666 435.857 276.706 436.011 277.742L405.076 286.031C404.802 285.317 404.123 284.794 403.394 284.7C403.132 284.646 402.851 284.68 402.581 284.752C402.272 284.835 402.022 284.985 401.821 285.163L379.145 262.482C379.554 262 379.736 261.288 379.56 260.631C379.384 259.974 378.871 259.448 378.275 259.235L386.573 228.255C386.787 228.281 387.001 228.306 387.232 228.244C387.309 228.223 387.387 228.203 387.425 228.192C388.468 227.913 389.1 226.873 388.947 225.837L419.882 217.548C419.982 217.77 420.073 217.953 420.192 218.087ZM461.64 303.568C461.827 304.263 462.33 304.75 462.925 304.964L454.656 335.894C454.354 335.851 454.063 335.846 453.793 335.918C452.943 336.146 452.383 336.835 452.27 337.652C452.245 337.866 452.258 338.07 452.271 338.274L421.336 346.563C421.225 346.302 421.076 346.052 420.898 345.851C420.384 345.326 419.614 345.077 418.841 345.284C418.532 345.366 418.283 345.516 418.082 345.694L395.406 323.014C395.815 322.531 395.997 321.82 395.821 321.162C395.686 320.66 395.418 320.276 395.015 320.011C394.868 319.926 394.722 319.841 394.536 319.766L402.834 288.786L402.872 288.776C403.135 288.83 403.416 288.796 403.686 288.724C404.729 288.444 405.361 287.405 405.208 286.369L436.142 278.08C436.305 278.533 436.651 278.896 437.053 279.162C437.298 279.303 437.533 279.406 437.824 279.411C438.087 279.465 438.367 279.431 438.638 279.359C438.947 279.276 439.196 279.126 439.397 278.948L462.034 301.639C461.656 302.237 461.464 302.91 461.64 303.568ZM230.419 333.079C230.347 332.808 230.235 332.548 230.057 332.347C229.859 332.069 229.593 331.85 229.271 331.729C229.222 331.701 229.183 331.711 229.134 331.683L237.432 300.703C237.733 300.746 238.024 300.751 238.295 300.679C239.338 300.399 239.97 299.36 239.816 298.324L270.751 290.035C270.862 290.295 271.012 290.545 271.19 290.746C271.703 291.271 272.474 291.521 273.246 291.314C273.555 291.231 273.805 291.081 274.006 290.903L296.681 313.584C296.273 314.066 296.091 314.778 296.267 315.435C296.339 315.705 296.451 315.966 296.629 316.167C296.688 316.234 296.698 316.272 296.758 316.339C296.985 316.569 297.24 316.749 297.513 316.841L289.215 347.821C288.914 347.778 288.623 347.773 288.352 347.845C287.31 348.125 286.678 349.164 286.831 350.2L255.896 358.489C255.806 358.306 255.715 358.123 255.586 357.951C255.081 357.299 254.251 356.983 253.401 357.21C253.092 357.293 252.842 357.443 252.642 357.621L229.966 334.94C230.413 334.448 230.595 333.736 230.419 333.079ZM409.488 380.358C408.716 380.565 408.173 381.166 407.992 381.878C407.938 382.141 407.933 382.433 407.967 382.713L377.032 391.002C376.647 390.028 375.58 389.444 374.537 389.724C374.228 389.806 373.978 389.956 373.739 390.145L351.063 367.464C351.472 366.982 351.654 366.27 351.478 365.613C351.302 364.955 350.788 364.43 350.193 364.217L356.193 341.808L358.491 333.237C358.792 333.28 359.083 333.285 359.353 333.213C360.396 332.933 361.028 331.894 360.875 330.858L391.81 322.569C391.921 322.829 392.071 323.079 392.249 323.28C392.762 323.805 393.533 324.054 394.305 323.847C394.614 323.765 394.864 323.615 395.064 323.437L417.768 346.068C417.36 346.551 417.178 347.263 417.354 347.92C417.53 348.577 418.043 349.102 418.639 349.316L410.341 380.296C410.078 380.242 409.797 380.276 409.488 380.358ZM316.025 374.035C315.512 373.509 314.741 373.26 313.969 373.467C313.66 373.55 313.41 373.7 313.21 373.878L290.534 351.197C290.943 350.715 291.124 350.003 290.948 349.346C290.876 349.075 290.726 348.825 290.587 348.614C290.339 348.307 290.035 348.099 289.702 347.939L298 316.959C298.301 317.003 298.592 317.008 298.863 316.935C299.906 316.656 300.538 315.616 300.384 314.58L331.319 306.291C331.43 306.552 331.58 306.801 331.758 307.002C332.271 307.528 333.042 307.777 333.814 307.57C334.123 307.487 334.373 307.338 334.573 307.16L357.249 329.84C356.841 330.323 356.659 331.034 356.835 331.691C357.011 332.349 357.524 332.874 358.12 333.088L349.822 364.067C349.52 364.024 349.229 364.019 348.959 364.091C347.916 364.371 347.284 365.41 347.438 366.447L316.503 374.736C316.392 374.475 316.242 374.225 316.025 374.035ZM377.277 263.232C377.539 263.285 377.82 263.252 378.09 263.179C378.399 263.097 378.649 262.947 378.85 262.769L401.487 285.46C401.078 285.942 400.896 286.654 401.072 287.311C401.259 288.007 401.762 288.494 402.367 288.746L394.07 319.725C393.768 319.682 393.477 319.677 393.207 319.749C392.164 320.029 391.532 321.068 391.686 322.105L360.751 330.394C360.365 329.42 359.298 328.835 358.255 329.115C357.946 329.197 357.697 329.347 357.496 329.525L334.82 306.845C335.229 306.362 335.411 305.651 335.235 304.993C335.069 304.375 334.643 303.867 334.087 303.644C334.038 303.615 333.999 303.626 333.95 303.597L342.248 272.618C342.549 272.661 342.84 272.666 343.111 272.594C344.153 272.314 344.786 271.275 344.632 270.238L375.567 261.949C375.88 262.653 376.509 263.147 377.277 263.232ZM317.329 246.974C317.407 246.954 317.484 246.933 317.522 246.923C317.831 246.84 318.081 246.69 318.282 246.512L340.958 269.193C340.654 269.605 340.459 270.113 340.478 270.647C340.47 270.773 340.512 270.928 340.553 271.083C340.729 271.74 341.243 272.265 341.838 272.479L333.54 303.459C333.239 303.415 332.948 303.41 332.678 303.483C331.635 303.762 331.003 304.801 331.156 305.838L300.221 314.127C300.131 313.944 300.04 313.761 299.911 313.588C299.406 312.936 298.576 312.62 297.726 312.848C297.417 312.931 297.168 313.08 296.967 313.258L274.291 290.578C274.7 290.095 274.882 289.384 274.706 288.727C274.633 288.456 274.483 288.206 274.344 287.995C274.096 287.688 273.792 287.48 273.459 287.32L281.757 256.34C282.02 256.394 282.35 256.389 282.62 256.316C283.663 256.037 284.295 254.997 284.141 253.961L315.076 245.672C315.402 246.579 316.343 247.156 317.329 246.974ZM270.71 417.792C270.398 417.71 270.03 417.726 269.683 417.819C269.374 417.902 269.124 418.052 268.923 418.23L246.247 395.549C246.551 395.137 246.746 394.629 246.727 394.095C246.734 393.969 246.693 393.814 246.652 393.659C246.61 393.505 246.579 393.389 246.499 393.244C246.248 392.773 245.864 392.42 245.356 392.225L253.654 361.245C253.956 361.288 254.247 361.293 254.517 361.221C255.56 360.941 256.192 359.902 256.038 358.866L286.973 350.577C287.064 350.76 287.154 350.942 287.283 351.115C287.343 351.182 287.353 351.221 287.412 351.288C287.926 351.813 288.696 352.062 289.468 351.855C289.777 351.773 290.027 351.623 290.228 351.445L312.904 374.125C312.495 374.608 312.313 375.32 312.489 375.977C312.665 376.634 313.178 377.159 313.774 377.373L305.476 408.353C305.175 408.309 304.884 408.304 304.613 408.377C303.571 408.656 302.938 409.696 303.092 410.732L272.157 419.021C271.914 418.423 271.372 417.947 270.71 417.792ZM307.181 409.926C307.015 409.308 306.589 408.8 306.033 408.576C305.984 408.548 305.945 408.558 305.896 408.53L314.194 377.55C314.495 377.594 314.786 377.599 315.057 377.526C316.099 377.247 316.732 376.207 316.578 375.171L347.513 366.882C347.898 367.856 348.965 368.44 350.008 368.161C350.317 368.078 350.567 367.929 350.767 367.75L373.443 390.431C373.263 390.686 373.083 390.942 373.04 391.243C372.958 391.555 372.974 391.924 373.067 392.272C373.212 392.813 373.579 393.254 374.03 393.547C374.128 393.604 374.226 393.66 374.313 393.678L369.482 411.796L366.054 424.648C365.753 424.604 365.462 424.599 365.192 424.672C364.419 424.879 363.877 425.48 363.695 426.192C363.641 426.455 363.636 426.746 363.67 427.027L332.735 435.316C332.35 434.342 331.283 433.758 330.24 434.037C329.931 434.12 329.682 434.27 329.442 434.458L306.766 411.778C307.214 411.285 307.357 410.583 307.181 409.926ZM392.354 450.501C391.913 450.246 391.31 450.159 390.769 450.304C390.46 450.387 390.211 450.537 390.01 450.715L367.334 428.034C367.486 427.828 367.599 427.632 367.702 427.397C367.851 427.026 367.863 426.608 367.749 426.183C367.614 425.68 367.346 425.296 366.944 425.031C366.797 424.946 366.65 424.861 366.464 424.787L368.652 416.576L374.723 393.817C375.025 393.861 375.316 393.866 375.586 393.793C376.358 393.586 376.901 392.985 377.083 392.273C377.137 392.01 377.141 391.719 377.107 391.438L408.042 383.149C408.205 383.603 408.551 383.966 408.953 384.231C409.394 384.486 409.997 384.573 410.537 384.428C410.846 384.345 411.096 384.195 411.297 384.017L434.001 406.649C433.754 406.964 433.595 407.296 433.572 407.675C433.519 407.938 433.552 408.219 433.625 408.49C433.801 409.147 434.314 409.673 434.91 409.886L426.651 440.855C426.349 440.812 426.058 440.807 425.788 440.879C424.9 441.117 424.282 441.904 424.24 442.827C424.233 442.954 424.235 443.119 424.266 443.235L393.331 451.524C393.102 451.129 392.756 450.766 392.354 450.501ZM470.046 396.576C469.196 396.804 468.636 397.493 468.524 398.31C468.498 398.524 468.511 398.728 468.525 398.931L437.59 407.22C437.204 406.246 436.137 405.662 435.095 405.941C434.786 406.024 434.536 406.174 434.297 406.362L411.659 383.672C411.906 383.357 412.065 383.024 412.088 382.645C412.142 382.382 412.108 382.101 412.035 381.831C411.859 381.173 411.346 380.648 410.751 380.434L419.048 349.455C419.35 349.498 419.641 349.503 419.911 349.431C420.954 349.151 421.586 348.112 421.432 347.075L452.367 338.786C452.753 339.761 453.82 340.345 454.863 340.065C455.172 339.983 455.421 339.833 455.622 339.655L478.298 362.335C478.051 362.65 477.892 362.983 477.869 363.362C477.815 363.625 477.849 363.906 477.922 364.176C478.098 364.834 478.611 365.359 479.206 365.572L470.947 396.542C470.646 396.498 470.316 396.504 470.046 396.576ZM384.878 226.72C384.951 226.991 385.062 227.251 385.24 227.452C385.488 227.758 385.792 227.967 386.163 228.116L377.866 259.096L377.827 259.106C377.564 259.052 377.283 259.086 377.013 259.159C375.97 259.438 375.338 260.478 375.492 261.514L344.557 269.803C344.314 269.205 343.86 268.746 343.275 268.572C342.904 268.423 342.486 268.41 342.062 268.524C341.753 268.607 341.503 268.756 341.302 268.934L318.626 246.254C319.035 245.771 319.217 245.06 319.041 244.403C318.906 243.9 318.638 243.516 318.236 243.251C318.089 243.166 317.942 243.081 317.756 243.007L326.054 212.027C326.268 212.052 326.482 212.078 326.713 212.016C326.791 211.995 326.868 211.974 326.906 211.964C327.949 211.685 328.581 210.645 328.428 209.609L359.363 201.32C359.526 201.773 359.871 202.137 360.274 202.402C360.665 202.628 361.152 202.746 361.665 202.651C361.742 202.63 361.819 202.609 361.858 202.599C362.167 202.516 362.416 202.366 362.617 202.188L385.254 224.879C384.884 225.351 384.702 226.063 384.878 226.72ZM254.508 229.416C254.671 229.869 255.017 230.232 255.419 230.497C255.86 230.752 256.463 230.839 257.003 230.694C257.312 230.612 257.562 230.462 257.763 230.284L280.439 252.964C280.41 253.013 280.372 253.024 280.343 253.073C279.984 253.583 279.858 254.197 280.024 254.816C280.2 255.473 280.713 255.998 281.309 256.212L273.05 287.181C272.748 287.138 272.457 287.133 272.187 287.205C271.144 287.485 270.512 288.524 270.665 289.56L239.731 297.849C239.345 296.875 238.278 296.291 237.235 296.571C237.158 296.591 237.081 296.612 237.042 296.622C236.821 296.723 236.638 296.813 236.466 296.942L213.79 274.262C214.199 273.779 214.381 273.068 214.204 272.411C214.07 271.908 213.801 271.524 213.399 271.259C213.252 271.174 213.105 271.089 212.92 271.015L221.217 240.035C221.519 240.078 221.81 240.083 222.08 240.011C222.505 239.897 222.86 239.677 223.107 239.363C223.526 238.919 223.69 238.295 223.602 237.656L254.498 229.377L254.508 229.416ZM323.441 471.535C323.523 471.223 323.507 470.855 323.413 470.507C323.237 469.85 322.724 469.324 322.129 469.111L330.426 438.131C330.728 438.174 331.019 438.179 331.289 438.107C332.139 437.879 332.699 437.19 332.811 436.373C332.837 436.159 332.824 435.955 332.811 435.752L363.746 427.463C364.131 428.437 365.198 429.021 366.241 428.742C366.55 428.659 366.799 428.509 367.039 428.321L389.714 451.001C389.306 451.484 389.124 452.195 389.3 452.853C389.476 453.51 389.989 454.035 390.585 454.249L382.287 485.228C381.986 485.185 381.694 485.18 381.424 485.252C380.381 485.532 379.749 486.571 379.903 487.608L348.968 495.897C348.857 495.636 348.707 495.386 348.529 495.185C348.016 494.66 347.245 494.411 346.473 494.618C346.164 494.7 345.914 494.85 345.713 495.028L323.037 472.348C323.228 472.131 323.359 471.847 323.441 471.535ZM486.289 457.195C485.401 457.433 484.794 458.259 484.741 459.143C484.734 459.27 484.736 459.435 484.767 459.551L453.833 467.84C453.447 466.865 452.38 466.281 451.337 466.561C451.028 466.643 450.779 466.793 450.578 466.971L427.902 444.291C428.177 443.927 428.354 443.507 428.356 443.05C428.382 442.836 428.33 442.643 428.268 442.411C428.092 441.754 427.578 441.228 426.983 441.015L435.242 410.046C435.544 410.089 435.835 410.094 436.105 410.021C436.877 409.815 437.42 409.213 437.602 408.502C437.648 408.365 437.656 408.239 437.653 408.074C437.66 407.947 437.657 407.782 437.626 407.666L468.561 399.377C468.947 400.351 470.014 400.936 471.056 400.656C471.365 400.573 471.615 400.424 471.854 400.235L494.492 422.926C494.083 423.409 493.901 424.12 494.077 424.778C494.253 425.435 494.766 425.96 495.362 426.174L487.064 457.153C486.84 457.089 486.559 457.123 486.289 457.195ZM498.1 291.643C497.675 291.757 497.32 291.977 497.073 292.292C496.654 292.735 496.49 293.359 496.579 293.999L465.644 302.288C465.258 301.313 464.191 300.729 463.148 301.009C462.84 301.091 462.59 301.241 462.351 301.43L439.713 278.739C440.122 278.256 440.304 277.545 440.128 276.887C439.941 276.192 439.438 275.705 438.843 275.491L447.092 244.483C447.393 244.527 447.684 244.532 447.955 244.459C448.997 244.18 449.63 243.14 449.476 242.104L480.411 233.815C480.796 234.789 481.863 235.373 482.906 235.094C483.215 235.011 483.465 234.861 483.665 234.683L506.341 257.364C505.932 257.846 505.751 258.558 505.927 259.215C506.072 259.756 506.438 260.197 506.889 260.49C506.987 260.547 507.085 260.604 507.173 260.622L498.903 291.552C498.7 291.566 498.409 291.561 498.1 291.643ZM489.733 198.624C489.909 199.282 490.422 199.807 491.018 200.02L482.72 231C482.418 230.957 482.127 230.952 481.857 231.024C480.814 231.304 480.182 232.343 480.336 233.379L449.401 241.668C449.016 240.694 447.948 240.11 446.906 240.39C446.828 240.41 446.751 240.431 446.713 240.441C446.491 240.542 446.308 240.632 446.136 240.761L423.46 218.081C423.869 217.599 424.051 216.887 423.875 216.23C423.823 216.036 423.722 215.815 423.632 215.632C423.611 215.554 423.562 215.526 423.513 215.498C423.384 215.325 423.227 215.202 423.069 215.078C422.922 214.993 422.775 214.908 422.59 214.834L430.888 183.854C431.189 183.897 431.48 183.902 431.75 183.83C432.793 183.55 433.425 182.511 433.272 181.475L464.207 173.186C464.318 173.446 464.468 173.696 464.646 173.897C465.159 174.422 465.929 174.671 466.702 174.464C467.011 174.382 467.261 174.232 467.461 174.054L490.137 196.734C489.739 197.255 489.557 197.967 489.733 198.624ZM301.29 186.342C301.599 186.259 301.848 186.11 302.049 185.932L324.725 208.612C324.316 209.095 324.134 209.806 324.31 210.463C324.404 210.811 324.564 211.1 324.801 211.368C325.028 211.597 325.283 211.777 325.557 211.87L317.259 242.85C317.045 242.824 316.831 242.799 316.6 242.861C316.522 242.881 316.445 242.902 316.406 242.912C315.364 243.192 314.732 244.231 314.885 245.268L283.95 253.557C283.86 253.374 283.769 253.191 283.64 253.018C283.134 252.366 282.305 252.05 281.455 252.278C281.146 252.36 280.896 252.51 280.696 252.688L258.02 230.008C258.048 229.959 258.087 229.948 258.115 229.899C258.475 229.389 258.6 228.775 258.434 228.156C258.258 227.499 257.745 226.974 257.15 226.76L265.409 195.791C265.71 195.834 266.001 195.839 266.272 195.767C267.314 195.487 267.946 194.448 267.793 193.412L298.728 185.123C299.18 186.037 300.247 186.622 301.29 186.342ZM196.435 214.438C196.744 214.355 196.994 214.205 197.195 214.027L219.871 236.708C219.842 236.757 219.804 236.767 219.775 236.816C219.416 237.327 219.29 237.941 219.456 238.559C219.632 239.216 220.145 239.742 220.741 239.955L212.443 270.935C212.142 270.891 211.851 270.887 211.58 270.959C210.538 271.238 209.905 272.278 210.059 273.314L179.124 281.603C178.788 280.657 177.819 280.13 176.822 280.273C176.745 280.293 176.667 280.314 176.629 280.324C176.552 280.345 176.474 280.366 176.436 280.376C176.214 280.477 176.032 280.567 175.859 280.696L153.183 258.016C153.592 257.533 153.774 256.822 153.598 256.164C153.432 255.546 153.006 255.038 152.45 254.815C152.401 254.786 152.362 254.797 152.313 254.768L160.611 223.788C160.912 223.832 161.203 223.837 161.474 223.764C162.516 223.485 163.148 222.445 162.995 221.409L193.93 213.12C194.326 214.133 195.393 214.717 196.435 214.438ZM132.353 324.715C132.275 324.736 132.198 324.757 132.16 324.767C131.938 324.868 131.755 324.958 131.583 325.087L108.907 302.407C109.316 301.924 109.498 301.212 109.322 300.555C109.187 300.053 108.919 299.669 108.517 299.404C108.37 299.319 108.223 299.234 108.037 299.159L116.335 268.179C116.636 268.223 116.927 268.228 117.198 268.155C118.24 267.876 118.872 266.836 118.719 265.8L149.654 257.511C149.765 257.771 149.915 258.021 150.093 258.222C150.606 258.748 151.377 258.997 152.149 258.79C152.458 258.707 152.708 258.558 152.908 258.379L175.584 281.06C175.175 281.542 174.993 282.254 175.17 282.911C175.346 283.569 175.859 284.094 176.454 284.307L176.044 285.868L168.195 315.277C167.894 315.233 167.603 315.229 167.332 315.301C166.29 315.58 165.658 316.62 165.811 317.656L134.876 325.945C134.452 324.981 133.395 324.436 132.353 324.715ZM287.51 478.635C287.069 478.381 286.466 478.293 285.925 478.438C285.616 478.521 285.367 478.671 285.166 478.849L262.49 456.169C262.899 455.686 263.081 454.974 262.905 454.317C262.77 453.815 262.502 453.431 262.099 453.166C261.953 453.081 261.806 452.996 261.62 452.921L269.918 421.941C270.219 421.985 270.51 421.99 270.781 421.917C271.823 421.638 272.455 420.598 272.302 419.562L303.237 411.273C303.4 411.727 303.745 412.09 304.148 412.355C304.589 412.61 305.191 412.697 305.732 412.552C306.041 412.469 306.291 412.319 306.491 412.141L329.167 434.822C328.987 435.077 328.818 435.371 328.764 435.634C328.682 435.946 328.698 436.315 328.791 436.663C328.936 437.204 329.303 437.645 329.754 437.938C329.852 437.995 329.95 438.051 330.037 438.069L321.74 469.049C321.438 469.006 321.147 469.001 320.877 469.073C320.104 469.28 319.562 469.881 319.38 470.593C319.326 470.856 319.322 471.147 319.355 471.428L288.421 479.717C288.247 479.225 287.902 478.862 287.51 478.635ZM364.272 555.483C363.831 555.228 363.228 555.141 362.687 555.286C362.378 555.369 362.129 555.518 361.928 555.696L339.252 533.016C339.432 532.761 339.612 532.505 339.655 532.204C339.737 531.891 339.721 531.523 339.628 531.175C339.493 530.672 339.225 530.288 338.823 530.023C338.676 529.938 338.529 529.853 338.343 529.779L346.641 498.799C346.942 498.843 347.233 498.847 347.504 498.775C348.276 498.568 348.819 497.967 349.001 497.255C349.054 496.992 349.059 496.701 349.025 496.42L379.96 488.131C380.071 488.391 380.221 488.641 380.399 488.842C380.912 489.367 381.683 489.617 382.455 489.41C382.764 489.327 383.014 489.177 383.214 488.999L405.89 511.68C405.482 512.162 405.3 512.874 405.476 513.531C405.652 514.188 406.165 514.714 406.761 514.927L398.463 545.907C398.161 545.863 397.87 545.859 397.6 545.931C396.557 546.21 395.925 547.25 396.079 548.286L365.144 556.575C365.009 556.073 364.702 555.699 364.272 555.483ZM497.208 422.405C496.767 422.151 496.165 422.064 495.624 422.208C495.315 422.291 495.065 422.441 494.865 422.619L472.227 399.928C472.474 399.613 472.633 399.281 472.656 398.902C472.71 398.639 472.676 398.358 472.593 398.048C472.458 397.546 472.19 397.162 471.788 396.897C471.641 396.812 471.494 396.727 471.308 396.652L479.567 365.683C479.869 365.726 480.16 365.731 480.43 365.659C481.28 365.431 481.84 364.742 481.952 363.925C481.978 363.711 481.965 363.507 481.951 363.304L512.886 355.015C512.998 355.275 513.147 355.525 513.325 355.726C513.839 356.251 514.609 356.501 515.382 356.294C515.691 356.211 515.94 356.061 516.141 355.883L538.817 378.564C538.408 379.046 538.226 379.758 538.402 380.415C538.578 381.072 539.092 381.598 539.687 381.811L531.389 412.791C531.088 412.747 530.797 412.742 530.526 412.815C529.484 413.094 528.851 414.134 529.005 415.17L498.109 423.449C497.956 423.034 497.61 422.671 497.208 422.405ZM525.175 190.164C525.688 190.689 526.459 190.938 527.231 190.731C527.54 190.649 527.79 190.499 527.99 190.321L550.666 213.001C550.258 213.484 550.076 214.195 550.252 214.853C550.428 215.51 550.941 216.035 551.537 216.249L543.267 247.18C543.004 247.126 542.675 247.131 542.404 247.204C542.057 247.297 541.73 247.467 541.511 247.733C541.015 248.197 540.784 248.881 540.883 249.559L509.948 257.848C509.563 256.874 508.496 256.289 507.453 256.569C507.144 256.652 506.894 256.801 506.655 256.99L483.979 234.309C484.388 233.827 484.57 233.115 484.394 232.458C484.218 231.801 483.704 231.275 483.109 231.062L489.518 207.093L491.407 200.082C491.708 200.125 491.999 200.13 492.269 200.058C493.312 199.779 493.944 198.739 493.791 197.703L524.726 189.414C524.847 189.713 524.997 189.963 525.175 190.164ZM403.83 157.333C404.318 158.073 405.217 158.495 406.144 158.247C406.453 158.164 406.703 158.014 406.904 157.836L429.579 180.516C429.171 180.999 428.989 181.711 429.165 182.368C429.237 182.638 429.349 182.899 429.527 183.1C429.774 183.406 430.078 183.615 430.45 183.764L422.152 214.744C421.851 214.7 421.559 214.695 421.289 214.768C420.246 215.047 419.614 216.087 419.768 217.123L388.833 225.412C388.559 224.698 387.881 224.175 387.152 224.081C386.889 224.027 386.608 224.06 386.338 224.133C386.029 224.216 385.779 224.365 385.578 224.544L362.903 201.863C363.311 201.381 363.493 200.669 363.317 200.012C363.131 199.316 362.628 198.829 362.032 198.616L370.33 167.636C370.631 167.679 370.923 167.684 371.193 167.612C372.236 167.332 372.868 166.293 372.714 165.257L403.649 156.968C403.719 157.073 403.76 157.228 403.83 157.333ZM343.559 141.412C344.072 141.937 344.843 142.187 345.615 141.98C345.924 141.897 346.174 141.747 346.374 141.569L369.05 164.249C368.641 164.732 368.459 165.444 368.636 166.101C368.812 166.758 369.325 167.284 369.92 167.497L361.623 198.477C361.409 198.451 361.195 198.426 360.963 198.488C360.886 198.508 360.809 198.529 360.77 198.539C359.727 198.819 359.095 199.858 359.249 200.895L328.314 209.184C327.978 208.238 327.008 207.71 326.012 207.853C325.935 207.874 325.857 207.894 325.819 207.905C325.51 207.987 325.26 208.137 325.059 208.315L302.384 185.635C302.792 185.152 302.974 184.441 302.798 183.783C302.622 183.126 302.109 182.601 301.513 182.387L307.503 159.94L309.772 151.418C310.074 151.461 310.365 151.466 310.635 151.394C311.678 151.114 312.31 150.075 312.157 149.039L343.092 140.75C343.192 140.971 343.381 141.211 343.559 141.412ZM238.704 169.507C239.218 170.033 239.988 170.282 240.761 170.075C241.07 169.992 241.319 169.843 241.52 169.665L264.196 192.345C263.787 192.828 263.605 193.539 263.781 194.197C263.957 194.854 264.471 195.379 265.066 195.593L256.807 226.562C256.505 226.519 256.214 226.514 255.944 226.586C255.442 226.721 255.059 226.989 254.794 227.392C254.501 227.843 254.355 228.379 254.423 228.941L223.488 237.23C223.151 236.284 222.182 235.757 221.186 235.9C221.108 235.92 221.031 235.941 220.993 235.951C220.915 235.972 220.838 235.993 220.799 236.003C220.578 236.104 220.395 236.194 220.223 236.323L197.547 213.643C197.575 213.594 197.614 213.583 197.642 213.534C198.002 213.024 198.127 212.41 197.962 211.791C197.786 211.134 197.272 210.609 196.677 210.395L204.975 179.415C205.276 179.459 205.567 179.464 205.837 179.391C206.339 179.257 206.723 178.988 206.988 178.586C207.291 178.173 207.427 177.598 207.359 177.036L238.294 168.747C238.338 169.067 238.526 169.307 238.704 169.507ZM424.84 571.739C424.399 571.485 423.796 571.398 423.255 571.542C422.946 571.625 422.697 571.775 422.496 571.953L399.82 549.273C400.229 548.79 400.411 548.078 400.235 547.421C400.058 546.764 399.545 546.238 398.95 546.025L404.939 523.578L407.209 515.056C407.51 515.099 407.801 515.104 408.072 515.032C409.114 514.752 409.747 513.713 409.593 512.676L440.528 504.387C440.639 504.648 440.789 504.898 440.967 505.099C441.48 505.624 442.251 505.873 443.023 505.666C443.332 505.584 443.582 505.434 443.782 505.256L466.476 527.849C466.067 528.331 465.886 529.043 466.062 529.7C466.238 530.357 466.751 530.883 467.346 531.096L459.049 562.076C458.747 562.032 458.456 562.027 458.186 562.1C457.143 562.379 456.511 563.419 456.665 564.455L425.73 572.744C425.577 572.329 425.231 571.966 424.84 571.739ZM557.776 438.662C557.335 438.407 556.771 438.31 556.192 438.465C555.883 438.548 555.633 438.698 555.433 438.876L532.757 416.195C533.166 415.713 533.347 415.001 533.171 414.344C532.995 413.686 532.482 413.161 531.887 412.948L538.296 388.979L540.184 381.968C540.486 382.011 540.777 382.016 541.047 381.944C542.09 381.664 542.722 380.625 542.568 379.589L573.503 371.3C573.614 371.56 573.764 371.81 573.942 372.011C574.456 372.536 575.226 372.786 575.998 372.579C576.307 372.496 576.557 372.346 576.758 372.168L599.434 394.848C599.025 395.331 598.843 396.043 599.019 396.7C599.195 397.357 599.708 397.882 600.304 398.096L592.006 429.076C591.705 429.032 591.414 429.027 591.143 429.1C590.101 429.379 589.468 430.419 589.622 431.455L558.687 439.744C558.475 439.262 558.168 438.888 557.776 438.662ZM448.413 113.316C448.927 113.842 449.697 114.091 450.469 113.884C450.778 113.801 451.028 113.651 451.229 113.473L473.905 136.154C473.496 136.636 473.314 137.348 473.49 138.005C473.666 138.662 474.179 139.188 474.775 139.401L466.477 170.381C466.176 170.338 465.885 170.333 465.614 170.405C464.571 170.685 463.939 171.724 464.093 172.76L433.158 181.049C433.067 180.866 432.977 180.683 432.848 180.511C432.789 180.444 432.778 180.405 432.719 180.338C432.206 179.813 431.435 179.563 430.663 179.77C430.354 179.853 430.104 180.003 429.904 180.181L407.228 157.5C407.636 157.018 407.818 156.306 407.642 155.649C407.57 155.378 407.459 155.118 407.281 154.917C407.033 154.611 406.729 154.402 406.357 154.253L414.655 123.273C414.957 123.317 415.248 123.322 415.518 123.249C416.561 122.97 417.193 121.93 417.039 120.894L447.974 112.605C448.047 112.876 448.235 113.115 448.413 113.316ZM225.583 108.798C225.992 108.315 226.174 107.604 225.998 106.946C225.822 106.289 225.308 105.764 224.713 105.55L233.011 74.5704C233.312 74.6139 233.603 74.6188 233.873 74.5464C234.221 74.4532 234.548 74.2828 234.777 74.0557C235.273 73.5912 235.504 72.9078 235.395 72.1912L266.33 63.9022C266.451 64.2012 266.601 64.4511 266.818 64.6417C267.321 65.1284 268.091 65.3778 268.825 65.1811C269.134 65.0984 269.383 64.9486 269.584 64.7705L292.26 87.451C291.851 87.9335 291.669 88.6452 291.845 89.3024C292.022 89.9596 292.535 90.4851 293.13 90.6985L284.833 121.678C284.531 121.635 284.24 121.63 283.97 121.702C282.927 121.982 282.295 123.021 282.448 124.057L251.513 132.346C251.402 132.086 251.252 131.836 251.074 131.635C250.561 131.11 249.791 130.861 249.018 131.068C248.709 131.15 248.46 131.3 248.259 131.478L225.583 108.798ZM249.243 135.151C249.545 135.194 249.836 135.199 250.106 135.127C251.149 134.847 251.781 133.808 251.627 132.772L282.562 124.483C282.673 124.743 282.823 124.993 283.001 125.194C283.514 125.719 284.285 125.969 285.057 125.762C285.366 125.679 285.616 125.529 285.817 125.351L308.493 148.032C308.084 148.514 307.902 149.226 308.078 149.883C308.254 150.54 308.767 151.066 309.363 151.279L301.065 182.259C300.764 182.215 300.473 182.21 300.202 182.283C299.159 182.562 298.527 183.602 298.681 184.638L267.746 192.927C267.361 191.953 266.293 191.369 265.251 191.648C265.173 191.669 265.096 191.689 265.058 191.7C264.836 191.801 264.654 191.891 264.481 192.02L241.805 169.34C242.214 168.857 242.396 168.145 242.22 167.488C242.085 166.986 241.817 166.602 241.414 166.337C241.268 166.252 241.121 166.167 240.935 166.092L249.243 135.151ZM203.628 176.089C203.599 176.138 203.561 176.148 203.533 176.197C203.173 176.708 203.047 177.321 203.213 177.94C203.389 178.597 203.903 179.123 204.498 179.336L196.2 210.316C195.899 210.272 195.608 210.267 195.337 210.34C194.835 210.474 194.462 210.782 194.187 211.145C193.894 211.597 193.748 212.133 193.816 212.695L162.881 220.984C162.749 220.646 162.54 220.33 162.275 220.111C161.792 219.701 161.081 219.519 160.386 219.705C160.077 219.788 159.827 219.938 159.627 220.116L136.951 197.435C137.36 196.953 137.541 196.241 137.365 195.584C137.231 195.081 136.962 194.697 136.56 194.432C136.413 194.347 136.266 194.262 136.081 194.188L144.378 163.208C144.68 163.251 144.971 163.256 145.241 163.184C146.284 162.904 146.916 161.865 146.763 160.829L177.698 152.54C178.083 153.514 179.15 154.098 180.193 153.819C180.502 153.736 180.751 153.586 180.952 153.408L203.628 176.089ZM76.4318 181.207C76.8407 180.724 77.0225 180.013 76.8464 179.356C76.6703 178.698 76.157 178.173 75.5617 177.959L83.8593 146.98C84.1608 147.023 84.4519 147.028 84.7222 146.956C85.7649 146.676 86.397 145.637 86.2436 144.6L117.179 136.311C117.564 137.286 118.631 137.87 119.674 137.59C119.983 137.508 120.232 137.358 120.433 137.18L143.109 159.86C142.7 160.343 142.518 161.054 142.694 161.712C142.87 162.369 143.384 162.894 143.979 163.108L135.681 194.088C135.38 194.044 135.089 194.039 134.818 194.112C133.776 194.391 133.144 195.431 133.297 196.467L102.362 204.756C101.977 203.782 100.91 203.197 99.867 203.477C99.5581 203.56 99.3083 203.709 99.1077 203.887L76.4318 181.207ZM100.053 207.571C100.355 207.614 100.646 207.619 100.916 207.546C101.264 207.453 101.552 207.293 101.819 207.056C102.316 206.591 102.547 205.908 102.437 205.191L133.372 196.902C133.494 197.201 133.644 197.451 133.86 197.642C134.363 198.129 135.134 198.378 135.867 198.181C136.176 198.098 136.426 197.949 136.627 197.771L159.303 220.451C158.894 220.934 158.712 221.645 158.888 222.303C159.064 222.96 159.578 223.485 160.173 223.699L151.875 254.678C151.574 254.635 151.283 254.63 151.012 254.702C149.97 254.982 149.337 256.021 149.491 257.058L118.556 265.347C118.445 265.086 118.295 264.836 118.117 264.636C117.782 264.311 117.341 264.056 116.875 264.015C116.612 263.961 116.331 263.995 116.061 264.068C115.752 264.15 115.502 264.3 115.302 264.478L92.6257 241.798C93.0346 241.315 93.2164 240.604 93.0403 239.946C92.8642 239.289 92.3509 238.764 91.7556 238.55L100.053 207.571ZM58.151 249.544L89.0859 241.255C89.36 241.968 89.9996 242.501 90.7672 242.586C91.03 242.64 91.3107 242.606 91.5811 242.534C91.89 242.451 92.1397 242.301 92.3403 242.123L115.016 264.803C114.607 265.286 114.426 265.998 114.602 266.655C114.778 267.312 115.291 267.837 115.886 268.051L107.589 299.031L107.55 299.041C107.287 298.987 107.007 299.021 106.736 299.093C105.693 299.373 105.061 300.412 105.215 301.449L74.2799 309.738C74.0058 309.024 73.3663 308.491 72.5986 308.406C72.3358 308.352 72.0551 308.386 71.7848 308.459C71.4758 308.541 71.2262 308.691 71.0255 308.869L48.3496 286.189C48.7585 285.706 48.9403 284.995 48.7642 284.337C48.5881 283.68 48.0748 283.155 47.4795 282.941L55.7771 251.961C56.0786 252.005 56.3696 252.01 56.64 251.937C57.6723 251.619 58.3044 250.58 58.151 249.544ZM4.05279 330.502C4.46162 330.02 4.64349 329.308 4.46738 328.651C4.29129 327.994 3.77793 327.468 3.18263 327.255L11.4803 296.275C11.7817 296.319 12.0728 296.323 12.3431 296.251C13.3859 295.972 14.018 294.932 13.8645 293.896L44.7994 285.607C45.0735 286.321 45.7131 286.854 46.4808 286.938C46.7436 286.992 47.0243 286.958 47.2946 286.886C47.6036 286.803 47.8532 286.653 48.0538 286.475L70.7298 309.156C70.3209 309.638 70.1391 310.35 70.3152 311.007C70.4913 311.664 71.0046 312.19 71.5999 312.403L63.3022 343.383C63.0008 343.339 62.7098 343.335 62.4394 343.407C61.3967 343.686 60.7646 344.726 60.918 345.762L29.9831 354.051C29.5979 353.077 28.5307 352.493 27.4879 352.772C27.179 352.855 26.9294 353.005 26.7287 353.183L4.05279 330.502ZM64.5821 346.769C64.991 346.287 65.1728 345.575 64.9967 344.918C64.8206 344.261 64.3073 343.735 63.712 343.522L72.0096 312.542L72.0482 312.532C72.3111 312.585 72.5917 312.552 72.8621 312.479C73.9048 312.2 74.5369 311.16 74.3835 310.124L105.318 301.835C105.582 302.51 106.124 302.987 106.786 303.141C107.098 303.223 107.466 303.207 107.814 303.114C108.123 303.031 108.372 302.881 108.573 302.703L131.249 325.384C130.84 325.866 130.658 326.578 130.834 327.235C131.01 327.893 131.524 328.418 132.119 328.631L123.821 359.611C123.52 359.568 123.229 359.563 122.958 359.635C121.916 359.915 121.284 360.954 121.437 361.99L90.502 370.279C90.1168 369.305 89.0497 368.721 88.0069 369C87.6979 369.083 87.4483 369.233 87.2477 369.411L64.5821 346.769ZM125.15 363.026C125.559 362.543 125.741 361.832 125.565 361.174C125.399 360.556 124.973 360.048 124.416 359.825C124.368 359.796 124.329 359.807 124.28 359.778L132.578 328.799C132.879 328.842 133.17 328.847 133.44 328.774C134.483 328.495 135.115 327.456 134.962 326.419L165.897 318.13C166.282 319.105 167.349 319.689 168.392 319.409C168.701 319.326 168.95 319.177 169.151 318.999L191.827 341.679C191.418 342.162 191.236 342.873 191.412 343.531C191.485 343.801 191.596 344.061 191.774 344.262C192.022 344.569 192.326 344.777 192.659 344.937L184.361 375.917C184.059 375.873 183.768 375.868 183.498 375.941C182.455 376.22 181.823 377.26 181.977 378.296L151.042 386.585C150.951 386.402 150.851 386.18 150.732 386.046C150.226 385.395 149.396 385.078 148.547 385.306C148.238 385.389 147.988 385.539 147.787 385.717L125.15 363.026ZM141.393 423.645C141.802 423.163 141.984 422.451 141.808 421.794C141.631 421.136 141.118 420.611 140.523 420.398L148.82 389.418C149.122 389.461 149.413 389.466 149.683 389.394C150.726 389.114 151.358 388.075 151.205 387.039L182.14 378.75C182.251 379.01 182.4 379.26 182.568 379.422C183.081 379.947 183.852 380.197 184.624 379.99C184.933 379.907 185.183 379.757 185.384 379.579L208.06 402.26C207.651 402.742 207.469 403.454 207.645 404.111C207.821 404.768 208.334 405.294 208.93 405.507L200.632 436.487C200.331 436.443 200.04 436.439 199.769 436.511C198.726 436.79 198.094 437.83 198.248 438.866L167.313 447.155C167.202 446.895 167.052 446.645 166.874 446.444C166.361 445.919 165.59 445.669 164.818 445.876C164.509 445.959 164.259 446.109 164.058 446.287L141.393 423.645ZM165.014 450.009C165.316 450.052 165.607 450.057 165.877 449.985C166.92 449.705 167.552 448.666 167.399 447.629L198.334 439.34C198.445 439.601 198.594 439.851 198.772 440.052C199.286 440.577 200.056 440.826 200.829 440.619C201.138 440.537 201.387 440.387 201.588 440.209L224.302 462.879C223.894 463.361 223.712 464.073 223.888 464.73C224.064 465.387 224.577 465.913 225.173 466.126L224.763 467.686L216.914 497.096C216.612 497.052 216.321 497.047 216.051 497.12C215.008 497.399 214.376 498.439 214.529 499.475L183.594 507.764C183.431 507.31 183.086 506.947 182.684 506.682C182.243 506.427 181.64 506.34 181.099 506.485C180.79 506.568 180.541 506.718 180.34 506.896L157.664 484.215C158.073 483.733 158.255 483.021 158.079 482.364C157.944 481.861 157.676 481.477 157.273 481.212C157.126 481.127 156.979 481.042 156.794 480.968L165.014 450.009ZM113.3 528.588C113.709 528.106 113.891 527.394 113.715 526.737C113.539 526.079 113.026 525.554 112.43 525.341L120.728 494.361C121.029 494.404 121.32 494.409 121.591 494.337C122.633 494.057 123.266 493.018 123.112 491.982L154.047 483.693C154.158 483.953 154.308 484.203 154.486 484.404C154.999 484.929 155.77 485.179 156.542 484.972C156.851 484.889 157.101 484.739 157.301 484.561L179.977 507.241C179.568 507.724 179.387 508.436 179.563 509.093C179.739 509.75 180.252 510.275 180.847 510.489L172.55 541.469C172.248 541.425 171.957 541.42 171.687 541.493C170.644 541.772 170.012 542.812 170.166 543.848L139.231 552.137C138.845 551.163 137.778 550.579 136.736 550.858C136.427 550.941 136.177 551.091 135.976 551.269L113.3 528.588ZM233.118 557.725C232.816 557.682 232.525 557.677 232.255 557.749C231.212 558.029 230.58 559.068 230.734 560.104L199.799 568.393C199.413 567.419 198.346 566.835 197.303 567.115C196.995 567.197 196.745 567.347 196.544 567.525L173.868 544.845C174.277 544.362 174.459 543.651 174.283 542.993C174.117 542.375 173.691 541.867 173.135 541.644C173.086 541.615 173.047 541.626 172.998 541.597L181.296 510.617C181.597 510.661 181.888 510.666 182.159 510.593C183.201 510.314 183.834 509.274 183.68 508.238L214.615 499.949C215 500.923 216.067 501.508 217.11 501.228C217.419 501.145 217.669 500.996 217.869 500.818L240.545 523.498C240.136 523.98 239.955 524.692 240.131 525.349C240.276 525.891 240.642 526.331 241.093 526.625C241.191 526.681 241.289 526.738 241.377 526.756L233.118 557.725ZM278.723 516.749C279.132 516.267 279.313 515.555 279.137 514.898C278.972 514.279 278.546 513.772 277.989 513.548C277.94 513.52 277.902 513.53 277.853 513.502L286.15 482.522C286.452 482.565 286.743 482.57 287.013 482.498C288.056 482.218 288.688 481.179 288.534 480.143L319.469 471.854C319.855 472.828 320.922 473.412 321.965 473.132C322.273 473.05 322.523 472.9 322.724 472.722L345.4 495.402C345.153 495.717 344.994 496.05 344.971 496.429C344.917 496.692 344.951 496.973 345.024 497.243C345.2 497.901 345.713 498.426 346.308 498.639L338.011 529.619C337.709 529.576 337.418 529.571 337.148 529.643C336.376 529.85 335.833 530.451 335.651 531.163C335.597 531.426 335.582 531.679 335.616 531.96L304.681 540.249C304.296 539.275 303.229 538.69 302.186 538.97C301.877 539.053 301.628 539.202 301.388 539.391L278.723 516.749ZM294.955 577.33C295.364 576.847 295.546 576.135 295.37 575.478C295.194 574.821 294.68 574.296 294.085 574.082L302.383 543.102C302.684 543.146 302.975 543.151 303.246 543.078C304.018 542.871 304.561 542.27 304.742 541.558C304.796 541.295 304.811 541.043 304.777 540.762L335.712 532.473C336.097 533.447 337.165 534.031 338.207 533.752C338.516 533.669 338.766 533.519 339.005 533.331L361.681 556.011C361.272 556.494 361.09 557.205 361.267 557.863C361.443 558.52 361.956 559.045 362.551 559.259L354.254 590.239C353.952 590.195 353.661 590.19 353.352 590.273C352.309 590.552 351.677 591.592 351.831 592.628L320.896 600.917C320.805 600.734 320.715 600.551 320.586 600.379C320.08 599.727 319.25 599.41 318.401 599.638C318.092 599.721 317.842 599.871 317.641 600.049L294.955 577.33ZM370.437 650.791C370.136 650.747 369.845 650.742 369.574 650.815C368.532 651.094 367.899 652.134 368.053 653.17L337.118 661.459C336.733 660.485 335.666 659.901 334.623 660.18C334.314 660.263 334.064 660.413 333.864 660.591L311.188 637.91C311.597 637.428 311.778 636.716 311.602 636.059C311.426 635.401 310.913 634.876 310.318 634.663L318.615 603.683C318.917 603.726 319.208 603.731 319.517 603.648C320.559 603.369 321.192 602.329 321.038 601.293L351.973 593.004C352.063 593.187 352.154 593.37 352.283 593.543C352.461 593.744 352.639 593.945 352.884 594.086C353.325 594.341 353.928 594.428 354.468 594.283C354.777 594.2 355.027 594.051 355.227 593.873L377.865 616.563C377.456 617.046 377.274 617.758 377.45 618.415C377.523 618.685 377.634 618.946 377.812 619.147C378.059 619.453 378.364 619.662 378.735 619.811L370.437 650.791ZM414.773 606.467C414.471 606.423 414.18 606.418 413.91 606.491C412.867 606.77 412.235 607.81 412.388 608.846L381.453 617.135C381.363 616.952 381.273 616.769 381.144 616.596C380.638 615.945 379.808 615.628 378.958 615.856C378.649 615.939 378.4 616.089 378.199 616.267L355.562 593.576C355.971 593.093 356.152 592.382 355.976 591.724C355.904 591.454 355.793 591.193 355.615 590.993C355.367 590.686 355.063 590.477 354.73 590.318L363.028 559.338C363.329 559.382 363.62 559.387 363.891 559.314C364.934 559.035 365.566 557.995 365.412 556.959L396.347 548.67C396.732 549.644 397.799 550.228 398.842 549.949C399.151 549.866 399.401 549.716 399.601 549.538L422.277 572.219C421.869 572.701 421.687 573.413 421.863 574.07C422.008 574.611 422.374 575.052 422.825 575.345C422.923 575.402 423.021 575.459 423.109 575.477L414.773 606.467ZM527.044 544.105C526.635 544.588 526.454 545.299 526.63 545.957C526.806 546.614 527.319 547.139 527.914 547.353L519.617 578.332C519.315 578.289 519.024 578.284 518.754 578.356C517.711 578.636 517.079 579.675 517.232 580.712L486.298 589.001C485.912 588.026 484.845 587.442 483.802 587.722C483.493 587.804 483.244 587.954 483.043 588.132L460.367 565.452C460.776 564.969 460.958 564.258 460.782 563.6C460.616 562.982 460.19 562.474 459.634 562.251C459.585 562.222 459.546 562.233 459.497 562.204L467.795 531.224C468.096 531.268 468.387 531.273 468.658 531.2C469.7 530.921 470.332 529.882 470.179 528.845L501.114 520.556C501.499 521.53 502.566 522.115 503.609 521.835C503.918 521.752 504.168 521.603 504.368 521.425L527.044 544.105ZM503.384 517.752C503.083 517.708 502.792 517.704 502.521 517.776C501.479 518.055 500.847 519.095 501 520.131L470.065 528.42C469.902 527.967 469.556 527.603 469.154 527.338C468.713 527.083 468.149 526.986 467.57 527.141C467.261 527.224 467.011 527.374 466.811 527.552L444.135 504.871C444.544 504.389 444.725 503.677 444.549 503.02C444.415 502.517 444.146 502.133 443.744 501.868C443.597 501.783 443.45 501.698 443.265 501.624L451.562 470.644C451.864 470.688 452.155 470.692 452.425 470.62C453.313 470.382 453.92 469.556 453.973 468.672C453.98 468.546 453.978 468.381 453.946 468.265L484.881 459.976C485.267 460.95 486.334 461.534 487.377 461.255C487.685 461.172 487.935 461.022 488.136 460.844L510.812 483.525C510.537 483.888 510.36 484.309 510.358 484.765C510.332 484.979 510.384 485.172 510.446 485.404C510.622 486.062 511.136 486.587 511.731 486.8L503.384 517.752ZM547.709 473.389C547.408 473.346 547.117 473.341 546.846 473.413C545.804 473.693 545.172 474.732 545.325 475.768L514.351 484.068C513.966 483.094 512.899 482.51 511.856 482.789C511.547 482.872 511.298 483.021 511.097 483.2L488.421 460.519C488.668 460.204 488.827 459.872 488.888 459.482C488.942 459.219 488.908 458.938 488.836 458.668C488.67 458.049 488.244 457.542 487.688 457.318C487.639 457.29 487.6 457.3 487.551 457.272L495.849 426.292C496.15 426.335 496.441 426.34 496.712 426.268C497.754 425.988 498.386 424.949 498.233 423.913L529.168 415.624C529.553 416.598 530.62 417.182 531.663 416.902C531.972 416.82 532.222 416.67 532.422 416.492L555.098 439.172C554.689 439.655 554.507 440.367 554.684 441.024C554.829 441.565 555.195 442.005 555.646 442.299C555.744 442.356 555.842 442.412 555.93 442.43L547.709 473.389ZM659.953 411.077C659.544 411.559 659.362 412.271 659.538 412.928C659.714 413.585 660.227 414.111 660.823 414.324L652.525 445.304C652.224 445.26 651.933 445.256 651.662 445.328C650.62 445.607 649.987 446.647 650.141 447.683L619.206 455.972C618.821 454.998 617.754 454.414 616.711 454.693C616.402 454.776 616.152 454.926 615.952 455.104L593.276 432.423C593.684 431.941 593.866 431.229 593.69 430.572C593.524 429.953 593.099 429.446 592.542 429.222C592.493 429.194 592.454 429.204 592.405 429.176L600.703 398.196C601.005 398.24 601.296 398.244 601.566 398.172C602.609 397.893 603.241 396.853 603.087 395.817L634.022 387.528C634.408 388.502 635.475 389.086 636.517 388.807C636.826 388.724 637.076 388.574 637.277 388.396L659.953 411.077ZM643.71 350.458C643.301 350.94 643.119 351.652 643.295 352.309C643.471 352.966 643.985 353.492 644.58 353.705L636.282 384.685C635.981 384.641 635.69 384.636 635.419 384.709C634.377 384.988 633.745 386.028 633.898 387.064L602.963 395.353C602.8 394.899 602.454 394.536 602.052 394.271C601.611 394.016 601.009 393.929 600.468 394.074C600.159 394.157 599.909 394.307 599.709 394.485L577.033 371.804C577.442 371.322 577.623 370.61 577.447 369.953C577.313 369.45 577.044 369.066 576.642 368.801C576.495 368.716 576.348 368.631 576.163 368.557L584.46 337.577C584.762 337.62 585.053 337.625 585.323 337.553C586.366 337.273 586.998 336.234 586.844 335.198L617.779 326.909C618.165 327.883 619.232 328.467 620.275 328.188C620.584 328.105 620.833 327.955 621.034 327.777L643.71 350.458ZM583.18 334.191C582.772 334.673 582.59 335.385 582.766 336.042C582.942 336.699 583.455 337.225 584.051 337.438L575.753 368.418C575.451 368.374 575.16 368.369 574.89 368.442C573.847 368.721 573.215 369.761 573.369 370.797L542.434 379.086C542.049 378.112 540.981 377.528 539.939 377.807C539.63 377.89 539.38 378.04 539.179 378.218L516.503 355.537C516.912 355.055 517.094 354.343 516.918 353.686C516.752 353.067 516.327 352.56 515.77 352.336C515.721 352.308 515.682 352.318 515.633 352.29L523.931 321.31C524.232 321.353 524.523 321.358 524.794 321.286C525.837 321.007 526.469 319.967 526.315 318.931L557.25 310.642C557.635 311.616 558.702 312.2 559.745 311.921C560.054 311.838 560.304 311.688 560.504 311.51L583.18 334.191ZM559.52 307.837C559.219 307.794 558.928 307.789 558.658 307.861C557.615 308.141 556.983 309.18 557.136 310.217L526.201 318.506C526.038 318.052 525.693 317.689 525.29 317.424C524.85 317.169 524.247 317.082 523.706 317.227C523.397 317.309 523.147 317.459 522.947 317.637L500.271 294.957C500.68 294.474 500.862 293.763 500.686 293.105C500.551 292.603 500.282 292.219 499.88 291.954C499.733 291.869 499.586 291.784 499.401 291.709L507.67 260.778C507.933 260.832 508.263 260.827 508.533 260.754C508.958 260.641 509.313 260.421 509.56 260.106C509.979 259.663 510.143 259.039 510.054 258.399L540.989 250.11C541.152 250.564 541.498 250.927 541.9 251.192C542.341 251.447 542.944 251.534 543.484 251.389C543.793 251.306 544.043 251.157 544.244 250.979L566.92 273.659C566.511 274.142 566.329 274.853 566.505 275.51C566.692 276.206 567.194 276.693 567.79 276.907L559.52 307.837ZM603.817 263.524C603.516 263.48 603.225 263.475 602.954 263.548C601.912 263.827 601.28 264.867 601.433 265.903L570.498 274.192C570.113 273.218 569.046 272.634 568.003 272.913C567.694 272.996 567.444 273.146 567.244 273.324L544.568 250.643C544.977 250.161 545.158 249.449 544.982 248.792C544.796 248.096 544.293 247.609 543.698 247.396L551.967 216.465C552.268 216.508 552.559 216.513 552.83 216.441C553.873 216.161 554.505 215.122 554.351 214.086L585.286 205.797C585.671 206.771 586.739 207.355 587.781 207.076C588.09 206.993 588.34 206.843 588.541 206.665L611.234 229.258C610.826 229.74 610.644 230.452 610.82 231.109C610.84 231.187 610.861 231.264 610.872 231.303C611.104 231.862 611.548 232.282 612.066 232.516L603.817 263.524ZM655.521 184.906C655.112 185.388 654.93 186.1 655.106 186.757C655.282 187.414 655.796 187.94 656.391 188.153L648.093 219.133C647.792 219.089 647.501 219.084 647.23 219.157C646.188 219.436 645.556 220.476 645.709 221.512L614.774 229.801C614.389 228.827 613.322 228.243 612.279 228.522C611.97 228.605 611.72 228.755 611.52 228.933L588.844 206.252C589.214 205.78 589.388 205.195 589.272 204.605C589.251 204.527 589.23 204.45 589.22 204.411C589.044 203.754 588.53 203.229 587.935 203.015L596.233 172.035C596.534 172.079 596.825 172.084 597.096 172.011C598.138 171.732 598.77 170.692 598.617 169.656L629.591 161.357C629.976 162.331 631.043 162.915 632.086 162.636C632.395 162.553 632.644 162.403 632.845 162.225L655.521 184.906ZM595.002 168.677C594.593 169.16 594.411 169.872 594.587 170.529C594.763 171.186 595.277 171.711 595.872 171.925L587.574 202.905C587.273 202.861 586.982 202.856 586.712 202.929C585.669 203.208 585.037 204.248 585.19 205.284L554.255 213.573C554.092 213.119 553.747 212.756 553.344 212.491C552.904 212.236 552.301 212.149 551.76 212.294C551.451 212.377 551.201 212.526 551.001 212.704L528.325 190.024C528.734 189.541 528.916 188.83 528.739 188.173C528.605 187.67 528.336 187.286 527.934 187.021C527.787 186.936 527.64 186.851 527.455 186.776L535.752 155.797C536.054 155.84 536.345 155.845 536.615 155.773C537.658 155.493 538.29 154.454 538.137 153.417L569.072 145.128C569.457 146.103 570.524 146.687 571.567 146.407C571.876 146.325 572.125 146.175 572.326 145.997L595.002 168.677ZM534.434 152.421C534.025 152.903 533.843 153.615 534.019 154.272C534.195 154.929 534.709 155.455 535.304 155.668L527.006 186.648C526.705 186.604 526.414 186.6 526.144 186.672C525.101 186.951 524.469 187.991 524.622 189.027L493.687 197.316C493.302 196.342 492.235 195.758 491.192 196.037C490.883 196.12 490.633 196.27 490.433 196.448L467.757 173.767C468.166 173.285 468.348 172.573 468.172 171.916C468.006 171.297 467.58 170.79 467.023 170.566C466.974 170.538 466.936 170.548 466.887 170.52L475.184 139.54C475.486 139.584 475.777 139.589 476.047 139.516C477.09 139.237 477.722 138.197 477.569 137.161L508.504 128.872C508.889 129.846 509.956 130.43 510.999 130.151C511.308 130.068 511.557 129.918 511.758 129.74L534.434 152.421ZM458.952 78.9596C459.253 79.0031 459.544 79.0079 459.815 78.9355C460.858 78.6561 461.49 77.6166 461.336 76.5804L492.271 68.2914C492.656 69.2655 493.723 69.8497 494.766 69.5703C495.075 69.4875 495.325 69.3378 495.525 69.1597L518.201 91.8402C517.793 92.3227 517.611 93.0344 517.787 93.6916C517.963 94.3488 518.476 94.8743 519.072 95.0877L510.774 126.068C510.472 126.024 510.181 126.019 509.911 126.092C508.868 126.371 508.236 127.41 508.39 128.447L477.455 136.736C477.292 136.282 476.946 135.919 476.544 135.654C476.103 135.399 475.5 135.312 474.96 135.457C474.651 135.54 474.401 135.689 474.2 135.867L451.524 113.187C451.933 112.704 452.115 111.993 451.939 111.336C451.804 110.833 451.536 110.449 451.134 110.184C450.987 110.099 450.84 110.014 450.654 109.939L458.952 78.9596ZM413.337 119.897C412.928 120.38 412.746 121.091 412.922 121.749C412.995 122.019 413.106 122.279 413.284 122.48C413.531 122.787 413.836 122.996 414.207 123.145L405.909 154.125C405.608 154.081 405.317 154.076 405.046 154.149C404.004 154.428 403.371 155.467 403.525 156.504L372.59 164.793C372.205 163.819 371.138 163.234 370.095 163.514C370.018 163.534 369.94 163.555 369.902 163.566C369.68 163.666 369.498 163.757 369.325 163.886L346.649 141.205C347.058 140.723 347.24 140.011 347.064 139.354C346.929 138.851 346.661 138.467 346.259 138.202C346.112 138.117 345.965 138.032 345.779 137.958L354.077 106.978C354.378 107.021 354.669 107.026 354.94 106.954C355.982 106.674 356.615 105.635 356.461 104.599L387.396 96.3098C387.781 97.2839 388.848 97.8681 389.891 97.5887C390.2 97.5059 390.45 97.3562 390.65 97.178L413.337 119.897ZM352.818 103.669C352.409 104.151 352.227 104.863 352.403 105.52C352.579 106.178 353.092 106.703 353.688 106.916L345.39 137.896C345.089 137.853 344.798 137.848 344.527 137.92C343.485 138.2 342.852 139.239 343.006 140.275L312.071 148.564C311.735 147.619 310.765 147.091 309.769 147.234C309.692 147.254 309.614 147.275 309.576 147.285C309.499 147.306 309.421 147.327 309.383 147.337C309.161 147.438 308.979 147.528 308.806 147.657L286.13 124.977C286.539 124.494 286.721 123.783 286.545 123.126C286.379 122.507 285.953 122 285.397 121.776C285.348 121.747 285.309 121.758 285.26 121.729L293.558 90.7496C293.859 90.7932 294.15 90.798 294.421 90.7256C295.463 90.4462 296.096 89.4067 295.942 88.3705L326.877 80.0815C327.262 81.0556 328.329 81.6398 329.372 81.3604C329.681 81.2776 329.931 81.1278 330.131 80.9498L352.818 103.669ZM336.575 43.0498C336.166 43.5323 335.984 44.2439 336.16 44.9011C336.336 45.5584 336.85 46.0839 337.445 46.2972L329.147 77.277C328.846 77.2335 328.555 77.2286 328.284 77.301C327.242 77.5804 326.61 78.62 326.763 79.6562L295.828 87.9452C295.696 87.6076 295.487 87.2908 295.222 87.0718C294.739 86.6624 294.028 86.48 293.333 86.6663C293.024 86.7491 292.774 86.8988 292.574 87.0769L269.898 64.3964C270.307 63.914 270.488 63.2022 270.312 62.545C270.178 62.0424 269.909 61.6586 269.507 61.3935C269.36 61.3085 269.213 61.2236 269.028 61.149L277.325 30.1691C277.627 30.2127 277.918 30.2175 278.188 30.1451C279.231 29.8657 279.863 28.8262 279.71 27.79L310.644 19.501C311.03 20.4751 312.097 21.0593 313.14 20.7799C313.449 20.6971 313.698 20.5474 313.899 20.3692L336.575 43.0498ZM276.007 26.7932C275.598 27.2756 275.416 27.9873 275.592 28.6446C275.768 29.3018 276.282 29.8272 276.877 30.0407L268.579 61.0205C268.278 60.9769 267.987 60.9721 267.716 61.0445C266.674 61.3239 266.042 62.3634 266.195 63.3996L235.26 71.6886C234.875 70.7145 233.808 70.1303 232.765 70.4098C232.456 70.4925 232.206 70.6423 232.006 70.8204L209.33 48.1398C209.739 47.6574 209.921 46.9457 209.744 46.2884C209.568 45.6312 209.055 45.1058 208.46 44.8924L216.757 13.9125C217.059 13.9561 217.35 13.961 217.62 13.8885C218.663 13.6091 219.295 12.5696 219.142 11.5334L250.077 3.24441C250.462 4.2185 251.529 4.80271 252.572 4.52331C252.881 4.44053 253.13 4.29074 253.331 4.11268L276.007 26.7932Z" fill="white"/>
</svg>
