<svg width="348" height="547" viewBox="0 0 348 547" fill="none" xmlns="http://www.w3.org/2000/svg">
<path d="M25.548 654.137H57.2666C57.3854 655.168 58.2565 656 59.3257 656C60.4741 656 61.3849 655.088 61.3849 653.939C61.3849 653.265 61.0284 652.631 60.5137 652.274L76.3927 624.764C76.6699 624.883 76.9471 624.962 77.2243 624.962C78.3727 624.962 79.2834 624.05 79.2834 622.901C79.2834 621.751 78.3727 620.839 77.2243 620.839C76.9075 620.839 76.6303 620.919 76.3927 621.038L60.5137 593.528C61.0284 593.171 61.3849 592.537 61.3849 591.863C61.3849 591.189 61.0284 590.555 60.5137 590.198L76.3927 562.688C76.6699 562.807 76.9471 562.886 77.2243 562.886C78.3727 562.886 79.2834 561.974 79.2834 560.825C79.2834 559.675 78.3727 558.763 77.2243 558.763C76.9075 558.763 76.6303 558.843 76.3927 558.962L60.5137 531.452C61.0284 531.095 61.3849 530.461 61.3849 529.787C61.3849 529.43 61.3056 529.113 61.1472 528.796C60.9888 528.518 60.7909 528.28 60.5533 528.122L76.4323 500.612C76.7095 500.731 76.9867 500.81 77.2639 500.81C78.3331 500.81 79.2043 499.978 79.323 498.947H111.042C111.16 499.978 112.032 500.81 113.101 500.81C113.418 500.81 113.695 500.731 113.932 500.612L129.811 528.122C129.297 528.479 128.94 529.113 128.94 529.787C128.94 530.936 129.851 531.848 130.999 531.848C132.068 531.848 132.94 531.016 133.058 529.985H164.777C164.896 531.016 165.767 531.848 166.836 531.848C167.153 531.848 167.43 531.769 167.668 531.65L183.547 559.16C183.032 559.517 182.676 560.151 182.676 560.825C182.676 561.974 183.586 562.886 184.735 562.886C185.804 562.886 186.675 562.054 186.794 561.023H218.512C218.631 562.054 219.502 562.886 220.571 562.886C221.72 562.886 222.631 561.974 222.631 560.825C222.631 560.151 222.274 559.517 221.759 559.16L237.639 531.65C237.916 531.769 238.193 531.848 238.47 531.848C239.618 531.848 240.529 530.936 240.529 529.787C240.529 528.637 239.618 527.725 238.47 527.725C238.153 527.725 237.876 527.805 237.639 527.924L221.759 500.414C222.274 500.057 222.631 499.423 222.631 498.749C222.631 498.075 222.274 497.441 221.759 497.084L237.639 469.574C237.639 469.574 237.678 469.574 237.678 469.613C237.916 469.732 238.193 469.772 238.47 469.772C239.539 469.772 240.41 468.94 240.529 467.909H272.248C272.367 468.94 273.238 469.772 274.307 469.772C275.455 469.772 276.366 468.86 276.366 467.711C276.366 467.037 276.01 466.403 275.495 466.046L291.374 438.536C291.651 438.655 291.928 438.734 292.206 438.734C293.275 438.734 294.146 437.901 294.265 436.871H325.983C326.102 437.901 326.973 438.734 328.042 438.734C329.191 438.734 330.101 437.822 330.101 436.673C330.101 435.999 329.745 435.365 329.23 435.008L345.109 407.498C345.386 407.617 345.664 407.696 345.941 407.696C347.089 407.696 348 406.784 348 405.635C348 404.485 347.089 403.573 345.941 403.573C345.624 403.573 345.347 403.653 345.109 403.772L329.23 376.262C329.745 375.905 330.101 375.271 330.101 374.597C330.101 373.447 329.191 372.535 328.042 372.535C326.973 372.535 326.102 373.368 325.983 374.398H294.265C294.225 374.081 294.146 373.804 293.987 373.566C293.631 372.971 292.958 372.535 292.206 372.535C291.889 372.535 291.612 372.615 291.374 372.734L275.495 345.224C276.01 344.867 276.366 344.233 276.366 343.559C276.366 342.409 275.455 341.497 274.307 341.497C273.238 341.497 272.367 342.33 272.248 343.36H240.529C240.49 342.885 240.252 342.449 239.935 342.092C239.579 341.735 239.024 341.497 238.47 341.497C238.153 341.497 237.876 341.577 237.639 341.696L221.759 314.185C222.274 313.829 222.631 313.194 222.631 312.521C222.631 312.164 222.551 311.847 222.393 311.53C222.235 311.252 222.037 311.014 221.799 310.816L237.678 283.306C237.955 283.425 238.232 283.504 238.51 283.504C239.658 283.504 240.569 282.593 240.569 281.443C240.569 280.293 239.658 279.382 238.51 279.382C238.193 279.382 237.916 279.461 237.678 279.58L221.799 252.07C222.314 251.713 222.67 251.079 222.67 250.405C222.67 250.048 222.591 249.731 222.433 249.414C222.274 249.136 222.076 248.899 221.839 248.74L237.718 221.23C237.995 221.349 238.272 221.428 238.549 221.428C239.618 221.428 240.49 220.596 240.608 219.565H272.327C272.446 220.596 273.317 221.428 274.386 221.428C275.534 221.428 276.445 220.517 276.445 219.367C276.445 218.693 276.089 218.059 275.574 217.702L291.453 190.192C291.73 190.311 292.008 190.39 292.285 190.39C293.433 190.39 294.344 189.479 294.344 188.329C294.344 187.179 293.433 186.268 292.285 186.268C291.968 186.268 291.691 186.347 291.453 186.466L275.574 158.956C276.089 158.599 276.445 157.965 276.445 157.291C276.445 156.141 275.534 155.23 274.386 155.23C273.317 155.23 272.446 156.062 272.327 157.093H240.608C240.569 156.617 240.331 156.181 240.014 155.824C239.658 155.468 239.104 155.23 238.549 155.23C238.232 155.23 237.955 155.309 237.718 155.428L221.839 127.918C222.353 127.561 222.71 126.927 222.71 126.253C222.71 125.103 221.799 124.192 220.651 124.192C219.582 124.192 218.71 125.024 218.592 126.055H186.873C186.754 125.024 185.883 124.192 184.814 124.192C183.666 124.192 182.755 125.103 182.755 126.253C182.755 126.927 183.111 127.561 183.626 127.918L167.747 155.428C167.47 155.309 167.192 155.23 166.915 155.23C165.846 155.23 164.975 156.062 164.856 157.093H133.138C133.098 156.617 132.86 156.181 132.544 155.824C132.187 155.468 131.633 155.23 131.078 155.23C130.762 155.23 130.484 155.309 130.247 155.428L114.368 127.918C114.605 127.72 114.843 127.482 114.962 127.204C115.12 126.927 115.199 126.57 115.199 126.213C115.199 125.539 114.843 124.905 114.328 124.548L130.207 97.0384C130.485 97.1573 130.762 97.2366 131.039 97.2366C132.187 97.2366 133.098 96.3249 133.098 95.1753C133.098 94.0257 132.187 93.114 131.039 93.114C130.722 93.114 130.445 93.1933 130.207 93.3122L114.328 65.8022C114.843 65.4454 115.199 64.8112 115.199 64.1373C115.199 63.8598 115.16 63.5823 115.041 63.3445C114.883 62.9877 114.645 62.7103 114.328 62.4724L130.207 34.9624C130.485 35.0813 130.762 35.1606 131.039 35.1606C132.187 35.1606 133.098 34.2488 133.098 33.0993C133.098 31.9497 132.187 31.038 131.039 31.038C130.722 31.038 130.445 31.1173 130.207 31.2362L114.328 3.72615C114.843 3.36939 115.199 2.73515 115.199 2.06127C115.199 0.911717 114.289 0 113.14 0C112.071 0 111.2 0.832437 111.081 1.86307H79.3626C79.2438 0.832437 78.3727 0 77.3035 0C76.1552 0 75.2444 0.911717 75.2444 2.06127C75.2444 2.73515 75.6008 3.36939 76.1155 3.72615L60.2365 31.2362C59.9593 31.1173 59.6821 31.038 59.3653 31.038C58.2961 31.038 57.425 31.8704 57.3062 32.9011H25.5876C25.4688 31.8704 24.5977 31.038 23.5285 31.038C22.3801 31.038 21.4694 31.9497 21.4694 33.0993C21.4694 33.7732 21.8257 34.4074 22.3405 34.7642L6.46149 62.2742C6.1843 62.1553 5.9071 62.076 5.62991 62.076C4.56076 62.076 3.68958 62.9085 3.57077 63.9391H-28.1478C-28.1874 63.4634 -28.425 63.0274 -28.7417 62.6706C-29.0981 62.3139 -29.6525 62.076 -30.2069 62.076C-30.5237 62.076 -30.8009 62.1553 -31.0385 62.2742L-46.9967 34.2488C-46.4819 33.8921 -46.1255 33.2578 -46.1255 32.584C-46.1255 31.4344 -47.0363 30.5227 -48.1847 30.5227C-49.2538 30.5227 -50.125 31.3551 -50.2438 32.3858H-81.9623C-82.0811 31.3551 -82.9523 30.5227 -84.0215 30.5227C-85.1698 30.5227 -86.0806 31.4344 -86.0806 32.584C-86.0806 33.2578 -85.7242 33.8921 -85.2094 34.2488L-101.089 61.7589C-101.366 61.64 -101.643 61.5607 -101.92 61.5607C-103.068 61.5607 -103.979 62.4724 -103.979 63.622C-103.979 64.7715 -103.068 65.6833 -101.92 65.6833C-101.603 65.6833 -101.326 65.604 -101.089 65.485L-85.2094 92.9951C-85.7242 93.3519 -86.0806 93.9861 -86.0806 94.66C-86.0806 95.3339 -85.7242 95.9681 -85.2094 96.3249L-101.089 123.835C-101.366 123.716 -101.643 123.637 -101.92 123.637C-102.831 123.637 -103.623 124.231 -103.9 125.103C-103.94 125.222 -103.979 125.381 -103.979 125.5H-135.698C-135.817 124.469 -136.688 123.637 -137.757 123.637C-138.905 123.637 -139.816 124.548 -139.816 125.698C-139.816 126.372 -139.46 127.006 -138.945 127.363L-154.824 154.873C-155.101 154.754 -155.378 154.675 -155.655 154.675C-156.725 154.675 -157.596 155.507 -157.715 156.538H-189.433C-189.473 156.062 -189.71 155.626 -190.027 155.269C-190.384 154.913 -190.938 154.675 -191.492 154.675C-191.809 154.675 -192.086 154.754 -192.324 154.873L-208.282 127.482C-207.767 127.125 -207.411 126.491 -207.411 125.817C-207.411 124.667 -208.322 123.756 -209.47 123.756C-210.539 123.756 -211.41 124.588 -211.529 125.619H-243.248C-243.367 124.588 -244.238 123.756 -245.307 123.756C-246.455 123.756 -247.366 124.667 -247.366 125.817C-247.366 126.491 -247.01 127.125 -246.495 127.482L-262.374 154.992C-262.651 154.873 -262.928 154.794 -263.205 154.794C-264.354 154.794 -265.265 155.705 -265.265 156.855C-265.265 158.004 -264.354 158.916 -263.205 158.916C-262.889 158.916 -262.611 158.837 -262.374 158.718L-246.495 186.228C-247.01 186.585 -247.366 187.219 -247.366 187.893C-247.366 188.567 -247.01 189.201 -246.495 189.558L-262.374 217.068C-262.651 216.949 -262.928 216.87 -263.205 216.87C-264.354 216.87 -265.265 217.781 -265.265 218.931C-265.265 220.08 -264.354 220.992 -263.205 220.992C-262.889 220.992 -262.611 220.913 -262.374 220.794L-246.495 248.304C-247.01 248.661 -247.366 249.295 -247.366 249.969C-247.366 251.118 -246.455 252.03 -245.307 252.03C-244.238 252.03 -243.367 251.198 -243.248 250.167H-211.529C-211.41 251.198 -210.539 252.03 -209.47 252.03C-209.153 252.03 -208.876 251.951 -208.639 251.832L-192.759 279.342C-193.274 279.699 -193.631 280.333 -193.631 281.007C-193.631 281.681 -193.274 282.315 -192.759 282.672L-208.599 310.142C-208.837 310.023 -209.153 309.944 -209.43 309.944C-209.866 309.944 -210.262 310.063 -210.579 310.301C-211.094 310.618 -211.41 311.173 -211.49 311.807H-243.208C-243.327 310.776 -244.198 309.944 -245.267 309.944C-246.416 309.944 -247.326 310.856 -247.326 312.005C-247.326 312.679 -246.97 313.313 -246.455 313.67L-262.334 341.18C-262.611 341.061 -262.889 340.982 -263.166 340.982C-264.235 340.982 -265.106 341.814 -265.225 342.845H-296.983C-297.102 341.814 -297.973 340.982 -299.042 340.982C-300.191 340.982 -301.101 341.894 -301.101 343.043C-301.101 343.717 -300.745 344.351 -300.23 344.708L-316.109 372.456C-316.386 372.337 -316.664 372.258 -316.941 372.258C-318.089 372.258 -319 373.17 -319 374.319C-319 375.469 -318.089 376.38 -316.941 376.38C-316.624 376.38 -316.347 376.301 -316.109 376.182L-300.23 403.692C-300.745 404.049 -301.101 404.683 -301.101 405.357C-301.101 406.507 -300.191 407.418 -299.042 407.418C-297.973 407.418 -297.102 406.586 -296.983 405.555H-265.265C-265.146 406.586 -264.275 407.418 -263.205 407.418C-262.889 407.418 -262.611 407.339 -262.374 407.22L-246.495 434.73C-247.01 435.087 -247.366 435.721 -247.366 436.395C-247.366 437.545 -246.455 438.456 -245.307 438.456C-244.238 438.456 -243.367 437.624 -243.248 436.593H-211.529C-211.41 437.624 -210.539 438.456 -209.47 438.456C-209.153 438.456 -208.876 438.377 -208.639 438.258L-192.759 465.768C-193.274 466.125 -193.631 466.759 -193.631 467.433C-193.631 468.107 -193.274 468.741 -192.759 469.098L-208.639 496.608C-208.916 496.489 -209.193 496.41 -209.47 496.41C-210.618 496.41 -211.529 497.322 -211.529 498.471C-211.529 499.621 -210.618 500.532 -209.47 500.532C-209.153 500.532 -208.876 500.453 -208.639 500.334L-192.759 527.844C-193.274 528.201 -193.631 528.835 -193.631 529.509C-193.631 530.659 -192.72 531.57 -191.571 531.57C-190.502 531.57 -189.631 530.738 -189.512 529.707H-157.794C-157.675 530.738 -156.804 531.57 -155.735 531.57C-154.586 531.57 -153.676 530.659 -153.676 529.509C-153.676 528.835 -154.032 528.201 -154.547 527.844L-138.668 500.334C-138.39 500.453 -138.113 500.532 -137.836 500.532C-136.767 500.532 -135.896 499.7 -135.777 498.669H-104.019C-103.979 498.868 -103.94 499.066 -103.86 499.264C-103.544 500.017 -102.831 500.532 -101.96 500.532C-101.643 500.532 -101.366 500.453 -101.128 500.334L-85.249 527.844C-85.7638 528.201 -86.1202 528.835 -86.1202 529.509C-86.1202 530.659 -85.2094 531.57 -84.0611 531.57C-82.9919 531.57 -82.1208 530.738 -82.002 529.707H-50.2834C-50.2042 530.698 -49.4122 531.452 -48.4223 531.57C-48.3431 531.57 -48.2639 531.57 -48.2243 531.57C-48.1451 531.57 -48.0659 531.57 -48.0263 531.57C-47.7887 531.531 -47.5907 531.491 -47.3927 531.412L-31.5136 558.922C-32.0284 559.279 -32.3848 559.913 -32.3848 560.587C-32.3848 561.261 -32.0284 561.895 -31.5136 562.252L-47.3927 589.762C-47.6699 589.643 -47.9471 589.564 -48.2243 589.564C-49.3726 589.564 -50.2834 590.475 -50.2834 591.625C-50.2834 592.774 -49.3726 593.686 -48.2243 593.686C-47.9075 593.686 -47.6303 593.607 -47.3927 593.488L-31.5136 620.998C-32.0284 621.355 -32.3848 621.989 -32.3848 622.663C-32.3848 623.812 -31.4741 624.724 -30.3257 624.724C-29.2565 624.724 -28.3853 623.892 -28.2665 622.861H3.452C3.5708 623.892 4.44196 624.724 5.51111 624.724C5.82788 624.724 6.1051 624.645 6.34268 624.526L22.2217 652.036C21.707 652.393 21.3506 653.027 21.3506 653.701C21.3506 654.85 22.2614 655.762 23.4097 655.762C24.5581 656 25.4293 655.207 25.548 654.137ZM165.371 158.322C165.727 158.678 166.282 158.916 166.836 158.916C167.153 158.916 167.43 158.837 167.668 158.718L183.547 186.228C183.032 186.585 182.676 187.219 182.676 187.893C182.676 188.567 183.032 189.201 183.547 189.558L169.529 213.857L167.668 217.068C167.39 216.949 167.113 216.87 166.836 216.87C165.767 216.87 164.896 217.702 164.777 218.733H133.058C133.019 218.455 132.94 218.178 132.821 217.94C132.464 217.306 131.791 216.87 130.999 216.87C130.683 216.87 130.405 216.949 130.168 217.068L114.289 189.558C114.803 189.201 115.16 188.567 115.16 187.893C115.16 187.219 114.803 186.585 114.289 186.228L130.168 158.718C130.445 158.837 130.722 158.916 130.999 158.916C132.068 158.916 132.94 158.084 133.058 157.053H164.777C164.817 157.529 165.015 157.965 165.371 158.322ZM-153.636 281.126C-153.636 280.452 -153.992 279.818 -154.507 279.461L-138.628 251.951C-138.351 252.07 -138.074 252.149 -137.796 252.149C-136.727 252.149 -135.856 251.317 -135.737 250.286H-104.019C-103.979 250.564 -103.9 250.841 -103.781 251.079C-103.425 251.713 -102.752 252.149 -101.96 252.149C-101.643 252.149 -101.366 252.07 -101.128 251.951L-85.2886 279.461C-85.6054 279.699 -85.843 279.976 -85.9618 280.333C-86.0806 280.571 -86.1202 280.848 -86.1202 281.165C-86.1202 281.839 -85.7638 282.474 -85.249 282.83L-101.089 310.301H-101.128C-101.366 310.182 -101.643 310.142 -101.92 310.142C-102.791 310.142 -103.504 310.658 -103.821 311.411C-103.9 311.609 -103.94 311.807 -103.979 312.005H-135.698C-135.817 310.975 -136.688 310.142 -137.757 310.142C-138.074 310.142 -138.351 310.221 -138.628 310.34L-154.507 282.83C-153.992 282.434 -153.636 281.839 -153.636 281.126ZM-30.2861 127.839C-29.2169 127.839 -28.3457 127.006 -28.2269 125.975H3.49158C3.61038 127.006 4.48157 127.839 5.55072 127.839C5.86752 127.839 6.14468 127.759 6.38229 127.64L22.2614 155.15C21.7466 155.507 21.3902 156.141 21.3902 156.815C21.3902 157.45 21.6674 158.044 22.1425 158.401C22.1822 158.441 22.2218 158.441 22.2614 158.48L6.38229 185.99C6.1051 185.871 5.82791 185.792 5.55072 185.792C4.48157 185.792 3.61038 186.624 3.49158 187.655H-28.2269C-28.3457 186.624 -29.2169 185.792 -30.2861 185.792C-30.6029 185.792 -30.8801 185.871 -31.1177 185.99L-46.9967 158.52C-46.6403 158.242 -46.3631 157.886 -46.2443 157.45C-46.1651 157.251 -46.1652 157.053 -46.1652 156.815C-46.1652 156.141 -46.5215 155.507 -47.0363 155.15L-31.1573 127.64C-30.8801 127.799 -30.6029 127.839 -30.2861 127.839ZM164.777 219.169C164.896 220.199 165.767 221.032 166.836 221.032C167.153 221.032 167.43 220.953 167.668 220.834L183.547 248.344C183.032 248.7 182.676 249.335 182.676 250.009C182.676 250.643 182.953 251.237 183.428 251.594C183.468 251.634 183.507 251.634 183.547 251.673L167.668 279.184C167.39 279.065 167.113 278.985 166.836 278.985C165.767 278.985 164.896 279.818 164.777 280.848H133.058C133.019 280.65 132.979 280.452 132.9 280.254C132.583 279.501 131.87 278.985 130.999 278.985C130.683 278.985 130.405 279.065 130.168 279.184L114.289 251.673C114.803 251.317 115.16 250.682 115.16 250.009C115.16 249.454 114.922 248.938 114.566 248.542C114.487 248.463 114.407 248.383 114.328 248.344L130.207 220.834C130.485 220.953 130.762 221.032 131.039 221.032C132.108 221.032 132.979 220.199 133.098 219.169H164.777ZM182.676 312.164C182.676 312.521 182.755 312.877 182.913 313.155C183.072 313.432 183.27 313.67 183.507 313.829L167.628 341.339C167.351 341.22 167.074 341.141 166.797 341.141C165.727 341.141 164.856 341.973 164.737 343.004H133.019C132.979 342.805 132.94 342.607 132.86 342.409C132.544 341.656 131.831 341.141 130.96 341.141C130.643 341.141 130.366 341.22 130.128 341.339L114.249 313.829C114.764 313.472 115.12 312.838 115.12 312.164C115.12 311.886 115.081 311.609 114.962 311.371C114.883 311.173 114.764 311.014 114.645 310.856C114.526 310.737 114.407 310.618 114.249 310.499L130.128 282.989C130.405 283.108 130.683 283.187 130.96 283.187C131.831 283.187 132.544 282.672 132.86 281.919C132.94 281.72 132.979 281.522 133.019 281.324H164.737C164.777 281.602 164.856 281.879 164.975 282.117C165.331 282.751 166.005 283.187 166.797 283.187C167.113 283.187 167.39 283.108 167.628 282.989L183.507 310.499C183.032 310.895 182.676 311.49 182.676 312.164ZM182.676 374.319C182.676 374.993 183.032 375.627 183.547 375.984L169.529 400.283L167.668 403.494C167.39 403.375 167.113 403.296 166.836 403.296C165.767 403.296 164.896 404.128 164.777 405.159H133.058C133.019 404.882 132.94 404.604 132.821 404.366C132.464 403.732 131.791 403.296 130.999 403.296C130.683 403.296 130.405 403.375 130.168 403.494L114.289 375.984C114.803 375.627 115.16 374.993 115.16 374.319C115.16 373.645 114.803 373.011 114.289 372.654L130.168 345.144C130.445 345.263 130.722 345.342 130.999 345.342C132.068 345.342 132.94 344.51 133.058 343.479H164.777C164.817 343.678 164.856 343.876 164.935 344.074C165.252 344.827 165.965 345.342 166.836 345.342C167.153 345.342 167.43 345.263 167.668 345.144L183.547 372.654C183.032 373.011 182.676 373.645 182.676 374.319ZM-82.1207 404.604C-82.4375 403.851 -83.1503 403.336 -84.0215 403.336C-84.3383 403.336 -84.6154 403.415 -84.853 403.534L-100.732 376.024C-100.217 375.667 -99.8609 375.033 -99.8609 374.359C-99.8609 373.685 -100.217 373.051 -100.732 372.694L-84.853 345.184H-84.8134C-84.5759 345.303 -84.2987 345.342 -84.0215 345.342C-82.9523 345.342 -82.0811 344.51 -81.9623 343.479H-50.2438C-50.1646 344.233 -49.6498 344.906 -48.9767 345.184C-48.7391 345.303 -48.4619 345.342 -48.1847 345.342C-47.8679 345.342 -47.5907 345.263 -47.3531 345.144L-31.474 372.654C-31.9888 373.011 -32.3452 373.645 -32.3452 374.319C-32.3452 374.993 -31.9888 375.627 -31.474 375.984L-47.3531 403.494C-47.5511 403.415 -47.7491 403.336 -47.9867 403.336C-48.0659 403.336 -48.1451 403.336 -48.1847 403.336C-49.2538 403.336 -50.125 404.168 -50.2438 405.199H-81.9623C-82.0019 404.961 -82.0415 404.763 -82.1207 404.604ZM-99.8609 312.204C-99.8609 311.49 -100.217 310.895 -100.732 310.539L-84.8927 283.068C-84.6155 283.187 -84.3383 283.266 -84.0611 283.266C-83.1899 283.266 -82.4771 282.751 -82.1603 281.998C-82.0811 281.8 -82.0415 281.602 -82.002 281.403H-50.2834C-50.2438 281.681 -50.1646 281.958 -50.0458 282.196C-49.6894 282.83 -49.0162 283.266 -48.2243 283.266C-47.9075 283.266 -47.6303 283.187 -47.3927 283.068L-31.5136 310.578C-32.0284 310.935 -32.3848 311.569 -32.3848 312.243C-32.3848 312.758 -32.2264 313.195 -31.9096 313.551C-31.7908 313.67 -31.6721 313.789 -31.5136 313.908L-47.3927 341.418H-47.4323C-47.6699 341.299 -47.9471 341.26 -48.2243 341.26C-49.2934 341.26 -50.1646 342.092 -50.2834 343.123H-82.002C-82.0415 342.647 -82.2791 342.211 -82.5959 341.854C-82.7939 341.656 -82.9919 341.497 -83.2691 341.418C-83.5067 341.299 -83.7839 341.26 -84.0611 341.26C-84.3779 341.26 -84.6551 341.339 -84.8927 341.458L-100.732 313.948C-100.217 313.472 -99.8609 312.877 -99.8609 312.204ZM128.901 343.242C128.901 343.519 128.94 343.796 129.059 344.034C129.178 344.351 129.376 344.629 129.653 344.827C129.693 344.867 129.732 344.867 129.772 344.906L113.893 372.416C113.616 372.298 113.338 372.218 113.061 372.218C111.992 372.218 111.121 373.051 111.002 374.081H79.2834C79.2438 373.804 79.1646 373.526 79.0458 373.289C78.6895 372.654 78.0163 372.218 77.2243 372.218C76.9075 372.218 76.6303 372.298 76.3927 372.416L60.5137 344.906C61.0284 344.55 61.3849 343.915 61.3849 343.242C61.3849 342.964 61.3452 342.687 61.2264 342.449C61.1868 342.369 61.1868 342.33 61.1472 342.251C60.9888 341.973 60.7909 341.735 60.5533 341.577L76.4323 314.067C76.7095 314.186 76.9867 314.265 77.2639 314.265C78.3331 314.265 79.2043 313.432 79.323 312.402H111.042C111.081 312.6 111.121 312.798 111.2 312.996C111.517 313.749 112.23 314.265 113.101 314.265C113.418 314.265 113.695 314.186 113.932 314.067L129.811 341.577C129.257 341.933 128.901 342.568 128.901 343.242ZM-30.2861 252.109C-29.4941 252.109 -28.8209 251.673 -28.4645 251.039C-28.3458 250.801 -28.2665 250.524 -28.2269 250.246H3.49158C3.61038 251.277 4.48157 252.109 5.55072 252.109C5.86752 252.109 6.14471 252.03 6.42191 251.911L22.301 279.421C21.7862 279.778 21.4298 280.412 21.4298 281.086C21.4298 281.76 21.7862 282.394 22.301 282.751L10.8174 302.65L6.42191 310.261C6.14471 310.142 5.86749 310.063 5.5903 310.063C4.52115 310.063 3.64996 310.895 3.53116 311.926H-28.1873C-28.227 311.649 -28.3062 311.371 -28.4249 311.133C-28.7813 310.499 -29.4545 310.063 -30.2465 310.063C-30.5633 310.063 -30.8405 310.142 -31.0781 310.261L-46.9967 282.791C-46.4819 282.434 -46.1255 281.8 -46.1255 281.126C-46.1255 280.452 -46.4819 279.818 -46.9967 279.461L-31.1177 251.951C-30.8801 252.07 -30.6029 252.109 -30.2861 252.109ZM57.5042 282.117C57.8606 282.751 58.5337 283.187 59.3257 283.187C59.6425 283.187 59.9197 283.108 60.1573 282.989L76.0363 310.499C75.5216 310.856 75.1652 311.49 75.1652 312.164C75.1652 312.441 75.2444 312.719 75.3236 312.957C75.482 313.313 75.7195 313.591 75.9967 313.829L60.1177 341.339C59.8405 341.22 59.5633 341.141 59.2861 341.141C58.2169 341.141 57.3458 341.973 57.227 343.004H25.5084C25.4688 342.726 25.3896 342.449 25.2708 342.211C24.9145 341.577 24.2413 341.141 23.4493 341.141C23.1325 341.141 22.8553 341.22 22.6177 341.339L6.73868 313.829C7.25345 313.472 7.60986 312.838 7.60986 312.164C7.60986 311.49 7.25345 310.856 6.73868 310.499L22.6177 282.989C22.8949 283.108 23.1721 283.187 23.4493 283.187C24.5185 283.187 25.3896 282.355 25.5084 281.324H57.227C57.2666 281.602 57.3458 281.879 57.5042 282.117ZM-29.4941 372.416C-29.7317 372.298 -30.0089 372.258 -30.2861 372.258C-30.6029 372.258 -30.8801 372.337 -31.1177 372.456L-46.9571 344.946C-46.4424 344.589 -46.086 343.955 -46.086 343.281C-46.086 342.568 -46.4424 341.973 -46.9571 341.577L-31.0781 314.067C-30.8009 314.186 -30.5237 314.265 -30.2465 314.265C-29.1773 314.265 -28.3062 313.432 -28.1873 312.402H3.53116C3.64996 313.432 4.52115 314.265 5.5903 314.265C5.9071 314.265 6.1843 314.186 6.42191 314.067L22.301 341.577C21.7862 341.933 21.4298 342.568 21.4298 343.242C21.4298 343.876 21.707 344.47 22.1822 344.827C22.2218 344.867 22.2614 344.867 22.301 344.906L6.42191 372.416C6.14471 372.298 5.86749 372.218 5.5903 372.218C4.52115 372.218 3.64996 373.051 3.53116 374.081H-28.1873C-28.3062 373.328 -28.7813 372.694 -29.4941 372.416ZM23.6869 403.336C23.6077 403.336 23.5285 403.336 23.4889 403.336C23.1721 403.336 22.8949 403.415 22.6573 403.534L6.77826 376.024C7.17426 375.707 7.49106 375.271 7.60986 374.755C7.64944 374.636 7.64944 374.478 7.64944 374.319C7.64944 373.645 7.29306 373.011 6.77826 372.654L22.6573 345.144C22.9345 345.263 23.2117 345.342 23.4889 345.342C24.5581 345.342 25.4293 344.51 25.548 343.479H57.2666C57.3062 343.678 57.3458 343.876 57.425 344.074C57.7418 344.827 58.4545 345.342 59.3257 345.342C59.6425 345.342 59.9197 345.263 60.1573 345.144L76.0363 372.654C75.5216 373.011 75.1652 373.645 75.1652 374.319C75.1652 374.597 75.2444 374.874 75.3236 375.112C75.482 375.469 75.7195 375.746 75.9967 375.984L60.1177 403.494C59.8801 403.375 59.5633 403.296 59.2861 403.296C58.2169 403.296 57.3458 404.128 57.227 405.159H25.5084C25.4292 404.208 24.6769 403.415 23.6869 403.336ZM112.071 251.872C112.348 252.03 112.705 252.109 113.061 252.109C113.378 252.109 113.655 252.03 113.893 251.911L129.772 279.421C129.376 279.738 129.059 280.174 128.94 280.69C128.901 280.809 128.901 280.967 128.901 281.126C128.901 281.284 128.901 281.403 128.94 281.562C129.059 282.077 129.336 282.513 129.772 282.83L113.893 310.34C113.616 310.221 113.338 310.142 113.061 310.142C111.992 310.142 111.121 310.975 111.002 312.005H79.2834C79.2438 311.807 79.2043 311.609 79.125 311.411C79.0854 311.331 79.0854 311.292 79.0458 311.213C78.6895 310.578 78.0163 310.142 77.2243 310.142C76.9075 310.142 76.6303 310.221 76.3927 310.34L60.5137 282.83C61.0284 282.474 61.3849 281.839 61.3849 281.165C61.3849 280.492 61.0284 279.857 60.5137 279.501L76.3927 251.991C76.6699 252.109 76.9471 252.189 77.2243 252.189C78.2935 252.189 79.1646 251.356 79.2834 250.326H111.002C111.081 250.96 111.477 251.555 112.071 251.872ZM75.1652 250.048C75.1652 250.682 75.4424 251.277 75.9176 251.634C75.9572 251.673 75.9968 251.673 76.0363 251.713L60.1573 279.223C59.8801 279.104 59.6029 279.025 59.3257 279.025C58.2565 279.025 57.3854 279.857 57.2666 280.888H25.548C25.4293 279.857 24.5581 279.025 23.4889 279.025C23.1721 279.025 22.8949 279.104 22.6573 279.223L6.77826 251.713C7.01587 251.515 7.25345 251.317 7.37225 251.039C7.53064 250.762 7.60986 250.405 7.60986 250.048C7.60986 249.493 7.37225 248.978 7.01587 248.582C6.93668 248.502 6.85745 248.423 6.77826 248.383L16.0444 232.29L22.6177 220.873C22.8949 220.992 23.1721 221.071 23.4493 221.071C24.2413 221.071 24.9145 220.635 25.2708 220.001C25.3896 219.763 25.4688 219.486 25.5084 219.208H57.227C57.3458 220.239 58.2169 221.071 59.2861 221.071C59.6029 221.071 59.8801 220.992 60.1573 220.873L76.0363 248.383C75.482 248.74 75.1652 249.374 75.1652 250.048ZM4.08557 189.399C4.44196 189.756 4.99634 189.994 5.55072 189.994C5.86752 189.994 6.14468 189.915 6.38229 189.796L22.2614 217.306C22.0634 217.464 21.905 217.623 21.7466 217.821C21.509 218.138 21.3902 218.535 21.3902 218.971C21.3902 219.486 21.5486 219.922 21.8654 220.279C21.9842 220.398 22.103 220.517 22.2614 220.635L18.0639 227.929L6.42191 248.146C6.14471 248.027 5.86749 247.947 5.5903 247.947C4.79834 247.947 4.12515 248.383 3.76877 249.018C3.64999 249.255 3.57077 249.533 3.53116 249.81H-28.1873C-28.227 249.335 -28.4645 248.899 -28.7813 248.542C-29.1377 248.185 -29.6921 247.947 -30.2465 247.947C-30.5633 247.947 -30.8405 248.027 -31.0781 248.146L-46.9967 220.675C-46.6799 220.437 -46.4423 220.16 -46.3235 219.803C-46.2047 219.565 -46.1652 219.288 -46.1652 219.01C-46.1652 218.336 -46.5215 217.702 -47.0363 217.345L-31.1968 189.835C-30.9196 189.954 -30.6425 190.033 -30.3653 190.033C-29.4545 190.033 -28.6625 189.439 -28.3853 188.567C-28.3457 188.448 -28.3062 188.289 -28.3062 188.17H3.41238C3.53119 188.606 3.76877 189.042 4.08557 189.399ZM-84.0611 221.071C-83.1899 221.071 -82.4771 220.556 -82.1603 219.803C-82.0811 219.605 -82.0415 219.407 -82.002 219.208H-50.2834C-50.1646 220.239 -49.2934 221.071 -48.2243 221.071C-47.9075 221.071 -47.6303 220.992 -47.3531 220.873L-31.5136 248.383C-31.8304 248.621 -32.068 248.899 -32.1868 249.255C-32.3056 249.493 -32.3452 249.771 -32.3452 250.048C-32.3452 250.722 -31.9888 251.356 -31.474 251.713L-47.3531 279.223C-47.6303 279.104 -47.9075 279.025 -48.1847 279.025C-49.2538 279.025 -50.125 279.857 -50.2438 280.888H-81.9623C-82.0811 279.857 -82.9523 279.025 -84.0215 279.025C-84.3383 279.025 -84.6154 279.104 -84.853 279.223L-100.732 251.713C-100.415 251.475 -100.178 251.198 -100.059 250.841C-99.9401 250.603 -99.9005 250.326 -99.9005 250.048C-99.9005 249.374 -100.257 248.74 -100.772 248.383L-84.9323 220.873C-84.6551 220.992 -84.3383 221.071 -84.0611 221.071ZM-46.1255 405.397C-46.1255 405.119 -46.1652 404.842 -46.2839 404.604C-46.4424 404.247 -46.6799 403.97 -46.9967 403.732L-31.1177 376.222H-31.0781C-30.8405 376.341 -30.5633 376.38 -30.2861 376.38C-29.2169 376.38 -28.3457 375.548 -28.2269 374.517H3.49158C3.57077 375.152 3.88757 375.707 4.40234 376.024C4.71915 376.262 5.11514 376.38 5.55072 376.38C5.86752 376.38 6.14468 376.301 6.38229 376.182L22.2614 403.692C21.7466 404.049 21.3902 404.683 21.3902 405.357C21.3902 405.872 21.5486 406.309 21.8654 406.665C21.9842 406.784 22.103 406.903 22.2614 407.022L6.38229 434.532C6.1843 434.453 5.9863 434.374 5.74872 434.374C5.66953 434.374 5.59033 434.374 5.55072 434.374C4.48157 434.374 3.61038 435.206 3.49158 436.237H-28.2269C-28.2665 435.761 -28.5041 435.325 -28.8209 434.968C-29.1377 434.651 -29.5733 434.413 -30.0881 434.374C-30.1673 434.374 -30.2465 434.374 -30.2861 434.374C-30.6029 434.374 -30.8801 434.453 -31.1177 434.572L-46.9571 407.062C-46.482 406.705 -46.1255 406.071 -46.1255 405.397ZM79.2834 436.237C79.2438 435.761 79.0063 435.325 78.6895 434.968C78.3331 434.611 77.7787 434.374 77.2243 434.374C76.9075 434.374 76.6303 434.453 76.3927 434.572L60.5137 407.062C60.5533 407.022 60.5929 407.022 60.6324 406.982C61.1076 406.586 61.3849 406.031 61.3849 405.397C61.3849 404.723 61.0284 404.089 60.5137 403.732L76.3531 376.222C76.6303 376.341 76.9075 376.42 77.1847 376.42C78.2539 376.42 79.125 375.588 79.2438 374.557H110.962C111.081 375.588 111.952 376.42 113.021 376.42C113.101 376.42 113.18 376.42 113.219 376.42C113.457 376.38 113.655 376.341 113.853 376.262L129.732 403.772C129.217 404.128 128.861 404.763 128.861 405.436C128.861 405.952 129.019 406.388 129.336 406.745C129.455 406.863 129.574 406.982 129.732 407.101L113.853 434.611C113.576 434.492 113.299 434.413 113.021 434.413C112.586 434.413 112.19 434.532 111.873 434.77C111.358 435.087 111.042 435.642 110.962 436.276H79.2834V436.237ZM75.4028 186.942C75.2444 187.219 75.1652 187.576 75.1652 187.933C75.1652 188.606 75.5216 189.241 76.0363 189.597L60.1573 217.107C59.8801 216.989 59.6029 216.909 59.3257 216.909C58.4545 216.909 57.7418 217.425 57.425 218.178C57.3458 218.376 57.3062 218.574 57.2666 218.772H25.548C25.4293 217.742 24.5581 216.909 23.4889 216.909C23.1721 216.909 22.8949 216.989 22.6177 217.107L6.73868 189.597C7.25345 189.241 7.60986 188.606 7.60986 187.933C7.60986 187.259 7.25345 186.624 6.73868 186.268L22.6177 158.758C22.8949 158.877 23.1721 158.956 23.4493 158.956C24.5185 158.956 25.3896 158.123 25.5084 157.093H57.227C57.2666 157.37 57.3458 157.648 57.4646 157.886C57.821 158.52 58.4941 158.956 59.2861 158.956C59.6029 158.956 59.8801 158.877 60.1177 158.758L75.9967 186.268C75.7592 186.426 75.5612 186.664 75.4028 186.942ZM-84.0611 158.916C-83.1503 158.916 -82.3583 158.282 -82.0811 157.45C-82.0415 157.331 -82.002 157.172 -82.002 157.053H-50.2834C-50.1646 158.084 -49.2934 158.916 -48.2243 158.916C-47.9075 158.916 -47.6303 158.837 -47.3927 158.718L-31.5136 186.228C-31.87 186.506 -32.1472 186.862 -32.266 187.298C-32.3452 187.497 -32.3452 187.695 -32.3452 187.933C-32.3452 188.606 -31.9888 189.241 -31.474 189.597L-47.3135 217.107C-47.5907 216.989 -47.8679 216.909 -48.1451 216.909C-48.9371 216.909 -49.6102 217.345 -49.9666 217.98C-50.0458 218.098 -50.0854 218.217 -50.125 218.376C-50.1646 218.495 -50.2042 218.653 -50.2042 218.772H-81.9228C-82.0415 217.742 -82.9127 216.909 -83.9819 216.909C-84.2987 216.909 -84.5759 216.989 -84.853 217.107L-100.693 189.597C-100.178 189.241 -99.8214 188.606 -99.8214 187.933C-99.8214 187.259 -100.178 186.624 -100.693 186.268L-84.8134 158.758C-84.6155 158.877 -84.3383 158.916 -84.0611 158.916ZM-137.796 314.265C-137.361 314.265 -136.965 314.146 -136.648 313.908C-136.133 313.591 -135.817 313.036 -135.737 312.402H-104.019C-103.9 313.432 -103.029 314.265 -101.96 314.265C-101.643 314.265 -101.366 314.186 -101.089 314.067L-85.249 341.577C-85.7638 341.933 -86.1202 342.568 -86.1202 343.242C-86.1202 343.955 -85.7638 344.55 -85.249 344.906L-101.089 372.456C-101.366 372.337 -101.643 372.258 -101.92 372.258C-102.989 372.258 -103.86 373.09 -103.979 374.121H-135.698C-135.817 373.09 -136.688 372.258 -137.757 372.258C-138.074 372.258 -138.351 372.337 -138.588 372.456L-154.468 344.946C-153.953 344.589 -153.596 343.955 -153.596 343.281C-153.596 342.726 -153.834 342.211 -154.19 341.814C-154.27 341.735 -154.349 341.656 -154.428 341.616L-138.588 314.146C-138.39 314.186 -138.113 314.265 -137.796 314.265ZM-153.636 405.397C-153.636 404.723 -153.992 404.089 -154.507 403.732L-138.628 376.222C-138.351 376.341 -138.074 376.42 -137.796 376.42C-136.727 376.42 -135.856 375.588 -135.737 374.557H-104.019C-103.9 375.588 -103.029 376.42 -101.96 376.42C-101.88 376.42 -101.801 376.42 -101.762 376.42C-101.524 376.38 -101.326 376.341 -101.128 376.262L-85.249 403.772C-85.7638 404.128 -86.1202 404.763 -86.1202 405.436C-86.1202 405.635 -86.0806 405.872 -86.041 406.071C-86.041 406.15 -86.0014 406.19 -85.9618 406.229C-85.8826 406.427 -85.7638 406.586 -85.645 406.745C-85.5262 406.863 -85.4074 406.982 -85.249 407.101L-101.128 434.611C-101.405 434.492 -101.682 434.413 -101.96 434.413C-103.029 434.413 -103.9 435.246 -104.019 436.276H-135.737C-135.777 435.999 -135.856 435.721 -135.975 435.483C-136.331 434.849 -137.005 434.413 -137.796 434.413C-138.113 434.413 -138.39 434.492 -138.628 434.611L-154.507 407.101C-153.992 406.705 -153.636 406.071 -153.636 405.397ZM23.4889 465.451C23.1721 465.451 22.8949 465.53 22.6573 465.649L6.77826 438.139C7.29306 437.783 7.64944 437.148 7.64944 436.474C7.64944 436.118 7.57025 435.801 7.41187 435.483C7.25348 435.206 7.05548 434.968 6.81787 434.81L22.6969 407.3C22.8949 407.379 23.0929 407.458 23.3305 407.458C23.4097 407.458 23.4889 407.458 23.5285 407.458C24.5977 407.458 25.4688 406.626 25.5876 405.595H57.3062C57.3458 405.793 57.3854 405.991 57.4646 406.19C57.7813 406.943 58.4941 407.458 59.3653 407.458C59.6821 407.458 59.9593 407.379 60.1969 407.26L76.0759 434.77C76.0363 434.81 75.9967 434.81 75.9572 434.849C75.482 435.246 75.2048 435.801 75.2048 436.435C75.2048 437.109 75.5612 437.743 76.0759 438.1L60.2365 465.61C59.9593 465.491 59.6821 465.412 59.4049 465.412C58.3358 465.412 57.4646 466.244 57.3458 467.275H25.6273C25.4293 466.284 24.5581 465.451 23.4889 465.451ZM130.999 465.451C130.683 465.451 130.405 465.53 130.168 465.649L114.289 438.139C114.328 438.1 114.368 438.1 114.407 438.06C114.883 437.664 115.16 437.109 115.16 436.474C115.16 435.801 114.803 435.166 114.289 434.81L130.168 407.3C130.445 407.418 130.722 407.498 130.999 407.498C132.068 407.498 132.94 406.665 133.058 405.635H164.777C164.856 406.626 165.648 407.379 166.638 407.498C166.717 407.498 166.797 407.498 166.836 407.498C166.915 407.498 166.995 407.498 167.034 407.498C167.272 407.458 167.47 407.418 167.668 407.339L183.547 434.849C183.032 435.206 182.676 435.84 182.676 436.514C182.676 437.148 182.953 437.743 183.428 438.1C183.468 438.139 183.507 438.139 183.547 438.179L167.668 465.689C167.39 465.57 167.113 465.491 166.836 465.491C165.767 465.491 164.896 466.323 164.777 467.354H133.058C132.94 466.284 132.068 465.451 130.999 465.451ZM220.571 376.38C220.651 376.38 220.73 376.38 220.769 376.38C221.007 376.341 221.205 376.301 221.403 376.222L237.282 403.732C236.767 404.089 236.411 404.723 236.411 405.397C236.411 405.912 236.569 406.348 236.886 406.705C237.005 406.824 237.124 406.943 237.282 407.062L221.403 434.572C221.126 434.453 220.849 434.374 220.571 434.374C219.502 434.374 218.631 435.206 218.512 436.237H186.794C186.754 435.959 186.675 435.682 186.556 435.444C186.2 434.81 185.527 434.374 184.735 434.374C184.418 434.374 184.141 434.453 183.903 434.572L168.024 407.062C168.539 406.705 168.895 406.071 168.895 405.397C168.895 404.723 168.539 404.089 168.024 403.732L168.816 402.345L183.864 376.222C184.141 376.341 184.418 376.42 184.695 376.42C185.764 376.42 186.635 375.588 186.754 374.557H218.473C218.631 375.588 219.502 376.38 220.571 376.38ZM111.596 189.36C111.952 189.716 112.507 189.954 113.061 189.954C113.378 189.954 113.655 189.875 113.893 189.756L129.772 217.266C129.257 217.623 128.901 218.257 128.901 218.931C128.901 219.446 129.059 219.882 129.376 220.239C129.495 220.358 129.613 220.477 129.772 220.596L113.893 248.106C113.616 247.987 113.338 247.908 113.061 247.908C111.992 247.908 111.121 248.74 111.002 249.771H79.2834C79.2438 249.295 79.0063 248.859 78.6895 248.502C78.3331 248.145 77.7787 247.908 77.2243 247.908C76.9075 247.908 76.6303 247.987 76.3927 248.106L60.5137 220.596C60.7513 220.398 60.9889 220.16 61.1076 219.922C61.2661 219.644 61.3452 219.288 61.3452 218.931C61.3452 218.376 61.1076 217.861 60.7513 217.464C60.6721 217.385 60.5929 217.306 60.5137 217.266L76.3927 189.756C76.6699 189.875 76.9471 189.954 77.2243 189.954C78.0163 189.954 78.6895 189.518 79.0458 188.884C79.1646 188.646 79.2438 188.369 79.2834 188.091H111.002C111.042 188.606 111.279 189.042 111.596 189.36ZM57.8606 96.1663C58.2169 96.5231 58.7713 96.7609 59.3257 96.7609C59.6425 96.7609 59.9197 96.6816 60.1573 96.5627L76.0363 124.073C75.7988 124.271 75.5612 124.469 75.4424 124.747C75.284 125.024 75.2048 125.381 75.2048 125.738C75.2048 126.253 75.3632 126.689 75.68 127.046C75.7987 127.165 75.9175 127.284 76.0759 127.402L60.1969 154.913C59.9197 154.794 59.6425 154.714 59.3653 154.714C58.5733 154.714 57.9001 155.15 57.5438 155.785C57.425 156.022 57.3458 156.3 57.3062 156.577H25.5876C25.548 156.3 25.4688 156.022 25.3501 155.785C24.9937 155.15 24.3205 154.714 23.5285 154.714C23.2117 154.714 22.9345 154.794 22.6969 154.913L6.81787 127.402C7.33267 127.046 7.68903 126.412 7.68903 125.738C7.68903 125.064 7.33267 124.43 6.81787 124.073L22.6969 96.5627C22.9741 96.6816 23.2513 96.7609 23.5285 96.7609C24.5977 96.7609 25.4688 95.9285 25.5876 94.8978H57.3062C57.3062 95.4131 57.5042 95.8492 57.8606 96.1663ZM-103.425 189.399C-103.068 189.756 -102.514 189.994 -101.96 189.994C-101.643 189.994 -101.366 189.915 -101.128 189.796L-85.2886 217.306C-85.6054 217.544 -85.843 217.821 -85.9618 218.178C-86.0806 218.416 -86.1202 218.693 -86.1202 219.01C-86.1202 219.526 -85.9618 219.962 -85.645 220.318C-85.5262 220.437 -85.4074 220.556 -85.249 220.675L-101.089 248.185C-101.366 248.066 -101.643 247.987 -101.92 247.987C-102.791 247.987 -103.504 248.502 -103.821 249.255C-103.9 249.454 -103.94 249.652 -103.979 249.85H-135.698C-135.737 249.573 -135.817 249.295 -135.935 249.057C-136.292 248.423 -136.965 247.987 -137.757 247.987C-138.074 247.987 -138.351 248.066 -138.588 248.185L-154.468 220.675C-153.953 220.318 -153.596 219.684 -153.596 219.01C-153.596 218.336 -153.953 217.702 -154.468 217.345L-138.588 189.835C-138.311 189.954 -138.034 190.033 -137.757 190.033C-136.688 190.033 -135.817 189.201 -135.698 188.17H-104.019C-103.979 188.606 -103.742 189.042 -103.425 189.399ZM-189.71 404.406C-190.067 403.772 -190.74 403.336 -191.532 403.336C-191.849 403.336 -192.126 403.415 -192.363 403.534L-208.243 376.024C-207.728 375.667 -207.371 375.033 -207.371 374.359C-207.371 373.685 -207.728 373.051 -208.243 372.694L-192.403 345.224C-192.165 345.342 -191.849 345.422 -191.571 345.422C-191.215 345.422 -190.859 345.342 -190.582 345.144C-189.988 344.827 -189.592 344.233 -189.512 343.559H-157.794C-157.675 344.589 -156.804 345.422 -155.735 345.422C-155.418 345.422 -155.141 345.342 -154.864 345.224L-138.984 372.734C-139.499 373.09 -139.856 373.725 -139.856 374.398C-139.856 375.072 -139.499 375.707 -138.984 376.063L-151.26 397.35L-154.864 403.573C-155.141 403.454 -155.418 403.375 -155.695 403.375C-156.764 403.375 -157.635 404.208 -157.754 405.238H-189.473C-189.512 404.921 -189.592 404.644 -189.71 404.406ZM-82.0415 466.918C-82.3187 466.085 -83.0711 465.451 -84.0215 465.451C-84.3383 465.451 -84.6154 465.53 -84.853 465.649L-100.732 438.139C-100.217 437.783 -99.8609 437.148 -99.8609 436.474C-99.8609 436.197 -99.9006 435.919 -100.019 435.682C-100.178 435.325 -100.415 435.047 -100.732 434.81L-84.853 407.3C-84.5759 407.418 -84.2987 407.498 -84.0215 407.498C-82.9523 407.498 -82.0811 406.665 -81.9623 405.635H-50.2438C-50.1646 406.388 -49.6498 407.062 -48.9767 407.339C-48.7391 407.458 -48.4619 407.498 -48.1847 407.498C-47.8679 407.498 -47.5907 407.418 -47.3531 407.3L-31.474 434.81C-31.9888 435.166 -32.3452 435.801 -32.3452 436.474C-32.3452 437.188 -31.9888 437.783 -31.474 438.139L-47.3531 465.649C-47.6303 465.53 -47.9075 465.451 -48.1847 465.451C-49.2538 465.451 -50.125 466.284 -50.2438 467.314H-81.9623C-82.0019 467.195 -82.002 467.037 -82.0415 466.918ZM-28.4645 497.599C-28.8209 496.965 -29.4941 496.529 -30.2861 496.529C-30.6029 496.529 -30.8801 496.608 -31.1177 496.727L-46.9967 469.217C-46.4819 468.86 -46.1255 468.226 -46.1255 467.552C-46.1255 466.878 -46.4819 466.244 -46.9967 465.887L-31.1177 438.377C-30.9197 438.456 -30.7216 438.536 -30.4841 438.536C-30.4049 438.536 -30.3257 438.536 -30.2861 438.536C-29.2169 438.536 -28.3457 437.703 -28.2269 436.673H3.49158C3.57077 437.664 4.36276 438.417 5.35272 438.536C5.43192 438.536 5.51111 438.536 5.55072 438.536C5.86752 438.536 6.14468 438.456 6.38229 438.338L22.2614 465.848C21.7466 466.204 21.3902 466.839 21.3902 467.512C21.3902 468.186 21.7466 468.821 22.2614 469.177L10.7777 489.116L6.42191 496.687C6.14471 496.568 5.86749 496.489 5.5903 496.489C4.52115 496.489 3.64996 497.322 3.53116 498.352H-28.1873C-28.227 498.114 -28.3458 497.837 -28.4645 497.599ZM79.0458 497.599C78.6895 496.965 78.0163 496.529 77.2243 496.529C76.9075 496.529 76.6303 496.608 76.3927 496.727L60.5137 469.217C61.0284 468.86 61.3849 468.226 61.3849 467.552C61.3849 466.878 61.0284 466.244 60.5137 465.887L76.3531 438.377C76.6303 438.496 76.9075 438.575 77.1847 438.575C77.6995 438.575 78.1351 438.417 78.4915 438.1C78.8875 437.743 79.1646 437.267 79.2438 436.712H110.962C111.042 437.703 111.834 438.456 112.824 438.575C112.903 438.575 112.982 438.575 113.021 438.575C113.101 438.575 113.18 438.575 113.219 438.575C113.457 438.536 113.655 438.496 113.853 438.417L129.732 465.927C129.693 465.967 129.653 465.967 129.613 466.006C129.138 466.403 128.861 466.958 128.861 467.592C128.861 468.266 129.217 468.9 129.732 469.257L113.853 496.767C113.576 496.648 113.299 496.568 113.021 496.568C112.507 496.568 112.071 496.727 111.715 497.044C111.319 497.361 111.042 497.877 110.962 498.432H79.2438C79.2834 498.114 79.1646 497.837 79.0458 497.599ZM4.08557 65.0887C4.44196 65.4454 4.99634 65.6833 5.55072 65.6833C5.86752 65.6833 6.14468 65.604 6.38229 65.485L22.2614 92.9951C21.7466 93.3519 21.3902 93.9861 21.3902 94.66C21.3902 95.3339 21.7466 95.9681 22.2614 96.3249L10.7777 116.264L6.42191 123.835C6.14471 123.716 5.86749 123.637 5.5903 123.637C4.52115 123.637 3.64996 124.469 3.53116 125.5H-28.1873C-28.227 125.222 -28.3062 124.945 -28.4249 124.707C-28.7813 124.073 -29.4545 123.637 -30.2465 123.637C-30.5633 123.637 -30.8405 123.716 -31.0781 123.835L-46.9967 96.4041C-46.4819 96.0474 -46.1255 95.4131 -46.1255 94.7393C-46.1255 94.0654 -46.4819 93.4311 -46.9967 93.0744L-31.1177 65.5643C-30.8405 65.6833 -30.5633 65.7625 -30.2861 65.7625C-29.2169 65.7625 -28.3457 64.9301 -28.2269 63.8995H3.49158C3.53119 64.3355 3.76877 64.7715 4.08557 65.0887ZM-157.2 158.322C-156.843 158.678 -156.329 158.916 -155.735 158.916C-155.418 158.916 -155.141 158.837 -154.903 158.718L-139.024 186.228C-139.539 186.585 -139.895 187.219 -139.895 187.893C-139.895 188.567 -139.539 189.201 -139.024 189.558L-151.3 210.844L-154.903 217.068C-155.18 216.949 -155.457 216.87 -155.735 216.87C-156.804 216.87 -157.675 217.702 -157.794 218.733H-189.512C-189.552 218.455 -189.631 218.178 -189.75 217.94C-190.106 217.306 -190.78 216.87 -191.571 216.87C-191.888 216.87 -192.165 216.949 -192.403 217.068L-208.282 189.558C-207.767 189.201 -207.411 188.567 -207.411 187.893C-207.411 187.219 -207.767 186.585 -208.282 186.228L-192.403 158.718C-192.126 158.837 -191.849 158.916 -191.571 158.916C-190.502 158.916 -189.631 158.084 -189.512 157.053H-157.794C-157.715 157.568 -157.517 158.004 -157.2 158.322ZM-135.975 497.599C-136.331 496.965 -137.005 496.529 -137.796 496.529C-138.113 496.529 -138.39 496.608 -138.628 496.727L-154.507 469.217C-153.992 468.86 -153.636 468.226 -153.636 467.552C-153.636 466.878 -153.992 466.244 -154.507 465.887L-138.628 438.377C-138.351 438.496 -138.074 438.575 -137.796 438.575C-136.727 438.575 -135.856 437.743 -135.737 436.712H-104.019C-103.979 436.91 -103.94 437.109 -103.86 437.307C-103.821 437.386 -103.821 437.426 -103.781 437.505C-103.425 438.139 -102.752 438.575 -101.96 438.575C-101.643 438.575 -101.366 438.496 -101.128 438.377L-85.249 465.887C-85.7638 466.244 -86.1202 466.878 -86.1202 467.552C-86.1202 467.83 -86.0806 468.107 -85.9618 468.345C-85.8034 468.702 -85.5658 468.979 -85.249 469.217L-101.128 496.727C-101.405 496.608 -101.682 496.529 -101.96 496.529C-103.029 496.529 -103.9 497.361 -104.019 498.392H-135.737C-135.737 498.114 -135.856 497.837 -135.975 497.599ZM76.0363 559.041C75.5216 559.398 75.1652 560.032 75.1652 560.706C75.1652 561.38 75.5216 562.014 76.0363 562.371L60.1573 589.881C59.8801 589.762 59.6029 589.682 59.3257 589.682C58.9693 589.682 58.6129 589.762 58.3358 589.92C57.7418 590.237 57.3458 590.832 57.2666 591.546H25.548C25.5085 591.228 25.4293 590.951 25.2708 590.713C24.9145 590.119 24.2413 589.682 23.4889 589.682C23.1721 589.682 22.8949 589.762 22.6573 589.881L6.77826 562.371C7.29306 562.014 7.64944 561.38 7.64944 560.706C7.64944 560.032 7.29306 559.398 6.77826 559.041L22.6573 531.531C22.9345 531.65 23.2117 531.729 23.4889 531.729C24.5581 531.729 25.4293 530.897 25.548 529.866H57.2666C57.3062 530.143 57.3854 530.421 57.5042 530.659C57.8606 531.293 58.5337 531.729 59.3257 531.729C59.6425 531.729 59.9197 531.65 60.1573 531.531L76.0363 559.041ZM60.1573 527.765C59.8801 527.646 59.6029 527.567 59.3257 527.567C58.2565 527.567 57.3854 528.399 57.2666 529.43H25.548C25.5085 529.152 25.4292 528.875 25.3105 528.637C24.954 528.003 24.2809 527.567 23.4889 527.567C23.1721 527.567 22.8949 527.646 22.6573 527.765L6.77826 500.255C7.29306 499.898 7.64944 499.264 7.64944 498.59C7.64944 497.916 7.29306 497.282 6.77826 496.925L22.6573 469.415C22.9345 469.534 23.2117 469.613 23.4889 469.613C24.5581 469.613 25.4293 468.781 25.548 467.75H57.2666C57.3854 468.781 58.2565 469.613 59.3257 469.613C59.4049 469.613 59.4841 469.613 59.5237 469.613C59.7613 469.574 59.9593 469.534 60.1573 469.455L76.0363 496.965C75.5216 497.322 75.1652 497.956 75.1652 498.63C75.1652 499.145 75.3236 499.581 75.6404 499.938C75.7592 500.057 75.878 500.176 76.0363 500.295L60.1573 527.765ZM114.289 500.295C114.328 500.255 114.368 500.255 114.407 500.215C114.883 499.819 115.16 499.264 115.16 498.63C115.16 497.956 114.803 497.322 114.289 496.965L130.168 469.455C130.445 469.574 130.722 469.653 130.999 469.653C131.514 469.653 131.95 469.455 132.306 469.177C132.702 468.821 132.979 468.345 133.058 467.79H164.777C164.817 468.147 164.935 468.503 165.133 468.781C165.49 469.296 166.123 469.653 166.836 469.653C167.153 469.653 167.43 469.574 167.668 469.455L183.547 496.965C183.032 497.322 182.676 497.956 182.676 498.63C182.676 499.145 182.834 499.581 183.151 499.938C183.27 500.057 183.388 500.176 183.547 500.295L167.668 527.805C167.39 527.686 167.113 527.607 166.836 527.607C165.767 527.607 164.896 528.439 164.777 529.47H133.058C132.94 528.439 132.068 527.607 130.999 527.607C130.683 527.607 130.405 527.686 130.168 527.805L114.289 500.295ZM237.282 528.003C236.767 528.36 236.411 528.994 236.411 529.668C236.411 530.342 236.767 530.976 237.282 531.333L221.403 558.843C221.126 558.724 220.849 558.644 220.571 558.644C219.502 558.644 218.631 559.477 218.512 560.508H186.794C186.675 559.477 185.804 558.644 184.735 558.644C184.418 558.644 184.141 558.724 183.903 558.843L168.024 531.333C168.539 530.976 168.895 530.342 168.895 529.668C168.895 528.994 168.539 528.36 168.024 528.003L183.903 500.493C184.18 500.612 184.457 500.691 184.735 500.691C185.804 500.691 186.675 499.859 186.794 498.828H218.512C218.631 499.859 219.502 500.691 220.571 500.691C220.888 500.691 221.165 500.612 221.403 500.493L237.282 528.003ZM221.443 496.727C221.165 496.608 220.888 496.529 220.611 496.529C220.255 496.529 219.938 496.608 219.621 496.767C219.027 497.084 218.631 497.678 218.552 498.392H186.833C186.794 498.075 186.715 497.797 186.556 497.559C186.2 496.965 185.527 496.529 184.774 496.529C184.458 496.529 184.18 496.608 183.943 496.727L168.064 469.217C168.578 468.86 168.935 468.226 168.935 467.552C168.935 466.878 168.578 466.244 168.064 465.887L183.943 438.377C184.22 438.496 184.497 438.575 184.774 438.575C185.843 438.575 186.715 437.743 186.833 436.712H218.552C218.592 436.99 218.671 437.267 218.79 437.505C219.027 437.901 219.384 438.258 219.819 438.417C220.057 438.536 220.334 438.575 220.611 438.575C220.928 438.575 221.205 438.496 221.443 438.377L237.322 465.887C236.807 466.244 236.451 466.878 236.451 467.552C236.451 468.226 236.807 468.86 237.322 469.217L221.443 496.727ZM272.287 467.314H240.569C240.49 466.561 240.014 465.887 239.302 465.61C239.064 465.491 238.787 465.451 238.51 465.451C238.193 465.451 237.916 465.53 237.678 465.649L221.799 438.139C222.314 437.783 222.67 437.148 222.67 436.474C222.67 435.801 222.314 435.166 221.799 434.81L237.678 407.3H237.718C237.955 407.418 238.232 407.458 238.51 407.458C239.579 407.458 240.45 406.626 240.569 405.595H272.287C272.367 406.348 272.842 407.022 273.555 407.3C273.792 407.418 274.069 407.458 274.346 407.458C274.663 407.458 274.94 407.379 275.178 407.26L291.057 434.77C290.542 435.127 290.186 435.761 290.186 436.435C290.186 437.109 290.542 437.743 291.057 438.1L275.178 465.61C274.901 465.491 274.624 465.412 274.346 465.412C273.277 465.451 272.406 466.284 272.287 467.314ZM344.793 403.732C344.278 404.089 343.921 404.723 343.921 405.397C343.921 406.071 344.278 406.705 344.793 407.062L328.913 434.572C328.636 434.453 328.359 434.374 328.082 434.374C327.013 434.374 326.142 435.206 326.023 436.237H294.304C294.225 435.483 293.75 434.81 293.037 434.532C292.799 434.413 292.522 434.374 292.245 434.374C291.928 434.374 291.651 434.453 291.414 434.572L275.534 407.062C276.049 406.705 276.406 406.071 276.406 405.397C276.406 404.723 276.049 404.089 275.534 403.732L291.414 376.222C291.691 376.341 291.968 376.42 292.245 376.42C293.314 376.42 294.185 375.588 294.304 374.557H326.023C326.142 375.588 327.013 376.42 328.082 376.42C328.399 376.42 328.676 376.341 328.913 376.222L344.793 403.732ZM291.057 372.654C290.542 373.011 290.186 373.645 290.186 374.319C290.186 374.993 290.542 375.627 291.057 375.984L275.178 403.494H275.138C274.901 403.375 274.624 403.336 274.346 403.336C273.277 403.336 272.406 404.168 272.287 405.199H240.569C240.49 404.485 240.094 403.891 239.5 403.573C239.222 403.415 238.866 403.336 238.51 403.336C238.193 403.336 237.916 403.415 237.678 403.534L221.799 376.024C222.314 375.667 222.67 375.033 222.67 374.359C222.67 373.685 222.314 373.051 221.799 372.694L237.678 345.184C237.955 345.303 238.232 345.382 238.51 345.382C239.579 345.382 240.45 344.55 240.569 343.519H272.287C272.406 344.55 273.277 345.382 274.346 345.382C274.663 345.382 274.94 345.303 275.178 345.184L291.057 372.654ZM237.282 341.577C236.767 341.933 236.411 342.568 236.411 343.242C236.411 343.876 236.688 344.47 237.163 344.827C237.203 344.867 237.243 344.867 237.282 344.906L221.403 372.416C221.126 372.298 220.849 372.218 220.571 372.218C219.502 372.218 218.631 373.051 218.512 374.081H186.794C186.675 373.051 185.804 372.218 184.735 372.218C184.418 372.218 184.141 372.298 183.903 372.416L168.024 344.906C168.539 344.55 168.895 343.915 168.895 343.242C168.895 342.964 168.856 342.687 168.737 342.449C168.578 342.092 168.341 341.814 168.064 341.577L183.943 314.067C184.22 314.186 184.497 314.265 184.774 314.265C185.843 314.265 186.715 313.432 186.833 312.402H218.552C218.592 312.6 218.631 312.838 218.71 312.996C219.027 313.749 219.74 314.265 220.611 314.265C220.928 314.265 221.205 314.186 221.443 314.067L237.282 341.577ZM237.282 279.421C236.767 279.778 236.411 280.412 236.411 281.086C236.411 281.76 236.767 282.394 237.282 282.751L221.403 310.261C221.126 310.142 220.849 310.063 220.571 310.063C219.502 310.063 218.631 310.895 218.512 311.926H186.794C186.754 311.649 186.675 311.371 186.556 311.173C186.2 310.539 185.527 310.103 184.735 310.103C184.418 310.103 184.141 310.182 183.903 310.301L168.024 282.791C168.539 282.434 168.895 281.8 168.895 281.126C168.895 280.452 168.539 279.818 168.024 279.461L183.903 251.951C184.18 252.07 184.457 252.149 184.735 252.149C185.804 252.149 186.675 251.317 186.794 250.286H218.512C218.552 250.564 218.631 250.841 218.75 251.079C219.106 251.713 219.779 252.149 220.571 252.149C220.888 252.149 221.165 252.07 221.403 251.951L237.282 279.421ZM221.443 248.146C221.165 248.027 220.888 247.947 220.611 247.947C219.542 247.947 218.671 248.78 218.552 249.81H186.833C186.794 249.533 186.715 249.255 186.596 249.018C186.239 248.383 185.566 247.947 184.774 247.947C184.458 247.947 184.18 248.027 183.943 248.146L168.024 220.635C168.539 220.279 168.895 219.644 168.895 218.971C168.895 218.297 168.539 217.662 168.024 217.306L168.816 215.918L183.864 189.796C184.141 189.915 184.418 189.994 184.695 189.994C185.764 189.994 186.635 189.161 186.754 188.131H218.473C218.512 188.606 218.75 189.042 219.067 189.399C219.423 189.756 219.977 189.994 220.532 189.994C220.849 189.994 221.126 189.915 221.363 189.796L237.243 217.306C236.728 217.662 236.371 218.297 236.371 218.971C236.371 219.486 236.53 219.922 236.847 220.279C236.965 220.398 237.084 220.517 237.243 220.635L221.443 248.146ZM291.057 186.228C290.542 186.585 290.186 187.219 290.186 187.893C290.186 188.567 290.542 189.201 291.057 189.558L275.178 217.068C274.901 216.949 274.624 216.87 274.346 216.87C273.277 216.87 272.406 217.702 272.287 218.733H240.569C240.529 218.455 240.45 218.178 240.331 217.94C239.975 217.306 239.302 216.87 238.51 216.87C238.193 216.87 237.916 216.949 237.678 217.068L221.799 189.558C222.314 189.201 222.67 188.567 222.67 187.893C222.67 187.219 222.314 186.585 221.799 186.228L237.678 158.718C237.955 158.837 238.232 158.916 238.51 158.916C239.579 158.916 240.45 158.084 240.569 157.053H272.287C272.406 158.084 273.277 158.916 274.346 158.916C274.663 158.916 274.94 158.837 275.178 158.718L291.057 186.228ZM183.903 127.64C184.18 127.759 184.457 127.839 184.735 127.839C185.804 127.839 186.675 127.006 186.794 125.975H218.512C218.631 127.006 219.502 127.839 220.571 127.839C220.888 127.839 221.165 127.759 221.403 127.64L237.282 155.15C236.767 155.507 236.411 156.141 236.411 156.815C236.411 157.45 236.688 158.044 237.163 158.401C237.203 158.441 237.243 158.441 237.282 158.48L221.403 185.99C221.126 185.871 220.849 185.792 220.571 185.792C219.502 185.792 218.631 186.624 218.512 187.655H186.794C186.675 186.624 185.804 185.792 184.735 185.792C184.418 185.792 184.141 185.871 183.903 185.99L168.024 158.48C168.539 158.123 168.895 157.489 168.895 156.815C168.895 156.26 168.658 155.745 168.301 155.349C168.222 155.269 168.143 155.19 168.064 155.15L183.903 127.64ZM129.772 155.15C129.257 155.507 128.901 156.141 128.901 156.815C128.901 157.45 129.178 158.044 129.653 158.401C129.693 158.441 129.732 158.441 129.772 158.48L113.893 185.99C113.616 185.871 113.338 185.792 113.061 185.792C111.992 185.792 111.121 186.624 111.002 187.655H79.2834C79.1646 186.624 78.2935 185.792 77.2243 185.792C76.9075 185.792 76.6303 185.871 76.3927 185.99L60.5137 158.48C60.8304 158.242 61.0681 157.965 61.1869 157.608C61.3056 157.37 61.3452 157.093 61.3452 156.815C61.3452 156.141 60.9889 155.507 60.4741 155.15L76.3531 127.64C76.6303 127.759 76.9075 127.839 77.1847 127.839C77.9767 127.839 78.6499 127.403 79.0063 126.768C79.1251 126.53 79.2042 126.293 79.2438 126.015H110.962C111.081 127.046 111.952 127.878 113.021 127.878C113.338 127.878 113.616 127.799 113.893 127.68L129.772 155.15ZM129.772 93.0348C129.257 93.3915 128.901 94.0257 128.901 94.6996C128.901 95.3735 129.257 96.0077 129.772 96.3645L113.893 123.875C113.616 123.756 113.338 123.676 113.061 123.676C112.269 123.676 111.596 124.112 111.24 124.747C111.121 124.984 111.042 125.222 111.002 125.5H79.2834C79.1646 124.469 78.2935 123.637 77.2243 123.637C76.9075 123.637 76.6303 123.716 76.3531 123.835L60.4741 96.3249C60.9889 95.9681 61.3452 95.3339 61.3452 94.66C61.3452 93.9861 60.9889 93.3519 60.4741 92.9951L76.3531 65.485C76.6303 65.604 76.9075 65.6833 77.2243 65.6833C78.2935 65.6833 79.1646 64.8508 79.2834 63.8202H111.002C111.042 64.0184 111.081 64.2166 111.16 64.4148C111.477 65.1679 112.19 65.6833 113.061 65.6833C113.378 65.6833 113.655 65.604 113.893 65.485L129.772 93.0348ZM76.3927 3.40903C76.6699 3.52795 76.9471 3.60723 77.2243 3.60723C78.2935 3.60723 79.1646 2.77479 79.2834 1.74415H111.002C111.121 2.77479 111.992 3.60723 113.061 3.60723C113.378 3.60723 113.655 3.52795 113.893 3.40903L129.772 30.9191C129.257 31.2758 128.901 31.9101 128.901 32.584C128.901 33.2578 129.257 33.8921 129.772 34.2488L113.893 61.7589C113.616 61.64 113.338 61.5607 113.021 61.5607C111.952 61.5607 111.081 62.3931 110.962 63.4238H79.2438C79.2042 63.2256 79.1646 63.0274 79.0854 62.8292C78.9666 62.5913 78.8478 62.3535 78.6498 62.1553C78.2935 61.7985 77.7391 61.5607 77.1847 61.5607C76.8679 61.5607 76.5907 61.64 76.3531 61.7589L60.5137 34.2488C61.0284 33.8921 61.3849 33.2578 61.3849 32.584C61.3849 32.3065 61.3452 32.029 61.2264 31.7912C61.0681 31.4344 60.8304 31.1569 60.5137 30.9191L76.3927 3.40903ZM22.6177 34.447C22.8949 34.566 23.1721 34.6452 23.4493 34.6452C24.5185 34.6452 25.3896 33.8128 25.5084 32.7822H57.227C57.2666 32.9804 57.3062 33.1786 57.3854 33.3768C57.7021 34.1299 58.4149 34.6452 59.2861 34.6452C59.6029 34.6452 59.8801 34.566 60.1177 34.447L75.9572 61.9571C75.4424 62.3139 75.086 62.9481 75.086 63.622C75.086 63.8994 75.1256 64.1769 75.2444 64.4148C75.4028 64.7715 75.6404 65.049 75.9176 65.2868L60.0385 92.7969C59.7613 92.678 59.4841 92.5987 59.2069 92.5987C58.1378 92.5987 57.2666 93.4311 57.1478 94.4618H25.4293C25.3105 93.4311 24.4393 92.5987 23.3701 92.5987C23.0533 92.5987 22.7761 92.678 22.5385 92.7969L6.65948 65.2868C7.17426 64.9301 7.53064 64.2958 7.53064 63.622C7.53064 63.067 7.29306 62.5517 6.93668 62.1553C6.85748 62.076 6.77826 61.9967 6.69907 61.9571L22.6177 34.447ZM-100.772 65.3265C-100.257 64.9697 -99.9005 64.3355 -99.9005 63.6616C-99.9005 62.9877 -100.257 62.3535 -100.772 61.9967L-84.8927 34.4867C-84.6155 34.6056 -84.3383 34.6849 -84.0611 34.6849C-82.9919 34.6849 -82.1208 33.8524 -82.002 32.8218H-50.2834C-50.1646 33.8524 -49.2934 34.6849 -48.2243 34.6849C-47.9075 34.6849 -47.6303 34.6056 -47.3927 34.4867L-31.5136 61.9967C-32.0284 62.3535 -32.3848 62.9877 -32.3848 63.6616C-32.3848 64.2959 -32.1076 64.8904 -31.6324 65.2472C-31.5928 65.2868 -31.5533 65.2868 -31.5136 65.3265L-47.3927 92.8365C-47.6699 92.7176 -47.9471 92.6384 -48.2243 92.6384C-49.2934 92.6384 -50.1646 93.4708 -50.2834 94.5014H-82.002C-82.1208 93.4708 -82.9919 92.6384 -84.0611 92.6384C-84.3779 92.6384 -84.6551 92.7176 -84.8927 92.8365L-100.772 65.3265ZM-84.8927 96.6023C-84.6155 96.7213 -84.3383 96.8005 -84.0611 96.8005C-82.9919 96.8005 -82.1208 95.9681 -82.002 94.9375H-50.2834C-50.2438 95.4131 -50.0062 95.8492 -49.6894 96.2059C-49.333 96.5627 -48.8182 96.8005 -48.2243 96.8005C-47.9075 96.8005 -47.6303 96.7213 -47.3927 96.6023L-31.5136 124.112C-32.0284 124.469 -32.3848 125.103 -32.3848 125.777C-32.3848 126.293 -32.2264 126.729 -31.9096 127.085C-31.7908 127.204 -31.6721 127.323 -31.5136 127.442L-47.3927 154.952C-47.6699 154.833 -47.9471 154.754 -48.2243 154.754C-49.135 154.754 -49.927 155.388 -50.2042 156.221C-50.2438 156.34 -50.2834 156.498 -50.2834 156.617H-82.002C-82.1208 155.586 -82.9919 154.754 -84.0611 154.754C-84.3779 154.754 -84.6551 154.833 -84.8927 154.952L-100.772 127.442C-100.415 127.165 -100.138 126.808 -100.019 126.372C-99.9402 126.174 -99.9402 125.975 -99.9402 125.738C-99.9402 125.064 -100.297 124.43 -100.811 124.073L-84.8927 96.6023ZM-138.668 127.68C-138.39 127.799 -138.113 127.878 -137.836 127.878C-136.767 127.878 -135.896 127.046 -135.777 126.015H-104.019C-103.9 127.046 -103.029 127.878 -101.96 127.878C-101.643 127.878 -101.366 127.799 -101.128 127.68L-85.249 155.19C-85.5658 155.428 -85.8034 155.705 -85.9618 156.062C-86.0806 156.3 -86.1202 156.577 -86.1202 156.855C-86.1202 157.489 -85.843 158.084 -85.3678 158.441C-85.3282 158.48 -85.2886 158.48 -85.249 158.52L-101.128 186.03C-101.405 185.911 -101.682 185.832 -101.96 185.832C-103.029 185.832 -103.9 186.664 -104.019 187.695H-135.737C-135.856 186.664 -136.727 185.832 -137.796 185.832C-138.113 185.832 -138.39 185.911 -138.628 186.03L-154.507 158.52C-153.992 158.163 -153.636 157.529 -153.636 156.855C-153.636 156.3 -153.874 155.785 -154.23 155.388C-154.309 155.309 -154.388 155.23 -154.468 155.19L-138.668 127.68ZM-262.018 158.52C-261.503 158.163 -261.146 157.529 -261.146 156.855C-261.146 156.181 -261.503 155.547 -262.018 155.19L-246.138 127.68C-245.861 127.799 -245.584 127.878 -245.307 127.878C-244.238 127.878 -243.367 127.046 -243.248 126.015H-211.529C-211.41 127.046 -210.539 127.878 -209.47 127.878C-209.153 127.878 -208.876 127.799 -208.639 127.68L-192.759 155.19C-193.274 155.547 -193.631 156.181 -193.631 156.855C-193.631 157.489 -193.353 158.084 -192.878 158.441C-192.839 158.48 -192.799 158.48 -192.759 158.52L-208.639 186.03C-208.916 185.911 -209.193 185.832 -209.47 185.832C-210.539 185.832 -211.41 186.664 -211.529 187.695H-243.248C-243.367 186.664 -244.238 185.832 -245.307 185.832C-245.624 185.832 -245.901 185.911 -246.138 186.03L-262.018 158.52ZM-262.018 220.675C-261.503 220.318 -261.146 219.684 -261.146 219.01C-261.146 218.336 -261.503 217.702 -262.018 217.345L-246.138 189.835C-245.861 189.954 -245.584 190.033 -245.307 190.033C-244.238 190.033 -243.367 189.201 -243.248 188.17H-211.529C-211.49 188.646 -211.252 189.082 -210.935 189.439C-210.579 189.796 -210.024 190.033 -209.47 190.033C-209.153 190.033 -208.876 189.954 -208.639 189.835L-192.759 217.345C-193.274 217.702 -193.631 218.336 -193.631 219.01C-193.631 219.526 -193.472 219.962 -193.155 220.318C-193.037 220.437 -192.918 220.556 -192.759 220.675L-208.639 248.185C-208.916 248.066 -209.193 247.987 -209.47 247.987C-210.539 247.987 -211.41 248.819 -211.529 249.85H-243.248C-243.367 248.819 -244.238 247.987 -245.307 247.987C-245.624 247.987 -245.901 248.066 -246.138 248.185L-262.018 220.675ZM-208.282 251.753C-207.767 251.396 -207.411 250.762 -207.411 250.088C-207.411 249.414 -207.767 248.78 -208.282 248.423L-192.403 220.913C-192.126 221.032 -191.849 221.111 -191.571 221.111C-190.502 221.111 -189.631 220.279 -189.512 219.248H-157.794C-157.675 220.279 -156.804 221.111 -155.735 221.111C-155.418 221.111 -155.141 221.032 -154.903 220.913L-139.024 248.423C-139.539 248.78 -139.895 249.414 -139.895 250.088C-139.895 250.722 -139.618 251.317 -139.143 251.673C-139.103 251.713 -139.064 251.713 -139.024 251.753L-154.903 279.263C-155.18 279.144 -155.457 279.065 -155.735 279.065C-156.804 279.065 -157.675 279.897 -157.794 280.928H-189.512C-189.631 279.897 -190.502 279.065 -191.571 279.065C-191.888 279.065 -192.165 279.144 -192.403 279.263L-208.282 251.753ZM-192.403 283.029C-192.126 283.147 -191.849 283.227 -191.571 283.227C-190.502 283.227 -189.631 282.394 -189.512 281.364H-157.794C-157.754 281.839 -157.517 282.275 -157.2 282.632C-156.843 282.989 -156.289 283.227 -155.735 283.227C-155.418 283.227 -155.141 283.147 -154.903 283.029L-139.024 310.539C-139.539 310.895 -139.895 311.53 -139.895 312.204C-139.895 312.719 -139.737 313.155 -139.42 313.512C-139.301 313.631 -139.182 313.749 -139.024 313.868L-154.864 341.339C-155.101 341.22 -155.418 341.141 -155.695 341.141C-156.131 341.141 -156.527 341.26 -156.843 341.497C-157.358 341.814 -157.675 342.369 -157.754 343.004H-189.473C-189.512 342.528 -189.75 342.092 -190.067 341.735C-190.423 341.378 -190.977 341.141 -191.532 341.141C-191.849 341.141 -192.126 341.22 -192.363 341.339L-208.243 313.829C-207.728 313.472 -207.371 312.838 -207.371 312.164C-207.371 311.45 -207.728 310.856 -208.243 310.499L-192.403 283.029ZM-246.138 314.067C-245.861 314.186 -245.584 314.265 -245.307 314.265C-244.238 314.265 -243.367 313.432 -243.248 312.402H-211.529C-211.41 313.432 -210.539 314.265 -209.47 314.265C-209.153 314.265 -208.876 314.186 -208.639 314.067L-192.759 341.577C-193.274 341.933 -193.631 342.568 -193.631 343.242C-193.631 343.955 -193.274 344.55 -192.759 344.906L-208.599 372.377C-208.876 372.258 -209.153 372.179 -209.43 372.179C-210.5 372.179 -211.371 373.011 -211.49 374.042H-243.208C-243.327 373.011 -244.198 372.179 -245.267 372.179C-245.584 372.179 -245.861 372.258 -246.099 372.377L-262.018 344.946C-261.503 344.589 -261.146 343.955 -261.146 343.281C-261.146 343.202 -261.146 343.123 -261.146 343.083C-261.226 342.488 -261.542 341.973 -261.978 341.616L-246.138 314.067ZM-315.753 376.024C-315.238 375.667 -314.882 375.033 -314.882 374.359C-314.882 373.685 -315.238 373.051 -315.753 372.694L-299.874 345.184C-299.597 345.303 -299.319 345.382 -299.042 345.382C-297.973 345.382 -297.102 344.55 -296.983 343.519H-265.265C-265.146 344.55 -264.275 345.382 -263.205 345.382C-262.889 345.382 -262.611 345.303 -262.374 345.184L-246.495 372.694C-246.97 373.051 -247.287 373.566 -247.326 374.161C-247.326 374.24 -247.326 374.319 -247.326 374.359C-247.326 375.033 -246.97 375.667 -246.455 376.024L-262.334 403.534C-262.611 403.415 -262.889 403.336 -263.166 403.336C-264.235 403.336 -265.106 404.168 -265.225 405.199H-296.983C-297.102 404.168 -297.973 403.336 -299.042 403.336C-299.359 403.336 -299.636 403.415 -299.874 403.534L-315.753 376.024ZM-262.018 407.062C-261.503 406.705 -261.146 406.071 -261.146 405.397C-261.146 404.723 -261.503 404.089 -262.018 403.732L-246.138 376.222C-245.861 376.341 -245.584 376.42 -245.307 376.42C-244.238 376.42 -243.367 375.588 -243.248 374.557H-211.529C-211.49 375.033 -211.252 375.469 -210.935 375.825C-210.579 376.182 -210.024 376.42 -209.47 376.42C-209.153 376.42 -208.876 376.341 -208.639 376.222L-192.759 403.732C-193.274 404.089 -193.631 404.723 -193.631 405.397C-193.631 405.912 -193.472 406.348 -193.155 406.705C-193.037 406.824 -192.918 406.943 -192.759 407.062L-208.639 434.572C-208.916 434.453 -209.193 434.374 -209.47 434.374C-210.539 434.374 -211.41 435.206 -211.529 436.237H-243.248C-243.367 435.206 -244.238 434.374 -245.307 434.374C-245.624 434.374 -245.901 434.453 -246.138 434.572L-262.018 407.062ZM-208.243 438.139C-207.728 437.783 -207.371 437.148 -207.371 436.474C-207.371 435.801 -207.728 435.166 -208.243 434.81L-192.363 407.3C-192.086 407.418 -191.809 407.498 -191.532 407.498C-190.463 407.498 -189.592 406.665 -189.473 405.635H-157.754C-157.635 406.665 -156.764 407.498 -155.695 407.498C-155.378 407.498 -155.101 407.418 -154.864 407.3L-138.984 434.81C-139.499 435.166 -139.856 435.801 -139.856 436.474C-139.856 437.109 -139.578 437.703 -139.103 438.06C-139.064 438.1 -139.024 438.1 -138.984 438.139L-154.864 465.649C-155.141 465.53 -155.418 465.451 -155.695 465.451C-156.764 465.451 -157.635 466.284 -157.754 467.314H-189.473C-189.592 466.284 -190.463 465.451 -191.532 465.451C-191.849 465.451 -192.126 465.53 -192.363 465.649L-208.243 438.139ZM-154.864 527.765C-155.141 527.646 -155.418 527.567 -155.695 527.567C-156.764 527.567 -157.635 528.399 -157.754 529.43H-189.473C-189.592 528.399 -190.463 527.567 -191.532 527.567C-191.849 527.567 -192.126 527.646 -192.363 527.765L-208.243 500.255C-207.728 499.898 -207.371 499.264 -207.371 498.59C-207.371 497.916 -207.728 497.282 -208.243 496.925L-192.363 469.415C-192.086 469.534 -191.809 469.613 -191.532 469.613C-190.463 469.613 -189.592 468.781 -189.473 467.75H-157.754C-157.715 468.226 -157.477 468.662 -157.16 469.019C-156.804 469.376 -156.249 469.613 -155.695 469.613C-155.378 469.613 -155.101 469.534 -154.864 469.415L-138.984 496.925C-139.499 497.282 -139.856 497.916 -139.856 498.59C-139.856 499.105 -139.697 499.541 -139.38 499.898C-139.262 500.017 -139.143 500.136 -138.984 500.255L-154.864 527.765ZM-100.732 500.295C-100.217 499.938 -99.8609 499.304 -99.8609 498.63C-99.8609 498.352 -99.9006 498.075 -100.019 497.837C-100.178 497.48 -100.415 497.203 -100.732 496.965L-84.853 469.455C-84.5759 469.574 -84.2987 469.653 -84.0215 469.653C-82.9523 469.653 -82.0811 468.821 -81.9623 467.79H-50.2438C-50.125 468.821 -49.2538 469.653 -48.1847 469.653C-48.1055 469.653 -48.0263 469.653 -47.9867 469.653C-47.7491 469.613 -47.5511 469.574 -47.3531 469.494L-31.474 497.005C-31.9888 497.361 -32.3452 497.996 -32.3452 498.669C-32.3452 499.185 -32.1868 499.621 -31.87 499.977C-31.7512 500.096 -31.6324 500.215 -31.474 500.334L-47.3531 527.844C-47.6303 527.725 -47.9075 527.646 -48.1847 527.646C-49.2538 527.646 -50.125 528.479 -50.2438 529.509H-81.9623C-82.0811 528.479 -82.9523 527.646 -84.0215 527.646C-84.3383 527.646 -84.6154 527.725 -84.853 527.844L-100.732 500.295ZM-46.9967 531.333C-46.4819 530.976 -46.1255 530.342 -46.1255 529.668C-46.1255 528.994 -46.4819 528.36 -46.9967 528.003L-31.1177 500.493C-30.8405 500.612 -30.5633 500.691 -30.2861 500.691C-29.2169 500.691 -28.3457 499.859 -28.2269 498.828H3.49158C3.57077 499.819 4.36276 500.572 5.35272 500.691C5.43192 500.691 5.51111 500.691 5.55072 500.691C5.62991 500.691 5.70911 500.691 5.74872 500.691C5.9863 500.651 6.1843 500.612 6.38229 500.532L22.2614 528.043C21.7466 528.399 21.3902 529.034 21.3902 529.707C21.3902 530.342 21.6674 530.936 22.1425 531.293C22.1822 531.333 22.2218 531.333 22.2614 531.372L6.38229 558.882C6.1051 558.763 5.82791 558.684 5.55072 558.684C4.48157 558.684 3.61038 559.517 3.49158 560.547H-28.2269C-28.3457 559.517 -29.2169 558.684 -30.2861 558.684C-30.6029 558.684 -30.8801 558.763 -31.1177 558.882L-46.9967 531.333ZM-46.9967 593.488C-46.4819 593.131 -46.1255 592.497 -46.1255 591.823C-46.1255 591.149 -46.4819 590.515 -46.9967 590.158L-31.1177 562.648C-30.8405 562.767 -30.5633 562.846 -30.2861 562.846C-29.2169 562.846 -28.3457 562.014 -28.2269 560.983H3.49158C3.53119 561.34 3.64999 561.697 3.84799 561.974C4.20438 562.49 4.83795 562.846 5.55072 562.846C5.86752 562.846 6.14468 562.767 6.38229 562.648L22.2614 590.158C21.7466 590.515 21.3902 591.149 21.3902 591.823C21.3902 592.338 21.5486 592.774 21.8654 593.131C21.9842 593.25 22.103 593.369 22.2614 593.488L6.38229 620.998C6.1051 620.879 5.82791 620.8 5.55072 620.8C4.48157 620.8 3.61038 621.632 3.49158 622.663H-28.2269C-28.3457 621.632 -29.2169 620.8 -30.2861 620.8C-30.6029 620.8 -30.8801 620.879 -31.1177 620.998L-46.9967 593.488ZM6.77826 624.566C7.29306 624.209 7.64944 623.575 7.64944 622.901C7.64944 622.227 7.29306 621.593 6.77826 621.236L22.6573 593.726C22.9345 593.845 23.2117 593.924 23.4889 593.924C24.5581 593.924 25.4293 593.092 25.548 592.061H57.2666C57.3854 593.092 58.2565 593.924 59.3257 593.924C59.6425 593.924 59.9197 593.845 60.1573 593.726L76.0363 621.236C75.5216 621.593 75.1652 622.227 75.1652 622.901C75.1652 623.575 75.5216 624.209 76.0363 624.566L60.1573 652.076C59.8801 651.957 59.6029 651.877 59.3257 651.877C58.2565 651.877 57.3854 652.71 57.2666 653.741H25.548C25.4293 652.71 24.5581 651.877 23.4889 651.877C23.1721 651.877 22.8949 651.957 22.6573 652.076L6.77826 624.566Z" fill="white"/>
</svg>
