<svg width="36" height="29" viewBox="0 0 36 29" fill="none" xmlns="http://www.w3.org/2000/svg">
<path d="M35.8534 8.35338L29.8279 0.52617C29.6049 0.23668 29.1981 0.165269 28.8897 0.361375L24.9994 2.8355H19.9257C19.86 2.8355 19.7947 2.8495 19.7315 2.86791L15.7976 4.00032L11.7156 2.88384L7.74925 0.361375C7.44603 0.168565 7.04667 0.233934 6.82118 0.513536L0.156596 8.76866C-0.0829061 9.06529 -0.0433553 9.49843 0.245585 9.747L3.73869 12.7531L6.87254 16.9763C5.95601 17.9527 5.97386 19.4927 6.92747 20.4466C7.35017 20.869 7.88768 21.1077 8.44056 21.1632C8.42134 21.2884 8.41145 21.4156 8.41145 21.5447C8.41145 22.211 8.671 22.8375 9.14204 23.3085C9.61335 23.7798 10.2399 24.0394 10.9062 24.0394C10.9152 24.0394 10.924 24.0388 10.9328 24.0386C10.9325 24.0556 10.9317 24.0723 10.9317 24.0894C10.9317 24.7557 11.1913 25.3822 11.6623 25.8535C12.1336 26.3245 12.7601 26.5841 13.4264 26.5841C13.558 26.5841 13.6882 26.5734 13.8159 26.5536C13.87 27.1084 14.1092 27.6484 14.5333 28.0725C15.0195 28.5589 15.6583 28.802 16.2972 28.802C16.936 28.802 17.5749 28.5589 18.0613 28.0725L18.4428 27.691L18.6029 27.8201C19.0852 28.2873 19.7114 28.5207 20.3377 28.5207C20.9765 28.5207 21.6154 28.2776 22.1015 27.7912C22.5978 27.2949 22.8409 26.6399 22.8307 25.9881C23.4822 25.998 24.1376 25.7552 24.6339 25.2591C25.1296 24.7631 25.3727 24.1086 25.3631 23.4571C26.0418 23.4678 26.6856 23.2072 27.1659 22.7268C27.6622 22.2305 27.9053 21.5754 27.8952 20.9237C28.5472 20.9336 29.202 20.6908 29.6983 20.1944C30.5453 19.3474 30.6544 18.0381 30.0262 17.0716L32.3144 12.2793L35.7545 9.31908C36.0388 9.07436 36.0822 8.65029 35.8534 8.35338ZM7.52348 1.89095L10.3755 3.70452L4.17128 11.2631L1.68507 9.12325L7.52348 1.89095ZM7.92585 17.9167L8.78663 17.0559C8.81273 17.0298 8.84019 17.0051 8.86821 16.982C9.03657 16.8447 9.24037 16.7629 9.45625 16.7434C9.46229 16.7428 9.46861 16.7428 9.47465 16.7425C9.50541 16.7401 9.53618 16.7384 9.56721 16.7387C9.8622 16.7428 10.1363 16.8634 10.3396 17.0779C10.7384 17.4995 10.7169 18.1883 10.2918 18.6135L9.45707 19.4482C9.03492 19.8703 8.348 19.8703 7.92585 19.4482C7.5037 19.0258 7.5037 18.3389 7.92585 17.9167ZM10.1404 22.3101C9.9358 22.1058 9.82319 21.8339 9.82319 21.5447C9.82319 21.2555 9.9358 20.9835 10.1404 20.7789L11.8095 19.1098C12.1292 18.7901 12.6318 18.7025 13.0405 18.8972C13.4619 19.098 13.6989 19.5553 13.6371 20.0154C13.6041 20.2609 13.4899 20.4922 13.3146 20.6677L11.6719 22.3101C11.4673 22.5148 11.1954 22.6274 10.9062 22.6274C10.617 22.6274 10.345 22.5148 10.1404 22.3101ZM12.6607 24.8548C12.4561 24.6505 12.3435 24.3786 12.3435 24.0894C12.3435 23.8002 12.4561 23.5282 12.6607 23.3236L14.3295 21.6545C14.6715 21.3129 15.22 21.2392 15.6385 21.4829C16.0209 21.7053 16.2211 22.142 16.1554 22.5771C16.1195 22.8163 16.0058 23.0413 15.8346 23.2124L14.1922 24.8548C13.9876 25.0595 13.7157 25.1721 13.4264 25.1721C13.1372 25.1721 12.8653 25.0595 12.6607 24.8548ZM15.5314 27.0741C15.1093 26.6519 15.1093 25.965 15.5314 25.5429L16.3922 24.6821C16.4183 24.656 16.4455 24.6316 16.4735 24.6085C16.4743 24.6079 16.4749 24.6074 16.4754 24.6068C16.6155 24.4931 16.78 24.417 16.9555 24.3838C16.9596 24.3833 16.9638 24.3827 16.9679 24.3822C16.9981 24.3767 17.0289 24.3723 17.0596 24.3695C17.072 24.3684 17.0843 24.3684 17.097 24.3676C17.1222 24.3662 17.1472 24.3646 17.1728 24.3649C17.4675 24.369 17.7419 24.4893 17.9451 24.7041C17.9701 24.7304 17.9935 24.7579 18.0149 24.7862C18.3395 25.2105 18.2959 25.8409 17.8929 26.2441L17.0626 27.0744C16.6405 27.4965 15.9536 27.4962 15.5314 27.0741ZM28.6999 19.1961C28.2778 19.6185 27.5908 19.6182 27.1687 19.1961C27.1533 19.1807 27.1371 19.1664 27.1206 19.1529L22.5816 14.5661C22.3072 14.289 21.8604 14.2868 21.5832 14.5612C21.3061 14.8353 21.3039 15.2822 21.578 15.5593L26.1662 20.1953C26.1667 20.1958 26.1673 20.1964 26.1678 20.1969C26.59 20.6191 26.59 21.3063 26.1678 21.7284C25.9632 21.933 25.6913 22.0456 25.4021 22.0456C25.1126 22.0456 24.8407 21.933 24.6363 21.7284L21.567 18.6272C21.2929 18.3501 20.8461 18.3479 20.5689 18.622C20.2918 18.8964 20.2896 19.3433 20.5637 19.6204L23.586 22.6741C23.6014 22.6933 23.6179 22.7117 23.6355 22.7293C24.0576 23.1514 24.0576 23.8386 23.6355 24.2608C23.2131 24.6829 22.5259 24.6826 22.1037 24.2605L20.4286 22.5678C20.1542 22.2906 19.7073 22.2882 19.4302 22.5625C19.1531 22.8367 19.1509 23.2835 19.425 23.5607L21.0534 25.2059C21.0688 25.2251 21.0853 25.2438 21.1031 25.2613C21.5253 25.6835 21.5253 26.3707 21.1031 26.7928C20.681 27.2153 19.9941 27.215 19.5719 26.7928C19.5233 26.7442 19.4662 26.7069 19.4118 26.6651C19.3656 26.63 19.3536 26.6055 19.3766 26.5495C19.4 26.4926 19.4349 26.4413 19.4582 26.3841C19.484 26.3204 19.5049 26.2548 19.5252 26.1889C19.6334 25.84 19.6653 25.4649 19.6167 25.1029C19.5233 24.4083 19.1413 23.7815 18.5623 23.3849C18.2494 23.1709 17.8874 23.0306 17.5123 22.9778C17.6941 22.1758 17.4757 21.3063 16.9077 20.7061C16.4403 20.2123 15.8088 19.9352 15.1296 19.9258C15.1049 19.9256 15.0802 19.9256 15.0552 19.9258C15.0703 19.2776 14.8346 18.6336 14.3877 18.1614C13.92 17.6676 13.2886 17.3905 12.6096 17.3811C12.4077 17.3784 12.2039 17.3998 12.0073 17.4451C11.9232 16.8604 11.6285 16.3193 11.1822 15.9323C10.7386 15.5483 10.1808 15.3352 9.58671 15.327C8.96132 15.3179 8.34691 15.5486 7.88246 15.968L5.15373 12.2912L11.6818 4.33815L13.7623 4.90724L11.0451 9.70195C10.7167 10.2818 10.6337 10.9547 10.8114 11.5968C10.9891 12.2392 11.406 12.7737 11.9859 13.1022C12.0221 13.1228 12.0586 13.1423 12.0957 13.161C12.0985 13.1624 12.1012 13.1637 12.1042 13.1651C12.2017 13.2137 12.302 13.2555 12.4036 13.2906C12.8768 13.4546 13.388 13.4725 13.881 13.3362C14.5231 13.1585 15.0576 12.7413 15.3861 12.1618L17.1519 9.04579L20.3047 9.26937L28.7002 17.6646C29.1221 18.087 29.1221 18.7739 28.6999 19.1961ZM28.9924 15.9603L21.1166 8.08476C21.1018 8.06966 21.0861 8.05538 21.0699 8.04192C20.9565 7.94744 20.8158 7.89031 20.6675 7.87987L16.8072 7.60604C16.5402 7.58763 16.2749 7.72963 16.1431 7.96227L14.1579 11.4658C14.0153 11.7174 13.7832 11.8984 13.5044 11.9756C13.2259 12.0528 12.9337 12.0165 12.6818 11.874C12.4303 11.7314 12.2493 11.4993 12.1721 11.2205C12.0949 10.9418 12.1309 10.6495 12.2737 10.3979L14.9239 5.72078L15.9978 5.41179C16.0049 5.40959 16.0118 5.40685 16.0189 5.40465L20.027 4.24724H24.8698L30.9156 11.9327L28.9924 15.9603ZM31.8403 10.8248L26.2494 3.71358L29.1028 1.89891L34.3271 8.68489L31.8403 10.8248Z" fill="white"/>
</svg>
