<svg width="77" height="77" viewBox="0 0 77 77" fill="none" xmlns="http://www.w3.org/2000/svg">
<path d="M60.4236 20.6248H16.5766C15.9531 20.6248 15.4478 21.1301 15.4478 21.7536C15.4478 22.3771 15.9531 22.8824 16.5766 22.8824H60.4236C61.0471 22.8824 61.5524 22.3771 61.5524 21.7536C61.5524 21.1301 61.0471 20.6248 60.4236 20.6248Z" fill="white"/>
<path d="M60.4236 32.9158H16.5766C15.9531 32.9158 15.4478 33.4211 15.4478 34.0446C15.4478 34.668 15.9531 35.1734 16.5766 35.1734H60.4236C61.0471 35.1734 61.5524 34.6681 61.5524 34.0446C61.5524 33.4211 61.0471 32.9158 60.4236 32.9158Z" fill="white"/>
<path d="M46.0487 40.8926H30.9516C30.3281 40.8926 29.8228 41.3979 29.8228 42.0214C29.8228 42.6448 30.3281 43.1502 30.9516 43.1502H46.0487C46.6722 43.1502 47.1775 42.6449 47.1775 42.0214C47.1775 41.3979 46.6722 40.8926 46.0487 40.8926Z" fill="white"/>
<path d="M60.4233 26.7451H27.7172C27.0937 26.7451 26.5884 27.2504 26.5884 27.8739C26.5884 28.4973 27.0937 29.0028 27.7172 29.0028H60.4233C61.0468 29.0028 61.5521 28.4975 61.5521 27.8739C61.5521 27.2504 61.0468 26.7451 60.4233 26.7451Z" fill="white"/>
<path d="M22.4656 26.7451H16.5766C15.9531 26.7451 15.4478 27.2504 15.4478 27.8739C15.4478 28.4975 15.9531 29.0028 16.5766 29.0028H22.4656C23.0891 29.0028 23.5944 28.4975 23.5944 27.8739C23.5944 27.2506 23.0891 26.7451 22.4656 26.7451Z" fill="white"/>
<path d="M71.1723 18.7168C70.9097 18.4588 70.5622 18.3169 70.1915 18.3169C70.1912 18.3169 70.191 18.3169 70.1907 18.3169C67.9028 18.3169 66.0303 16.5284 65.9273 14.2446C65.8935 13.502 65.2832 12.9204 64.538 12.9204H12.193C11.4477 12.9204 10.8373 13.5021 10.8036 14.2454C10.7054 16.4277 8.91888 18.2143 6.73641 18.3125C5.99348 18.3459 5.41162 18.9563 5.41162 19.702V48.8809C5.41162 49.6266 5.99348 50.2368 6.73641 50.2702C8.91888 50.3686 10.7054 52.1551 10.8036 54.3381C10.8374 55.0808 11.4479 55.6623 12.193 55.6623H45.5161C46.1397 55.6623 46.645 55.157 46.645 54.5335C46.645 53.9101 46.1397 53.4047 45.5161 53.4047H12.9694C12.5027 50.6858 10.388 48.5711 7.66913 48.1043V20.4781C10.388 20.0115 12.5027 17.8964 12.9694 15.1779H63.7621C64.2479 17.9827 66.506 20.1477 69.3305 20.5183V39.6884C69.3305 40.3118 69.8358 40.8173 70.4593 40.8173C71.0828 40.8173 71.5882 40.312 71.5882 39.6884V19.7083C71.5882 19.3325 71.4405 18.9802 71.1723 18.7168Z" fill="white"/>
<path d="M73.8666 7.28564H3.13339C1.4057 7.28564 0 8.69135 0 10.419V58.1635C0 59.8914 1.4057 61.2969 3.13339 61.2969H50.5137L48.8362 64.812C48.6207 65.2633 48.6732 65.7926 48.9728 66.1929C49.2725 66.5934 49.7656 66.7924 50.259 66.7134L53.3821 66.2114L55.124 69.0708C55.3683 69.472 55.8023 69.7141 56.2687 69.7141C56.2914 69.7141 56.3142 69.7135 56.3371 69.7123C56.8292 69.6874 57.2666 69.3956 57.4791 68.9508L60.5059 62.6083L63.5324 68.9503C63.7444 69.3952 64.1819 69.6872 64.6741 69.7125C64.6971 69.7137 64.7203 69.7143 64.7432 69.7143C65.2095 69.7143 65.6436 69.4722 65.8878 69.0711L67.6298 66.2117L70.7528 66.7139C71.2477 66.793 71.7399 66.5934 72.0394 66.1927C72.3389 65.7921 72.391 65.263 72.1755 64.8125L70.498 61.2974H73.8666C75.5943 61.2974 77 59.8918 77 58.164V10.419C77 8.69135 75.5943 7.28564 73.8666 7.28564ZM56.1711 66.4501L54.9894 64.5108C54.7049 64.0437 54.1722 63.7979 53.6317 63.8847L51.6264 64.2071L53.7388 59.7808C54.5713 60.6304 55.7575 61.0894 56.9887 60.9734C57.4097 60.9331 57.8317 61.0465 58.1765 61.2915C58.2902 61.3724 58.4083 61.4442 58.5278 61.5118L56.1711 66.4501ZM60.7751 59.7565C60.7716 59.7569 60.7682 59.7572 60.7646 59.7578C60.5934 59.7831 60.4194 59.7831 60.2483 59.758C60.2439 59.7574 60.2396 59.7569 60.2354 59.7563C59.9702 59.7153 59.7124 59.6138 59.4842 59.4515C58.8014 58.966 57.9861 58.708 57.1545 58.708C57.0284 58.708 56.9021 58.714 56.7758 58.7259C56.0285 58.7964 55.3185 58.386 55.0066 57.7044C54.8681 57.4018 54.6914 57.1218 54.4862 56.8657C54.4772 56.8529 54.4673 56.8409 54.4578 56.8285C54.4464 56.8147 54.4357 56.8004 54.4243 56.7867C54.4112 56.7714 54.3975 56.7568 54.3835 56.7422C54.0102 56.3127 53.549 55.962 53.0237 55.7217C52.342 55.4097 51.9315 54.6987 52.0022 53.9523C52.0931 52.9919 51.8354 52.03 51.2766 51.2439C50.8421 50.6329 50.8421 49.8119 51.2764 49.2009C51.8354 48.4148 52.0931 47.4529 52.0022 46.4925C51.9315 45.7461 52.3421 45.035 53.0237 44.7231C53.9009 44.3217 54.605 43.6176 55.0064 42.7404C55.3185 42.0587 56.031 41.6481 56.7758 41.7189C57.7372 41.8096 58.6982 41.552 59.4843 40.9931C60.0955 40.5588 60.9165 40.5588 61.5274 40.9931C62.3136 41.552 63.2748 41.809 64.2359 41.7189C64.9829 41.6479 65.6935 42.0588 66.0054 42.7404C66.4068 43.6176 67.1109 44.3217 67.988 44.723C68.6697 45.035 69.0803 45.7461 69.0096 46.4923C68.9188 47.4529 69.1764 48.4148 69.7352 49.2007C70.1697 49.8118 70.1697 50.6327 69.7352 51.2438C69.1764 52.03 68.9188 52.9919 69.0096 53.9522C69.0803 54.6985 68.6697 55.4096 67.9878 55.7217C67.4637 55.9615 67.0035 56.3113 66.6307 56.7395C66.6154 56.7554 66.6003 56.7715 66.5862 56.7882C66.5764 56.8 66.5673 56.8121 66.5575 56.824C66.5462 56.8385 66.5348 56.8526 66.5242 56.8675C66.3197 57.1231 66.1435 57.4026 66.0054 57.7044C65.6933 58.386 64.9823 58.7967 64.2359 58.7259C63.2764 58.6355 62.3139 58.8926 61.5274 59.4515C61.2988 59.6139 61.0407 59.7156 60.7751 59.7565ZM67.38 63.8846C66.8393 63.7981 66.3069 64.0437 66.0222 64.5109L64.8408 66.4502L62.484 61.5118C62.6036 61.4442 62.7215 61.3724 62.8353 61.2915C63.1803 61.0464 63.6026 60.9327 64.0231 60.9733C65.2548 61.0894 66.4406 60.6304 67.2732 59.7808L69.3854 64.207L67.38 63.8846ZM74.7425 58.1637C74.7425 58.6466 74.3497 59.0396 73.8666 59.0396H69.4206L68.8386 57.8199C68.8679 57.8044 68.8971 57.7882 68.9275 57.7743C70.4819 57.0628 71.4181 55.4413 71.257 53.7395C71.2172 53.3184 71.3301 52.8966 71.5753 52.5517C72.5657 51.1583 72.5657 49.286 71.5751 47.8926C71.3301 47.5479 71.2172 47.1262 71.257 46.705C71.4181 45.0032 70.4819 43.3816 68.9273 42.6702C68.5428 42.494 68.234 42.1853 68.0579 41.8007C67.3466 40.2462 65.7243 39.3103 64.0229 39.4712C63.6015 39.5113 63.18 39.3981 62.8353 39.153C61.4419 38.1625 59.5694 38.1623 58.1762 39.153C57.8314 39.3981 57.4086 39.5113 56.9886 39.471C55.2846 39.3107 53.6649 40.2462 52.9537 41.8006C52.7776 42.1853 52.4689 42.4939 52.0842 42.67C50.5297 43.3815 49.5936 45.0029 49.7546 46.7048C49.7945 47.1261 49.6815 47.5478 49.4364 47.8926C48.4459 49.286 48.4459 51.1583 49.4364 52.5516C49.6815 52.8963 49.7945 53.3181 49.7546 53.7394C49.5936 55.4413 50.5297 57.0628 52.0842 57.7742C52.1146 57.788 52.1436 57.8043 52.1729 57.8197L51.5909 59.0396H3.13339C2.65048 59.0396 2.25751 58.6468 2.25751 58.1637V10.419C2.25751 9.93613 2.65033 9.54316 3.13339 9.54316H73.8666C74.3495 9.54316 74.7425 9.93613 74.7425 10.419V58.1637Z" fill="white"/>
<path d="M60.4235 43.209C56.5563 43.209 53.4102 46.3552 53.4102 50.2221C53.4102 54.0893 56.5563 57.2355 60.4235 57.2355C64.2906 57.2355 67.4366 54.0891 67.4366 50.2221C67.4366 46.355 64.2906 43.209 60.4235 43.209ZM60.4235 54.9778C57.8011 54.9778 55.6677 52.8444 55.6677 50.222C55.6677 47.5998 57.8011 45.4663 60.4235 45.4663C63.0457 45.4663 65.1791 47.5998 65.1791 50.222C65.1791 52.8444 63.0457 54.9778 60.4235 54.9778Z" fill="white"/>
</svg>
