<svg width="36" height="36" viewBox="0 0 36 36" fill="none" xmlns="http://www.w3.org/2000/svg">
<path d="M34.1821 34.8006V12.6123C34.1821 12.2811 33.9135 12.0126 33.5824 12.0126H27.5855C27.2543 12.0126 26.9858 12.2811 26.9858 12.6123V34.8006H25.7865V21.0079C25.7865 20.6767 25.518 20.4082 25.1868 20.4082H19.1899C18.8587 20.4082 18.5902 20.6767 18.5902 21.0079V34.8006H17.3909V15.011C17.3909 14.6798 17.1224 14.4113 16.7912 14.4113H10.7943C10.4632 14.4113 10.1946 14.6798 10.1946 15.011V34.8006H8.99528V23.4066C8.99528 23.0754 8.72677 22.8069 8.39559 22.8069H2.39874C2.06756 22.8069 1.79906 23.0754 1.79906 23.4066V34.8006H0V36H35.9811V34.8006H34.1821ZM7.79591 34.8006H2.99843V24.0063H7.79591V34.8006ZM16.1915 34.8006H11.394V15.6107H16.1915V34.8006ZM24.5871 34.8006H19.7896V21.6075H24.5871V34.8006ZM32.9827 34.8006H28.1852V13.2119H32.9827V34.8006Z" fill="white"/>
<path d="M3.74369 16.3129C4.23423 16.6372 4.80933 16.8101 5.39739 16.8101C7.05335 16.81 8.39575 15.4675 8.39567 13.8115C8.39567 13.2237 8.22281 12.6487 7.89868 12.1583L12.1433 7.91314C12.6297 8.2387 13.2016 8.41313 13.787 8.41448C13.9635 8.41456 14.1397 8.39911 14.3135 8.36831C14.884 8.26831 15.413 8.004 15.8355 7.6079L19.3934 10.3431C18.7996 11.8889 19.5713 13.6235 21.1172 14.2173C22.663 14.8112 24.3976 14.0395 24.9914 12.4936C25.3397 11.587 25.2273 10.568 24.6899 9.75898L28.9332 5.5156C30.3183 6.43237 32.1843 6.0527 33.101 4.66765C34.0177 3.2826 33.6381 1.41661 32.253 0.499912C30.868 -0.416857 29.002 -0.0371809 28.0853 1.34787C27.4192 2.35421 27.4192 3.6613 28.0853 4.66765L23.8419 8.91102C22.6534 8.12543 21.0762 8.28457 20.0687 9.29182C20.0573 9.30322 20.0507 9.31641 20.0399 9.3272L16.5335 6.63222C17.2071 5.11936 16.5267 3.34699 15.0138 2.67347C13.5009 1.99995 11.7286 2.68037 11.055 4.19322C10.6385 5.12896 10.7284 6.21266 11.2935 7.06691L7.05073 11.3103C5.66928 10.397 3.80913 10.7766 2.89588 12.1581C1.98271 13.5395 2.36224 15.3997 3.74369 16.3129ZM30.5842 1.21826C31.5778 1.21826 32.3832 2.02371 32.3832 3.01732C32.3832 4.01092 31.5778 4.81637 30.5842 4.81637C29.5906 4.81637 28.7851 4.01092 28.7851 3.01732C28.7851 2.02371 29.5906 1.21826 30.5842 1.21826ZM20.9158 10.1412C21.2533 9.8035 21.7112 9.61378 22.1886 9.61385C23.1822 9.6137 23.9877 10.4191 23.9879 11.4127C23.9879 11.8901 23.7982 12.348 23.4605 12.6854C22.7484 13.3642 21.6288 13.3642 20.9166 12.6854C20.2138 11.9831 20.2135 10.844 20.9158 10.1412ZM12.3194 4.38422L12.3196 4.384C12.5923 3.99225 13.0102 3.72577 13.4805 3.64399C13.585 3.62607 13.6907 3.61708 13.7966 3.617C14.1647 3.61738 14.5238 3.73109 14.825 3.94263C15.6389 4.51263 15.8366 5.63442 15.2666 6.44826C14.6966 7.26211 13.5749 7.45978 12.761 6.88986C11.9472 6.31986 11.7494 5.19807 12.3194 4.38422ZM4.12464 12.5399C4.12494 12.5396 4.12516 12.5394 4.12546 12.5391C4.82829 11.8367 5.96747 11.8369 6.66993 12.5397C7.37238 13.2425 7.37216 14.3817 6.66933 15.0842C5.9572 15.7629 4.83759 15.7629 4.12546 15.0842C3.42263 14.3818 3.42233 13.2427 4.12464 12.5399Z" fill="white"/>
</svg>
