<svg width="54" height="69" viewBox="0 0 54 69" fill="none" xmlns="http://www.w3.org/2000/svg">
<path d="M43.1775 30.0834C43.6871 30.195 44.1837 29.842 44.288 29.2934C44.5206 28.0689 44.6384 26.8089 44.6384 25.548C44.6384 15.2984 36.9003 6.95947 27.3888 6.95947C17.8773 6.95947 10.1392 15.2984 10.1392 25.548C10.1392 35.7977 17.8773 44.1366 27.3888 44.1366C33.8719 44.1366 39.7484 40.2775 42.725 34.0654C42.9633 33.5678 42.7824 32.9561 42.3207 32.6992C41.859 32.4422 41.2913 32.6375 41.053 33.1348C38.4007 38.6701 33.1649 42.1087 27.3889 42.1087C18.915 42.1087 12.0211 34.6796 12.0211 25.5479C12.0211 16.4162 18.915 8.98715 27.3889 8.98715C35.8628 8.98715 42.7567 16.4162 42.7567 25.5479C42.7567 26.6724 42.6517 27.7957 42.4445 28.8866C42.3402 29.4353 42.6685 29.9711 43.1775 30.0834Z" fill="white"/>
<path d="M37.8573 21.7771C37.7464 21.4092 37.4511 21.1416 37.0959 21.0867L30.9636 20.1401L28.2332 14.1478C27.9213 13.4031 26.8557 13.4033 26.5439 14.1478L23.8135 20.14L17.6812 21.0866C16.9267 21.1762 16.5989 22.2689 17.1592 22.8176L21.604 27.4676L20.5444 34.0447C20.3903 34.8432 21.2512 35.5201 21.911 35.1148L27.3885 31.9963L32.866 35.1148C33.5248 35.5201 34.3871 34.8432 34.2326 34.0447L33.173 27.4676L37.6178 22.8176C37.8754 22.5484 37.9682 22.1447 37.8573 21.7771ZM31.5056 26.386C31.2824 26.6194 31.1808 26.9565 31.2338 27.2868L32.0507 32.3572L27.828 29.9531C27.553 29.7966 27.2239 29.7966 26.9489 29.9531L22.7262 32.3572L23.543 27.2868C23.5962 26.9565 23.4945 26.6194 23.2713 26.386L19.8447 22.8011L24.5723 22.0713C24.8801 22.0237 25.1463 21.8155 25.2835 21.5145L27.3884 16.8951L29.4933 21.5145C29.6304 21.8153 29.8966 22.0237 30.2045 22.0713L34.932 22.8011L31.5056 26.386Z" fill="white"/>
<path d="M53.792 60.2685L44.5958 43.1037C48.6225 38.5227 51.0961 32.341 51.0961 25.5479C51.0959 11.4607 40.4608 0 27.3882 0C23.3661 0 19.3925 1.10535 15.8968 3.19664C15.4424 3.4685 15.2786 4.08567 15.5309 4.57534C15.783 5.06473 16.3558 5.2413 16.8101 4.96971C20.0271 3.04515 23.6849 2.02794 27.3882 2.02794C39.4231 2.02794 49.2142 12.5791 49.2142 25.5481C49.2142 38.5172 39.4231 49.0684 27.3882 49.0684C15.3532 49.0684 5.56222 38.5172 5.56222 25.5479C5.56222 18.5905 8.39831 12.028 13.3435 7.54352C13.741 7.18298 13.7921 6.5433 13.4575 6.11496C13.1229 5.68649 12.5294 5.63123 12.1319 5.99204C6.76092 10.8627 3.68045 17.9905 3.68045 25.5479C3.68045 32.3526 6.16226 38.544 10.2012 43.1274L7.59667 47.9886C6.97255 49.1141 8.624 50.1546 9.22629 49.0026L11.5939 44.5835C14.4265 47.3156 17.8699 49.3258 21.6734 50.3441L13.5543 65.4983L11.4774 58.4544C11.3302 57.955 10.854 57.659 10.3791 57.771L3.67982 59.3547L7.03064 53.1004C7.29045 52.6154 7.13627 51.9953 6.68627 51.7154C6.23615 51.4354 5.66083 51.6015 5.40102 52.0864L0.984114 60.3305C0.565105 61.0547 1.2305 62.0388 2.00052 61.828L9.94375 59.9501L12.4062 68.302C12.6215 69.1236 13.7418 69.2575 14.1178 68.5019L23.6169 50.7716C24.8453 50.9842 26.1046 51.0962 27.3878 51.0962C28.6816 51.0962 29.9509 50.9821 31.189 50.7662L36.8942 61.415C37.0684 61.7404 37.3847 61.9221 37.7099 61.9221C37.8694 61.9221 38.0313 61.8783 38.1794 61.7861C38.6294 61.506 38.7836 60.886 38.5238 60.401L33.1316 50.3364C36.9334 49.313 40.3745 47.2984 43.2039 44.5624L51.0959 59.2929L44.3967 57.7092C43.9217 57.5969 43.4456 57.8931 43.2984 58.3925L41.2215 65.4364L40.7192 64.4988C40.4594 64.0139 39.8839 63.8478 39.4339 64.1278C38.9839 64.4079 38.8298 65.0279 39.0896 65.5128L40.6578 68.4402C41.034 69.1959 42.1541 69.0618 42.3694 68.2403L44.8319 59.8883L52.7751 61.7663C53.5459 61.9762 54.2108 60.9929 53.792 60.2685Z" fill="white"/>
</svg>
