<svg width="429" height="728" viewBox="0 0 429 728" fill="none" xmlns="http://www.w3.org/2000/svg">
<path d="M48.2141 725.417H85.6095C85.7496 726.56 86.7767 727.483 88.0372 727.483C89.3911 727.483 90.4649 726.472 90.4649 725.198C90.4649 724.45 90.0447 723.747 89.4378 723.352L108.159 692.848C108.486 692.98 108.812 693.068 109.139 693.068C110.493 693.068 111.567 692.057 111.567 690.783C111.567 689.508 110.493 688.497 109.139 688.497C108.766 688.497 108.439 688.585 108.159 688.717L89.4378 658.214C90.0447 657.818 90.4649 657.115 90.4649 656.368C90.4649 655.621 90.0447 654.917 89.4378 654.522L108.159 624.019C108.486 624.15 108.812 624.238 109.139 624.238C110.493 624.238 111.567 623.227 111.567 621.953C111.567 620.678 110.493 619.667 109.139 619.667C108.766 619.667 108.439 619.755 108.159 619.887L89.4378 589.384C90.0447 588.988 90.4649 588.285 90.4649 587.538C90.4649 587.142 90.3715 586.791 90.1848 586.439C89.998 586.131 89.7646 585.868 89.4844 585.692L108.206 555.189C108.532 555.321 108.859 555.409 109.186 555.409C110.446 555.409 111.474 554.485 111.614 553.343H149.009C149.149 554.485 150.176 555.409 151.437 555.409C151.81 555.409 152.137 555.321 152.417 555.189L171.138 585.692C170.531 586.087 170.111 586.791 170.111 587.538C170.111 588.812 171.185 589.823 172.539 589.823C173.799 589.823 174.826 588.9 174.966 587.758H212.362C212.502 588.9 213.529 589.823 214.789 589.823C215.163 589.823 215.49 589.735 215.77 589.604L234.491 620.107C233.884 620.502 233.464 621.206 233.464 621.953C233.464 623.227 234.538 624.238 235.891 624.238C237.152 624.238 238.179 623.315 238.319 622.173H275.715C275.855 623.315 276.882 624.238 278.142 624.238C279.496 624.238 280.57 623.227 280.57 621.953C280.57 621.206 280.15 620.502 279.543 620.107L298.264 589.604C298.591 589.735 298.917 589.823 299.244 589.823C300.598 589.823 301.672 588.812 301.672 587.538C301.672 586.263 300.598 585.252 299.244 585.252C298.871 585.252 298.544 585.34 298.264 585.472L279.543 554.969C280.15 554.573 280.57 553.87 280.57 553.123C280.57 552.376 280.15 551.673 279.543 551.277L298.264 520.774C298.264 520.774 298.311 520.774 298.311 520.818C298.591 520.95 298.917 520.994 299.244 520.994C300.505 520.994 301.532 520.071 301.672 518.928H339.067C339.207 520.071 340.234 520.994 341.495 520.994C342.849 520.994 343.923 519.983 343.923 518.708C343.923 517.961 343.503 517.258 342.896 516.862L361.617 486.359C361.943 486.491 362.27 486.579 362.597 486.579C363.858 486.579 364.885 485.656 365.025 484.513H402.42C402.56 485.656 403.587 486.579 404.848 486.579C406.202 486.579 407.275 485.568 407.275 484.293C407.275 483.546 406.855 482.843 406.248 482.447L424.969 451.944C425.296 452.076 425.623 452.164 425.95 452.164C427.304 452.164 428.378 451.153 428.378 449.878C428.378 448.604 427.304 447.593 425.95 447.593C425.576 447.593 425.25 447.681 424.969 447.812L406.248 417.309C406.855 416.914 407.275 416.21 407.275 415.463C407.275 414.189 406.202 413.178 404.848 413.178C403.587 413.178 402.56 414.101 402.42 415.244H365.025C364.978 414.892 364.885 414.584 364.698 414.321C364.278 413.661 363.484 413.178 362.597 413.178C362.224 413.178 361.897 413.266 361.617 413.398L342.896 382.894C343.503 382.499 343.923 381.796 343.923 381.048C343.923 379.774 342.849 378.763 341.495 378.763C340.234 378.763 339.207 379.686 339.067 380.829H301.672C301.625 380.301 301.345 379.818 300.972 379.422C300.551 379.027 299.898 378.763 299.244 378.763C298.871 378.763 298.544 378.851 298.264 378.983L279.543 348.479C280.15 348.084 280.57 347.381 280.57 346.633C280.57 346.238 280.477 345.886 280.29 345.535C280.103 345.227 279.87 344.963 279.59 344.743L298.311 314.24C298.637 314.372 298.964 314.46 299.291 314.46C300.645 314.46 301.719 313.449 301.719 312.175C301.719 310.9 300.645 309.889 299.291 309.889C298.917 309.889 298.591 309.977 298.311 310.109L279.59 279.606C280.196 279.21 280.617 278.507 280.617 277.76C280.617 277.364 280.523 277.012 280.336 276.661C280.15 276.353 279.916 276.089 279.636 275.914L298.357 245.411C298.684 245.542 299.011 245.63 299.338 245.63C300.598 245.63 301.625 244.707 301.765 243.564H339.161C339.301 244.707 340.328 245.63 341.588 245.63C342.942 245.63 344.016 244.619 344.016 243.345C344.016 242.598 343.596 241.894 342.989 241.499L361.71 210.996C362.037 211.127 362.364 211.215 362.69 211.215C364.044 211.215 365.118 210.204 365.118 208.93C365.118 207.655 364.044 206.644 362.69 206.644C362.317 206.644 361.99 206.732 361.71 206.864L342.989 176.361C343.596 175.965 344.016 175.262 344.016 174.515C344.016 173.24 342.942 172.229 341.588 172.229C340.328 172.229 339.301 173.152 339.161 174.295H301.765C301.719 173.768 301.439 173.284 301.065 172.889C300.645 172.493 299.991 172.229 299.338 172.229C298.964 172.229 298.637 172.317 298.357 172.449L279.636 141.946C280.243 141.55 280.663 140.847 280.663 140.1C280.663 138.825 279.589 137.814 278.236 137.814C276.975 137.814 275.948 138.737 275.808 139.88H238.412C238.272 138.737 237.245 137.814 235.985 137.814C234.631 137.814 233.557 138.825 233.557 140.1C233.557 140.847 233.977 141.55 234.584 141.946L215.863 172.449C215.536 172.317 215.21 172.229 214.883 172.229C213.622 172.229 212.595 173.152 212.455 174.295H175.06C175.013 173.768 174.733 173.284 174.359 172.889C173.939 172.493 173.286 172.229 172.632 172.229C172.259 172.229 171.932 172.317 171.652 172.449L152.931 141.946C153.211 141.726 153.491 141.463 153.631 141.155C153.818 140.847 153.911 140.452 153.911 140.056C153.911 139.309 153.491 138.606 152.884 138.21L171.605 107.707C171.932 107.839 172.259 107.927 172.585 107.927C173.939 107.927 175.013 106.916 175.013 105.641C175.013 104.367 173.939 103.356 172.585 103.356C172.212 103.356 171.885 103.444 171.605 103.575L152.884 73.0722C153.491 72.6767 153.911 71.9734 153.911 71.2262C153.911 70.9185 153.864 70.6109 153.724 70.3472C153.538 69.9516 153.257 69.6439 152.884 69.3802L171.605 38.8771C171.932 39.0089 172.259 39.0968 172.585 39.0968C173.939 39.0968 175.013 38.0859 175.013 36.8113C175.013 35.5367 173.939 34.5258 172.585 34.5258C172.212 34.5258 171.885 34.6137 171.605 34.7455L152.884 4.24239C153.491 3.84681 153.911 3.14357 153.911 2.39638C153.911 1.12175 152.837 0.11084 151.483 0.11084C150.223 0.11084 149.196 1.03385 149.056 2.17661H111.66C111.52 1.03385 110.493 0.11084 109.233 0.11084C107.879 0.11084 106.805 1.12175 106.805 2.39638C106.805 3.14357 107.225 3.84681 107.832 4.24239L89.111 34.7455C88.7842 34.6137 88.4574 34.5258 88.0839 34.5258C86.8234 34.5258 85.7963 35.4488 85.6562 36.5915H48.2608C48.1207 35.4488 47.0936 34.5258 45.8331 34.5258C44.4792 34.5258 43.4055 35.5367 43.4055 36.8113C43.4055 37.5585 43.8256 38.2617 44.4326 38.6573L25.7115 69.1604C25.3847 69.0286 25.0579 68.9407 24.7311 68.9407C23.4706 68.9407 22.4435 69.8637 22.3034 71.0065H-15.092C-15.1387 70.479 -15.4188 69.9955 -15.7923 69.6C-16.2125 69.2044 -16.866 68.9407 -17.5196 68.9407C-17.8931 68.9407 -18.2199 69.0286 -18.5001 69.1604L-37.3145 38.0859C-36.7076 37.6903 -36.2874 36.9871 -36.2874 36.2399C-36.2874 34.9653 -37.3611 33.9544 -38.7151 33.9544C-39.9756 33.9544 -41.0027 34.8774 -41.1427 36.0201H-78.5381C-78.6782 34.8774 -79.7053 33.9544 -80.9658 33.9544C-82.3197 33.9544 -83.3935 34.9653 -83.3935 36.2399C-83.3935 36.9871 -82.9733 37.6903 -82.3664 38.0859L-101.087 68.5891C-101.414 68.4572 -101.741 68.3693 -102.068 68.3693C-103.422 68.3693 -104.496 69.3802 -104.496 70.6548C-104.496 71.9295 -103.422 72.9404 -102.068 72.9404C-101.694 72.9404 -101.368 72.8525 -101.087 72.7206L-82.3664 103.224C-82.9733 103.619 -83.3935 104.323 -83.3935 105.07C-83.3935 105.817 -82.9733 106.52 -82.3664 106.916L-101.087 137.419C-101.414 137.287 -101.741 137.199 -102.068 137.199C-103.142 137.199 -104.075 137.858 -104.402 138.825C-104.449 138.957 -104.496 139.133 -104.496 139.265H-141.891C-142.031 138.122 -143.058 137.199 -144.319 137.199C-145.672 137.199 -146.746 138.21 -146.746 139.485C-146.746 140.232 -146.326 140.935 -145.719 141.331L-164.44 171.834C-164.767 171.702 -165.094 171.614 -165.421 171.614C-166.681 171.614 -167.708 172.537 -167.848 173.68H-205.244C-205.29 173.152 -205.571 172.669 -205.944 172.273C-206.364 171.878 -207.018 171.614 -207.671 171.614C-208.045 171.614 -208.372 171.702 -208.652 171.834L-227.466 141.463C-226.859 141.067 -226.439 140.364 -226.439 139.617C-226.439 138.342 -227.513 137.331 -228.867 137.331C-230.127 137.331 -231.154 138.254 -231.294 139.397H-268.69C-268.83 138.254 -269.857 137.331 -271.118 137.331C-272.471 137.331 -273.545 138.342 -273.545 139.617C-273.545 140.364 -273.125 141.067 -272.518 141.463L-291.239 171.966C-291.566 171.834 -291.893 171.746 -292.22 171.746C-293.573 171.746 -294.647 172.757 -294.647 174.031C-294.647 175.306 -293.573 176.317 -292.22 176.317C-291.846 176.317 -291.519 176.229 -291.239 176.097L-272.518 206.6C-273.125 206.996 -273.545 207.699 -273.545 208.446C-273.545 209.194 -273.125 209.897 -272.518 210.292L-291.239 240.795C-291.566 240.664 -291.893 240.576 -292.22 240.576C-293.573 240.576 -294.647 241.587 -294.647 242.861C-294.647 244.136 -293.573 245.147 -292.22 245.147C-291.846 245.147 -291.519 245.059 -291.239 244.927L-272.518 275.43C-273.125 275.826 -273.545 276.529 -273.545 277.276C-273.545 278.551 -272.471 279.562 -271.118 279.562C-269.857 279.562 -268.83 278.639 -268.69 277.496H-231.294C-231.154 278.639 -230.127 279.562 -228.867 279.562C-228.493 279.562 -228.166 279.474 -227.886 279.342L-209.165 309.845C-209.772 310.241 -210.192 310.944 -210.192 311.691C-210.192 312.438 -209.772 313.142 -209.165 313.537L-227.84 343.996C-228.12 343.864 -228.493 343.777 -228.82 343.777C-229.334 343.777 -229.8 343.908 -230.174 344.172C-230.781 344.524 -231.154 345.139 -231.248 345.842H-268.643C-268.783 344.7 -269.81 343.777 -271.071 343.777C-272.425 343.777 -273.499 344.787 -273.499 346.062C-273.499 346.809 -273.078 347.513 -272.471 347.908L-291.192 378.411C-291.519 378.279 -291.846 378.191 -292.173 378.191C-293.433 378.191 -294.46 379.114 -294.601 380.257H-332.043C-332.183 379.114 -333.21 378.191 -334.47 378.191C-335.824 378.191 -336.898 379.202 -336.898 380.477C-336.898 381.224 -336.478 381.927 -335.871 382.323L-354.592 413.09C-354.919 412.958 -355.246 412.87 -355.572 412.87C-356.926 412.87 -358 413.881 -358 415.156C-358 416.43 -356.926 417.441 -355.572 417.441C-355.199 417.441 -354.872 417.353 -354.592 417.221L-335.871 447.725C-336.478 448.12 -336.898 448.823 -336.898 449.571C-336.898 450.845 -335.824 451.856 -334.47 451.856C-333.21 451.856 -332.183 450.933 -332.043 449.79H-294.647C-294.507 450.933 -293.48 451.856 -292.22 451.856C-291.846 451.856 -291.519 451.768 -291.239 451.636L-272.518 482.139C-273.125 482.535 -273.545 483.238 -273.545 483.985C-273.545 485.26 -272.471 486.271 -271.118 486.271C-269.857 486.271 -268.83 485.348 -268.69 484.205H-231.294C-231.154 485.348 -230.127 486.271 -228.867 486.271C-228.493 486.271 -228.166 486.183 -227.886 486.051L-209.165 516.554C-209.772 516.95 -210.192 517.653 -210.192 518.4C-210.192 519.148 -209.772 519.851 -209.165 520.246L-227.886 550.75C-228.213 550.618 -228.54 550.53 -228.867 550.53C-230.221 550.53 -231.294 551.541 -231.294 552.815C-231.294 554.09 -230.221 555.101 -228.867 555.101C-228.493 555.101 -228.166 555.013 -227.886 554.881L-209.165 585.384C-209.772 585.78 -210.192 586.483 -210.192 587.23C-210.192 588.505 -209.119 589.516 -207.765 589.516C-206.504 589.516 -205.477 588.593 -205.337 587.45H-167.942C-167.802 588.593 -166.775 589.516 -165.514 589.516C-164.16 589.516 -163.086 588.505 -163.086 587.23C-163.086 586.483 -163.507 585.78 -164.113 585.384L-145.392 554.881C-145.066 555.013 -144.739 555.101 -144.412 555.101C-143.151 555.101 -142.124 554.178 -141.984 553.035H-104.542C-104.495 553.255 -104.449 553.475 -104.355 553.694C-103.982 554.529 -103.142 555.101 -102.115 555.101C-101.741 555.101 -101.414 555.013 -101.134 554.881L-82.4131 585.384C-83.02 585.78 -83.4402 586.483 -83.4402 587.23C-83.4402 588.505 -82.3664 589.516 -81.0125 589.516C-79.752 589.516 -78.7249 588.593 -78.5848 587.45H-41.1894C-41.096 588.549 -40.1623 589.384 -38.9951 589.516C-38.9018 589.516 -38.8084 589.516 -38.7617 589.516C-38.6684 589.516 -38.575 589.516 -38.5283 589.516C-38.2482 589.472 -38.0148 589.428 -37.7813 589.34L-19.0603 619.843C-19.6672 620.239 -20.0874 620.942 -20.0874 621.689C-20.0874 622.436 -19.6672 623.14 -19.0603 623.535L-37.7813 654.038C-38.1081 653.906 -38.4349 653.818 -38.7617 653.818C-40.1156 653.818 -41.1894 654.829 -41.1894 656.104C-41.1894 657.379 -40.1156 658.39 -38.7617 658.39C-38.3882 658.39 -38.0614 658.302 -37.7813 658.17L-19.0603 688.673C-19.6672 689.068 -20.0874 689.772 -20.0874 690.519C-20.0874 691.794 -19.0136 692.804 -17.6597 692.804C-16.3992 692.804 -15.3721 691.881 -15.2321 690.739H22.1634C22.3034 691.881 23.3305 692.804 24.591 692.804C24.9645 692.804 25.2914 692.717 25.5714 692.585L44.2925 723.088C43.6856 723.483 43.2654 724.187 43.2654 724.934C43.2654 726.208 44.3392 727.219 45.6931 727.219C47.047 727.483 48.0741 726.604 48.2141 725.417ZM213.062 175.658C213.482 176.053 214.136 176.317 214.789 176.317C215.163 176.317 215.49 176.229 215.77 176.097L234.491 206.6C233.884 206.996 233.464 207.699 233.464 208.446C233.464 209.194 233.884 209.897 234.491 210.292L217.964 237.235L215.77 240.795C215.443 240.664 215.116 240.576 214.789 240.576C213.529 240.576 212.502 241.499 212.362 242.642H174.966C174.92 242.334 174.826 242.026 174.686 241.762C174.266 241.059 173.472 240.576 172.539 240.576C172.165 240.576 171.838 240.664 171.558 240.795L152.837 210.292C153.444 209.897 153.864 209.194 153.864 208.446C153.864 207.699 153.444 206.996 152.837 206.6L171.558 176.097C171.885 176.229 172.212 176.317 172.539 176.317C173.799 176.317 174.826 175.394 174.966 174.251H212.362C212.409 174.779 212.642 175.262 213.062 175.658ZM-163.04 311.823C-163.04 311.076 -163.46 310.373 -164.067 309.977L-145.346 279.474C-145.019 279.606 -144.692 279.694 -144.365 279.694C-143.105 279.694 -142.078 278.771 -141.938 277.628H-104.542C-104.495 277.935 -104.402 278.243 -104.262 278.507C-103.842 279.21 -103.048 279.694 -102.115 279.694C-101.741 279.694 -101.414 279.606 -101.134 279.474L-82.4597 309.977C-82.8333 310.241 -83.1134 310.548 -83.2534 310.944C-83.3935 311.208 -83.4402 311.515 -83.4402 311.867C-83.4402 312.614 -83.02 313.317 -82.4131 313.713L-101.087 344.172H-101.134C-101.414 344.04 -101.741 343.996 -102.068 343.996C-103.095 343.996 -103.935 344.568 -104.309 345.403C-104.402 345.623 -104.449 345.842 -104.496 346.062H-141.891C-142.031 344.919 -143.058 343.996 -144.319 343.996C-144.692 343.996 -145.019 344.084 -145.346 344.216L-164.067 313.713C-163.46 313.273 -163.04 312.614 -163.04 311.823ZM-17.613 141.858C-16.3525 141.858 -15.3254 140.935 -15.1853 139.792H22.2101C22.3501 140.935 23.3772 141.858 24.6377 141.858C25.0112 141.858 25.338 141.77 25.6181 141.638L44.3392 172.141C43.7323 172.537 43.3121 173.24 43.3121 173.987C43.3121 174.691 43.6389 175.35 44.1991 175.746C44.2458 175.79 44.2925 175.79 44.3392 175.834L25.6181 206.337C25.2913 206.205 24.9645 206.117 24.6377 206.117C23.3772 206.117 22.3501 207.04 22.2101 208.183H-15.1853C-15.3254 207.04 -16.3525 206.117 -17.613 206.117C-17.9865 206.117 -18.3133 206.205 -18.5934 206.337L-37.3145 175.877C-36.8943 175.57 -36.5675 175.174 -36.4274 174.691C-36.334 174.471 -36.3341 174.251 -36.3341 173.987C-36.3341 173.24 -36.7542 172.537 -37.3611 172.141L-18.6401 141.638C-18.3133 141.814 -17.9865 141.858 -17.613 141.858ZM212.362 243.125C212.502 244.268 213.529 245.191 214.789 245.191C215.163 245.191 215.49 245.103 215.77 244.971L234.491 275.474C233.884 275.87 233.464 276.573 233.464 277.32C233.464 278.023 233.791 278.683 234.351 279.078C234.398 279.122 234.444 279.122 234.491 279.166L215.77 309.669C215.443 309.537 215.116 309.45 214.789 309.45C213.529 309.45 212.502 310.373 212.362 311.515H174.966C174.92 311.296 174.873 311.076 174.78 310.856C174.406 310.021 173.566 309.45 172.539 309.45C172.165 309.45 171.838 309.537 171.558 309.669L152.837 279.166C153.444 278.771 153.864 278.067 153.864 277.32C153.864 276.705 153.584 276.133 153.164 275.694C153.071 275.606 152.977 275.518 152.884 275.474L171.605 244.971C171.932 245.103 172.259 245.191 172.585 245.191C173.846 245.191 174.873 244.268 175.013 243.125H212.362ZM233.464 346.238C233.464 346.633 233.557 347.029 233.744 347.337C233.931 347.644 234.164 347.908 234.444 348.084L215.723 378.587C215.396 378.455 215.07 378.367 214.743 378.367C213.482 378.367 212.455 379.29 212.315 380.433H174.92C174.873 380.213 174.826 379.993 174.733 379.774C174.359 378.939 173.519 378.367 172.492 378.367C172.119 378.367 171.792 378.455 171.512 378.587L152.791 348.084C153.397 347.688 153.818 346.985 153.818 346.238C153.818 345.93 153.771 345.623 153.631 345.359C153.538 345.139 153.397 344.963 153.257 344.787C153.117 344.656 152.977 344.524 152.791 344.392L171.512 313.889C171.838 314.021 172.165 314.108 172.492 314.108C173.519 314.108 174.359 313.537 174.733 312.702C174.826 312.482 174.873 312.262 174.92 312.043H212.315C212.362 312.35 212.455 312.658 212.595 312.922C213.015 313.625 213.809 314.108 214.743 314.108C215.116 314.108 215.443 314.021 215.723 313.889L234.444 344.392C233.884 344.831 233.464 345.491 233.464 346.238ZM233.464 415.156C233.464 415.903 233.884 416.606 234.491 417.002L217.964 443.945L215.77 447.505C215.443 447.373 215.116 447.285 214.789 447.285C213.529 447.285 212.502 448.208 212.362 449.351H174.966C174.92 449.043 174.826 448.735 174.686 448.472C174.266 447.768 173.472 447.285 172.539 447.285C172.165 447.285 171.838 447.373 171.558 447.505L152.837 417.002C153.444 416.606 153.864 415.903 153.864 415.156C153.864 414.408 153.444 413.705 152.837 413.31L171.558 382.806C171.885 382.938 172.212 383.026 172.539 383.026C173.799 383.026 174.826 382.103 174.966 380.96H212.362C212.409 381.18 212.455 381.4 212.549 381.62C212.922 382.455 213.762 383.026 214.789 383.026C215.163 383.026 215.49 382.938 215.77 382.806L234.491 413.31C233.884 413.705 233.464 414.408 233.464 415.156ZM-78.7249 448.735C-79.0984 447.9 -79.9387 447.329 -80.9658 447.329C-81.3393 447.329 -81.6661 447.417 -81.9462 447.549L-100.667 417.046C-100.06 416.65 -99.6402 415.947 -99.6402 415.2C-99.6402 414.452 -100.06 413.749 -100.667 413.354L-81.9462 382.85H-81.8995C-81.6194 382.982 -81.2926 383.026 -80.9658 383.026C-79.7053 383.026 -78.6782 382.103 -78.5381 380.96H-41.1427C-41.0493 381.796 -40.4424 382.543 -39.6488 382.85C-39.3687 382.982 -39.0418 383.026 -38.7151 383.026C-38.3416 383.026 -38.0148 382.938 -37.7346 382.806L-19.0136 413.31C-19.6205 413.705 -20.0407 414.408 -20.0407 415.156C-20.0407 415.903 -19.6205 416.606 -19.0136 417.002L-37.7346 447.505C-37.9681 447.417 -38.2015 447.329 -38.4816 447.329C-38.575 447.329 -38.6684 447.329 -38.7151 447.329C-39.9756 447.329 -41.0027 448.252 -41.1427 449.395H-78.5381C-78.5848 449.131 -78.6315 448.911 -78.7249 448.735ZM-99.6402 346.282C-99.6402 345.491 -100.06 344.831 -100.667 344.436L-81.9929 313.977C-81.6661 314.108 -81.3393 314.196 -81.0125 314.196C-79.9854 314.196 -79.1451 313.625 -78.7715 312.79C-78.6782 312.57 -78.6315 312.35 -78.5848 312.131H-41.1894C-41.1427 312.438 -41.0493 312.746 -40.9093 313.01C-40.4891 313.713 -39.6954 314.196 -38.7617 314.196C-38.3882 314.196 -38.0614 314.108 -37.7813 313.977L-19.0603 344.48C-19.6672 344.875 -20.0874 345.579 -20.0874 346.326C-20.0874 346.897 -19.9006 347.381 -19.5272 347.776C-19.3871 347.908 -19.247 348.04 -19.0603 348.172L-37.7813 378.675H-37.828C-38.1081 378.543 -38.4349 378.499 -38.7617 378.499C-40.0222 378.499 -41.0493 379.422 -41.1894 380.565H-78.5848C-78.6315 380.037 -78.9116 379.554 -79.2851 379.158C-79.5186 378.939 -79.752 378.763 -80.0788 378.675C-80.3589 378.543 -80.6857 378.499 -81.0125 378.499C-81.386 378.499 -81.7128 378.587 -81.9929 378.719L-100.667 348.216C-100.06 347.688 -99.6402 347.029 -99.6402 346.282ZM170.064 380.697C170.064 381.004 170.111 381.312 170.251 381.576C170.391 381.927 170.625 382.235 170.951 382.455C170.998 382.499 171.045 382.499 171.091 382.543L152.37 413.046C152.044 412.914 151.717 412.826 151.39 412.826C150.129 412.826 149.102 413.749 148.962 414.892H111.567C111.52 414.584 111.427 414.277 111.287 414.013C110.867 413.31 110.073 412.826 109.139 412.826C108.766 412.826 108.439 412.914 108.159 413.046L89.4378 382.543C90.0447 382.147 90.4649 381.444 90.4649 380.697C90.4649 380.389 90.4182 380.081 90.2781 379.818C90.2314 379.73 90.2314 379.686 90.1848 379.598C89.998 379.29 89.7646 379.027 89.4844 378.851L108.206 348.348C108.532 348.479 108.859 348.567 109.186 348.567C110.446 348.567 111.474 347.644 111.614 346.502H149.009C149.056 346.721 149.102 346.941 149.196 347.161C149.569 347.996 150.41 348.567 151.437 348.567C151.81 348.567 152.137 348.479 152.417 348.348L171.138 378.851C170.484 379.246 170.064 379.95 170.064 380.697ZM-17.613 279.65C-16.6793 279.65 -15.8857 279.166 -15.4655 278.463C-15.3254 278.199 -15.232 277.892 -15.1853 277.584H22.2101C22.3501 278.727 23.3772 279.65 24.6377 279.65C25.0112 279.65 25.338 279.562 25.6648 279.43L44.3859 309.933C43.779 310.329 43.3588 311.032 43.3588 311.779C43.3588 312.526 43.779 313.229 44.3859 313.625L30.847 335.689L25.6648 344.128C25.338 343.996 25.0112 343.908 24.6844 343.908C23.4239 343.908 22.3968 344.831 22.2567 345.974H-15.1387C-15.1854 345.666 -15.2787 345.359 -15.4188 345.095C-15.8389 344.392 -16.6326 343.908 -17.5663 343.908C-17.9398 343.908 -18.2666 343.996 -18.5467 344.128L-37.3145 313.669C-36.7076 313.273 -36.2874 312.57 -36.2874 311.823C-36.2874 311.076 -36.7076 310.373 -37.3145 309.977L-18.5934 279.474C-18.3133 279.606 -17.9865 279.65 -17.613 279.65ZM85.8896 312.922C86.3098 313.625 87.1035 314.108 88.0372 314.108C88.4107 314.108 88.7375 314.021 89.0176 313.889L107.739 344.392C107.132 344.787 106.712 345.491 106.712 346.238C106.712 346.546 106.805 346.853 106.898 347.117C107.085 347.513 107.365 347.82 107.692 348.084L88.9709 378.587C88.6441 378.455 88.3173 378.367 87.9905 378.367C86.73 378.367 85.7029 379.29 85.5628 380.433H48.1674C48.1207 380.125 48.0274 379.818 47.8873 379.554C47.4671 378.851 46.6735 378.367 45.7398 378.367C45.3663 378.367 45.0395 378.455 44.7593 378.587L26.0383 348.084C26.6452 347.688 27.0654 346.985 27.0654 346.238C27.0654 345.491 26.6452 344.787 26.0383 344.392L44.7593 313.889C45.0862 314.021 45.413 314.108 45.7398 314.108C47.0003 314.108 48.0274 313.185 48.1674 312.043H85.5628C85.6095 312.35 85.7029 312.658 85.8896 312.922ZM-16.6793 413.046C-16.9594 412.914 -17.2862 412.87 -17.613 412.87C-17.9865 412.87 -18.3133 412.958 -18.5934 413.09L-37.2678 382.587C-36.6609 382.191 -36.2407 381.488 -36.2407 380.741C-36.2407 379.95 -36.6609 379.29 -37.2678 378.851L-18.5467 348.348C-18.2199 348.479 -17.8931 348.567 -17.5663 348.567C-16.3058 348.567 -15.2787 347.644 -15.1387 346.502H22.2567C22.3968 347.644 23.4239 348.567 24.6844 348.567C25.0579 348.567 25.3847 348.479 25.6648 348.348L44.3859 378.851C43.779 379.246 43.3588 379.95 43.3588 380.697C43.3588 381.4 43.6856 382.059 44.2458 382.455C44.2925 382.499 44.3392 382.499 44.3859 382.543L25.6648 413.046C25.338 412.914 25.0112 412.826 24.6844 412.826C23.4239 412.826 22.3968 413.749 22.2567 414.892H-15.1387C-15.2787 414.057 -15.839 413.354 -16.6793 413.046ZM46.0199 447.329C45.9265 447.329 45.8331 447.329 45.7864 447.329C45.413 447.329 45.0862 447.417 44.8061 447.549L26.085 417.046C26.5518 416.694 26.9254 416.21 27.0654 415.639C27.1121 415.507 27.1121 415.331 27.1121 415.156C27.1121 414.408 26.6919 413.705 26.085 413.31L44.8061 382.806C45.1328 382.938 45.4597 383.026 45.7864 383.026C47.047 383.026 48.0741 382.103 48.2141 380.96H85.6095C85.6562 381.18 85.7029 381.4 85.7963 381.62C86.1698 382.455 87.0101 383.026 88.0372 383.026C88.4107 383.026 88.7375 382.938 89.0176 382.806L107.739 413.31C107.132 413.705 106.712 414.408 106.712 415.156C106.712 415.463 106.805 415.771 106.898 416.035C107.085 416.43 107.365 416.738 107.692 417.002L88.9709 447.505C88.6908 447.373 88.3173 447.285 87.9905 447.285C86.73 447.285 85.7029 448.208 85.5628 449.351H48.1674C48.074 448.296 47.187 447.417 46.0199 447.329ZM150.223 279.386C150.55 279.562 150.97 279.65 151.39 279.65C151.763 279.65 152.09 279.562 152.37 279.43L171.091 309.933C170.625 310.285 170.251 310.768 170.111 311.339C170.064 311.471 170.064 311.647 170.064 311.823C170.064 311.999 170.064 312.131 170.111 312.306C170.251 312.878 170.578 313.361 171.091 313.713L152.37 344.216C152.044 344.084 151.717 343.996 151.39 343.996C150.129 343.996 149.102 344.919 148.962 346.062H111.567C111.52 345.842 111.474 345.623 111.38 345.403C111.333 345.315 111.333 345.271 111.287 345.183C110.867 344.48 110.073 343.996 109.139 343.996C108.766 343.996 108.439 344.084 108.159 344.216L89.4378 313.713C90.0447 313.317 90.4649 312.614 90.4649 311.867C90.4649 311.12 90.0447 310.416 89.4378 310.021L108.159 279.518C108.486 279.65 108.812 279.738 109.139 279.738C110.4 279.738 111.427 278.815 111.567 277.672H148.962C149.056 278.375 149.523 279.034 150.223 279.386ZM106.712 277.364C106.712 278.067 107.038 278.727 107.599 279.122C107.645 279.166 107.692 279.166 107.739 279.21L89.0176 309.713C88.6908 309.581 88.364 309.493 88.0372 309.493C86.7767 309.493 85.7496 310.416 85.6095 311.559H48.2141C48.0741 310.416 47.047 309.493 45.7864 309.493C45.413 309.493 45.0862 309.581 44.8061 309.713L26.085 279.21C26.3651 278.99 26.6452 278.771 26.7853 278.463C26.972 278.155 27.0654 277.76 27.0654 277.364C27.0654 276.749 26.7853 276.177 26.3651 275.738C26.2718 275.65 26.1784 275.562 26.085 275.518L37.0095 257.673L44.7593 245.015C45.0862 245.147 45.413 245.235 45.7398 245.235C46.6735 245.235 47.4671 244.751 47.8873 244.048C48.0274 243.784 48.1207 243.477 48.1674 243.169H85.5628C85.7029 244.312 86.73 245.235 87.9905 245.235C88.364 245.235 88.6908 245.147 89.0176 245.015L107.739 275.518C107.085 275.914 106.712 276.617 106.712 277.364ZM22.9103 210.117C23.3305 210.512 23.9841 210.776 24.6377 210.776C25.0112 210.776 25.338 210.688 25.6181 210.556L44.3392 241.059C44.1058 241.235 43.919 241.411 43.7323 241.631C43.4521 241.982 43.3121 242.422 43.3121 242.905C43.3121 243.477 43.4988 243.96 43.8723 244.356C44.0124 244.488 44.1525 244.619 44.3392 244.751L39.3905 252.839L25.6648 275.254C25.338 275.123 25.0112 275.035 24.6844 275.035C23.7507 275.035 22.957 275.518 22.5369 276.221C22.3968 276.485 22.3034 276.793 22.2567 277.1H-15.1387C-15.1854 276.573 -15.4655 276.089 -15.839 275.694C-16.2591 275.298 -16.9127 275.035 -17.5663 275.035C-17.9398 275.035 -18.2666 275.123 -18.5467 275.254L-37.3145 244.795C-36.941 244.531 -36.6609 244.224 -36.5208 243.828C-36.3807 243.565 -36.3341 243.257 -36.3341 242.949C-36.3341 242.202 -36.7542 241.499 -37.3611 241.103L-18.6868 210.6C-18.36 210.732 -18.0332 210.82 -17.7064 210.82C-16.6326 210.82 -15.6989 210.161 -15.3721 209.194C-15.3254 209.062 -15.2787 208.886 -15.2787 208.754H22.1167C22.2567 209.238 22.5369 209.721 22.9103 210.117ZM-81.0125 245.235C-79.9854 245.235 -79.1451 244.663 -78.7715 243.828C-78.6782 243.608 -78.6315 243.389 -78.5848 243.169H-41.1894C-41.0493 244.312 -40.0222 245.235 -38.7617 245.235C-38.3882 245.235 -38.0615 245.147 -37.7346 245.015L-19.0603 275.518C-19.4338 275.782 -19.7139 276.089 -19.8539 276.485C-19.994 276.749 -20.0407 277.056 -20.0407 277.364C-20.0407 278.111 -19.6205 278.815 -19.0136 279.21L-37.7346 309.713C-38.0615 309.581 -38.3882 309.493 -38.7151 309.493C-39.9756 309.493 -41.0027 310.416 -41.1427 311.559H-78.5381C-78.6782 310.416 -79.7053 309.493 -80.9658 309.493C-81.3393 309.493 -81.6661 309.581 -81.9462 309.713L-100.667 279.21C-100.294 278.946 -100.014 278.639 -99.8736 278.243C-99.7335 277.979 -99.6868 277.672 -99.6868 277.364C-99.6868 276.617 -100.107 275.914 -100.714 275.518L-82.0396 245.015C-81.7128 245.147 -81.3393 245.235 -81.0125 245.235ZM-36.2874 449.614C-36.2874 449.307 -36.3341 448.999 -36.4741 448.735C-36.6609 448.34 -36.941 448.032 -37.3145 447.768L-18.5934 417.265H-18.5467C-18.2666 417.397 -17.9398 417.441 -17.613 417.441C-16.3525 417.441 -15.3254 416.518 -15.1853 415.375H22.2101C22.3034 416.079 22.6769 416.694 23.2838 417.046C23.6573 417.309 24.1242 417.441 24.6377 417.441C25.0112 417.441 25.338 417.353 25.6181 417.221L44.3392 447.725C43.7323 448.12 43.3121 448.823 43.3121 449.571C43.3121 450.142 43.4988 450.625 43.8723 451.021C44.0124 451.153 44.1525 451.285 44.3392 451.417L25.6181 481.92C25.3847 481.832 25.1513 481.744 24.8712 481.744C24.7778 481.744 24.6844 481.744 24.6377 481.744C23.3772 481.744 22.3501 482.667 22.2101 483.81H-15.1853C-15.232 483.282 -15.5121 482.799 -15.8856 482.403C-16.2591 482.052 -16.7727 481.788 -17.3796 481.744C-17.473 481.744 -17.5663 481.744 -17.613 481.744C-17.9865 481.744 -18.3133 481.832 -18.5934 481.964L-37.2678 451.461C-36.7076 451.065 -36.2874 450.362 -36.2874 449.614ZM111.567 483.81C111.52 483.282 111.24 482.799 110.867 482.403C110.446 482.008 109.793 481.744 109.139 481.744C108.766 481.744 108.439 481.832 108.159 481.964L89.4378 451.461C89.4845 451.417 89.5311 451.417 89.5778 451.373C90.1381 450.933 90.4649 450.318 90.4649 449.614C90.4649 448.867 90.0447 448.164 89.4378 447.768L108.112 417.265C108.439 417.397 108.766 417.485 109.093 417.485C110.353 417.485 111.38 416.562 111.52 415.419H148.916C149.056 416.562 150.083 417.485 151.343 417.485C151.437 417.485 151.53 417.485 151.577 417.485C151.857 417.441 152.09 417.397 152.324 417.309L171.045 447.812C170.438 448.208 170.018 448.911 170.018 449.658C170.018 450.23 170.204 450.713 170.578 451.109C170.718 451.241 170.858 451.373 171.045 451.504L152.324 482.008C151.997 481.876 151.67 481.788 151.343 481.788C150.83 481.788 150.363 481.92 149.989 482.183C149.382 482.535 149.009 483.15 148.916 483.854H111.567V483.81ZM106.992 207.391C106.805 207.699 106.712 208.095 106.712 208.49C106.712 209.238 107.132 209.941 107.739 210.336L89.0176 240.839C88.6908 240.708 88.364 240.62 88.0372 240.62C87.0101 240.62 86.1698 241.191 85.7963 242.026C85.7029 242.246 85.6562 242.466 85.6095 242.685H48.2141C48.0741 241.543 47.047 240.62 45.7864 240.62C45.413 240.62 45.0862 240.708 44.7593 240.839L26.0383 210.336C26.6452 209.941 27.0654 209.238 27.0654 208.49C27.0654 207.743 26.6452 207.04 26.0383 206.644L44.7593 176.141C45.0862 176.273 45.413 176.361 45.7398 176.361C47.0003 176.361 48.0274 175.438 48.1674 174.295H85.5628C85.6095 174.603 85.7029 174.911 85.843 175.174C86.2631 175.877 87.0568 176.361 87.9905 176.361C88.364 176.361 88.6908 176.273 88.9709 176.141L107.692 206.644C107.412 206.82 107.178 207.084 106.992 207.391ZM-81.0125 176.317C-79.9387 176.317 -79.005 175.614 -78.6782 174.691C-78.6315 174.559 -78.5848 174.383 -78.5848 174.251H-41.1894C-41.0493 175.394 -40.0222 176.317 -38.7617 176.317C-38.3882 176.317 -38.0614 176.229 -37.7813 176.097L-19.0603 206.6C-19.4805 206.908 -19.8073 207.304 -19.9473 207.787C-20.0407 208.007 -20.0407 208.227 -20.0407 208.49C-20.0407 209.238 -19.6205 209.941 -19.0136 210.336L-37.688 240.839C-38.0147 240.708 -38.3416 240.62 -38.6684 240.62C-39.6021 240.62 -40.3958 241.103 -40.8159 241.806C-40.9093 241.938 -40.956 242.07 -41.0027 242.246C-41.0493 242.378 -41.096 242.554 -41.096 242.685H-78.4915C-78.6315 241.543 -79.6586 240.62 -80.9191 240.62C-81.2926 240.62 -81.6194 240.708 -81.9462 240.839L-100.621 210.336C-100.014 209.941 -99.5935 209.238 -99.5935 208.49C-99.5935 207.743 -100.014 207.04 -100.621 206.644L-81.8995 176.141C-81.6661 176.273 -81.3393 176.317 -81.0125 176.317ZM-144.365 348.567C-143.852 348.567 -143.385 348.436 -143.011 348.172C-142.404 347.82 -142.031 347.205 -141.938 346.502H-104.542C-104.402 347.644 -103.375 348.567 -102.115 348.567C-101.741 348.567 -101.414 348.479 -101.087 348.348L-82.4131 378.851C-83.02 379.246 -83.4402 379.95 -83.4402 380.697C-83.4402 381.488 -83.02 382.147 -82.4131 382.543L-101.087 413.09C-101.414 412.958 -101.741 412.87 -102.068 412.87C-103.328 412.87 -104.355 413.793 -104.496 414.936H-141.891C-142.031 413.793 -143.058 412.87 -144.319 412.87C-144.692 412.87 -145.019 412.958 -145.299 413.09L-164.02 382.587C-163.413 382.191 -162.993 381.488 -162.993 380.741C-162.993 380.125 -163.273 379.554 -163.693 379.114C-163.787 379.027 -163.88 378.939 -163.973 378.895L-145.299 348.436C-145.066 348.479 -144.739 348.567 -144.365 348.567ZM-163.04 449.614C-163.04 448.867 -163.46 448.164 -164.067 447.768L-145.346 417.265C-145.019 417.397 -144.692 417.485 -144.365 417.485C-143.105 417.485 -142.078 416.562 -141.938 415.419H-104.542C-104.402 416.562 -103.375 417.485 -102.115 417.485C-102.021 417.485 -101.928 417.485 -101.881 417.485C-101.601 417.441 -101.368 417.397 -101.134 417.309L-82.4131 447.812C-83.02 448.208 -83.4402 448.911 -83.4402 449.658C-83.4402 449.878 -83.3935 450.142 -83.3468 450.362C-83.3468 450.45 -83.3001 450.494 -83.2534 450.537C-83.16 450.757 -83.02 450.933 -82.8799 451.109C-82.7398 451.241 -82.5998 451.373 -82.4131 451.504L-101.134 482.008C-101.461 481.876 -101.788 481.788 -102.115 481.788C-103.375 481.788 -104.402 482.711 -104.542 483.854H-141.938C-141.984 483.546 -142.078 483.238 -142.218 482.975C-142.638 482.271 -143.432 481.788 -144.365 481.788C-144.739 481.788 -145.066 481.876 -145.346 482.008L-164.067 451.504C-163.46 451.065 -163.04 450.362 -163.04 449.614ZM45.7864 516.203C45.413 516.203 45.0862 516.291 44.8061 516.422L26.085 485.919C26.6919 485.524 27.1121 484.821 27.1121 484.073C27.1121 483.678 27.0187 483.326 26.832 482.975C26.6452 482.667 26.4118 482.403 26.1317 482.227L44.8527 451.724C45.0862 451.812 45.3196 451.9 45.5997 451.9C45.6931 451.9 45.7864 451.9 45.8331 451.9C47.0936 451.9 48.1207 450.977 48.2608 449.834H85.6562C85.7029 450.054 85.7496 450.274 85.843 450.494C86.2164 451.329 87.0568 451.9 88.0839 451.9C88.4574 451.9 88.7842 451.812 89.0643 451.68L107.785 482.183C107.739 482.227 107.692 482.227 107.645 482.271C107.085 482.711 106.758 483.326 106.758 484.029C106.758 484.777 107.178 485.48 107.785 485.875L89.111 516.379C88.7842 516.247 88.4574 516.159 88.1306 516.159C86.8701 516.159 85.843 517.082 85.7029 518.225H48.3075C48.0741 517.126 47.047 516.203 45.7864 516.203ZM172.539 516.203C172.165 516.203 171.838 516.291 171.558 516.422L152.837 485.919C152.884 485.875 152.931 485.875 152.977 485.831C153.538 485.392 153.864 484.777 153.864 484.073C153.864 483.326 153.444 482.623 152.837 482.227L171.558 451.724C171.885 451.856 172.212 451.944 172.539 451.944C173.799 451.944 174.826 451.021 174.966 449.878H212.362C212.455 450.977 213.389 451.812 214.556 451.944C214.649 451.944 214.743 451.944 214.789 451.944C214.883 451.944 214.976 451.944 215.023 451.944C215.303 451.9 215.536 451.856 215.77 451.768L234.491 482.271C233.884 482.667 233.464 483.37 233.464 484.117C233.464 484.821 233.791 485.48 234.351 485.875C234.398 485.919 234.444 485.919 234.491 485.963L215.77 516.466C215.443 516.335 215.116 516.247 214.789 516.247C213.529 516.247 212.502 517.17 212.362 518.312H174.966C174.826 517.126 173.799 516.203 172.539 516.203ZM278.142 417.441C278.236 417.441 278.329 417.441 278.376 417.441C278.656 417.397 278.889 417.353 279.123 417.265L297.844 447.768C297.237 448.164 296.817 448.867 296.817 449.614C296.817 450.186 297.003 450.669 297.377 451.065C297.517 451.197 297.657 451.329 297.844 451.461L279.123 481.964C278.796 481.832 278.469 481.744 278.142 481.744C276.882 481.744 275.855 482.667 275.715 483.81H238.319C238.272 483.502 238.179 483.194 238.039 482.931C237.619 482.227 236.825 481.744 235.891 481.744C235.518 481.744 235.191 481.832 234.911 481.964L216.19 451.461C216.797 451.065 217.217 450.362 217.217 449.614C217.217 448.867 216.797 448.164 216.19 447.768L217.124 446.23L234.864 417.265C235.191 417.397 235.518 417.485 235.845 417.485C237.105 417.485 238.132 416.562 238.272 415.419H275.668C275.855 416.562 276.882 417.441 278.142 417.441ZM149.663 210.073C150.083 210.468 150.736 210.732 151.39 210.732C151.763 210.732 152.09 210.644 152.37 210.512L171.091 241.015C170.484 241.411 170.064 242.114 170.064 242.861C170.064 243.433 170.251 243.916 170.625 244.312C170.765 244.444 170.905 244.575 171.091 244.707L152.37 275.21C152.044 275.079 151.717 274.991 151.39 274.991C150.129 274.991 149.102 275.914 148.962 277.056H111.567C111.52 276.529 111.24 276.046 110.867 275.65C110.446 275.254 109.793 274.991 109.139 274.991C108.766 274.991 108.439 275.079 108.159 275.21L89.4378 244.707C89.7179 244.488 89.998 244.224 90.1381 243.96C90.3248 243.652 90.4182 243.257 90.4182 242.861C90.4182 242.246 90.1381 241.675 89.7179 241.235C89.6245 241.147 89.5312 241.059 89.4378 241.015L108.159 210.512C108.486 210.644 108.812 210.732 109.139 210.732C110.073 210.732 110.867 210.248 111.287 209.545C111.427 209.281 111.52 208.974 111.567 208.666H148.962C149.009 209.238 149.289 209.721 149.663 210.073ZM86.3098 106.74C86.73 107.136 87.3836 107.399 88.0372 107.399C88.4107 107.399 88.7375 107.311 89.0176 107.179L107.739 137.683C107.459 137.902 107.178 138.122 107.038 138.43C106.852 138.737 106.758 139.133 106.758 139.529C106.758 140.1 106.945 140.583 107.318 140.979C107.459 141.111 107.599 141.243 107.785 141.375L89.0643 171.878C88.7375 171.746 88.4107 171.658 88.0839 171.658C87.1501 171.658 86.3565 172.141 85.9363 172.845C85.7963 173.108 85.7029 173.416 85.6562 173.724H48.2608C48.2141 173.416 48.1208 173.108 47.9807 172.845C47.5605 172.141 46.7668 171.658 45.8331 171.658C45.4596 171.658 45.1328 171.746 44.8527 171.878L26.1317 141.375C26.7386 140.979 27.1588 140.276 27.1588 139.529C27.1588 138.781 26.7386 138.078 26.1317 137.683L44.8527 107.179C45.1795 107.311 45.5063 107.399 45.8331 107.399C47.0936 107.399 48.1207 106.476 48.2608 105.333H85.6562C85.6562 105.905 85.8896 106.388 86.3098 106.74ZM-103.842 210.117C-103.422 210.512 -102.768 210.776 -102.115 210.776C-101.741 210.776 -101.414 210.688 -101.134 210.556L-82.4597 241.059C-82.8333 241.323 -83.1134 241.631 -83.2534 242.026C-83.3935 242.29 -83.4402 242.598 -83.4402 242.949C-83.4402 243.521 -83.2534 244.004 -82.8799 244.4C-82.7398 244.531 -82.5998 244.663 -82.4131 244.795L-101.087 275.298C-101.414 275.166 -101.741 275.079 -102.068 275.079C-103.095 275.079 -103.935 275.65 -104.309 276.485C-104.402 276.705 -104.449 276.925 -104.496 277.144H-141.891C-141.938 276.837 -142.031 276.529 -142.171 276.265C-142.591 275.562 -143.385 275.079 -144.319 275.079C-144.692 275.079 -145.019 275.166 -145.299 275.298L-164.02 244.795C-163.413 244.4 -162.993 243.696 -162.993 242.949C-162.993 242.202 -163.413 241.499 -164.02 241.103L-145.299 210.6C-144.972 210.732 -144.645 210.82 -144.319 210.82C-143.058 210.82 -142.031 209.897 -141.891 208.754H-104.542C-104.495 209.238 -104.215 209.721 -103.842 210.117ZM-205.57 448.516C-205.991 447.812 -206.784 447.329 -207.718 447.329C-208.092 447.329 -208.418 447.417 -208.698 447.549L-227.42 417.046C-226.813 416.65 -226.392 415.947 -226.392 415.2C-226.392 414.452 -226.813 413.749 -227.42 413.354L-208.745 382.894C-208.465 383.026 -208.092 383.114 -207.765 383.114C-207.345 383.114 -206.924 383.026 -206.598 382.806C-205.897 382.455 -205.43 381.796 -205.337 381.048H-167.942C-167.802 382.191 -166.775 383.114 -165.514 383.114C-165.141 383.114 -164.814 383.026 -164.487 382.894L-145.766 413.398C-146.373 413.793 -146.793 414.496 -146.793 415.244C-146.793 415.991 -146.373 416.694 -145.766 417.09L-160.238 440.692L-164.487 447.593C-164.814 447.461 -165.141 447.373 -165.467 447.373C-166.728 447.373 -167.755 448.296 -167.895 449.439H-205.29C-205.337 449.087 -205.43 448.779 -205.57 448.516ZM-78.6315 517.829C-78.9583 516.906 -79.8453 516.203 -80.9658 516.203C-81.3393 516.203 -81.6661 516.291 -81.9462 516.422L-100.667 485.919C-100.06 485.524 -99.6402 484.821 -99.6402 484.073C-99.6402 483.766 -99.6869 483.458 -99.8269 483.194C-100.014 482.799 -100.294 482.491 -100.667 482.227L-81.9462 451.724C-81.6194 451.856 -81.2926 451.944 -80.9658 451.944C-79.7053 451.944 -78.6782 451.021 -78.5381 449.878H-41.1427C-41.0493 450.713 -40.4424 451.461 -39.6488 451.768C-39.3687 451.9 -39.0418 451.944 -38.7151 451.944C-38.3416 451.944 -38.0148 451.856 -37.7346 451.724L-19.0136 482.227C-19.6205 482.623 -20.0407 483.326 -20.0407 484.073C-20.0407 484.865 -19.6205 485.524 -19.0136 485.919L-37.7346 516.422C-38.0615 516.291 -38.3882 516.203 -38.7151 516.203C-39.9756 516.203 -41.0027 517.126 -41.1427 518.269H-78.5381C-78.5848 518.137 -78.5848 517.961 -78.6315 517.829ZM-15.4655 551.848C-15.8857 551.145 -16.6793 550.662 -17.613 550.662C-17.9865 550.662 -18.3133 550.75 -18.5934 550.881L-37.3145 520.378C-36.7076 519.983 -36.2874 519.279 -36.2874 518.532C-36.2874 517.785 -36.7076 517.082 -37.3145 516.686L-18.5934 486.183C-18.36 486.271 -18.1266 486.359 -17.8464 486.359C-17.7531 486.359 -17.6597 486.359 -17.613 486.359C-16.3525 486.359 -15.3254 485.436 -15.1853 484.293H22.2101C22.3034 485.392 23.2372 486.227 24.4043 486.359C24.4977 486.359 24.5911 486.359 24.6377 486.359C25.0112 486.359 25.338 486.271 25.6181 486.139L44.3392 516.642C43.7323 517.038 43.3121 517.741 43.3121 518.488C43.3121 519.235 43.7323 519.939 44.3392 520.334L30.8003 542.443L25.6648 550.837C25.338 550.706 25.0112 550.618 24.6844 550.618C23.4239 550.618 22.3968 551.541 22.2567 552.683H-15.1387C-15.1854 552.42 -15.3254 552.112 -15.4655 551.848ZM111.287 551.848C110.867 551.145 110.073 550.662 109.139 550.662C108.766 550.662 108.439 550.75 108.159 550.881L89.4378 520.378C90.0447 519.983 90.4649 519.279 90.4649 518.532C90.4649 517.785 90.0447 517.082 89.4378 516.686L108.112 486.183C108.439 486.315 108.766 486.403 109.093 486.403C109.699 486.403 110.213 486.227 110.633 485.875C111.1 485.48 111.427 484.952 111.52 484.337H148.916C149.009 485.436 149.943 486.271 151.11 486.403C151.203 486.403 151.297 486.403 151.343 486.403C151.437 486.403 151.53 486.403 151.577 486.403C151.857 486.359 152.09 486.315 152.324 486.227L171.045 516.73C170.998 516.774 170.951 516.774 170.905 516.818C170.344 517.258 170.018 517.873 170.018 518.576C170.018 519.323 170.438 520.027 171.045 520.422L152.324 550.925C151.997 550.793 151.67 550.706 151.343 550.706C150.736 550.706 150.223 550.881 149.803 551.233C149.336 551.585 149.009 552.156 148.916 552.771H111.52C111.567 552.42 111.427 552.112 111.287 551.848ZM22.9103 72.2811C23.3305 72.6767 23.9841 72.9404 24.6377 72.9404C25.0112 72.9404 25.338 72.8525 25.6181 72.7206L44.3392 103.224C43.7323 103.619 43.3121 104.323 43.3121 105.07C43.3121 105.817 43.7323 106.52 44.3392 106.916L30.8003 129.024L25.6648 137.419C25.338 137.287 25.0112 137.199 24.6844 137.199C23.4239 137.199 22.3968 138.122 22.2567 139.265H-15.1387C-15.1854 138.957 -15.2787 138.65 -15.4188 138.386C-15.8389 137.683 -16.6326 137.199 -17.5663 137.199C-17.9398 137.199 -18.2666 137.287 -18.5467 137.419L-37.3145 107.004C-36.7076 106.608 -36.2874 105.905 -36.2874 105.158C-36.2874 104.41 -36.7076 103.707 -37.3145 103.312L-18.5934 72.8085C-18.2666 72.9404 -17.9398 73.0283 -17.613 73.0283C-16.3525 73.0283 -15.3254 72.1053 -15.1853 70.9625H22.2101C22.2567 71.446 22.5369 71.9295 22.9103 72.2811ZM-167.241 175.658C-166.821 176.053 -166.214 176.317 -165.514 176.317C-165.141 176.317 -164.814 176.229 -164.534 176.097L-145.813 206.6C-146.419 206.996 -146.84 207.699 -146.84 208.446C-146.84 209.194 -146.419 209.897 -145.813 210.292L-160.285 233.895L-164.534 240.795C-164.86 240.664 -165.187 240.576 -165.514 240.576C-166.775 240.576 -167.802 241.499 -167.942 242.642H-205.337C-205.384 242.334 -205.477 242.026 -205.617 241.762C-206.037 241.059 -206.831 240.576 -207.765 240.576C-208.138 240.576 -208.465 240.664 -208.745 240.795L-227.466 210.292C-226.859 209.897 -226.439 209.194 -226.439 208.446C-226.439 207.699 -226.859 206.996 -227.466 206.6L-208.745 176.097C-208.418 176.229 -208.092 176.317 -207.765 176.317C-206.504 176.317 -205.477 175.394 -205.337 174.251H-167.942C-167.848 174.823 -167.615 175.306 -167.241 175.658ZM-142.218 551.848C-142.638 551.145 -143.432 550.662 -144.365 550.662C-144.739 550.662 -145.066 550.75 -145.346 550.881L-164.067 520.378C-163.46 519.983 -163.04 519.279 -163.04 518.532C-163.04 517.785 -163.46 517.082 -164.067 516.686L-145.346 486.183C-145.019 486.315 -144.692 486.403 -144.365 486.403C-143.105 486.403 -142.078 485.48 -141.938 484.337H-104.542C-104.495 484.557 -104.449 484.777 -104.355 484.996C-104.309 485.084 -104.309 485.128 -104.262 485.216C-103.842 485.919 -103.048 486.403 -102.115 486.403C-101.741 486.403 -101.414 486.315 -101.134 486.183L-82.4131 516.686C-83.02 517.082 -83.4402 517.785 -83.4402 518.532C-83.4402 518.84 -83.3935 519.148 -83.2534 519.411C-83.0667 519.807 -82.7865 520.115 -82.4131 520.378L-101.134 550.881C-101.461 550.75 -101.788 550.662 -102.115 550.662C-103.375 550.662 -104.402 551.585 -104.542 552.727H-141.938C-141.938 552.42 -142.078 552.112 -142.218 551.848ZM107.739 619.975C107.132 620.37 106.712 621.074 106.712 621.821C106.712 622.568 107.132 623.271 107.739 623.667L89.0176 654.17C88.6908 654.038 88.364 653.95 88.0372 653.95C87.617 653.95 87.1968 654.038 86.8701 654.214C86.1698 654.566 85.7029 655.225 85.6095 656.016H48.2141C48.1674 655.664 48.0741 655.357 47.8873 655.093C47.4671 654.434 46.6735 653.95 45.7864 653.95C45.413 653.95 45.0862 654.038 44.8061 654.17L26.085 623.667C26.6919 623.271 27.1121 622.568 27.1121 621.821C27.1121 621.074 26.6919 620.37 26.085 619.975L44.8061 589.472C45.1328 589.604 45.4597 589.692 45.7864 589.692C47.047 589.692 48.0741 588.769 48.2141 587.626H85.6095C85.6562 587.933 85.7496 588.241 85.8896 588.505C86.3098 589.208 87.1035 589.692 88.0372 589.692C88.4107 589.692 88.7375 589.604 89.0176 589.472L107.739 619.975ZM89.0176 585.296C88.6908 585.164 88.364 585.077 88.0372 585.077C86.7767 585.077 85.7496 586 85.6095 587.142H48.2141C48.1674 586.835 48.074 586.527 47.934 586.263C47.5138 585.56 46.7202 585.077 45.7864 585.077C45.413 585.077 45.0862 585.164 44.8061 585.296L26.085 554.793C26.6919 554.398 27.1121 553.694 27.1121 552.947C27.1121 552.2 26.6919 551.497 26.085 551.101L44.8061 520.598C45.1328 520.73 45.4597 520.818 45.7864 520.818C47.047 520.818 48.0741 519.895 48.2141 518.752H85.6095C85.7496 519.895 86.7767 520.818 88.0372 520.818C88.1306 520.818 88.2239 520.818 88.2706 520.818C88.5508 520.774 88.7841 520.73 89.0176 520.642L107.739 551.145C107.132 551.541 106.712 552.244 106.712 552.991C106.712 553.562 106.898 554.046 107.272 554.442C107.412 554.573 107.552 554.705 107.739 554.837L89.0176 585.296ZM152.837 554.837C152.884 554.793 152.931 554.793 152.977 554.749C153.538 554.31 153.864 553.694 153.864 552.991C153.864 552.244 153.444 551.541 152.837 551.145L171.558 520.642C171.885 520.774 172.212 520.862 172.539 520.862C173.146 520.862 173.659 520.642 174.079 520.334C174.546 519.939 174.873 519.411 174.966 518.796H212.362C212.409 519.192 212.549 519.587 212.782 519.895C213.202 520.466 213.949 520.862 214.789 520.862C215.163 520.862 215.49 520.774 215.77 520.642L234.491 551.145C233.884 551.541 233.464 552.244 233.464 552.991C233.464 553.562 233.651 554.046 234.024 554.442C234.164 554.573 234.304 554.705 234.491 554.837L215.77 585.34C215.443 585.208 215.116 585.12 214.789 585.12C213.529 585.12 212.502 586.043 212.362 587.186H174.966C174.826 586.043 173.799 585.12 172.539 585.12C172.165 585.12 171.838 585.208 171.558 585.34L152.837 554.837ZM297.844 585.56C297.237 585.956 296.817 586.659 296.817 587.406C296.817 588.153 297.237 588.856 297.844 589.252L279.123 619.755C278.796 619.623 278.469 619.535 278.142 619.535C276.882 619.535 275.855 620.458 275.715 621.601H238.319C238.179 620.458 237.152 619.535 235.891 619.535C235.518 619.535 235.191 619.623 234.911 619.755L216.19 589.252C216.797 588.856 217.217 588.153 217.217 587.406C217.217 586.659 216.797 585.956 216.19 585.56L234.911 555.057C235.238 555.189 235.565 555.277 235.891 555.277C237.152 555.277 238.179 554.354 238.319 553.211H275.715C275.855 554.354 276.882 555.277 278.142 555.277C278.516 555.277 278.843 555.189 279.123 555.057L297.844 585.56ZM279.169 550.881C278.843 550.75 278.516 550.662 278.189 550.662C277.769 550.662 277.395 550.75 277.022 550.925C276.321 551.277 275.855 551.936 275.761 552.727H238.366C238.319 552.376 238.226 552.068 238.039 551.804C237.619 551.145 236.825 550.662 235.938 550.662C235.565 550.662 235.238 550.75 234.958 550.881L216.237 520.378C216.844 519.983 217.264 519.279 217.264 518.532C217.264 517.785 216.844 517.082 216.237 516.686L234.958 486.183C235.285 486.315 235.611 486.403 235.938 486.403C237.199 486.403 238.226 485.48 238.366 484.337H275.761C275.808 484.645 275.901 484.952 276.041 485.216C276.321 485.656 276.742 486.051 277.255 486.227C277.535 486.359 277.862 486.403 278.189 486.403C278.562 486.403 278.889 486.315 279.169 486.183L297.89 516.686C297.283 517.082 296.863 517.785 296.863 518.532C296.863 519.279 297.283 519.983 297.89 520.378L279.169 550.881ZM339.114 518.269H301.719C301.625 517.433 301.065 516.686 300.225 516.379C299.945 516.247 299.618 516.203 299.291 516.203C298.917 516.203 298.591 516.291 298.311 516.422L279.59 485.919C280.196 485.524 280.617 484.821 280.617 484.073C280.617 483.326 280.196 482.623 279.59 482.227L298.311 451.724H298.357C298.637 451.856 298.964 451.9 299.291 451.9C300.551 451.9 301.579 450.977 301.719 449.834H339.114C339.207 450.669 339.768 451.417 340.608 451.724C340.888 451.856 341.215 451.9 341.542 451.9C341.915 451.9 342.242 451.812 342.522 451.68L361.243 482.183C360.636 482.579 360.216 483.282 360.216 484.029C360.216 484.777 360.636 485.48 361.243 485.875L342.522 516.379C342.195 516.247 341.868 516.159 341.542 516.159C340.281 516.203 339.254 517.126 339.114 518.269ZM424.596 447.768C423.989 448.164 423.569 448.867 423.569 449.614C423.569 450.362 423.989 451.065 424.596 451.461L405.875 481.964C405.548 481.832 405.221 481.744 404.894 481.744C403.634 481.744 402.607 482.667 402.467 483.81H365.071C364.978 482.975 364.418 482.227 363.577 481.92C363.297 481.788 362.971 481.744 362.644 481.744C362.27 481.744 361.943 481.832 361.663 481.964L342.942 451.461C343.549 451.065 343.969 450.362 343.969 449.614C343.969 448.867 343.549 448.164 342.942 447.768L361.663 417.265C361.99 417.397 362.317 417.485 362.644 417.485C363.904 417.485 364.931 416.562 365.071 415.419H402.467C402.607 416.562 403.634 417.485 404.894 417.485C405.268 417.485 405.595 417.397 405.875 417.265L424.596 447.768ZM361.243 413.31C360.636 413.705 360.216 414.408 360.216 415.156C360.216 415.903 360.636 416.606 361.243 417.002L342.522 447.505H342.475C342.195 447.373 341.868 447.329 341.542 447.329C340.281 447.329 339.254 448.252 339.114 449.395H301.719C301.625 448.604 301.158 447.944 300.458 447.593C300.131 447.417 299.711 447.329 299.291 447.329C298.917 447.329 298.591 447.417 298.311 447.549L279.59 417.046C280.196 416.65 280.617 415.947 280.617 415.2C280.617 414.452 280.196 413.749 279.59 413.354L298.311 382.85C298.637 382.982 298.964 383.07 299.291 383.07C300.551 383.07 301.579 382.147 301.719 381.004H339.114C339.254 382.147 340.281 383.07 341.542 383.07C341.915 383.07 342.242 382.982 342.522 382.85L361.243 413.31ZM297.844 378.851C297.237 379.246 296.817 379.95 296.817 380.697C296.817 381.4 297.143 382.059 297.704 382.455C297.75 382.499 297.797 382.499 297.844 382.543L279.123 413.046C278.796 412.914 278.469 412.826 278.142 412.826C276.882 412.826 275.855 413.749 275.715 414.892H238.319C238.179 413.749 237.152 412.826 235.891 412.826C235.518 412.826 235.191 412.914 234.911 413.046L216.19 382.543C216.797 382.147 217.217 381.444 217.217 380.697C217.217 380.389 217.17 380.081 217.03 379.818C216.844 379.422 216.563 379.114 216.237 378.851L234.958 348.348C235.285 348.479 235.611 348.567 235.938 348.567C237.199 348.567 238.226 347.644 238.366 346.502H275.761C275.808 346.721 275.855 346.985 275.948 347.161C276.321 347.996 277.162 348.567 278.189 348.567C278.562 348.567 278.889 348.479 279.169 348.348L297.844 378.851ZM297.844 309.933C297.237 310.329 296.817 311.032 296.817 311.779C296.817 312.526 297.237 313.229 297.844 313.625L279.123 344.128C278.796 343.996 278.469 343.908 278.142 343.908C276.882 343.908 275.855 344.831 275.715 345.974H238.319C238.272 345.666 238.179 345.359 238.039 345.139C237.619 344.436 236.825 343.952 235.891 343.952C235.518 343.952 235.191 344.04 234.911 344.172L216.19 313.669C216.797 313.273 217.217 312.57 217.217 311.823C217.217 311.076 216.797 310.373 216.19 309.977L234.911 279.474C235.238 279.606 235.565 279.694 235.891 279.694C237.152 279.694 238.179 278.771 238.319 277.628H275.715C275.761 277.935 275.855 278.243 275.995 278.507C276.415 279.21 277.208 279.694 278.142 279.694C278.516 279.694 278.843 279.606 279.123 279.474L297.844 309.933ZM279.169 275.254C278.843 275.123 278.516 275.035 278.189 275.035C276.928 275.035 275.901 275.958 275.761 277.1H238.366C238.319 276.793 238.226 276.485 238.086 276.221C237.666 275.518 236.872 275.035 235.938 275.035C235.565 275.035 235.238 275.123 234.958 275.254L216.19 244.751C216.797 244.356 217.217 243.652 217.217 242.905C217.217 242.158 216.797 241.455 216.19 241.059L217.124 239.521L234.864 210.556C235.191 210.688 235.518 210.776 235.845 210.776C237.105 210.776 238.132 209.853 238.272 208.71H275.668C275.715 209.238 275.995 209.721 276.368 210.117C276.788 210.512 277.442 210.776 278.096 210.776C278.469 210.776 278.796 210.688 279.076 210.556L297.797 241.059C297.19 241.455 296.77 242.158 296.77 242.905C296.77 243.477 296.957 243.96 297.33 244.356C297.47 244.488 297.61 244.619 297.797 244.751L279.169 275.254ZM361.243 206.6C360.636 206.996 360.216 207.699 360.216 208.446C360.216 209.194 360.636 209.897 361.243 210.292L342.522 240.795C342.195 240.664 341.868 240.576 341.542 240.576C340.281 240.576 339.254 241.499 339.114 242.642H301.719C301.672 242.334 301.579 242.026 301.438 241.762C301.018 241.059 300.225 240.576 299.291 240.576C298.917 240.576 298.591 240.664 298.311 240.795L279.59 210.292C280.196 209.897 280.617 209.194 280.617 208.446C280.617 207.699 280.196 206.996 279.59 206.6L298.311 176.097C298.637 176.229 298.964 176.317 299.291 176.317C300.551 176.317 301.579 175.394 301.719 174.251H339.114C339.254 175.394 340.281 176.317 341.542 176.317C341.915 176.317 342.242 176.229 342.522 176.097L361.243 206.6ZM234.911 141.638C235.238 141.77 235.565 141.858 235.891 141.858C237.152 141.858 238.179 140.935 238.319 139.792H275.715C275.855 140.935 276.882 141.858 278.142 141.858C278.516 141.858 278.843 141.77 279.123 141.638L297.844 172.141C297.237 172.537 296.817 173.24 296.817 173.987C296.817 174.691 297.143 175.35 297.704 175.746C297.75 175.79 297.797 175.79 297.844 175.834L279.123 206.337C278.796 206.205 278.469 206.117 278.142 206.117C276.882 206.117 275.855 207.04 275.715 208.183H238.319C238.179 207.04 237.152 206.117 235.891 206.117C235.518 206.117 235.191 206.205 234.911 206.337L216.19 175.834C216.797 175.438 217.217 174.735 217.217 173.987C217.217 173.372 216.937 172.801 216.517 172.361C216.423 172.273 216.33 172.185 216.237 172.141L234.911 141.638ZM171.091 172.141C170.484 172.537 170.064 173.24 170.064 173.987C170.064 174.691 170.391 175.35 170.951 175.746C170.998 175.79 171.045 175.79 171.091 175.834L152.37 206.337C152.044 206.205 151.717 206.117 151.39 206.117C150.129 206.117 149.102 207.04 148.962 208.183H111.567C111.427 207.04 110.4 206.117 109.139 206.117C108.766 206.117 108.439 206.205 108.159 206.337L89.4378 175.834C89.8112 175.57 90.0914 175.262 90.2314 174.867C90.3715 174.603 90.4182 174.295 90.4182 173.987C90.4182 173.24 89.998 172.537 89.3911 172.141L108.112 141.638C108.439 141.77 108.766 141.858 109.093 141.858C110.026 141.858 110.82 141.375 111.24 140.671C111.38 140.408 111.474 140.144 111.52 139.836H148.916C149.056 140.979 150.083 141.902 151.343 141.902C151.717 141.902 152.044 141.814 152.37 141.682L171.091 172.141ZM171.091 103.268C170.484 103.663 170.064 104.367 170.064 105.114C170.064 105.861 170.484 106.564 171.091 106.96L152.37 137.463C152.044 137.331 151.717 137.243 151.39 137.243C150.456 137.243 149.663 137.727 149.242 138.43C149.102 138.694 149.009 138.957 148.962 139.265H111.567C111.427 138.122 110.4 137.199 109.139 137.199C108.766 137.199 108.439 137.287 108.112 137.419L89.3911 106.916C89.998 106.52 90.4182 105.817 90.4182 105.07C90.4182 104.323 89.998 103.619 89.3911 103.224L108.112 72.7206C108.439 72.8525 108.766 72.9404 109.139 72.9404C110.4 72.9404 111.427 72.0174 111.567 70.8746H148.962C149.009 71.0944 149.056 71.3141 149.149 71.5339C149.523 72.369 150.363 72.9404 151.39 72.9404C151.763 72.9404 152.09 72.8525 152.37 72.7206L171.091 103.268ZM108.159 3.89077C108.486 4.02262 108.812 4.11053 109.139 4.11053C110.4 4.11053 111.427 3.18752 111.567 2.04476H148.962C149.102 3.18752 150.129 4.11053 151.39 4.11053C151.763 4.11053 152.09 4.02262 152.37 3.89077L171.091 34.3939C170.484 34.7895 170.064 35.4927 170.064 36.2399C170.064 36.9871 170.484 37.6903 171.091 38.0859L152.37 68.5891C152.044 68.4572 151.717 68.3693 151.343 68.3693C150.083 68.3693 149.056 69.2923 148.916 70.4351H111.52C111.474 70.2153 111.427 69.9955 111.333 69.7758C111.193 69.5121 111.053 69.2483 110.82 69.0286C110.4 68.633 109.746 68.3693 109.093 68.3693C108.719 68.3693 108.392 68.4572 108.112 68.5891L89.4378 38.0859C90.0447 37.6903 90.4649 36.9871 90.4649 36.2399C90.4649 35.9322 90.4182 35.6246 90.2781 35.3609C90.0914 34.9653 89.8112 34.6576 89.4378 34.3939L108.159 3.89077ZM44.7593 38.3057C45.0862 38.4375 45.413 38.5254 45.7398 38.5254C47.0003 38.5254 48.0274 37.6024 48.1674 36.4597H85.5628C85.6095 36.6794 85.6562 36.8992 85.7496 37.119C86.1231 37.9541 86.9634 38.5254 87.9905 38.5254C88.364 38.5254 88.6908 38.4375 88.9709 38.3057L107.645 68.8088C107.038 69.2044 106.618 69.9076 106.618 70.6548C106.618 70.9625 106.665 71.2702 106.805 71.5339C106.992 71.9295 107.272 72.2371 107.599 72.5008L88.8775 103.004C88.5508 102.872 88.2239 102.784 87.8972 102.784C86.6366 102.784 85.6095 103.707 85.4695 104.85H48.0741C47.934 103.707 46.9069 102.784 45.6464 102.784C45.2729 102.784 44.9461 102.872 44.666 103.004L25.9449 72.5008C26.5518 72.1053 26.972 71.402 26.972 70.6548C26.972 70.0395 26.6919 69.4681 26.2718 69.0286C26.1784 68.9407 26.085 68.8528 25.9916 68.8088L44.7593 38.3057ZM-100.714 72.5448C-100.107 72.1492 -99.6868 71.446 -99.6868 70.6988C-99.6868 69.9516 -100.107 69.2483 -100.714 68.8528L-81.9929 38.3496C-81.6661 38.4815 -81.3393 38.5694 -81.0125 38.5694C-79.752 38.5694 -78.7249 37.6464 -78.5848 36.5036H-41.1894C-41.0493 37.6464 -40.0222 38.5694 -38.7617 38.5694C-38.3882 38.5694 -38.0614 38.4815 -37.7813 38.3496L-19.0603 68.8528C-19.6672 69.2483 -20.0874 69.9516 -20.0874 70.6988C-20.0874 71.402 -19.7606 72.0613 -19.2003 72.4569C-19.1537 72.5008 -19.107 72.5008 -19.0603 72.5448L-37.7813 103.048C-38.1081 102.916 -38.4349 102.828 -38.7617 102.828C-40.0222 102.828 -41.0493 103.751 -41.1894 104.894H-78.5848C-78.7249 103.751 -79.752 102.828 -81.0125 102.828C-81.386 102.828 -81.7128 102.916 -81.9929 103.048L-100.714 72.5448ZM-81.9929 107.223C-81.6661 107.355 -81.3393 107.443 -81.0125 107.443C-79.752 107.443 -78.7249 106.52 -78.5848 105.377H-41.1894C-41.1427 105.905 -40.8626 106.388 -40.4891 106.784C-40.0689 107.179 -39.462 107.443 -38.7617 107.443C-38.3882 107.443 -38.0614 107.355 -37.7813 107.223L-19.0603 137.727C-19.6672 138.122 -20.0874 138.825 -20.0874 139.573C-20.0874 140.144 -19.9006 140.627 -19.5272 141.023C-19.3871 141.155 -19.247 141.287 -19.0603 141.419L-37.7813 171.922C-38.1081 171.79 -38.4349 171.702 -38.7617 171.702C-39.8355 171.702 -40.7692 172.405 -41.096 173.328C-41.1427 173.46 -41.1894 173.636 -41.1894 173.768H-78.5848C-78.7249 172.625 -79.752 171.702 -81.0125 171.702C-81.386 171.702 -81.7128 171.79 -81.9929 171.922L-100.714 141.419C-100.294 141.111 -99.967 140.715 -99.8269 140.232C-99.7336 140.012 -99.7336 139.792 -99.7336 139.529C-99.7336 138.781 -100.154 138.078 -100.761 137.683L-81.9929 107.223ZM-145.392 141.682C-145.066 141.814 -144.739 141.902 -144.412 141.902C-143.151 141.902 -142.124 140.979 -141.984 139.836H-104.542C-104.402 140.979 -103.375 141.902 -102.115 141.902C-101.741 141.902 -101.414 141.814 -101.134 141.682L-82.4131 172.185C-82.7865 172.449 -83.0667 172.757 -83.2534 173.152C-83.3935 173.416 -83.4402 173.724 -83.4402 174.031C-83.4402 174.735 -83.1134 175.394 -82.5531 175.79C-82.5064 175.833 -82.4597 175.833 -82.4131 175.877L-101.134 206.381C-101.461 206.249 -101.788 206.161 -102.115 206.161C-103.375 206.161 -104.402 207.084 -104.542 208.227H-141.938C-142.078 207.084 -143.105 206.161 -144.365 206.161C-144.739 206.161 -145.066 206.249 -145.346 206.381L-164.067 175.877C-163.46 175.482 -163.04 174.779 -163.04 174.031C-163.04 173.416 -163.32 172.845 -163.74 172.405C-163.833 172.317 -163.927 172.229 -164.02 172.185L-145.392 141.682ZM-290.819 175.877C-290.212 175.482 -289.792 174.779 -289.792 174.031C-289.792 173.284 -290.212 172.581 -290.819 172.185L-272.098 141.682C-271.771 141.814 -271.444 141.902 -271.118 141.902C-269.857 141.902 -268.83 140.979 -268.69 139.836H-231.294C-231.154 140.979 -230.127 141.902 -228.867 141.902C-228.493 141.902 -228.166 141.814 -227.886 141.682L-209.165 172.185C-209.772 172.581 -210.192 173.284 -210.192 174.031C-210.192 174.735 -209.866 175.394 -209.305 175.79C-209.259 175.833 -209.212 175.833 -209.165 175.877L-227.886 206.381C-228.213 206.249 -228.54 206.161 -228.867 206.161C-230.127 206.161 -231.154 207.084 -231.294 208.227H-268.69C-268.83 207.084 -269.857 206.161 -271.118 206.161C-271.491 206.161 -271.818 206.249 -272.098 206.381L-290.819 175.877ZM-290.819 244.795C-290.212 244.4 -289.792 243.696 -289.792 242.949C-289.792 242.202 -290.212 241.499 -290.819 241.103L-272.098 210.6C-271.771 210.732 -271.444 210.82 -271.118 210.82C-269.857 210.82 -268.83 209.897 -268.69 208.754H-231.294C-231.248 209.281 -230.968 209.765 -230.594 210.161C-230.174 210.556 -229.52 210.82 -228.867 210.82C-228.493 210.82 -228.166 210.732 -227.886 210.6L-209.165 241.103C-209.772 241.499 -210.192 242.202 -210.192 242.949C-210.192 243.521 -210.006 244.004 -209.632 244.4C-209.492 244.531 -209.352 244.663 -209.165 244.795L-227.886 275.298C-228.213 275.166 -228.54 275.079 -228.867 275.079C-230.127 275.079 -231.154 276.002 -231.294 277.144H-268.69C-268.83 276.002 -269.857 275.079 -271.118 275.079C-271.491 275.079 -271.818 275.166 -272.098 275.298L-290.819 244.795ZM-227.466 279.254C-226.859 278.858 -226.439 278.155 -226.439 277.408C-226.439 276.661 -226.859 275.958 -227.466 275.562L-208.745 245.059C-208.418 245.191 -208.092 245.279 -207.765 245.279C-206.504 245.279 -205.477 244.356 -205.337 243.213H-167.942C-167.802 244.356 -166.775 245.279 -165.514 245.279C-165.141 245.279 -164.814 245.191 -164.534 245.059L-145.813 275.562C-146.419 275.958 -146.84 276.661 -146.84 277.408C-146.84 278.111 -146.513 278.771 -145.953 279.166C-145.906 279.21 -145.859 279.21 -145.813 279.254L-164.534 309.757C-164.86 309.625 -165.187 309.537 -165.514 309.537C-166.775 309.537 -167.802 310.46 -167.942 311.603H-205.337C-205.477 310.46 -206.504 309.537 -207.765 309.537C-208.138 309.537 -208.465 309.625 -208.745 309.757L-227.466 279.254ZM-208.745 313.933C-208.418 314.065 -208.092 314.152 -207.765 314.152C-206.504 314.152 -205.477 313.229 -205.337 312.087H-167.942C-167.895 312.614 -167.615 313.098 -167.241 313.493C-166.821 313.889 -166.168 314.152 -165.514 314.152C-165.141 314.152 -164.814 314.065 -164.534 313.933L-145.813 344.436C-146.419 344.831 -146.84 345.535 -146.84 346.282C-146.84 346.853 -146.653 347.337 -146.279 347.732C-146.139 347.864 -145.999 347.996 -145.813 348.128L-164.487 378.587C-164.767 378.455 -165.141 378.367 -165.467 378.367C-165.981 378.367 -166.448 378.499 -166.821 378.763C-167.428 379.114 -167.802 379.73 -167.895 380.433H-205.29C-205.337 379.906 -205.617 379.422 -205.991 379.027C-206.411 378.631 -207.064 378.367 -207.718 378.367C-208.092 378.367 -208.418 378.455 -208.698 378.587L-227.42 348.084C-226.813 347.688 -226.392 346.985 -226.392 346.238C-226.392 345.447 -226.813 344.787 -227.42 344.392L-208.745 313.933ZM-272.098 348.348C-271.771 348.479 -271.444 348.567 -271.118 348.567C-269.857 348.567 -268.83 347.644 -268.69 346.502H-231.294C-231.154 347.644 -230.127 348.567 -228.867 348.567C-228.493 348.567 -228.166 348.479 -227.886 348.348L-209.165 378.851C-209.772 379.246 -210.192 379.95 -210.192 380.697C-210.192 381.488 -209.772 382.147 -209.165 382.543L-227.84 413.002C-228.166 412.87 -228.493 412.782 -228.82 412.782C-230.081 412.782 -231.108 413.705 -231.248 414.848H-268.643C-268.783 413.705 -269.81 412.782 -271.071 412.782C-271.444 412.782 -271.771 412.87 -272.051 413.002L-290.819 382.587C-290.212 382.191 -289.792 381.488 -289.792 380.741C-289.792 380.653 -289.792 380.565 -289.792 380.521C-289.885 379.862 -290.259 379.29 -290.772 378.895L-272.098 348.348ZM-354.172 417.046C-353.565 416.65 -353.145 415.947 -353.145 415.2C-353.145 414.452 -353.565 413.749 -354.172 413.354L-335.451 382.85C-335.124 382.982 -334.797 383.07 -334.47 383.07C-333.21 383.07 -332.183 382.147 -332.043 381.004H-294.647C-294.507 382.147 -293.48 383.07 -292.22 383.07C-291.846 383.07 -291.519 382.982 -291.239 382.85L-272.518 413.354C-273.078 413.749 -273.452 414.321 -273.499 414.98C-273.499 415.068 -273.499 415.156 -273.499 415.2C-273.499 415.947 -273.078 416.65 -272.471 417.046L-291.192 447.549C-291.519 447.417 -291.846 447.329 -292.173 447.329C-293.433 447.329 -294.46 448.252 -294.601 449.395H-332.043C-332.183 448.252 -333.21 447.329 -334.47 447.329C-334.844 447.329 -335.171 447.417 -335.451 447.549L-354.172 417.046ZM-290.819 451.461C-290.212 451.065 -289.792 450.362 -289.792 449.614C-289.792 448.867 -290.212 448.164 -290.819 447.768L-272.098 417.265C-271.771 417.397 -271.444 417.485 -271.118 417.485C-269.857 417.485 -268.83 416.562 -268.69 415.419H-231.294C-231.248 415.947 -230.968 416.43 -230.594 416.826C-230.174 417.221 -229.52 417.485 -228.867 417.485C-228.493 417.485 -228.166 417.397 -227.886 417.265L-209.165 447.768C-209.772 448.164 -210.192 448.867 -210.192 449.614C-210.192 450.186 -210.006 450.669 -209.632 451.065C-209.492 451.197 -209.352 451.329 -209.165 451.461L-227.886 481.964C-228.213 481.832 -228.54 481.744 -228.867 481.744C-230.127 481.744 -231.154 482.667 -231.294 483.81H-268.69C-268.83 482.667 -269.857 481.744 -271.118 481.744C-271.491 481.744 -271.818 481.832 -272.098 481.964L-290.819 451.461ZM-227.42 485.919C-226.813 485.524 -226.392 484.821 -226.392 484.073C-226.392 483.326 -226.813 482.623 -227.42 482.227L-208.698 451.724C-208.372 451.856 -208.045 451.944 -207.718 451.944C-206.458 451.944 -205.43 451.021 -205.29 449.878H-167.895C-167.755 451.021 -166.728 451.944 -165.467 451.944C-165.094 451.944 -164.767 451.856 -164.487 451.724L-145.766 482.227C-146.373 482.623 -146.793 483.326 -146.793 484.073C-146.793 484.777 -146.466 485.436 -145.906 485.831C-145.859 485.875 -145.813 485.875 -145.766 485.919L-164.487 516.422C-164.814 516.291 -165.141 516.203 -165.467 516.203C-166.728 516.203 -167.755 517.126 -167.895 518.269H-205.29C-205.43 517.126 -206.458 516.203 -207.718 516.203C-208.092 516.203 -208.418 516.291 -208.698 516.422L-227.42 485.919ZM-164.487 585.296C-164.814 585.164 -165.141 585.077 -165.467 585.077C-166.728 585.077 -167.755 586 -167.895 587.142H-205.29C-205.43 586 -206.458 585.077 -207.718 585.077C-208.092 585.077 -208.418 585.164 -208.698 585.296L-227.42 554.793C-226.813 554.398 -226.392 553.694 -226.392 552.947C-226.392 552.2 -226.813 551.497 -227.42 551.101L-208.698 520.598C-208.372 520.73 -208.045 520.818 -207.718 520.818C-206.458 520.818 -205.43 519.895 -205.29 518.752H-167.895C-167.848 519.279 -167.568 519.763 -167.195 520.158C-166.775 520.554 -166.121 520.818 -165.467 520.818C-165.094 520.818 -164.767 520.73 -164.487 520.598L-145.766 551.101C-146.373 551.497 -146.793 552.2 -146.793 552.947C-146.793 553.518 -146.606 554.002 -146.233 554.398C-146.093 554.529 -145.953 554.661 -145.766 554.793L-164.487 585.296ZM-100.667 554.837C-100.06 554.442 -99.6402 553.738 -99.6402 552.991C-99.6402 552.683 -99.6869 552.376 -99.8269 552.112C-100.014 551.716 -100.294 551.409 -100.667 551.145L-81.9462 520.642C-81.6194 520.774 -81.2926 520.862 -80.9658 520.862C-79.7053 520.862 -78.6782 519.939 -78.5381 518.796H-41.1427C-41.0027 519.939 -39.9756 520.862 -38.7151 520.862C-38.6217 520.862 -38.5283 520.862 -38.4816 520.862C-38.2015 520.818 -37.9681 520.774 -37.7346 520.686L-19.0136 551.189C-19.6205 551.585 -20.0407 552.288 -20.0407 553.035C-20.0407 553.606 -19.8539 554.09 -19.4804 554.485C-19.3404 554.617 -19.2003 554.749 -19.0136 554.881L-37.7346 585.384C-38.0615 585.252 -38.3882 585.164 -38.7151 585.164C-39.9756 585.164 -41.0027 586.087 -41.1427 587.23H-78.5381C-78.6782 586.087 -79.7053 585.164 -80.9658 585.164C-81.3393 585.164 -81.6661 585.252 -81.9462 585.384L-100.667 554.837ZM-37.3145 589.252C-36.7076 588.856 -36.2874 588.153 -36.2874 587.406C-36.2874 586.659 -36.7076 585.956 -37.3145 585.56L-18.5934 555.057C-18.2666 555.189 -17.9398 555.277 -17.613 555.277C-16.3525 555.277 -15.3254 554.354 -15.1853 553.211H22.2101C22.3034 554.31 23.2372 555.145 24.4043 555.277C24.4977 555.277 24.5911 555.277 24.6377 555.277C24.7311 555.277 24.8245 555.277 24.8712 555.277C25.1513 555.233 25.3847 555.189 25.6181 555.101L44.3392 585.604C43.7323 586 43.3121 586.703 43.3121 587.45C43.3121 588.153 43.6389 588.812 44.1991 589.208C44.2458 589.252 44.2925 589.252 44.3392 589.296L25.6181 619.799C25.2913 619.667 24.9645 619.579 24.6377 619.579C23.3772 619.579 22.3501 620.502 22.2101 621.645H-15.1853C-15.3254 620.502 -16.3525 619.579 -17.613 619.579C-17.9865 619.579 -18.3133 619.667 -18.5934 619.799L-37.3145 589.252ZM-37.3145 658.17C-36.7076 657.774 -36.2874 657.071 -36.2874 656.324C-36.2874 655.577 -36.7076 654.873 -37.3145 654.478L-18.5934 623.975C-18.2666 624.107 -17.9398 624.194 -17.613 624.194C-16.3525 624.194 -15.3254 623.271 -15.1853 622.129H22.2101C22.2567 622.524 22.3968 622.92 22.6302 623.227C23.0504 623.799 23.7974 624.194 24.6377 624.194C25.0112 624.194 25.338 624.107 25.6181 623.975L44.3392 654.478C43.7323 654.873 43.3121 655.577 43.3121 656.324C43.3121 656.895 43.4988 657.379 43.8723 657.774C44.0124 657.906 44.1525 658.038 44.3392 658.17L25.6181 688.673C25.2913 688.541 24.9645 688.453 24.6377 688.453C23.3772 688.453 22.3501 689.376 22.2101 690.519H-15.1853C-15.3254 689.376 -16.3525 688.453 -17.613 688.453C-17.9865 688.453 -18.3133 688.541 -18.5934 688.673L-37.3145 658.17ZM26.085 692.629C26.6919 692.233 27.1121 691.53 27.1121 690.783C27.1121 690.035 26.6919 689.332 26.085 688.937L44.8061 658.433C45.1328 658.565 45.4597 658.653 45.7864 658.653C47.047 658.653 48.0741 657.73 48.2141 656.587H85.6095C85.7496 657.73 86.7767 658.653 88.0372 658.653C88.4107 658.653 88.7375 658.565 89.0176 658.433L107.739 688.937C107.132 689.332 106.712 690.035 106.712 690.783C106.712 691.53 107.132 692.233 107.739 692.629L89.0176 723.132C88.6908 723 88.364 722.912 88.0372 722.912C86.7767 722.912 85.7496 723.835 85.6095 724.978H48.2141C48.0741 723.835 47.047 722.912 45.7864 722.912C45.413 722.912 45.0862 723 44.8061 723.132L26.085 692.629Z" fill="#CFD8E9" fill-opacity="0.85"/>
</svg>
