<svg width="410" height="581" viewBox="0 0 410 581" fill="none" xmlns="http://www.w3.org/2000/svg">
<path d="M97.138 596.879H127.909C128.024 597.819 128.869 598.579 129.906 598.579C131.02 598.579 131.904 597.747 131.904 596.698C131.904 596.083 131.558 595.505 131.059 595.179L146.464 570.08C146.732 570.188 147.001 570.26 147.27 570.26C148.384 570.26 149.268 569.429 149.268 568.38C149.268 567.331 148.384 566.499 147.27 566.499C146.963 566.499 146.694 566.571 146.464 566.68L131.059 541.58C131.558 541.255 131.904 540.676 131.904 540.061C131.904 539.447 131.558 538.868 131.059 538.542L146.464 513.443C146.732 513.551 147.001 513.624 147.27 513.624C148.384 513.624 149.268 512.792 149.268 511.743C149.268 510.694 148.384 509.862 147.27 509.862C146.963 509.862 146.694 509.935 146.464 510.043L131.059 484.944C131.558 484.618 131.904 484.04 131.904 483.425C131.904 483.099 131.827 482.81 131.673 482.521C131.52 482.267 131.328 482.051 131.097 481.906L146.502 456.806C146.771 456.915 147.04 456.987 147.309 456.987C148.346 456.987 149.191 456.228 149.306 455.287H180.077C180.192 456.228 181.037 456.987 182.075 456.987C182.382 456.987 182.651 456.915 182.881 456.806L198.286 481.906C197.787 482.231 197.441 482.81 197.441 483.425C197.441 484.474 198.324 485.305 199.438 485.305C200.476 485.305 201.321 484.546 201.436 483.606H232.207C232.322 484.546 233.167 485.305 234.204 485.305C234.512 485.305 234.781 485.233 235.011 485.125L250.416 510.224C249.916 510.55 249.571 511.128 249.571 511.743C249.571 512.792 250.454 513.624 251.568 513.624C252.605 513.624 253.451 512.864 253.566 511.924H284.337C284.452 512.864 285.297 513.624 286.334 513.624C287.448 513.624 288.332 512.792 288.332 511.743C288.332 511.128 287.986 510.55 287.487 510.224L302.891 485.125C303.16 485.233 303.429 485.305 303.698 485.305C304.812 485.305 305.696 484.474 305.696 483.425C305.696 482.376 304.812 481.544 303.698 481.544C303.391 481.544 303.122 481.616 302.891 481.725L287.487 456.625C287.986 456.3 288.332 455.721 288.332 455.107C288.332 454.492 287.986 453.913 287.487 453.587L302.891 428.488C302.891 428.488 302.93 428.488 302.93 428.524C303.16 428.633 303.429 428.669 303.698 428.669C304.735 428.669 305.58 427.909 305.696 426.969H336.466C336.582 427.909 337.427 428.669 338.464 428.669C339.578 428.669 340.462 427.837 340.462 426.788C340.462 426.173 340.116 425.595 339.617 425.269L355.021 400.17C355.29 400.278 355.559 400.351 355.828 400.351C356.865 400.351 357.71 399.591 357.826 398.651H388.596C388.712 399.591 389.557 400.351 390.594 400.351C391.708 400.351 392.592 399.519 392.592 398.47C392.592 397.855 392.246 397.276 391.746 396.951L407.151 371.851C407.42 371.96 407.689 372.032 407.958 372.032C409.072 372.032 409.955 371.2 409.955 370.152C409.955 369.103 409.072 368.271 407.958 368.271C407.65 368.271 407.382 368.343 407.151 368.452L391.746 343.352C392.246 343.027 392.592 342.448 392.592 341.833C392.592 340.784 391.708 339.953 390.594 339.953C389.557 339.953 388.712 340.712 388.596 341.652H357.826C357.787 341.363 357.71 341.11 357.557 340.893C357.211 340.35 356.558 339.953 355.828 339.953C355.521 339.953 355.252 340.025 355.021 340.133L339.617 315.034C340.116 314.708 340.462 314.13 340.462 313.515C340.462 312.466 339.578 311.634 338.464 311.634C337.427 311.634 336.582 312.394 336.466 313.334H305.696C305.657 312.9 305.427 312.502 305.12 312.177C304.774 311.851 304.236 311.634 303.698 311.634C303.391 311.634 303.122 311.707 302.891 311.815L287.487 286.716C287.986 286.39 288.332 285.811 288.332 285.197C288.332 284.871 288.255 284.582 288.101 284.293C287.948 284.039 287.756 283.822 287.525 283.642L302.93 258.542C303.199 258.651 303.468 258.723 303.737 258.723C304.851 258.723 305.734 257.891 305.734 256.842C305.734 255.793 304.851 254.962 303.737 254.962C303.429 254.962 303.16 255.034 302.93 255.142L287.525 230.043C288.025 229.717 288.37 229.139 288.37 228.524C288.37 228.198 288.293 227.909 288.14 227.62C287.986 227.367 287.794 227.15 287.564 227.005L302.968 201.905C303.237 202.014 303.506 202.086 303.775 202.086C304.812 202.086 305.657 201.327 305.773 200.386H336.543C336.659 201.327 337.504 202.086 338.541 202.086C339.655 202.086 340.539 201.254 340.539 200.206C340.539 199.591 340.193 199.012 339.693 198.687L355.098 173.587C355.367 173.696 355.636 173.768 355.905 173.768C357.019 173.768 357.902 172.936 357.902 171.887C357.902 170.838 357.019 170.007 355.905 170.007C355.597 170.007 355.329 170.079 355.098 170.187L339.693 145.088C340.193 144.762 340.539 144.184 340.539 143.569C340.539 142.52 339.655 141.688 338.541 141.688C337.504 141.688 336.659 142.448 336.543 143.388H305.773C305.734 142.954 305.504 142.556 305.196 142.231C304.851 141.905 304.313 141.688 303.775 141.688C303.468 141.688 303.199 141.761 302.968 141.869L287.564 116.77C288.063 116.444 288.409 115.866 288.409 115.251C288.409 114.202 287.525 113.37 286.411 113.37C285.374 113.37 284.529 114.13 284.414 115.07H253.643C253.527 114.13 252.682 113.37 251.645 113.37C250.531 113.37 249.647 114.202 249.647 115.251C249.647 115.866 249.993 116.444 250.493 116.77L235.088 141.869C234.819 141.761 234.55 141.688 234.281 141.688C233.244 141.688 232.399 142.448 232.284 143.388H201.513C201.474 142.954 201.244 142.556 200.937 142.231C200.591 141.905 200.053 141.688 199.515 141.688C199.208 141.688 198.939 141.761 198.709 141.869L183.304 116.77C183.534 116.589 183.765 116.372 183.88 116.119C184.034 115.866 184.111 115.54 184.111 115.215C184.111 114.6 183.765 114.021 183.266 113.696L198.67 88.5961C198.939 88.7046 199.208 88.7769 199.477 88.7769C200.591 88.7769 201.474 87.9451 201.474 86.8962C201.474 85.8474 200.591 85.0156 199.477 85.0156C199.17 85.0156 198.901 85.0879 198.67 85.1964L183.266 60.0969C183.765 59.7714 184.111 59.1928 184.111 58.5779C184.111 58.3248 184.072 58.0716 183.957 57.8546C183.803 57.5291 183.573 57.2759 183.266 57.0589L198.67 31.9594C198.939 32.0679 199.208 32.1403 199.477 32.1403C200.591 32.1403 201.474 31.3085 201.474 30.2596C201.474 29.2108 200.591 28.379 199.477 28.379C199.17 28.379 198.901 28.4513 198.67 28.5598L183.266 3.46031C183.765 3.13481 184.111 2.55615 184.111 1.94132C184.111 0.892498 183.227 0.0606689 182.113 0.0606689C181.076 0.0606689 180.231 0.820165 180.115 1.76049H149.345C149.229 0.820165 148.384 0.0606689 147.347 0.0606689C146.233 0.0606689 145.349 0.892498 145.349 1.94132C145.349 2.55615 145.695 3.13481 146.195 3.46031L130.79 28.5598C130.521 28.4513 130.252 28.379 129.945 28.379C128.908 28.379 128.062 29.1385 127.947 30.0788H97.1764C97.0612 29.1385 96.216 28.379 95.1788 28.379C94.0647 28.379 93.1812 29.2108 93.1812 30.2596C93.1812 30.8745 93.5269 31.4531 94.0263 31.7786L78.5449 56.4079C78.276 56.2994 78.0071 56.2271 77.7382 56.2271C76.701 56.2271 75.8558 56.9866 75.7406 57.9269H44.9697C44.9313 57.4929 44.7008 57.0951 44.3935 56.7696C44.0478 56.4441 43.5099 56.2271 42.9721 56.2271C42.6648 56.2271 42.3959 56.2994 42.1654 56.4079L26.7608 31.3085C27.2602 30.983 27.606 30.4043 27.606 29.7895C27.606 28.7406 26.7224 27.9088 25.6083 27.9088C24.5711 27.9088 23.726 28.6683 23.6107 29.6086H-7.16008C-7.27533 28.6683 -8.12047 27.9088 -9.15768 27.9088C-10.2717 27.9088 -11.1553 28.7406 -11.1553 29.7895C-11.1553 30.4043 -10.8096 30.983 -10.3102 31.3085L-25.7148 56.4079C-25.9837 56.2994 -26.2526 56.2271 -26.5215 56.2271C-27.6355 56.2271 -28.5191 57.0589 -28.5191 58.1078C-28.5191 59.1566 -27.6355 59.9884 -26.5215 59.9884C-26.2142 59.9884 -25.9453 59.9161 -25.7148 59.8076L-10.3102 84.9071C-10.8096 85.2326 -11.1553 85.8112 -11.1553 86.4261C-11.1553 87.0409 -10.8096 87.6196 -10.3102 87.9451L-25.7148 113.045C-25.9837 112.936 -26.2526 112.864 -26.5215 112.864C-27.4051 112.864 -28.1734 113.406 -28.4423 114.202C-28.4807 114.31 -28.5191 114.455 -28.5191 114.564H-59.2899C-59.4052 113.623 -60.2503 112.864 -61.2875 112.864C-62.4016 112.864 -63.2851 113.696 -63.2851 114.744C-63.2851 115.359 -62.9394 115.938 -62.44 116.263L-77.8446 141.363C-78.1135 141.254 -78.3824 141.182 -78.6513 141.182C-79.6886 141.182 -80.5337 141.942 -80.6489 142.882H-111.42C-111.458 142.448 -111.689 142.05 -111.996 141.725C-112.342 141.399 -112.88 141.182 -113.417 141.182C-113.725 141.182 -113.994 141.254 -114.224 141.363L-129.629 116.263C-129.129 115.938 -128.784 115.359 -128.784 114.744C-128.784 113.696 -129.667 112.864 -130.781 112.864C-131.818 112.864 -132.664 113.623 -132.779 114.564H-163.55C-163.665 113.623 -164.51 112.864 -165.547 112.864C-166.661 112.864 -167.545 113.696 -167.545 114.744C-167.545 115.359 -167.199 115.938 -166.7 116.263L-182.104 141.363C-182.373 141.254 -182.642 141.182 -182.911 141.182C-184.025 141.182 -184.909 142.014 -184.909 143.063C-184.909 144.112 -184.025 144.943 -182.911 144.943C-182.604 144.943 -182.335 144.871 -182.104 144.762L-166.7 169.862C-167.199 170.187 -167.545 170.766 -167.545 171.381C-167.545 171.996 -167.199 172.574 -166.7 172.9L-182.104 197.999C-182.373 197.891 -182.642 197.819 -182.911 197.819C-184.025 197.819 -184.909 198.65 -184.909 199.699C-184.909 200.748 -184.025 201.58 -182.911 201.58C-182.604 201.58 -182.335 201.508 -182.104 201.399L-166.7 226.499C-167.199 226.824 -167.545 227.403 -167.545 228.018C-167.545 229.066 -166.661 229.898 -165.547 229.898C-164.51 229.898 -163.665 229.139 -163.55 228.198H-132.779C-132.664 229.139 -131.818 229.898 -130.781 229.898C-130.474 229.898 -130.205 229.826 -129.974 229.717L-114.57 254.817C-115.069 255.142 -115.415 255.721 -115.415 256.336C-115.415 256.951 -115.069 257.529 -114.57 257.855L-129.936 282.918C-130.167 282.81 -130.474 282.737 -130.743 282.737C-131.165 282.737 -131.549 282.846 -131.857 283.063C-132.356 283.352 -132.664 283.859 -132.74 284.437H-163.511C-163.626 283.497 -164.472 282.737 -165.509 282.737C-166.623 282.737 -167.506 283.569 -167.506 284.618C-167.506 285.233 -167.161 285.812 -166.661 286.137L-182.066 311.236C-182.335 311.128 -182.604 311.056 -182.873 311.056C-183.91 311.056 -184.755 311.815 -184.87 312.755H-215.641C-215.756 311.815 -216.601 311.056 -217.639 311.056C-218.753 311.056 -219.636 311.887 -219.636 312.936C-219.636 313.551 -219.29 314.13 -218.791 314.455L-234.196 339.555C-234.465 339.446 -234.733 339.374 -235.002 339.374C-236.116 339.374 -237 340.206 -237 341.255C-237 342.303 -236.116 343.135 -235.002 343.135C-234.695 343.135 -234.426 343.063 -234.196 342.954L-218.791 368.054C-219.29 368.379 -219.636 368.958 -219.636 369.573C-219.636 370.622 -218.753 371.454 -217.639 371.454C-216.601 371.454 -215.756 370.694 -215.641 369.754H-184.985C-184.87 370.694 -184.025 371.454 -182.988 371.454C-182.68 371.454 -182.412 371.381 -182.181 371.273L-166.776 396.372C-167.276 396.698 -167.622 397.276 -167.622 397.891C-167.622 398.94 -166.738 399.772 -165.624 399.772C-164.587 399.772 -163.742 399.012 -163.626 398.072H-132.856C-132.74 399.012 -131.895 399.772 -130.858 399.772C-130.551 399.772 -130.282 399.7 -130.051 399.591L-114.647 424.691C-115.146 425.016 -115.492 425.595 -115.492 426.21C-115.492 426.824 -115.146 427.403 -114.647 427.729L-130.051 452.828C-130.32 452.72 -130.589 452.647 -130.858 452.647C-131.972 452.647 -132.856 453.479 -132.856 454.528C-132.856 455.577 -131.972 456.409 -130.858 456.409C-130.551 456.409 -130.282 456.336 -130.051 456.228L-114.647 481.327C-115.146 481.653 -115.492 482.231 -115.492 482.846C-115.492 483.895 -114.608 484.727 -113.494 484.727C-112.457 484.727 -111.612 483.967 -111.497 483.027H-80.7258C-80.6105 483.967 -79.7654 484.727 -78.7282 484.727C-77.6141 484.727 -76.7306 483.895 -76.7306 482.846C-76.7306 482.231 -77.0763 481.653 -77.5757 481.327L-62.1711 456.228C-61.9022 456.336 -61.6333 456.409 -61.3644 456.409C-60.3271 456.409 -59.482 455.649 -59.3668 454.709H-28.5959C-28.5575 454.89 -28.5191 455.07 -28.4423 455.251C-28.1349 455.938 -27.4435 456.409 -26.5983 456.409C-26.291 456.409 -26.0221 456.336 -25.7916 456.228L-10.387 481.327C-10.8864 481.653 -11.2321 482.231 -11.2321 482.846C-11.2321 483.895 -10.3486 484.727 -9.23453 484.727C-8.19731 484.727 -7.35216 483.967 -7.23691 483.027H23.6107C23.6876 483.931 24.4559 484.618 25.4163 484.727C25.4931 484.727 25.5699 484.727 25.6083 484.727C25.6852 484.727 25.762 484.727 25.8004 484.727C26.0309 484.691 26.223 484.654 26.415 484.582L41.8197 509.682C41.3203 510.007 40.9745 510.586 40.9745 511.201C40.9745 511.815 41.3203 512.394 41.8197 512.72L26.415 537.819C26.1461 537.711 25.8773 537.638 25.6083 537.638C24.4943 537.638 23.6107 538.47 23.6107 539.519C23.6107 540.568 24.4943 541.4 25.6083 541.4C25.9156 541.4 26.1846 541.327 26.415 541.219L41.8197 566.318C41.3203 566.644 40.9745 567.222 40.9745 567.837C40.9745 568.886 41.8581 569.718 42.9721 569.718C44.0094 569.718 44.8545 568.958 44.9697 568.018H75.7406C75.8558 568.958 76.701 569.718 77.7382 569.718C78.0455 569.718 78.3144 569.646 78.5449 569.537L93.9495 594.637C93.4501 594.962 93.1044 595.541 93.1044 596.156C93.1044 597.204 93.9879 598.036 95.102 598.036C96.1776 598.579 97.0227 597.855 97.138 596.879ZM232.783 144.509C233.129 144.835 233.667 145.052 234.204 145.052C234.512 145.052 234.781 144.98 235.011 144.871L250.416 169.97C249.916 170.296 249.571 170.875 249.571 171.489C249.571 172.104 249.916 172.683 250.416 173.008L236.817 195.178L235.011 198.108C234.742 197.999 234.473 197.927 234.204 197.927C233.167 197.927 232.322 198.687 232.207 199.627H201.436C201.398 199.374 201.321 199.121 201.206 198.904C200.86 198.325 200.207 197.927 199.438 197.927C199.131 197.927 198.862 197.999 198.632 198.108L183.227 173.008C183.727 172.683 184.072 172.104 184.072 171.489C184.072 170.875 183.727 170.296 183.227 169.97L198.632 144.871C198.901 144.98 199.17 145.052 199.438 145.052C200.476 145.052 201.321 144.292 201.436 143.352H232.207C232.245 143.786 232.476 144.184 232.783 144.509ZM-76.6921 256.553C-76.6921 255.938 -77.0379 255.359 -77.5373 255.034L-62.1327 229.934C-61.8638 230.043 -61.5949 230.115 -61.3259 230.115C-60.2887 230.115 -59.4436 229.356 -59.3283 228.415H-28.5575C-28.5191 228.669 -28.4423 228.922 -28.327 229.139C-27.9813 229.717 -27.3282 230.115 -26.5599 230.115C-26.2526 230.115 -25.9837 230.043 -25.7532 229.934L-10.387 255.034C-10.6943 255.251 -10.9248 255.504 -11.0401 255.83C-11.1553 256.047 -11.1937 256.3 -11.1937 256.589C-11.1937 257.204 -10.848 257.783 -10.3486 258.108L-25.7148 283.171H-25.7532C-25.9837 283.063 -26.2526 283.027 -26.5215 283.027C-27.3666 283.027 -28.0581 283.497 -28.3654 284.184C-28.4423 284.365 -28.4807 284.546 -28.5191 284.727H-59.2899C-59.4052 283.786 -60.2503 283.027 -61.2875 283.027C-61.5948 283.027 -61.8638 283.099 -62.1327 283.208L-77.5373 258.108C-77.0379 257.746 -76.6921 257.204 -76.6921 256.553ZM42.9721 116.697C44.0094 116.697 44.8545 115.938 44.9697 114.998H75.7406C75.8558 115.938 76.701 116.697 77.7382 116.697C78.0455 116.697 78.3144 116.625 78.5449 116.517L93.9495 141.616C93.4501 141.942 93.1044 142.52 93.1044 143.135C93.1044 143.714 93.3733 144.256 93.8343 144.582C93.8727 144.618 93.9111 144.618 93.9495 144.654L78.5449 169.79C78.276 169.681 78.0071 169.609 77.7382 169.609C76.701 169.609 75.8558 170.368 75.7406 171.309H44.9697C44.8545 170.368 44.0094 169.609 42.9721 169.609C42.6648 169.609 42.3959 169.681 42.1654 169.79L26.7608 144.69C27.1065 144.437 27.3754 144.111 27.4907 143.714C27.5675 143.533 27.5675 143.352 27.5675 143.135C27.5675 142.52 27.2218 141.942 26.7224 141.616L42.127 116.517C42.3959 116.661 42.6648 116.697 42.9721 116.697ZM232.207 200.061C232.322 201.001 233.167 201.761 234.204 201.761C234.512 201.761 234.781 201.688 235.011 201.58L250.416 226.679C249.916 227.005 249.571 227.584 249.571 228.198C249.571 228.777 249.84 229.32 250.301 229.645C250.339 229.681 250.377 229.681 250.416 229.717L235.011 254.817C234.742 254.708 234.473 254.636 234.204 254.636C233.167 254.636 232.322 255.396 232.207 256.336H201.436C201.398 256.155 201.359 255.974 201.282 255.793C200.975 255.106 200.284 254.636 199.438 254.636C199.131 254.636 198.862 254.708 198.632 254.817L183.227 229.717C183.727 229.392 184.072 228.813 184.072 228.198C184.072 227.692 183.842 227.222 183.496 226.86C183.419 226.788 183.342 226.716 183.266 226.679L198.67 201.58C198.939 201.688 199.208 201.761 199.477 201.761C200.514 201.761 201.359 201.001 201.474 200.061H232.207ZM249.571 284.907C249.571 285.233 249.648 285.558 249.801 285.811C249.955 286.065 250.147 286.282 250.377 286.426L234.973 311.526C234.704 311.417 234.435 311.345 234.166 311.345C233.129 311.345 232.284 312.104 232.168 313.045H201.398C201.359 312.864 201.321 312.683 201.244 312.502C200.937 311.815 200.245 311.345 199.4 311.345C199.093 311.345 198.824 311.417 198.593 311.526L183.189 286.426C183.688 286.101 184.034 285.522 184.034 284.907C184.034 284.654 183.995 284.401 183.88 284.184C183.803 284.003 183.688 283.859 183.573 283.714C183.458 283.605 183.342 283.497 183.189 283.388L198.593 258.289C198.862 258.397 199.131 258.47 199.4 258.47C200.245 258.47 200.937 258 201.244 257.312C201.321 257.132 201.359 256.951 201.398 256.77H232.168C232.207 257.023 232.284 257.276 232.399 257.493C232.745 258.072 233.398 258.47 234.166 258.47C234.473 258.47 234.742 258.397 234.973 258.289L250.377 283.388C249.916 283.714 249.571 284.256 249.571 284.907ZM249.571 341.58C249.571 342.195 249.916 342.774 250.416 343.099L236.817 365.269L235.011 368.199C234.742 368.09 234.473 368.018 234.204 368.018C233.167 368.018 232.322 368.777 232.207 369.718H201.436C201.398 369.464 201.321 369.211 201.206 368.994C200.86 368.416 200.207 368.018 199.438 368.018C199.131 368.018 198.862 368.09 198.632 368.199L183.227 343.099C183.727 342.774 184.072 342.195 184.072 341.58C184.072 340.965 183.727 340.387 183.227 340.061L198.632 314.962C198.901 315.07 199.17 315.142 199.438 315.142C200.476 315.142 201.321 314.383 201.436 313.443H232.207C232.245 313.623 232.284 313.804 232.361 313.985C232.668 314.672 233.359 315.142 234.204 315.142C234.512 315.142 234.781 315.07 235.011 314.962L250.416 340.061C249.916 340.423 249.571 340.965 249.571 341.58ZM-7.31375 369.211C-7.62108 368.524 -8.31255 368.054 -9.15768 368.054C-9.46501 368.054 -9.73393 368.126 -9.96443 368.235L-25.369 343.135C-24.8696 342.81 -24.5239 342.231 -24.5239 341.616C-24.5239 341.001 -24.8696 340.423 -25.369 340.097L-9.96443 314.998H-9.92599C-9.69551 315.106 -9.42659 315.142 -9.15768 315.142C-8.12047 315.142 -7.27533 314.383 -7.16008 313.443H23.6107C23.6876 314.13 24.187 314.745 24.84 314.998C25.0705 315.106 25.3394 315.142 25.6083 315.142C25.9156 315.142 26.1846 315.07 26.415 314.962L41.8197 340.061C41.3203 340.387 40.9745 340.965 40.9745 341.58C40.9745 342.195 41.3203 342.774 41.8197 343.099L26.415 368.199C26.223 368.126 26.0309 368.054 25.8004 368.054C25.7236 368.054 25.6468 368.054 25.6083 368.054C24.5711 368.054 23.726 368.813 23.6107 369.754H-7.16008C-7.19849 369.537 -7.23692 369.356 -7.31375 369.211ZM-24.5239 284.907C-24.5239 284.256 -24.8696 283.714 -25.369 283.388L-10.0028 258.325C-9.73392 258.434 -9.46503 258.506 -9.19612 258.506C-8.35098 258.506 -7.65948 258.036 -7.35216 257.349C-7.27533 257.168 -7.23692 256.987 -7.1985 256.806H23.6107C23.6491 257.059 23.726 257.312 23.8412 257.529C24.187 258.108 24.84 258.506 25.6083 258.506C25.9156 258.506 26.1846 258.434 26.415 258.325L41.8197 283.425C41.3203 283.75 40.9745 284.329 40.9745 284.944C40.9745 285.414 41.1282 285.812 41.4355 286.137C41.5508 286.246 41.666 286.354 41.8197 286.462L26.415 311.562H26.3766C26.1461 311.453 25.8773 311.417 25.6083 311.417C24.5711 311.417 23.726 312.177 23.6107 313.117H-7.16008C-7.19849 312.683 -7.42899 312.285 -7.73631 311.96C-7.92839 311.779 -8.12047 311.634 -8.38937 311.562C-8.61987 311.453 -8.88878 311.417 -9.15768 311.417C-9.46501 311.417 -9.73393 311.49 -9.96443 311.598L-25.3306 286.499C-24.8696 286.101 -24.5239 285.522 -24.5239 284.907ZM197.441 313.226C197.441 313.479 197.479 313.732 197.595 313.949C197.71 314.238 197.902 314.491 198.171 314.672C198.209 314.708 198.248 314.708 198.286 314.745L182.881 339.844C182.612 339.736 182.344 339.663 182.075 339.663C181.037 339.663 180.192 340.423 180.077 341.363H149.306C149.268 341.11 149.191 340.857 149.076 340.64C148.73 340.061 148.077 339.663 147.309 339.663C147.001 339.663 146.732 339.736 146.502 339.844L131.097 314.745C131.597 314.419 131.942 313.84 131.942 313.226C131.942 312.972 131.904 312.719 131.789 312.502C131.75 312.43 131.75 312.394 131.712 312.321C131.558 312.068 131.366 311.851 131.136 311.707L146.54 286.607C146.809 286.716 147.078 286.788 147.347 286.788C148.384 286.788 149.229 286.029 149.345 285.088H180.115C180.154 285.269 180.192 285.45 180.269 285.631C180.576 286.318 181.268 286.788 182.113 286.788C182.42 286.788 182.689 286.716 182.92 286.607L198.324 311.707C197.748 312.068 197.441 312.611 197.441 313.226ZM42.9721 230.079C43.7404 230.079 44.3935 229.681 44.7393 229.103C44.8545 228.886 44.9313 228.632 44.9697 228.379H75.7406C75.8558 229.32 76.701 230.079 77.7382 230.079C78.0455 230.079 78.3144 230.007 78.5833 229.898L93.9879 254.998C93.4885 255.323 93.1428 255.902 93.1428 256.517C93.1428 257.132 93.4885 257.71 93.9879 258.036L82.8474 276.191L78.5833 283.135C78.3144 283.027 78.0455 282.954 77.7766 282.954C76.7393 282.954 75.8942 283.714 75.779 284.654H45.0081C44.9698 284.401 44.8929 284.148 44.7776 283.931C44.4319 283.352 43.7789 282.954 43.0106 282.954C42.7032 282.954 42.4343 283.027 42.2038 283.135L26.7992 258.036C27.2986 257.71 27.6443 257.132 27.6443 256.517C27.6443 255.902 27.2986 255.323 26.7992 254.998L42.2038 229.898C42.3959 230.043 42.6648 230.079 42.9721 230.079ZM128.139 257.457C128.485 258.036 129.138 258.434 129.906 258.434C130.214 258.434 130.483 258.361 130.713 258.253L146.118 283.352C145.618 283.678 145.273 284.256 145.273 284.871C145.273 285.124 145.349 285.378 145.426 285.595C145.58 285.92 145.81 286.173 146.079 286.39L130.675 311.49C130.406 311.381 130.137 311.309 129.868 311.309C128.831 311.309 127.986 312.068 127.87 313.009H97.0995C97.0612 312.755 96.9843 312.502 96.8691 312.285C96.5233 311.707 95.8703 311.309 95.102 311.309C94.7946 311.309 94.5257 311.381 94.2952 311.49L78.929 286.426C79.4284 286.101 79.7742 285.522 79.7742 284.907C79.7742 284.293 79.4284 283.714 78.929 283.388L94.3336 258.289C94.6025 258.397 94.8715 258.47 95.1404 258.47C96.1776 258.47 97.0227 257.71 97.138 256.77H127.909C127.909 256.987 128.024 257.24 128.139 257.457ZM43.7404 339.844C43.5099 339.736 43.2411 339.699 42.9721 339.699C42.6648 339.699 42.3959 339.772 42.1654 339.88L26.7992 314.781C27.2986 314.455 27.6443 313.877 27.6443 313.262C27.6443 312.611 27.2986 312.068 26.7992 311.707L42.2038 286.607C42.4727 286.716 42.7416 286.788 43.0106 286.788C44.0478 286.788 44.8929 286.029 45.0081 285.088H75.779C75.8942 286.029 76.7393 286.788 77.7766 286.788C78.0839 286.788 78.3528 286.716 78.5833 286.607L93.9879 311.707C93.4885 312.032 93.1428 312.611 93.1428 313.226C93.1428 313.804 93.4117 314.347 93.8727 314.672C93.9111 314.708 93.9495 314.708 93.9879 314.745L78.5833 339.844C78.3144 339.736 78.0455 339.663 77.7766 339.663C76.7393 339.663 75.8942 340.423 75.779 341.363H45.0081C44.8929 340.712 44.4319 340.097 43.7404 339.844ZM95.3325 368.054C95.2556 368.054 95.1788 368.054 95.1404 368.054C94.8331 368.054 94.5641 368.126 94.3336 368.235L78.929 343.135C79.3132 342.846 79.6205 342.448 79.7357 341.978C79.7742 341.869 79.7742 341.725 79.7742 341.58C79.7742 340.965 79.4284 340.387 78.929 340.061L94.3336 314.962C94.6025 315.07 94.8715 315.142 95.1404 315.142C96.1776 315.142 97.0227 314.383 97.138 313.443H127.909C127.947 313.623 127.986 313.804 128.062 313.985C128.37 314.672 129.061 315.142 129.906 315.142C130.214 315.142 130.483 315.07 130.713 314.962L146.118 340.061C145.618 340.387 145.273 340.965 145.273 341.58C145.273 341.833 145.349 342.086 145.426 342.303C145.58 342.629 145.81 342.882 146.079 343.099L130.675 368.199C130.444 368.09 130.137 368.018 129.868 368.018C128.831 368.018 127.986 368.777 127.87 369.718H97.0995C97.0227 368.85 96.2928 368.126 95.3325 368.054ZM181.076 229.862C181.345 230.007 181.69 230.079 182.036 230.079C182.344 230.079 182.612 230.007 182.843 229.898L198.248 254.998C197.863 255.287 197.556 255.685 197.441 256.155C197.402 256.264 197.402 256.408 197.402 256.553C197.402 256.698 197.402 256.806 197.441 256.951C197.556 257.421 197.825 257.819 198.248 258.108L182.843 283.208C182.574 283.099 182.305 283.027 182.036 283.027C180.999 283.027 180.154 283.786 180.039 284.727H149.268C149.229 284.546 149.191 284.365 149.114 284.184C149.076 284.112 149.076 284.076 149.037 284.003C148.692 283.425 148.039 283.027 147.27 283.027C146.963 283.027 146.694 283.099 146.464 283.208L131.059 258.108C131.558 257.783 131.904 257.204 131.904 256.589C131.904 255.974 131.558 255.396 131.059 255.07L146.464 229.971C146.732 230.079 147.001 230.151 147.27 230.151C148.307 230.151 149.153 229.392 149.268 228.452H180.039C180.115 229.03 180.538 229.573 181.076 229.862ZM145.273 228.198C145.273 228.777 145.542 229.32 146.002 229.645C146.041 229.681 146.079 229.681 146.118 229.717L130.713 254.817C130.444 254.708 130.175 254.636 129.906 254.636C128.869 254.636 128.024 255.396 127.909 256.336H97.138C97.0227 255.396 96.1776 254.636 95.1404 254.636C94.8331 254.636 94.5641 254.708 94.3336 254.817L78.929 229.717C79.1595 229.537 79.39 229.356 79.5053 229.103C79.6589 228.849 79.7357 228.524 79.7357 228.198C79.7357 227.692 79.5052 227.222 79.1595 226.86C79.0827 226.788 79.0059 226.716 78.929 226.679L87.9183 211.996L94.2952 201.58C94.5641 201.688 94.833 201.761 95.102 201.761C95.8703 201.761 96.5233 201.363 96.8691 200.784C96.9843 200.567 97.0612 200.314 97.0995 200.061H127.87C127.986 201.001 128.831 201.761 129.868 201.761C130.175 201.761 130.444 201.688 130.713 201.58L146.118 226.679C145.618 227.005 145.273 227.584 145.273 228.198ZM76.3168 172.864C76.6625 173.189 77.2003 173.406 77.7382 173.406C78.0455 173.406 78.3144 173.334 78.5449 173.225L93.9495 198.325C93.7574 198.47 93.6038 198.614 93.4501 198.795C93.2196 199.084 93.1044 199.446 93.1044 199.844C93.1044 200.314 93.258 200.712 93.5653 201.037C93.6806 201.146 93.7958 201.254 93.9495 201.363L89.8774 208.018L78.5833 226.462C78.3144 226.354 78.0455 226.282 77.7766 226.282C77.0083 226.282 76.3552 226.679 76.0095 227.258C75.8942 227.475 75.8174 227.728 75.779 227.981H45.0081C44.9698 227.547 44.7393 227.15 44.4319 226.824C44.0862 226.499 43.5484 226.282 43.0106 226.282C42.7032 226.282 42.4343 226.354 42.2038 226.462L26.7992 201.363C27.1065 201.146 27.337 200.893 27.4523 200.567C27.5675 200.35 27.606 200.097 27.606 199.844C27.606 199.229 27.2602 198.65 26.7608 198.325L42.127 173.225C42.3959 173.334 42.6648 173.406 42.9337 173.406C43.8173 173.406 44.5856 172.864 44.8545 172.068C44.8929 171.96 44.9313 171.815 44.9313 171.706H75.7021C75.779 172.14 76.0095 172.538 76.3168 172.864ZM-9.19612 201.761C-8.35098 201.761 -7.65948 201.291 -7.35216 200.603C-7.27533 200.423 -7.23692 200.242 -7.1985 200.061H23.6107C23.726 201.001 24.5711 201.761 25.6083 201.761C25.9156 201.761 26.1846 201.688 26.4535 201.58L41.8197 226.679C41.5124 226.896 41.2819 227.15 41.1666 227.475C41.0514 227.692 41.0129 227.945 41.0129 228.198C41.0129 228.813 41.3587 229.392 41.8581 229.717L26.4535 254.817C26.1846 254.708 25.9156 254.636 25.6467 254.636C24.6095 254.636 23.7644 255.396 23.6491 256.336H-7.12167C-7.23692 255.396 -8.08206 254.636 -9.11928 254.636C-9.42661 254.636 -9.69551 254.708 -9.92599 254.817L-25.3306 229.717C-25.0233 229.5 -24.7928 229.247 -24.6776 228.922C-24.5623 228.705 -24.5239 228.452 -24.5239 228.198C-24.5239 227.584 -24.8696 227.005 -25.369 226.679L-10.0028 201.58C-9.73392 201.688 -9.46503 201.761 -9.19612 201.761ZM27.606 369.935C27.606 369.681 27.5675 369.428 27.4523 369.211C27.2986 368.886 27.0681 368.633 26.7608 368.416L42.1654 343.316H42.2038C42.4343 343.425 42.7032 343.461 42.9721 343.461C44.0094 343.461 44.8545 342.701 44.9697 341.761H75.7406C75.8174 342.34 76.1247 342.846 76.6241 343.135C76.9314 343.352 77.3156 343.461 77.7382 343.461C78.0455 343.461 78.3144 343.388 78.5449 343.28L93.9495 368.379C93.4501 368.705 93.1044 369.284 93.1044 369.898C93.1044 370.369 93.258 370.766 93.5653 371.092C93.6806 371.2 93.7958 371.309 93.9495 371.417L78.5449 396.517C78.3528 396.445 78.1607 396.372 77.9302 396.372C77.8534 396.372 77.7766 396.372 77.7382 396.372C76.701 396.372 75.8558 397.132 75.7406 398.072H44.9697C44.9313 397.638 44.7008 397.24 44.3935 396.915C44.0862 396.625 43.6636 396.408 43.1642 396.372C43.0874 396.372 43.0106 396.372 42.9721 396.372C42.6648 396.372 42.3959 396.445 42.1654 396.553L26.7992 371.454C27.2986 371.128 27.606 370.586 27.606 369.935ZM149.268 398.072C149.229 397.638 148.999 397.24 148.692 396.915C148.346 396.589 147.808 396.372 147.27 396.372C146.963 396.372 146.694 396.445 146.464 396.553L131.059 371.454C131.097 371.417 131.136 371.417 131.174 371.381C131.635 371.02 131.904 370.513 131.904 369.935C131.904 369.32 131.558 368.741 131.059 368.416L146.425 343.316C146.694 343.425 146.963 343.497 147.232 343.497C148.269 343.497 149.114 342.737 149.229 341.797H180C180.115 342.737 180.961 343.497 181.998 343.497C182.075 343.497 182.151 343.497 182.19 343.497C182.42 343.461 182.612 343.425 182.805 343.352L198.209 368.452C197.71 368.777 197.364 369.356 197.364 369.971C197.364 370.441 197.518 370.839 197.825 371.164C197.94 371.273 198.055 371.381 198.209 371.49L182.805 396.589C182.536 396.481 182.267 396.408 181.998 396.408C181.575 396.408 181.191 396.517 180.884 396.734C180.384 397.023 180.077 397.53 180 398.108H149.268V398.072ZM145.503 170.621C145.349 170.875 145.273 171.2 145.273 171.526C145.273 172.14 145.618 172.719 146.118 173.045L130.713 198.144C130.444 198.036 130.175 197.963 129.906 197.963C129.061 197.963 128.37 198.433 128.062 199.121C127.986 199.301 127.947 199.482 127.909 199.663H97.138C97.0227 198.723 96.1776 197.963 95.1404 197.963C94.8331 197.963 94.5641 198.036 94.2952 198.144L78.929 173.045C79.4284 172.719 79.7742 172.14 79.7742 171.526C79.7742 170.911 79.4284 170.332 78.929 170.007L94.3336 144.907C94.6025 145.016 94.8715 145.088 95.1404 145.088C96.1776 145.088 97.0227 144.328 97.138 143.388H127.909C127.947 143.641 128.024 143.895 128.139 144.111C128.485 144.69 129.138 145.088 129.906 145.088C130.214 145.088 130.483 145.016 130.713 144.907L146.118 170.007C145.849 170.151 145.657 170.368 145.503 170.621ZM-9.19612 145.052C-8.31256 145.052 -7.54425 144.473 -7.27534 143.714C-7.23692 143.605 -7.1985 143.461 -7.1985 143.352H23.6107C23.726 144.292 24.5711 145.052 25.6083 145.052C25.9156 145.052 26.1846 144.98 26.415 144.871L41.8197 169.97C41.4739 170.224 41.205 170.549 41.0898 170.947C41.0129 171.128 41.0129 171.309 41.0129 171.526C41.0129 172.14 41.3587 172.719 41.8581 173.045L26.4919 198.144C26.223 198.036 25.9541 197.963 25.6852 197.963C24.9169 197.963 24.2638 198.361 23.918 198.94C23.8412 199.048 23.8028 199.157 23.7644 199.301C23.726 199.41 23.6876 199.555 23.6876 199.663H-7.08327C-7.19852 198.723 -8.04364 197.963 -9.08086 197.963C-9.38818 197.963 -9.65709 198.036 -9.92599 198.144L-25.2922 173.045C-24.7928 172.719 -24.4471 172.14 -24.4471 171.526C-24.4471 170.911 -24.7928 170.332 -25.2922 170.007L-9.88759 144.907C-9.73393 145.016 -9.46503 145.052 -9.19612 145.052ZM-61.3259 286.788C-60.9034 286.788 -60.5192 286.68 -60.2119 286.462C-59.7125 286.173 -59.4052 285.667 -59.3283 285.088H-28.5575C-28.4423 286.029 -27.5971 286.788 -26.5599 286.788C-26.2526 286.788 -25.9837 286.716 -25.7148 286.607L-10.3486 311.707C-10.848 312.032 -11.1937 312.611 -11.1937 313.226C-11.1937 313.877 -10.848 314.419 -10.3486 314.745L-25.7532 339.844C-26.0221 339.736 -26.291 339.663 -26.5599 339.663C-27.5971 339.663 -28.4423 340.423 -28.5575 341.363H-59.3283C-59.4436 340.423 -60.2887 339.663 -61.3259 339.663C-61.6333 339.663 -61.9022 339.736 -62.1327 339.844L-77.5373 314.745C-77.0379 314.419 -76.6921 313.84 -76.6921 313.226C-76.6921 312.719 -76.9226 312.249 -77.2684 311.888C-77.3452 311.815 -77.422 311.743 -77.4989 311.707L-62.1327 286.643C-61.9022 286.752 -61.6333 286.788 -61.3259 286.788ZM-76.6921 369.935C-76.6921 369.32 -77.0379 368.741 -77.5373 368.416L-62.1327 343.316C-61.8638 343.425 -61.5949 343.497 -61.3259 343.497C-60.2887 343.497 -59.4436 342.737 -59.3283 341.797H-28.5575C-28.4423 342.737 -27.5971 343.497 -26.5599 343.497C-26.4831 343.497 -26.4062 343.497 -26.3678 343.497C-26.1373 343.461 -25.9453 343.425 -25.7532 343.352L-10.3486 368.452C-10.848 368.777 -11.1937 369.356 -11.1937 369.971C-11.1937 370.152 -11.1553 370.369 -11.1169 370.549C-11.1169 370.622 -11.0785 370.658 -11.0401 370.694C-10.9632 370.875 -10.848 371.02 -10.7327 371.164C-10.6175 371.273 -10.5022 371.381 -10.3486 371.49L-25.7532 396.589C-26.0221 396.481 -26.291 396.408 -26.5599 396.408C-27.5971 396.408 -28.4423 397.168 -28.5575 398.108H-59.3283C-59.3668 397.855 -59.4436 397.602 -59.5588 397.385C-59.9046 396.806 -60.5576 396.408 -61.3259 396.408C-61.6333 396.408 -61.9022 396.481 -62.1327 396.589L-77.5373 371.49C-77.0379 371.128 -76.6921 370.586 -76.6921 369.935ZM95.1404 424.727C94.8331 424.727 94.5641 424.799 94.3336 424.908L78.929 399.808C79.4284 399.483 79.7742 398.904 79.7742 398.289C79.7742 397.964 79.6973 397.674 79.5437 397.385C79.39 397.132 79.1979 396.915 78.9674 396.77L94.3721 371.671C94.5641 371.743 94.7562 371.815 94.9867 371.815C95.0635 371.815 95.1404 371.815 95.1788 371.815C96.216 371.815 97.0612 371.056 97.1764 370.115H127.947C127.986 370.296 128.024 370.477 128.101 370.658C128.408 371.345 129.1 371.815 129.945 371.815C130.252 371.815 130.521 371.743 130.752 371.634L146.156 396.734C146.118 396.77 146.079 396.77 146.041 396.806C145.58 397.168 145.311 397.674 145.311 398.253C145.311 398.868 145.657 399.446 146.156 399.772L130.79 424.871C130.521 424.763 130.252 424.691 129.983 424.691C128.946 424.691 128.101 425.45 127.986 426.39H97.2148C97.0227 425.486 96.1776 424.727 95.1404 424.727ZM199.438 424.727C199.131 424.727 198.862 424.799 198.632 424.908L183.227 399.808C183.266 399.772 183.304 399.772 183.342 399.736C183.803 399.374 184.072 398.868 184.072 398.289C184.072 397.674 183.727 397.096 183.227 396.77L198.632 371.671C198.901 371.779 199.17 371.851 199.438 371.851C200.476 371.851 201.321 371.092 201.436 370.152H232.207C232.284 371.056 233.052 371.743 234.012 371.851C234.089 371.851 234.166 371.851 234.204 371.851C234.281 371.851 234.358 371.851 234.397 371.851C234.627 371.815 234.819 371.779 235.011 371.707L250.416 396.806C249.916 397.132 249.571 397.71 249.571 398.325C249.571 398.904 249.84 399.446 250.301 399.772C250.339 399.808 250.377 399.808 250.416 399.844L235.011 424.944C234.742 424.835 234.473 424.763 234.204 424.763C233.167 424.763 232.322 425.522 232.207 426.463H201.436C201.321 425.486 200.476 424.727 199.438 424.727ZM286.334 343.497C286.411 343.497 286.488 343.497 286.526 343.497C286.757 343.461 286.949 343.425 287.141 343.352L302.546 368.452C302.046 368.777 301.701 369.356 301.701 369.971C301.701 370.441 301.854 370.839 302.161 371.164C302.277 371.273 302.392 371.381 302.546 371.49L287.141 396.589C286.872 396.481 286.603 396.408 286.334 396.408C285.297 396.408 284.452 397.168 284.337 398.108H253.566C253.527 397.855 253.451 397.602 253.335 397.385C252.99 396.806 252.337 396.408 251.568 396.408C251.261 396.408 250.992 396.481 250.762 396.589L235.357 371.49C235.856 371.164 236.202 370.586 236.202 369.971C236.202 369.356 235.856 368.777 235.357 368.452L236.125 367.186L250.723 343.352C250.992 343.461 251.261 343.533 251.53 343.533C252.567 343.533 253.412 342.774 253.527 341.833H284.298C284.452 342.737 285.297 343.497 286.334 343.497ZM180.615 172.828C180.961 173.153 181.498 173.37 182.036 173.37C182.344 173.37 182.612 173.298 182.843 173.189L198.248 198.289C197.748 198.614 197.402 199.193 197.402 199.808C197.402 200.278 197.556 200.676 197.863 201.001C197.979 201.11 198.094 201.218 198.248 201.327L182.843 226.426C182.574 226.318 182.305 226.245 182.036 226.245C180.999 226.245 180.154 227.005 180.039 227.945H149.268C149.229 227.511 148.999 227.113 148.692 226.788C148.346 226.462 147.808 226.245 147.27 226.245C146.963 226.245 146.694 226.318 146.464 226.426L131.059 201.327C131.289 201.146 131.52 200.929 131.635 200.712C131.789 200.459 131.866 200.133 131.866 199.808C131.866 199.301 131.635 198.831 131.289 198.47C131.213 198.397 131.136 198.325 131.059 198.289L146.464 173.189C146.732 173.298 147.001 173.37 147.27 173.37C148.039 173.37 148.692 172.972 149.037 172.394C149.153 172.177 149.229 171.923 149.268 171.67H180.039C180.077 172.14 180.307 172.538 180.615 172.828ZM128.485 87.8004C128.831 88.1259 129.369 88.3429 129.906 88.3429C130.214 88.3429 130.483 88.2706 130.713 88.162L146.118 113.262C145.887 113.442 145.657 113.623 145.542 113.876C145.388 114.13 145.311 114.455 145.311 114.781C145.311 115.251 145.465 115.649 145.772 115.974C145.887 116.083 146.003 116.191 146.156 116.3L130.752 141.399C130.483 141.291 130.214 141.218 129.945 141.218C129.177 141.218 128.523 141.616 128.178 142.195C128.062 142.412 127.986 142.665 127.947 142.918H97.1764C97.138 142.665 97.0612 142.412 96.9459 142.195C96.6002 141.616 95.9471 141.218 95.1788 141.218C94.8715 141.218 94.6026 141.291 94.3721 141.399L78.929 116.372C79.4284 116.046 79.7742 115.468 79.7742 114.853C79.7742 114.238 79.4284 113.659 78.929 113.334L94.3336 88.2344C94.6025 88.3429 94.8715 88.4152 95.1404 88.4152C96.1776 88.4152 97.0227 87.6557 97.138 86.7154H127.909C127.947 87.1132 128.139 87.5111 128.485 87.8004ZM-27.9813 172.864C-27.6355 173.189 -27.0977 173.406 -26.5599 173.406C-26.2526 173.406 -25.9837 173.334 -25.7532 173.225L-10.387 198.325C-10.6943 198.542 -10.9248 198.795 -11.0401 199.121C-11.1553 199.338 -11.1937 199.591 -11.1937 199.88C-11.1937 200.35 -11.0401 200.748 -10.7327 201.074C-10.6175 201.182 -10.5022 201.291 -10.3486 201.399L-25.7148 226.499C-25.9837 226.39 -26.2526 226.318 -26.5215 226.318C-27.3666 226.318 -28.0581 226.788 -28.3654 227.475C-28.4423 227.656 -28.4807 227.837 -28.5191 228.018H-59.2899C-59.3283 227.764 -59.4052 227.511 -59.5204 227.294C-59.8661 226.716 -60.5192 226.318 -61.2875 226.318C-61.5948 226.318 -61.8638 226.39 -62.0943 226.499L-77.4989 201.399C-76.9995 201.074 -76.6537 200.495 -76.6537 199.88C-76.6537 199.265 -76.9995 198.687 -77.4989 198.361L-62.0943 173.262C-61.8253 173.37 -61.5564 173.442 -61.2875 173.442C-60.2503 173.442 -59.4052 172.683 -59.2899 171.743H-28.5191C-28.5191 172.177 -28.2886 172.574 -27.9813 172.864ZM-111.689 369.03C-112.034 368.452 -112.687 368.054 -113.456 368.054C-113.763 368.054 -114.032 368.126 -114.262 368.235L-129.667 343.135C-129.168 342.81 -128.822 342.231 -128.822 341.616C-128.822 341.001 -129.168 340.423 -129.667 340.097L-114.301 315.034C-114.07 315.142 -113.763 315.215 -113.494 315.215C-113.148 315.215 -112.803 315.142 -112.534 314.962C-111.958 314.672 -111.573 314.13 -111.497 313.515H-80.7258C-80.6105 314.455 -79.7654 315.215 -78.7282 315.215C-78.4208 315.215 -78.1519 315.142 -77.883 315.034L-62.4784 340.133C-62.9778 340.459 -63.3235 341.038 -63.3235 341.652C-63.3235 342.267 -62.9778 342.846 -62.4784 343.171L-74.3872 362.593L-77.883 368.271C-78.1519 368.162 -78.4208 368.09 -78.6897 368.09C-79.727 368.09 -80.5721 368.85 -80.6873 369.79H-111.458C-111.497 369.501 -111.573 369.247 -111.689 369.03ZM-7.23691 426.065C-7.50583 425.305 -8.23572 424.727 -9.15768 424.727C-9.46501 424.727 -9.73393 424.799 -9.96443 424.908L-25.369 399.808C-24.8696 399.483 -24.5239 398.904 -24.5239 398.289C-24.5239 398.036 -24.5623 397.783 -24.6776 397.566C-24.8312 397.24 -25.0617 396.987 -25.369 396.77L-9.96443 371.671C-9.69553 371.779 -9.42659 371.851 -9.15768 371.851C-8.12047 371.851 -7.27533 371.092 -7.16008 370.152H23.6107C23.6876 370.839 24.187 371.454 24.84 371.707C25.0705 371.815 25.3394 371.851 25.6083 371.851C25.9156 371.851 26.1846 371.779 26.415 371.671L41.8197 396.77C41.3203 397.096 40.9745 397.674 40.9745 398.289C40.9745 398.94 41.3203 399.483 41.8197 399.808L26.415 424.908C26.1461 424.799 25.8773 424.727 25.6083 424.727C24.5711 424.727 23.726 425.486 23.6107 426.427H-7.16008C-7.19849 426.318 -7.1985 426.173 -7.23691 426.065ZM44.7393 454.058C44.3935 453.479 43.7404 453.081 42.9721 453.081C42.6648 453.081 42.3959 453.154 42.1654 453.262L26.7608 428.163C27.2602 427.837 27.606 427.258 27.606 426.644C27.606 426.029 27.2602 425.45 26.7608 425.125L42.1654 400.025C42.3575 400.097 42.5496 400.17 42.7801 400.17C42.8569 400.17 42.9337 400.17 42.9721 400.17C44.0094 400.17 44.8545 399.41 44.9697 398.47H75.7406C75.8174 399.374 76.5857 400.061 77.5461 400.17C77.6229 400.17 77.6997 400.17 77.7382 400.17C78.0455 400.17 78.3144 400.097 78.5449 399.989L93.9495 425.088C93.4501 425.414 93.1044 425.993 93.1044 426.607C93.1044 427.222 93.4501 427.801 93.9495 428.126L82.809 446.318L78.5833 453.226C78.3144 453.117 78.0455 453.045 77.7766 453.045C76.7393 453.045 75.8942 453.805 75.779 454.745H45.0081C44.9698 454.528 44.8929 454.275 44.7393 454.058ZM149.037 454.058C148.692 453.479 148.039 453.081 147.27 453.081C146.963 453.081 146.694 453.154 146.464 453.262L131.059 428.163C131.558 427.837 131.904 427.258 131.904 426.644C131.904 426.029 131.558 425.45 131.059 425.125L146.425 400.025C146.694 400.134 146.963 400.206 147.232 400.206C147.731 400.206 148.154 400.061 148.499 399.772C148.884 399.446 149.153 399.012 149.229 398.506H180C180.077 399.41 180.845 400.097 181.806 400.206C181.883 400.206 181.959 400.206 181.998 400.206C182.075 400.206 182.151 400.206 182.19 400.206C182.42 400.17 182.612 400.134 182.805 400.061L198.209 425.161C198.171 425.197 198.132 425.197 198.094 425.233C197.633 425.595 197.364 426.101 197.364 426.68C197.364 427.295 197.71 427.873 198.209 428.199L182.805 453.298C182.536 453.19 182.267 453.117 181.998 453.117C181.498 453.117 181.076 453.262 180.73 453.551C180.346 453.841 180.077 454.311 180 454.817H149.229C149.268 454.528 149.191 454.275 149.037 454.058ZM76.3168 59.4821C76.6625 59.8076 77.2003 60.0246 77.7382 60.0246C78.0455 60.0246 78.3144 59.9523 78.5449 59.8438L93.9495 84.9432C93.4501 85.2687 93.1044 85.8474 93.1044 86.4622C93.1044 87.0771 93.4501 87.6557 93.9495 87.9812L82.809 106.173L78.5833 113.081C78.3144 112.972 78.0455 112.9 77.7766 112.9C76.7393 112.9 75.8942 113.659 75.779 114.6H45.0081C44.9698 114.347 44.8929 114.093 44.7776 113.876C44.4319 113.298 43.7789 112.9 43.0106 112.9C42.7032 112.9 42.4343 112.972 42.2038 113.081L26.7992 87.9812C27.2986 87.6557 27.6443 87.0771 27.6443 86.4622C27.6443 85.8474 27.2986 85.2687 26.7992 84.9432L42.2038 59.8438C42.4727 59.9523 42.7416 60.0246 43.0106 60.0246C44.0478 60.0246 44.8929 59.2651 45.0081 58.3248H75.779C75.779 58.7588 76.0095 59.1566 76.3168 59.4821ZM-80.1111 144.509C-79.7654 144.835 -79.266 145.052 -78.6897 145.052C-78.3824 145.052 -78.1135 144.98 -77.883 144.871L-62.4784 169.97C-62.9778 170.296 -63.3235 170.875 -63.3235 171.489C-63.3235 172.104 -62.9778 172.683 -62.4784 173.008L-74.3872 192.43L-77.883 198.108C-78.1519 197.999 -78.4208 197.927 -78.6897 197.927C-79.727 197.927 -80.5721 198.687 -80.6873 199.627H-111.458C-111.497 199.374 -111.573 199.121 -111.689 198.904C-112.034 198.325 -112.687 197.927 -113.456 197.927C-113.763 197.927 -114.032 197.999 -114.262 198.108L-129.706 173.045C-129.206 172.719 -128.86 172.14 -128.86 171.526C-128.86 170.911 -129.206 170.332 -129.706 170.007L-114.301 144.907C-114.032 145.016 -113.763 145.088 -113.494 145.088C-112.457 145.088 -111.612 144.328 -111.497 143.388H-80.7258C-80.6489 143.822 -80.4569 144.22 -80.1111 144.509ZM-59.5588 454.058C-59.9046 453.479 -60.5576 453.081 -61.3259 453.081C-61.6333 453.081 -61.9022 453.154 -62.1327 453.262L-77.5373 428.163C-77.0379 427.837 -76.6921 427.258 -76.6921 426.644C-76.6921 426.029 -77.0379 425.45 -77.5373 425.125L-62.1327 400.025C-61.8638 400.134 -61.5949 400.206 -61.3259 400.206C-60.2887 400.206 -59.4436 399.446 -59.3283 398.506H-28.5575C-28.5191 398.687 -28.4807 398.868 -28.4039 399.049C-28.3654 399.121 -28.3654 399.157 -28.327 399.229C-27.9813 399.808 -27.3282 400.206 -26.5599 400.206C-26.2526 400.206 -25.9837 400.134 -25.7532 400.025L-10.3486 425.125C-10.848 425.45 -11.1937 426.029 -11.1937 426.644C-11.1937 426.897 -11.1553 427.15 -11.0401 427.367C-10.8864 427.692 -10.6559 427.946 -10.3486 428.163L-25.7532 453.262C-26.0221 453.154 -26.291 453.081 -26.5599 453.081C-27.5971 453.081 -28.4423 453.841 -28.5575 454.781H-59.3283C-59.3283 454.528 -59.4436 454.275 -59.5588 454.058ZM146.118 510.152C145.618 510.477 145.273 511.056 145.273 511.671C145.273 512.286 145.618 512.864 146.118 513.19L130.713 538.289C130.444 538.181 130.175 538.108 129.906 538.108C129.561 538.108 129.215 538.181 128.946 538.325C128.37 538.615 127.986 539.157 127.909 539.808H97.138C97.0996 539.519 97.0227 539.266 96.8691 539.049C96.5233 538.506 95.8703 538.108 95.1404 538.108C94.8331 538.108 94.5641 538.181 94.3336 538.289L78.929 513.19C79.4284 512.864 79.7742 512.286 79.7742 511.671C79.7742 511.056 79.4284 510.477 78.929 510.152L94.3336 485.052C94.6025 485.161 94.8715 485.233 95.1404 485.233C96.1776 485.233 97.0227 484.474 97.138 483.533H127.909C127.947 483.786 128.024 484.04 128.139 484.257C128.485 484.835 129.138 485.233 129.906 485.233C130.214 485.233 130.483 485.161 130.713 485.052L146.118 510.152ZM130.713 481.58C130.444 481.472 130.175 481.399 129.906 481.399C128.869 481.399 128.024 482.159 127.909 483.099H97.138C97.0996 482.846 97.0227 482.593 96.9075 482.376C96.5617 481.797 95.9087 481.399 95.1404 481.399C94.8331 481.399 94.5641 481.472 94.3336 481.58L78.929 456.481C79.4284 456.155 79.7742 455.577 79.7742 454.962C79.7742 454.347 79.4284 453.768 78.929 453.443L94.3336 428.343C94.6025 428.452 94.8715 428.524 95.1404 428.524C96.1776 428.524 97.0227 427.765 97.138 426.824H127.909C128.024 427.765 128.869 428.524 129.906 428.524C129.983 428.524 130.06 428.524 130.098 428.524C130.329 428.488 130.521 428.452 130.713 428.38L146.118 453.479C145.618 453.805 145.273 454.383 145.273 454.998C145.273 455.468 145.426 455.866 145.734 456.192C145.849 456.3 145.964 456.409 146.118 456.517L130.713 481.58ZM183.227 456.517C183.266 456.481 183.304 456.481 183.342 456.445C183.803 456.083 184.072 455.577 184.072 454.998C184.072 454.383 183.727 453.805 183.227 453.479L198.632 428.38C198.901 428.488 199.17 428.56 199.438 428.56C199.938 428.56 200.36 428.38 200.706 428.126C201.09 427.801 201.359 427.367 201.436 426.861H232.207C232.245 427.186 232.361 427.512 232.553 427.765C232.898 428.235 233.513 428.56 234.204 428.56C234.512 428.56 234.781 428.488 235.011 428.38L250.416 453.479C249.916 453.805 249.571 454.383 249.571 454.998C249.571 455.468 249.724 455.866 250.032 456.192C250.147 456.3 250.262 456.409 250.416 456.517L235.011 481.616C234.742 481.508 234.473 481.436 234.204 481.436C233.167 481.436 232.322 482.195 232.207 483.135H201.436C201.321 482.195 200.476 481.436 199.438 481.436C199.131 481.436 198.862 481.508 198.632 481.616L183.227 456.517ZM302.546 481.797C302.046 482.123 301.701 482.702 301.701 483.316C301.701 483.931 302.046 484.51 302.546 484.835L287.141 509.935C286.872 509.826 286.603 509.754 286.334 509.754C285.297 509.754 284.452 510.513 284.337 511.454H253.566C253.451 510.513 252.605 509.754 251.568 509.754C251.261 509.754 250.992 509.826 250.762 509.935L235.357 484.835C235.856 484.51 236.202 483.931 236.202 483.316C236.202 482.702 235.856 482.123 235.357 481.797L250.762 456.698C251.03 456.806 251.299 456.879 251.568 456.879C252.605 456.879 253.451 456.119 253.566 455.179H284.337C284.452 456.119 285.297 456.879 286.334 456.879C286.642 456.879 286.911 456.806 287.141 456.698L302.546 481.797ZM287.179 453.262C286.911 453.154 286.642 453.081 286.373 453.081C286.027 453.081 285.72 453.154 285.412 453.298C284.836 453.588 284.452 454.13 284.375 454.781H253.604C253.566 454.492 253.489 454.239 253.335 454.022C252.99 453.479 252.337 453.081 251.607 453.081C251.299 453.081 251.03 453.154 250.8 453.262L235.395 428.163C235.895 427.837 236.24 427.258 236.24 426.644C236.24 426.029 235.895 425.45 235.395 425.125L250.8 400.025C251.069 400.134 251.338 400.206 251.607 400.206C252.644 400.206 253.489 399.446 253.604 398.506H284.375C284.414 398.759 284.49 399.012 284.606 399.229C284.836 399.591 285.182 399.917 285.604 400.061C285.835 400.17 286.104 400.206 286.373 400.206C286.68 400.206 286.949 400.134 287.179 400.025L302.584 425.125C302.085 425.45 301.739 426.029 301.739 426.644C301.739 427.258 302.085 427.837 302.584 428.163L287.179 453.262ZM336.505 426.427H305.734C305.657 425.739 305.196 425.125 304.505 424.871C304.274 424.763 304.005 424.727 303.737 424.727C303.429 424.727 303.16 424.799 302.93 424.908L287.525 399.808C288.025 399.483 288.37 398.904 288.37 398.289C288.37 397.674 288.025 397.096 287.525 396.77L302.93 371.671H302.968C303.199 371.779 303.468 371.815 303.737 371.815C304.774 371.815 305.619 371.056 305.734 370.115H336.505C336.582 370.803 337.043 371.417 337.734 371.671C337.965 371.779 338.234 371.815 338.503 371.815C338.81 371.815 339.079 371.743 339.309 371.634L354.714 396.734C354.214 397.059 353.869 397.638 353.869 398.253C353.869 398.868 354.214 399.446 354.714 399.772L339.309 424.871C339.04 424.763 338.771 424.691 338.503 424.691C337.465 424.763 336.62 425.486 336.505 426.427ZM406.844 368.416C406.344 368.741 405.999 369.32 405.999 369.935C405.999 370.549 406.344 371.128 406.844 371.454L391.439 396.553C391.17 396.445 390.901 396.372 390.632 396.372C389.595 396.372 388.75 397.132 388.635 398.072H357.864C357.787 397.385 357.326 396.77 356.635 396.517C356.404 396.408 356.135 396.372 355.866 396.372C355.559 396.372 355.29 396.445 355.06 396.553L339.655 371.454C340.154 371.128 340.5 370.549 340.5 369.935C340.5 369.32 340.154 368.741 339.655 368.416L355.06 343.316C355.329 343.425 355.597 343.497 355.866 343.497C356.904 343.497 357.749 342.737 357.864 341.797H388.635C388.75 342.737 389.595 343.497 390.632 343.497C390.94 343.497 391.209 343.425 391.439 343.316L406.844 368.416ZM354.714 340.061C354.214 340.387 353.869 340.965 353.869 341.58C353.869 342.195 354.214 342.774 354.714 343.099L339.309 368.199H339.271C339.04 368.09 338.771 368.054 338.503 368.054C337.465 368.054 336.62 368.813 336.505 369.754H305.734C305.657 369.103 305.273 368.56 304.697 368.271C304.428 368.126 304.082 368.054 303.737 368.054C303.429 368.054 303.16 368.126 302.93 368.235L287.525 343.135C288.025 342.81 288.37 342.231 288.37 341.616C288.37 341.001 288.025 340.423 287.525 340.097L302.93 314.998C303.199 315.106 303.468 315.179 303.737 315.179C304.774 315.179 305.619 314.419 305.734 313.479H336.505C336.62 314.419 337.465 315.179 338.503 315.179C338.81 315.179 339.079 315.106 339.309 314.998L354.714 340.061ZM302.546 311.707C302.046 312.032 301.701 312.611 301.701 313.226C301.701 313.804 301.969 314.347 302.43 314.672C302.469 314.708 302.507 314.708 302.546 314.745L287.141 339.844C286.872 339.736 286.603 339.663 286.334 339.663C285.297 339.663 284.452 340.423 284.337 341.363H253.566C253.451 340.423 252.605 339.663 251.568 339.663C251.261 339.663 250.992 339.736 250.762 339.844L235.357 314.745C235.856 314.419 236.202 313.84 236.202 313.226C236.202 312.972 236.164 312.719 236.048 312.502C235.895 312.177 235.664 311.924 235.395 311.707L250.8 286.607C251.069 286.716 251.338 286.788 251.607 286.788C252.644 286.788 253.489 286.029 253.604 285.088H284.375C284.414 285.269 284.452 285.486 284.529 285.631C284.836 286.318 285.528 286.788 286.373 286.788C286.68 286.788 286.949 286.716 287.179 286.607L302.546 311.707ZM302.546 255.034C302.046 255.359 301.701 255.938 301.701 256.553C301.701 257.168 302.046 257.746 302.546 258.072L287.141 283.171C286.872 283.063 286.603 282.991 286.334 282.991C285.297 282.991 284.452 283.75 284.337 284.69H253.566C253.527 284.437 253.451 284.184 253.335 284.003C252.99 283.425 252.337 283.027 251.568 283.027C251.261 283.027 250.992 283.099 250.762 283.208L235.357 258.108C235.856 257.783 236.202 257.204 236.202 256.589C236.202 255.974 235.856 255.396 235.357 255.07L250.762 229.971C251.03 230.079 251.299 230.151 251.568 230.151C252.605 230.151 253.451 229.392 253.566 228.452H284.337C284.375 228.705 284.452 228.958 284.567 229.175C284.913 229.754 285.566 230.151 286.334 230.151C286.642 230.151 286.911 230.079 287.141 229.971L302.546 255.034ZM287.179 226.499C286.911 226.39 286.642 226.318 286.373 226.318C285.336 226.318 284.49 227.077 284.375 228.018H253.604C253.566 227.764 253.489 227.511 253.374 227.294C253.028 226.716 252.375 226.318 251.607 226.318C251.299 226.318 251.03 226.39 250.8 226.499L235.395 201.399C235.895 201.074 236.24 200.495 236.24 199.88C236.24 199.265 235.895 198.687 235.395 198.361L236.164 197.095L250.762 173.262C251.03 173.37 251.299 173.442 251.568 173.442C252.605 173.442 253.451 172.683 253.566 171.743H284.337C284.375 172.177 284.606 172.574 284.913 172.9C285.259 173.225 285.797 173.442 286.334 173.442C286.642 173.442 286.911 173.37 287.141 173.262L302.546 198.361C302.046 198.687 301.701 199.265 301.701 199.88C301.701 200.35 301.854 200.748 302.161 201.074C302.277 201.182 302.392 201.291 302.546 201.399L287.179 226.499ZM354.714 169.97C354.214 170.296 353.869 170.875 353.869 171.489C353.869 172.104 354.214 172.683 354.714 173.008L339.309 198.108C339.04 197.999 338.771 197.927 338.503 197.927C337.465 197.927 336.62 198.687 336.505 199.627H305.734C305.696 199.374 305.619 199.121 305.504 198.904C305.158 198.325 304.505 197.927 303.737 197.927C303.429 197.927 303.16 197.999 302.93 198.108L287.525 173.045C288.025 172.719 288.37 172.14 288.37 171.526C288.37 170.911 288.025 170.332 287.525 170.007L302.93 144.907C303.199 145.016 303.468 145.088 303.737 145.088C304.774 145.088 305.619 144.328 305.734 143.388H336.505C336.62 144.328 337.465 145.088 338.503 145.088C338.81 145.088 339.079 145.016 339.309 144.907L354.714 169.97ZM250.762 116.553C251.03 116.661 251.299 116.734 251.568 116.734C252.605 116.734 253.451 115.974 253.566 115.034H284.337C284.452 115.974 285.297 116.734 286.334 116.734C286.642 116.734 286.911 116.661 287.141 116.553L302.546 141.652C302.046 141.978 301.701 142.556 301.701 143.171C301.701 143.75 301.969 144.292 302.43 144.618C302.469 144.654 302.507 144.654 302.546 144.69L287.141 169.79C286.872 169.681 286.603 169.609 286.334 169.609C285.297 169.609 284.452 170.368 284.337 171.309H253.566C253.451 170.368 252.605 169.609 251.568 169.609C251.261 169.609 250.992 169.681 250.762 169.79L235.357 144.69C235.856 144.365 236.202 143.786 236.202 143.171C236.202 142.665 235.972 142.195 235.626 141.833C235.549 141.761 235.472 141.688 235.395 141.652L250.762 116.553ZM198.248 141.652C197.748 141.978 197.402 142.556 197.402 143.171C197.402 143.75 197.671 144.292 198.132 144.618C198.171 144.654 198.209 144.654 198.248 144.69L182.843 169.79C182.574 169.681 182.305 169.609 182.036 169.609C180.999 169.609 180.154 170.368 180.039 171.309H149.268C149.153 170.368 148.307 169.609 147.27 169.609C146.963 169.609 146.694 169.681 146.464 169.79L131.059 144.69C131.366 144.473 131.597 144.22 131.712 143.895C131.827 143.678 131.866 143.424 131.866 143.171C131.866 142.556 131.52 141.978 131.02 141.652L146.425 116.553C146.694 116.661 146.963 116.734 147.232 116.734C148 116.734 148.653 116.336 148.999 115.757C149.114 115.54 149.191 115.323 149.229 115.07H180C180.115 116.01 180.961 116.77 181.998 116.77C182.305 116.77 182.574 116.697 182.843 116.589L198.248 141.652ZM198.248 84.9432C197.748 85.2687 197.402 85.8474 197.402 86.4622C197.402 87.0771 197.748 87.6557 198.248 87.9812L182.843 113.081C182.574 112.972 182.305 112.9 182.036 112.9C181.268 112.9 180.615 113.298 180.269 113.876C180.154 114.093 180.077 114.31 180.039 114.564H149.268C149.153 113.623 148.307 112.864 147.27 112.864C146.963 112.864 146.694 112.936 146.425 113.045L131.02 87.9451C131.52 87.6196 131.866 87.0409 131.866 86.4261C131.866 85.8112 131.52 85.2326 131.02 84.9071L146.425 59.8076C146.694 59.9161 146.963 59.9884 147.27 59.9884C148.307 59.9884 149.153 59.2289 149.268 58.2886H180.039C180.077 58.4694 180.115 58.6503 180.192 58.8311C180.5 59.5183 181.191 59.9884 182.036 59.9884C182.344 59.9884 182.612 59.9161 182.843 59.8076L198.248 84.9432ZM146.464 3.17098C146.732 3.27948 147.001 3.35181 147.27 3.35181C148.307 3.35181 149.153 2.59232 149.268 1.65199H180.039C180.154 2.59232 180.999 3.35181 182.036 3.35181C182.344 3.35181 182.612 3.27948 182.843 3.17098L198.248 28.2705C197.748 28.596 197.402 29.1746 197.402 29.7895C197.402 30.4043 197.748 30.983 198.248 31.3085L182.843 56.4079C182.574 56.2994 182.305 56.2271 181.998 56.2271C180.961 56.2271 180.115 56.9866 180 57.9269H149.229C149.191 57.7461 149.153 57.5653 149.076 57.3844C148.96 57.1674 148.845 56.9504 148.653 56.7696C148.307 56.4441 147.77 56.2271 147.232 56.2271C146.924 56.2271 146.656 56.2994 146.425 56.4079L131.059 31.3085C131.558 30.983 131.904 30.4043 131.904 29.7895C131.904 29.5363 131.866 29.2831 131.75 29.0661C131.597 28.7406 131.366 28.4875 131.059 28.2705L146.464 3.17098ZM94.2952 31.4893C94.5641 31.5978 94.833 31.6701 95.102 31.6701C96.1392 31.6701 96.9843 30.9106 97.0995 29.9703H127.87C127.909 30.1511 127.947 30.332 128.024 30.5128C128.331 31.2 129.023 31.6701 129.868 31.6701C130.175 31.6701 130.444 31.5978 130.675 31.4893L146.041 56.5888C145.541 56.9143 145.196 57.4929 145.196 58.1078C145.196 58.3609 145.234 58.6141 145.349 58.8311C145.503 59.1566 145.734 59.4098 146.002 59.6268L130.598 84.7262C130.329 84.6177 130.06 84.5454 129.791 84.5454C128.754 84.5454 127.909 85.3049 127.794 86.2452H97.0227C96.9075 85.3049 96.0623 84.5454 95.0251 84.5454C94.7178 84.5454 94.4489 84.6177 94.2184 84.7262L78.929 59.6629C79.4284 59.3374 79.7742 58.7588 79.7742 58.1439C79.7742 57.6376 79.5437 57.1674 79.1979 56.8058C79.1211 56.7334 79.0443 56.6611 78.9674 56.6249L94.2952 31.4893ZM-25.369 59.6629C-24.8696 59.3374 -24.5239 58.7588 -24.5239 58.1439C-24.5239 57.5291 -24.8696 56.9504 -25.369 56.6249L-9.96443 31.5254C-9.69553 31.6339 -9.42659 31.7063 -9.15768 31.7063C-8.12047 31.7063 -7.27533 30.9468 -7.16008 30.0065H23.6107C23.726 30.9468 24.5711 31.7063 25.6083 31.7063C25.9156 31.7063 26.1846 31.6339 26.415 31.5254L41.8197 56.6249C41.3203 56.9504 40.9745 57.5291 40.9745 58.1439C40.9745 58.7226 41.2434 59.2651 41.7044 59.5906C41.7428 59.6268 41.7812 59.6268 41.8197 59.6629L26.415 84.7624C26.1461 84.6539 25.8773 84.5816 25.6083 84.5816C24.5711 84.5816 23.726 85.3411 23.6107 86.2814H-7.16008C-7.27533 85.3411 -8.12047 84.5816 -9.15768 84.5816C-9.46501 84.5816 -9.73393 84.6539 -9.96443 84.7624L-25.369 59.6629ZM-10.0028 88.1982C-9.73392 88.3067 -9.46503 88.3791 -9.19612 88.3791C-8.15891 88.3791 -7.31375 87.6196 -7.1985 86.6792H23.6107C23.6491 87.1132 23.8796 87.5111 24.187 87.8366C24.5327 88.1621 25.0321 88.3791 25.6083 88.3791C25.9156 88.3791 26.1846 88.3067 26.415 88.1982L41.8197 113.298C41.3203 113.623 40.9745 114.202 40.9745 114.817C40.9745 115.287 41.1282 115.685 41.4355 116.01C41.5508 116.119 41.666 116.227 41.8197 116.336L26.415 141.435C26.1461 141.327 25.8773 141.254 25.6083 141.254C24.7248 141.254 23.9565 141.833 23.6876 142.592C23.6491 142.701 23.6107 142.846 23.6107 142.954H-7.16008C-7.27533 142.014 -8.12047 141.254 -9.15768 141.254C-9.46501 141.254 -9.73393 141.327 -9.96443 141.435L-25.369 116.336C-25.0233 116.083 -24.7544 115.757 -24.6391 115.359C-24.5623 115.178 -24.5623 114.998 -24.5623 114.781C-24.5623 114.166 -24.908 113.587 -25.4074 113.262L-10.0028 88.1982ZM-62.1327 116.553C-61.8638 116.661 -61.5949 116.734 -61.3259 116.734C-60.2887 116.734 -59.4436 115.974 -59.3283 115.034H-28.5575C-28.4423 115.974 -27.5971 116.734 -26.5599 116.734C-26.2526 116.734 -25.9837 116.661 -25.7532 116.553L-10.3486 141.652C-10.6559 141.869 -10.8864 142.122 -11.0401 142.448C-11.1553 142.665 -11.1937 142.918 -11.1937 143.171C-11.1937 143.75 -10.9248 144.292 -10.4638 144.618C-10.4254 144.654 -10.387 144.654 -10.3486 144.69L-25.7532 169.79C-26.0221 169.681 -26.291 169.609 -26.5599 169.609C-27.5971 169.609 -28.4423 170.368 -28.5575 171.309H-59.3283C-59.4436 170.368 -60.2887 169.609 -61.3259 169.609C-61.6333 169.609 -61.9022 169.681 -62.1327 169.79L-77.5373 144.69C-77.0379 144.365 -76.6921 143.786 -76.6921 143.171C-76.6921 142.665 -76.9226 142.195 -77.2684 141.833C-77.3452 141.761 -77.422 141.688 -77.4989 141.652L-62.1327 116.553ZM-181.835 144.726C-181.336 144.401 -180.99 143.822 -180.99 143.207C-180.99 142.592 -181.336 142.014 -181.835 141.688L-166.431 116.589C-166.162 116.697 -165.893 116.77 -165.624 116.77C-164.587 116.77 -163.742 116.01 -163.626 115.07H-132.856C-132.74 116.01 -131.895 116.77 -130.858 116.77C-130.551 116.77 -130.282 116.697 -130.051 116.589L-114.647 141.688C-115.146 142.014 -115.492 142.592 -115.492 143.207C-115.492 143.786 -115.223 144.328 -114.762 144.654C-114.723 144.69 -114.685 144.69 -114.647 144.726L-130.051 169.79C-130.32 169.681 -130.589 169.609 -130.858 169.609C-131.895 169.609 -132.74 170.368 -132.856 171.309H-163.626C-163.742 170.368 -164.587 169.609 -165.624 169.609C-165.931 169.609 -166.2 169.681 -166.431 169.79L-181.835 144.726ZM-181.835 201.399C-181.336 201.074 -180.99 200.495 -180.99 199.88C-180.99 199.265 -181.336 198.687 -181.835 198.361L-166.431 173.262C-166.162 173.37 -165.893 173.442 -165.624 173.442C-164.587 173.442 -163.742 172.683 -163.626 171.743H-132.856C-132.817 172.177 -132.587 172.574 -132.279 172.9C-131.934 173.225 -131.396 173.442 -130.858 173.442C-130.551 173.442 -130.282 173.37 -130.051 173.262L-114.647 198.361C-115.146 198.687 -115.492 199.265 -115.492 199.88C-115.492 200.35 -115.338 200.748 -115.031 201.074C-114.916 201.182 -114.8 201.291 -114.647 201.399L-130.051 226.499C-130.32 226.39 -130.589 226.318 -130.858 226.318C-131.895 226.318 -132.74 227.077 -132.856 228.018H-163.626C-163.742 227.077 -164.587 226.318 -165.624 226.318C-165.931 226.318 -166.2 226.39 -166.431 226.499L-181.835 201.399ZM-129.706 229.754C-129.206 229.428 -128.86 228.849 -128.86 228.235C-128.86 227.62 -129.206 227.041 -129.706 226.716L-114.301 201.616C-114.032 201.725 -113.763 201.797 -113.494 201.797C-112.457 201.797 -111.612 201.037 -111.497 200.097H-80.7258C-80.6105 201.037 -79.7654 201.797 -78.7282 201.797C-78.4208 201.797 -78.1519 201.725 -77.9214 201.616L-62.5168 226.716C-63.0162 227.041 -63.362 227.62 -63.362 228.235C-63.362 228.813 -63.0931 229.356 -62.6321 229.681C-62.5937 229.717 -62.5553 229.717 -62.5168 229.754L-77.9214 254.853C-78.1903 254.745 -78.4593 254.672 -78.7282 254.672C-79.7654 254.672 -80.6105 255.432 -80.7258 256.372H-111.497C-111.612 255.432 -112.457 254.672 -113.494 254.672C-113.802 254.672 -114.07 254.745 -114.301 254.853L-129.706 229.754ZM-114.301 258.289C-114.032 258.397 -113.763 258.47 -113.494 258.47C-112.457 258.47 -111.612 257.71 -111.497 256.77H-80.7258C-80.6874 257.204 -80.4569 257.602 -80.1495 257.927C-79.8038 258.253 -79.266 258.47 -78.7282 258.47C-78.4208 258.47 -78.1519 258.397 -77.9214 258.289L-62.5168 283.388C-63.0162 283.714 -63.362 284.293 -63.362 284.907C-63.362 285.378 -63.2083 285.775 -62.901 286.101C-62.7857 286.209 -62.6705 286.318 -62.5168 286.426L-77.883 311.49C-78.1135 311.381 -78.4208 311.309 -78.6897 311.309C-79.1123 311.309 -79.4965 311.417 -79.8038 311.634C-80.3032 311.924 -80.6105 312.43 -80.6873 313.009H-111.458C-111.497 312.575 -111.727 312.177 -112.034 311.851C-112.38 311.526 -112.918 311.309 -113.456 311.309C-113.763 311.309 -114.032 311.381 -114.262 311.49L-129.667 286.426C-129.168 286.101 -128.822 285.522 -128.822 284.907C-128.822 284.256 -129.168 283.714 -129.667 283.388L-114.301 258.289ZM-166.431 286.607C-166.162 286.716 -165.893 286.788 -165.624 286.788C-164.587 286.788 -163.742 286.029 -163.626 285.088H-132.856C-132.74 286.029 -131.895 286.788 -130.858 286.788C-130.551 286.788 -130.282 286.716 -130.051 286.607L-114.647 311.707C-115.146 312.032 -115.492 312.611 -115.492 313.226C-115.492 313.877 -115.146 314.419 -114.647 314.745L-130.013 339.808C-130.282 339.699 -130.551 339.627 -130.82 339.627C-131.857 339.627 -132.702 340.387 -132.817 341.327H-163.588C-163.703 340.387 -164.548 339.627 -165.586 339.627C-165.893 339.627 -166.162 339.699 -166.392 339.808L-181.797 314.708C-181.298 314.383 -180.952 313.804 -180.952 313.189C-180.952 313.117 -180.952 313.045 -180.952 313.009C-181.029 312.466 -181.336 311.996 -181.759 311.671L-166.431 286.607ZM-233.965 343.135C-233.466 342.81 -233.12 342.231 -233.12 341.616C-233.12 341.001 -233.466 340.423 -233.965 340.097L-218.561 314.998C-218.292 315.106 -218.023 315.179 -217.754 315.179C-216.717 315.179 -215.871 314.419 -215.756 313.479H-184.985C-184.87 314.419 -184.025 315.179 -182.988 315.179C-182.68 315.179 -182.412 315.106 -182.181 314.998L-166.776 340.097C-167.237 340.423 -167.545 340.893 -167.583 341.435C-167.583 341.508 -167.583 341.58 -167.583 341.616C-167.583 342.231 -167.237 342.81 -166.738 343.135L-182.143 368.235C-182.412 368.126 -182.68 368.054 -182.949 368.054C-183.987 368.054 -184.832 368.813 -184.947 369.754H-215.718C-215.833 368.813 -216.678 368.054 -217.715 368.054C-218.023 368.054 -218.292 368.126 -218.522 368.235L-233.965 343.135ZM-181.835 371.454C-181.336 371.128 -180.99 370.549 -180.99 369.935C-180.99 369.32 -181.336 368.741 -181.835 368.416L-166.431 343.316C-166.162 343.425 -165.893 343.497 -165.624 343.497C-164.587 343.497 -163.742 342.737 -163.626 341.797H-132.856C-132.817 342.231 -132.587 342.629 -132.279 342.954C-131.934 343.28 -131.396 343.497 -130.858 343.497C-130.551 343.497 -130.282 343.425 -130.051 343.316L-114.647 368.416C-115.146 368.741 -115.492 369.32 -115.492 369.935C-115.492 370.405 -115.338 370.803 -115.031 371.128C-114.916 371.237 -114.8 371.345 -114.647 371.454L-130.051 396.553C-130.32 396.445 -130.589 396.372 -130.858 396.372C-131.895 396.372 -132.74 397.132 -132.856 398.072H-163.626C-163.742 397.132 -164.587 396.372 -165.624 396.372C-165.931 396.372 -166.2 396.445 -166.431 396.553L-181.835 371.454ZM-129.667 399.808C-129.168 399.483 -128.822 398.904 -128.822 398.289C-128.822 397.674 -129.168 397.096 -129.667 396.77L-114.262 371.671C-113.994 371.779 -113.725 371.851 -113.456 371.851C-112.419 371.851 -111.573 371.092 -111.458 370.152H-80.6873C-80.5721 371.092 -79.727 371.851 -78.6897 371.851C-78.3824 371.851 -78.1135 371.779 -77.883 371.671L-62.4784 396.77C-62.9778 397.096 -63.3235 397.674 -63.3235 398.289C-63.3235 398.868 -63.0546 399.41 -62.5937 399.736C-62.5552 399.772 -62.5168 399.772 -62.4784 399.808L-77.883 424.908C-78.1519 424.799 -78.4208 424.727 -78.6897 424.727C-79.727 424.727 -80.5721 425.486 -80.6873 426.427H-111.458C-111.573 425.486 -112.419 424.727 -113.456 424.727C-113.763 424.727 -114.032 424.799 -114.262 424.908L-129.667 399.808ZM-77.883 481.616C-78.1519 481.508 -78.4208 481.436 -78.6897 481.436C-79.727 481.436 -80.5721 482.195 -80.6873 483.135H-111.458C-111.573 482.195 -112.419 481.436 -113.456 481.436C-113.763 481.436 -114.032 481.508 -114.262 481.616L-129.667 456.517C-129.168 456.192 -128.822 455.613 -128.822 454.998C-128.822 454.383 -129.168 453.805 -129.667 453.479L-114.262 428.38C-113.994 428.488 -113.725 428.56 -113.456 428.56C-112.419 428.56 -111.573 427.801 -111.458 426.861H-80.6873C-80.6489 427.295 -80.4184 427.692 -80.1111 428.018C-79.7654 428.343 -79.2276 428.56 -78.6897 428.56C-78.3824 428.56 -78.1135 428.488 -77.883 428.38L-62.4784 453.479C-62.9778 453.805 -63.3235 454.383 -63.3235 454.998C-63.3235 455.468 -63.1699 455.866 -62.8626 456.192C-62.7473 456.3 -62.6321 456.409 -62.4784 456.517L-77.883 481.616ZM-25.369 456.517C-24.8696 456.192 -24.5239 455.613 -24.5239 454.998C-24.5239 454.745 -24.5623 454.492 -24.6776 454.275C-24.8312 453.949 -25.0617 453.696 -25.369 453.479L-9.96443 428.38C-9.69553 428.488 -9.42659 428.56 -9.15768 428.56C-8.12047 428.56 -7.27533 427.801 -7.16008 426.861H23.6107C23.726 427.801 24.5711 428.56 25.6083 428.56C25.6852 428.56 25.762 428.56 25.8004 428.56C26.0309 428.524 26.223 428.488 26.415 428.416L41.8197 453.515C41.3203 453.841 40.9745 454.419 40.9745 455.034C40.9745 455.504 41.1282 455.902 41.4355 456.228C41.5508 456.336 41.666 456.445 41.8197 456.553L26.415 481.653C26.1461 481.544 25.8773 481.472 25.6083 481.472C24.5711 481.472 23.726 482.231 23.6107 483.172H-7.16008C-7.27533 482.231 -8.12047 481.472 -9.15768 481.472C-9.46501 481.472 -9.73393 481.544 -9.96443 481.653L-25.369 456.517ZM26.7608 484.835C27.2602 484.51 27.606 483.931 27.606 483.316C27.606 482.702 27.2602 482.123 26.7608 481.797L42.1654 456.698C42.4343 456.806 42.7032 456.879 42.9721 456.879C44.0094 456.879 44.8545 456.119 44.9697 455.179H75.7406C75.8174 456.083 76.5857 456.77 77.5461 456.879C77.6229 456.879 77.6997 456.879 77.7382 456.879C77.815 456.879 77.8918 456.879 77.9302 456.879C78.1607 456.843 78.3528 456.806 78.5449 456.734L93.9495 481.834C93.4501 482.159 93.1044 482.738 93.1044 483.352C93.1044 483.931 93.3733 484.474 93.8343 484.799C93.8727 484.835 93.9111 484.835 93.9495 484.871L78.5449 509.971C78.276 509.862 78.0071 509.79 77.7382 509.79C76.701 509.79 75.8558 510.55 75.7406 511.49H44.9697C44.8545 510.55 44.0094 509.79 42.9721 509.79C42.6648 509.79 42.3959 509.862 42.1654 509.971L26.7608 484.835ZM26.7608 541.544C27.2602 541.219 27.606 540.64 27.606 540.025C27.606 539.41 27.2602 538.832 26.7608 538.506L42.1654 513.407C42.4343 513.515 42.7032 513.588 42.9721 513.588C44.0094 513.588 44.8545 512.828 44.9697 511.888H75.7406C75.779 512.213 75.8942 512.539 76.0863 512.792C76.432 513.262 77.0467 513.588 77.7382 513.588C78.0455 513.588 78.3144 513.515 78.5449 513.407L93.9495 538.506C93.4501 538.832 93.1044 539.41 93.1044 540.025C93.1044 540.495 93.258 540.893 93.5653 541.219C93.6806 541.327 93.7958 541.436 93.9495 541.544L78.5449 566.644C78.276 566.535 78.0071 566.463 77.7382 566.463C76.701 566.463 75.8558 567.222 75.7406 568.163H44.9697C44.8545 567.222 44.0094 566.463 42.9721 566.463C42.6648 566.463 42.3959 566.535 42.1654 566.644L26.7608 541.544ZM78.929 569.899C79.4284 569.573 79.7742 568.995 79.7742 568.38C79.7742 567.765 79.4284 567.186 78.929 566.861L94.3336 541.761C94.6025 541.87 94.8715 541.942 95.1404 541.942C96.1776 541.942 97.0227 541.183 97.138 540.242H127.909C128.024 541.183 128.869 541.942 129.906 541.942C130.214 541.942 130.483 541.87 130.713 541.761L146.118 566.861C145.618 567.186 145.273 567.765 145.273 568.38C145.273 568.995 145.618 569.573 146.118 569.899L130.713 594.998C130.444 594.89 130.175 594.817 129.906 594.817C128.869 594.817 128.024 595.577 127.909 596.517H97.138C97.0227 595.577 96.1776 594.817 95.1404 594.817C94.8331 594.817 94.5641 594.89 94.3336 594.998L78.929 569.899Z" fill="#CFD8E9" fill-opacity="0.85"/>
</svg>
