<svg width="39" height="38" viewBox="0 0 39 38" fill="none" xmlns="http://www.w3.org/2000/svg">
<path d="M19.4999 0C15.7639 0 12.1118 1.10785 9.00545 3.18347C5.89907 5.25908 3.47795 8.20923 2.04824 11.6608C0.618536 15.1125 0.24446 18.9105 0.973318 22.5747C1.70218 26.239 3.50123 29.6048 6.14299 32.2465C8.78474 34.8883 12.1505 36.6873 15.8148 37.4162C19.479 38.145 23.277 37.771 26.7287 36.3413C30.1803 34.9115 33.1304 32.4904 35.206 29.3841C37.2816 26.2777 38.3895 22.6256 38.3895 18.8896C38.3895 13.8797 36.3994 9.07511 32.8569 5.53263C29.3144 1.99015 24.5098 0 19.4999 0ZM14.007 28.8314H9.88613V15.5566H14.007V28.8314ZM11.9441 13.7446C11.4698 13.7466 11.0056 13.6079 10.6102 13.3461C10.2147 13.0843 9.90576 12.7111 9.72234 12.2738C9.53893 11.8364 9.48929 11.3545 9.57971 10.8889C9.67012 10.4234 9.89654 9.99505 10.2303 9.65813C10.5641 9.32122 10.9903 9.09082 11.455 8.99607C11.9197 8.90131 12.4021 8.94646 12.8411 9.12579C13.2802 9.30512 13.6562 9.6106 13.9217 10.0036C14.1872 10.3966 14.3302 10.8595 14.3326 11.3337C14.334 11.9697 14.0835 12.5803 13.6359 13.0321C13.1883 13.4839 12.58 13.74 11.9441 13.7446ZM29.4418 28.8314H25.3234V22.3692C25.3234 20.8282 25.2936 18.8523 23.1809 18.8523C21.0683 18.8523 20.6954 20.5275 20.6954 22.2574V28.8314H16.5919V15.5566H20.5463V17.366H20.6035C21.1528 16.3221 22.4974 15.221 24.5032 15.221C28.6738 15.221 29.4418 17.9699 29.4418 21.5391V28.8314Z" fill="#188C99"/>
</svg>
