<svg width="63" height="64" viewBox="0 0 63 64" fill="none" xmlns="http://www.w3.org/2000/svg">
<g clip-path="url(#clip0_1_1754)">
<path d="M31.6207 5.42252C30.9403 5.4176 30.3853 5.96516 30.3804 6.64438C30.3755 7.3236 30.9218 7.87854 31.6023 7.88346C32.2815 7.88838 32.8364 7.34205 32.8413 6.66283C32.8463 5.98361 32.2999 5.42867 31.6207 5.42252Z" fill="#10D0A1"/>
<path d="M31.5647 12.8052C26.8138 12.7715 22.9229 16.6043 22.887 21.3538C22.8512 26.103 26.686 29.9958 31.4355 30.0316C31.4576 30.0317 31.4795 30.0318 31.5015 30.0318C36.2207 30.0318 40.0776 26.2105 40.1133 21.483C40.1491 16.734 36.3144 12.841 31.5647 12.8052ZM31.5013 27.571C31.4857 27.571 31.4695 27.5709 31.454 27.5707C28.0615 27.5452 25.3222 24.7645 25.3478 21.3722C25.3733 17.9952 28.128 15.2658 31.499 15.2658C31.5145 15.2658 31.5308 15.2659 31.5463 15.266C34.9388 15.2916 37.6781 18.0722 37.6525 21.4645C37.6269 24.8416 34.8722 27.571 31.5013 27.571Z" fill="#10D0A1"/>
<path d="M36.8685 6.35569C36.2284 6.12854 35.5247 6.46384 35.2976 7.10443C35.0706 7.74501 35.4059 8.44823 36.0463 8.67537C41.4662 10.5963 45.0782 15.7582 45.0349 21.5201C45.0299 22.1996 45.5766 22.7547 46.2562 22.7598C46.2592 22.7598 46.2624 22.7598 46.2656 22.7598C46.9407 22.7598 47.4907 22.215 47.4959 21.5386C47.547 14.7283 43.2762 8.62677 36.8685 6.35569Z" fill="#10D0A1"/>
<path d="M39.0498 46.8201C47.234 36.2854 52.3487 30.792 52.4178 21.5753C52.5044 9.97894 43.0935 0.5 31.498 0.5C20.0379 0.5 10.6694 9.7812 10.5822 21.2615C10.5119 30.7281 15.7216 36.2141 23.9623 46.8184C15.7643 48.0434 10.5822 51.1217 10.5822 54.8868C10.5822 57.4089 12.9135 59.6721 17.1467 61.2594C20.9997 62.7043 26.0971 63.5 31.5 63.5C36.9029 63.5 42.0004 62.7043 45.8533 61.2594C50.0865 59.672 52.4178 57.4088 52.4178 54.8867C52.4178 51.1237 47.2406 48.0461 39.0498 46.8201ZM13.0431 21.2801C13.1198 11.1497 21.3855 2.96094 31.4983 2.96094C41.7308 2.96094 50.0332 11.3267 49.957 21.5569C49.8915 30.3098 44.4673 35.7038 35.8076 46.9925C34.263 49.005 32.8445 50.9079 31.5019 52.7692C30.1631 50.9067 28.7729 49.038 27.2052 46.9918C18.1875 35.2304 12.9764 30.2441 13.0431 21.2801ZM31.5 61.0392C20.9363 61.0392 13.0431 57.7911 13.0431 54.8868C13.0431 52.733 17.7617 50.0122 25.6955 49.07C27.4493 51.3711 28.9869 53.4617 30.495 55.5968C30.7253 55.9229 31.0996 56.1171 31.4989 56.1173C31.4993 56.1173 31.4996 56.1173 31.5 56.1173C31.8989 56.1173 32.2731 55.9239 32.5038 55.5984C33.9976 53.4911 35.5773 51.349 37.3161 49.0714C45.2425 50.0145 49.957 52.7345 49.957 54.8869C49.9568 57.7911 42.0637 61.0392 31.5 61.0392Z" fill="black"/>
</g>
<defs>
<clipPath id="clip0_1_1754">
<rect width="63" height="63" fill="white" transform="translate(0 0.5)"/>
</clipPath>
</defs>
</svg>
