<svg width="58" height="59" viewBox="0 0 58 59" fill="none" xmlns="http://www.w3.org/2000/svg">
<g clip-path="url(#clip0_1_1773)">
<path d="M25.1738 50.0039H18.377C16.9716 50.0039 15.8281 51.1473 15.8281 52.5527C15.8281 53.9582 16.9716 55.1016 18.377 55.1016H25.1738C26.5792 55.1016 27.7227 53.9582 27.7227 52.5527C27.7227 51.1473 26.5792 50.0039 25.1738 50.0039ZM25.1738 53.4023H18.377C17.9084 53.4023 17.5273 53.0213 17.5273 52.5527C17.5273 52.0842 17.9084 51.7031 18.377 51.7031H25.1738C25.6424 51.7031 26.0234 52.0842 26.0234 52.5527C26.0234 53.0213 25.6422 53.4023 25.1738 53.4023Z" fill="black"/>
<path d="M54.0625 7.29688H40.4688V4.74805C40.4688 2.40562 38.5631 0.5 36.2207 0.5H7.33398C4.99155 0.5 3.08594 2.40562 3.08594 4.74805V54.252C3.08594 56.5944 4.99155 58.5 7.33398 58.5H36.2207C38.5631 58.5 40.4688 56.5944 40.4688 54.252V32.7852H54.0625C54.5318 32.7852 54.9121 32.4048 54.9121 31.9355V8.14648C54.9121 7.67727 54.5318 7.29688 54.0625 7.29688ZM19.2285 31.0859C19.2285 30.2955 19.6039 29.5376 20.2326 29.0585L30.6662 21.1093L33.646 23.3796C34.4039 23.957 35.3122 24.2458 36.2206 24.2458C37.1289 24.2458 38.0372 23.957 38.7951 23.3796L41.7752 21.1091L52.2089 29.0587C52.8377 29.5376 53.213 30.2956 53.213 31.0861H19.2285V31.0859ZM19.2285 12.3949L29.2643 20.0411L19.2285 27.6875V12.3949ZM43.177 20.041L53.2129 12.3945V27.6874L43.177 20.041ZM52.2087 11.0235L37.7653 22.028C36.8556 22.7209 35.5854 22.7209 34.6758 22.028L20.2324 11.0235C19.6057 10.546 19.231 9.79133 19.2286 9.00357V8.99609H53.2128C53.2128 9.78657 52.8374 10.5444 52.2087 11.0235ZM38.7695 54.252C38.7695 55.6574 37.6261 56.8008 36.2207 56.8008H7.33398C5.92862 56.8008 4.78516 55.6574 4.78516 54.252V4.74805C4.78516 3.34257 5.92862 2.19922 7.33398 2.19922H36.2207C37.6261 2.19922 38.7695 3.34257 38.7695 4.74805V7.29688H37.0703V4.74805C37.0703 4.27884 36.69 3.89844 36.2207 3.89844H7.33398C6.86466 3.89844 6.48438 4.27884 6.48438 4.74805V30.2363C6.48438 30.7055 6.86466 31.0859 7.33398 31.0859C7.80331 31.0859 8.18359 30.7055 8.18359 30.2363V5.59766H35.3711V7.29688H18.3789C17.9096 7.29688 17.5293 7.67727 17.5293 8.14648V31.9355C17.5293 32.4048 17.9096 32.7852 18.3789 32.7852H35.3711V46.6055H8.18359V33.6348C8.18359 33.1656 7.80331 32.7852 7.33398 32.7852C6.86466 32.7852 6.48438 33.1656 6.48438 33.6348V47.4551C6.48438 47.9243 6.86466 48.3047 7.33398 48.3047H36.2207C36.69 48.3047 37.0703 47.9243 37.0703 47.4551V32.7852H38.7695V54.252Z" fill="black"/>
<path d="M53 31H19V30V9H53V31Z" stroke="#10D0A1" stroke-width="2"/>
</g>
<defs>
<clipPath id="clip0_1_1773">
<rect width="58" height="58" fill="white" transform="translate(0 0.5)"/>
</clipPath>
</defs>
</svg>
