<svg width="36" height="37" viewBox="0 0 36 37" fill="none" xmlns="http://www.w3.org/2000/svg">
<path d="M11.4404 2.44629H12.6636V3.66943H11.4404V2.44629Z" fill="white"/>
<path d="M13.8867 2.44629H18.7793V3.66943H13.8867V2.44629Z" fill="white"/>
<path d="M17.5564 24.4629H15.1101C14.6235 24.4629 14.1568 24.6562 13.8128 25.0003C13.4687 25.3443 13.2754 25.811 13.2754 26.2976C13.2754 26.7842 13.4687 27.2509 13.8128 27.5949C14.1568 27.939 14.6235 28.1323 15.1101 28.1323H17.5564C18.043 28.1323 18.5096 27.939 18.8537 27.5949C19.1978 27.2509 19.3911 26.7842 19.3911 26.2976C19.3911 25.811 19.1978 25.3443 18.8537 25.0003C18.5096 24.6562 18.043 24.4629 17.5564 24.4629ZM17.5564 26.9092H15.1101C14.9479 26.9092 14.7923 26.8447 14.6777 26.73C14.563 26.6154 14.4985 26.4598 14.4985 26.2976C14.4985 26.1354 14.563 25.9798 14.6777 25.8652C14.7923 25.7505 14.9479 25.686 15.1101 25.686H17.5564C17.7186 25.686 17.8741 25.7505 17.9888 25.8652C18.1035 25.9798 18.168 26.1354 18.168 26.2976C18.168 26.4598 18.1035 26.6154 17.9888 26.73C17.8741 26.8447 17.7186 26.9092 17.5564 26.9092Z" fill="white"/>
<path d="M1.65552 15.9007H2.87866V8.81506L3.66942 9.60583L4.53418 8.74106L2.69947 6.90635C2.58478 6.7917 2.42926 6.72729 2.26709 6.72729C2.10492 6.72729 1.9494 6.7917 1.83471 6.90635L0 8.74106L0.86476 9.60583L1.65552 8.81506V15.9007Z" fill="white"/>
<path d="M29.7883 8.81506V15.9007H31.0115V8.81506L31.8022 9.60583L32.667 8.74106L30.8323 6.90635C30.7176 6.7917 30.5621 6.72729 30.3999 6.72729C30.2377 6.72729 30.0822 6.7917 29.9675 6.90635L28.1328 8.74106L28.9976 9.60583L29.7883 8.81506Z" fill="white"/>
<path d="M33.4579 26.9091C32.8821 26.9068 32.3246 27.1107 31.8862 27.484C31.6681 27.1224 31.3605 26.8233 30.993 26.6155C30.6256 26.4076 30.2107 26.2981 29.7885 26.2975C29.2127 26.2952 28.6551 26.4991 28.2167 26.8724C27.8864 26.3221 27.3524 25.9244 26.7306 25.7655V4.28099C26.7293 3.146 26.2779 2.05786 25.4753 1.2553C24.6728 0.452743 23.5846 0.00129492 22.4496 0H10.2182C9.08324 0.00129492 7.99511 0.452743 7.19255 1.2553C6.38998 2.05786 5.93854 3.146 5.93724 4.28099V15.4727C5.54847 15.6546 5.23499 15.9659 5.05047 16.3534L2.27394 22.3774C1.86891 23.26 1.65826 24.2194 1.65625 25.1906V36.6942H2.87939V25.1906C2.88145 24.3965 3.05458 23.6122 3.38699 22.8911L5.93724 17.3564V26.2975C5.93809 26.7964 6.02711 27.2913 6.20022 27.7592L5.59476 28.805L6.65278 29.4165L10.3222 23.0623C10.4017 22.9226 10.508 22.7998 10.635 22.7012C10.7619 22.6026 10.9071 22.5299 11.0622 22.4874C11.3763 22.4071 11.7092 22.4509 11.9918 22.6098C12.2727 22.7732 12.4774 23.0413 12.5611 23.3554C12.6448 23.6695 12.6006 24.0039 12.4382 24.2855L9.68617 29.0496C9.633 29.1452 9.6056 29.2529 9.60667 29.3623C9.60775 29.4717 9.63725 29.5789 9.69228 29.6734L11.001 31.8506C11.2879 32.3248 11.4401 32.8681 11.4414 33.4223V36.6881H12.6645V33.4223C12.6631 32.6467 12.4518 31.8859 12.0529 31.2207L11.6677 30.5785H15.441C15.2746 31.2063 15.3625 31.8743 15.6857 32.4377L18.3215 37L19.3796 36.3884L16.7437 31.8261C16.6211 31.6165 16.5637 31.3752 16.5787 31.1328C16.5937 30.8904 16.6806 30.658 16.8282 30.4652C16.9757 30.2724 17.1774 30.1278 17.4074 30.05C17.6374 29.9721 17.8854 29.9645 18.1197 30.0281C18.2756 30.0687 18.4216 30.1406 18.5488 30.2395C18.676 30.3383 18.7818 30.462 18.8597 30.603L20.0829 32.719C20.1516 32.8351 20.2561 32.9258 20.3806 32.9776C20.5052 33.0294 20.6432 33.0395 20.7739 33.0064C20.9043 32.9714 21.0193 32.8941 21.1012 32.7868C21.183 32.6795 21.2271 32.5482 21.2265 32.4132V20.7934C21.2265 20.469 21.3554 20.1579 21.5847 19.9285C21.8141 19.6991 22.1252 19.5702 22.4496 19.5702C22.774 19.5702 23.0851 19.6991 23.3145 19.9285C23.5439 20.1579 23.6728 20.469 23.6728 20.7934V30.5785C23.6728 30.7407 23.7372 30.8963 23.8519 31.011C23.9666 31.1257 24.1222 31.1901 24.2844 31.1901C24.4466 31.1901 24.6021 31.1257 24.7168 31.011C24.8315 30.8963 24.8959 30.7407 24.8959 30.5785V28.1322C24.8959 27.8078 25.0248 27.4967 25.2542 27.2673C25.4836 27.038 25.7947 26.9091 26.1191 26.9091C26.4435 26.9091 26.7546 27.038 26.984 27.2673C27.2133 27.4967 27.3422 27.8078 27.3422 28.1322V30.5785C27.3422 30.7407 27.4066 30.8963 27.5213 31.011C27.636 31.1257 27.7916 31.1901 27.9538 31.1901C28.116 31.1901 28.2715 31.1257 28.3862 31.011C28.5009 30.8963 28.5653 30.7407 28.5653 30.5785V28.7438C28.5653 28.4194 28.6942 28.1083 28.9236 27.8789C29.153 27.6495 29.4641 27.5207 29.7885 27.5207C30.1129 27.5207 30.424 27.6495 30.6534 27.8789C30.8828 28.1083 31.0116 28.4194 31.0116 28.7438V30.5785C31.0116 30.7407 31.0761 30.8963 31.1907 31.011C31.3054 31.1257 31.461 31.1901 31.6232 31.1901C31.7854 31.1901 31.9409 31.1257 32.0556 31.011C32.1703 30.8963 32.2348 30.7407 32.2348 30.5785V29.3554C32.2348 29.031 32.3636 28.7199 32.593 28.4905C32.8224 28.2611 33.1335 28.1322 33.4579 28.1322C33.7823 28.1322 34.0934 28.2611 34.3228 28.4905C34.5522 28.7199 34.681 29.031 34.681 29.3554V36.6942H35.9042V29.3554C35.9042 28.7066 35.6465 28.0844 35.1877 27.6256C34.7289 27.1668 34.1067 26.9091 33.4579 26.9091ZM25.5075 25.7655C25.2932 25.8208 25.0874 25.9052 24.8959 26.0162V20.7934C24.8959 20.1446 24.6382 19.5224 24.1794 19.0636C23.7207 18.6048 23.0984 18.3471 22.4496 18.3471C21.8008 18.3471 21.1786 18.6048 20.7199 19.0636C20.2611 19.5224 20.0034 20.1446 20.0034 20.7934V29.3554H19.3857C19.1103 29.1194 18.7868 28.9461 18.4377 28.8478C17.81 28.6817 17.142 28.7696 16.5786 29.0924C16.451 29.1695 16.3302 29.2575 16.2177 29.3554H10.9338L10.9277 29.3493L13.5024 24.897C13.8268 24.335 13.9146 23.6671 13.7466 23.0403C13.5786 22.4136 13.1684 21.8792 12.6064 21.5548C12.0444 21.2304 11.3765 21.1425 10.7497 21.3106C10.123 21.4786 9.58858 21.8887 9.26418 22.4507L7.16038 26.0896V4.28099C7.16038 3.47 7.48255 2.69222 8.05601 2.11876C8.62947 1.54531 9.40724 1.22314 10.2182 1.22314H22.4496C23.2606 1.22314 24.0384 1.54531 24.6119 2.11876C25.1853 2.69222 25.5075 3.47 25.5075 4.28099V25.7655Z" fill="white"/>
<path d="M15.7214 11.6199H16.9446C17.1068 11.6199 17.2623 11.6843 17.377 11.799C17.4917 11.9137 17.5561 12.0692 17.5561 12.2314H18.7793C18.7793 11.7448 18.586 11.2782 18.2419 10.9341C17.8978 10.59 17.4312 10.3967 16.9446 10.3967V9.78516H15.7214V10.3967C15.2348 10.3967 14.7682 10.59 14.4241 10.9341C14.08 11.2782 13.8867 11.7448 13.8867 12.2314C13.8867 12.718 14.08 13.1847 14.4241 13.5288C14.7682 13.8728 15.2348 14.0661 15.7214 14.0661H16.9446C17.1068 14.0661 17.2623 14.1306 17.377 14.2453C17.4917 14.36 17.5561 14.5155 17.5561 14.6777C17.5561 14.8399 17.4917 14.9955 17.377 15.1102C17.2623 15.2249 17.1068 15.2893 16.9446 15.2893H15.7214C15.5592 15.2893 15.4037 15.2249 15.289 15.1102C15.1743 14.9955 15.1099 14.8399 15.1099 14.6777H13.8867C13.8867 15.1643 14.08 15.631 14.4241 15.9751C14.7682 16.3191 15.2348 16.5124 15.7214 16.5124V17.124H16.9446V16.5124C17.4312 16.5124 17.8978 16.3191 18.2419 15.9751C18.586 15.631 18.7793 15.1643 18.7793 14.6777C18.7793 14.1911 18.586 13.7245 18.2419 13.3804C17.8978 13.0363 17.4312 12.843 16.9446 12.843H15.7214C15.5592 12.843 15.4037 12.7786 15.289 12.6639C15.1743 12.5492 15.1099 12.3936 15.1099 12.2314C15.1099 12.0692 15.1743 11.9137 15.289 11.799C15.4037 11.6843 15.5592 11.6199 15.7214 11.6199Z" fill="white"/>
<path d="M16.3335 7.33887C15.1239 7.33887 13.9415 7.69755 12.9358 8.36955C11.9301 9.04155 11.1462 9.99669 10.6833 11.1142C10.2204 12.2317 10.0993 13.4614 10.3353 14.6477C10.5713 15.834 11.1537 16.9237 12.009 17.779C12.8643 18.6343 13.954 19.2168 15.1404 19.4528C16.3267 19.6887 17.5564 19.5676 18.6739 19.1047C19.7914 18.6419 20.7465 17.858 21.4185 16.8523C22.0905 15.8465 22.4492 14.6641 22.4492 13.4546C22.4474 11.8331 21.8025 10.2786 20.656 9.13208C19.5094 7.98555 17.9549 7.34065 16.3335 7.33887ZM16.3335 18.3471C15.3658 18.3471 14.4199 18.0602 13.6153 17.5226C12.8107 16.985 12.1836 16.2209 11.8133 15.3269C11.443 14.4329 11.3461 13.4491 11.5349 12.5001C11.7237 11.551 12.1897 10.6792 12.8739 9.99501C13.5582 9.31077 14.4299 8.8448 15.379 8.65602C16.3281 8.46724 17.3118 8.56412 18.2058 8.93443C19.0998 9.30474 19.8639 9.93183 20.4015 10.7364C20.9391 11.541 21.226 12.4869 21.226 13.4546C21.2246 14.7517 20.7087 15.9953 19.7914 16.9125C18.8742 17.8297 17.6306 18.3457 16.3335 18.3471Z" fill="white"/>
<path d="M29.7871 17.124H31.0102V18.3472H29.7871V17.124Z" fill="white"/>
<path d="M29.7871 19.5703H31.0102V20.7935H29.7871V19.5703Z" fill="white"/>
<path d="M1.65625 17.124H2.87939V18.3472H1.65625V17.124Z" fill="white"/>
</svg>
