<svg width="30" height="34" viewBox="0 0 30 34" fill="none" xmlns="http://www.w3.org/2000/svg">
<path d="M14.9414 0C9.99819 0 5.97656 4.02163 5.97656 8.96484C5.97656 13.9081 9.99819 17.9297 14.9414 17.9297C19.8846 17.9297 23.9062 13.9081 23.9062 8.96484C23.9062 4.02163 19.8846 0 14.9414 0ZM14.9414 15.9375C11.0967 15.9375 7.96875 12.8096 7.96875 8.96484C7.96875 5.12012 11.0967 1.99219 14.9414 1.99219C18.7861 1.99219 21.9141 5.12012 21.9141 8.96484C21.9141 12.8096 18.7861 15.9375 14.9414 15.9375Z" fill="white"/>
<path d="M26.0954 23.7864C23.641 21.2943 20.3873 19.9219 16.9336 19.9219H12.9492C9.49556 19.9219 6.24179 21.2943 3.78741 23.7864C1.34506 26.2663 0 29.5397 0 33.0039C0 33.554 0.445984 34 0.996094 34H28.8867C29.4368 34 29.8828 33.554 29.8828 33.0039C29.8828 29.5397 28.5378 26.2663 26.0954 23.7864ZM2.03602 32.0078C2.53506 26.3576 7.23901 21.9141 12.9492 21.9141H16.9336C22.6438 21.9141 27.3478 26.3576 27.8468 32.0078H2.03602Z" fill="white"/>
</svg>
