<svg width="186" height="187" viewBox="0 0 186 187" fill="none" xmlns="http://www.w3.org/2000/svg">
<g filter="url(#filter0_d_1_1539)">
<circle cx="92.7789" cy="89.7141" r="71.3912" fill="white"/>
</g>
<path d="M71.4404 132.836L69.4872 137.342L74.5492 139.536L76.5023 135.031L77.7999 135.593L73.4918 145.532L72.1943 144.969L74.0856 140.606L69.0237 138.412L67.1323 142.775L65.8348 142.212L70.1428 132.274L71.4404 132.836Z" fill="#274760"/>
<path d="M66.4583 129.726L61.5971 136.718L60.4359 135.911L65.2971 128.918L66.4583 129.726ZM60.2079 137.437C60.6545 137.748 60.7595 138.332 60.4491 138.778C60.1386 139.225 59.5545 139.33 59.1079 139.02C58.6868 138.727 58.5818 138.143 58.8923 137.696C59.2027 137.25 59.7868 137.145 60.2079 137.437Z" fill="#274760"/>
<path d="M58.6078 129.182C56.7046 131.037 54.2546 130.972 52.6602 129.336C51.5756 128.223 51.3511 126.879 51.6607 125.883L50.5477 126.968L49.5498 125.944L55.7826 119.87C57.4632 118.232 59.7496 118.196 61.4959 119.988C63.0578 121.59 63.3625 123.528 62.2555 124.998L61.2793 123.996C61.797 123.058 61.5928 121.846 60.6166 120.844C59.5645 119.765 58.0827 119.625 56.7805 120.894L55.5005 122.141C56.5151 121.869 57.8751 122.084 58.9598 123.197C60.5542 124.833 60.4999 127.338 58.6078 129.182ZM53.5862 124.007C52.1727 125.384 52.2596 127.166 53.3442 128.279C54.4289 129.392 56.1633 129.546 57.5991 128.147C59.0348 126.748 58.9588 124.977 57.8741 123.864C56.7895 122.751 55.0219 122.608 53.5862 124.007Z" fill="#274760"/>
<path d="M53.5498 116.885L43.6171 122.682L42.9043 121.46L46.5419 119.337C45.4814 119.308 44.5326 118.639 43.9295 117.605C42.9739 115.967 43.261 114.055 45.3684 112.825L49.7039 110.295L50.4088 111.503L46.2478 113.931C44.7445 114.808 44.4572 116.073 45.1779 117.308C45.9063 118.557 47.1861 118.961 48.77 118.037L52.837 115.664L53.5498 116.885Z" fill="#274760"/>
<path d="M40.6373 98.9989C43.2615 98.6929 44.7152 96.8023 44.4507 94.5332C44.1861 92.264 42.3364 90.7586 39.7122 91.0646C37.0726 91.3723 35.6343 93.2611 35.8989 95.5302C36.1635 97.7994 37.9977 99.3066 40.6373 98.9989ZM39.5449 89.629C41.6442 89.3842 43.4592 90.1896 44.5654 91.6252L46.95 88.5935L47.1623 90.415L45.2668 92.8108C45.4652 93.304 45.6053 93.8353 45.6701 94.391C46.0229 97.4165 44.0309 100.058 40.8047 100.434C37.5785 100.811 35.0322 98.698 34.6794 95.6724C34.3249 92.6315 36.3187 90.0051 39.5449 89.629Z" fill="#274760"/>
<path d="M38.0403 77.2527L46.4693 78.4701L46.2671 79.8698L45.0212 79.6899C45.8202 80.3549 46.1635 81.4565 46.0013 82.5794C45.7214 84.5174 44.3017 85.8669 41.8869 85.5181L36.9495 84.8049L37.1494 83.4206L41.9022 84.1071C43.6096 84.3537 44.6218 83.5421 44.8262 82.127C45.035 80.6811 44.2829 79.5833 42.4679 79.3211L37.8381 78.6524L38.0403 77.2527Z" fill="#274760"/>
<path d="M43.5693 73.2214C41.109 72.2167 40.1903 69.9446 41.054 67.8297C41.6533 66.3621 42.8127 65.6605 43.8208 65.535L42.3821 64.9475L42.9226 63.6238L50.807 66.8436L50.2664 68.1672L48.7989 67.5679C49.4539 68.3894 49.7849 69.7164 49.1915 71.1695C48.3336 73.2701 46.0152 74.2202 43.5693 73.2214ZM46.3099 66.5515C44.4826 65.8053 42.8839 66.5961 42.2964 68.0348C41.7088 69.4736 42.2597 71.1254 44.1157 71.8834C45.9717 72.6413 47.5645 71.8649 48.1521 70.4261C48.7396 68.9874 48.1659 67.3094 46.3099 66.5515Z" fill="#274760"/>
<path d="M53.012 63.5693L43.3831 57.2811L44.1564 56.097L53.7852 62.3852L53.012 63.5693Z" fill="#274760"/>
<path d="M56.9804 58.2317L50.5548 52.6423L51.483 51.5753L57.9086 57.1647L56.9804 58.2317ZM49.9906 51.1834C49.6336 51.5938 49.0417 51.635 48.6313 51.278C48.2209 50.9211 48.1797 50.3291 48.5367 49.9187C48.8732 49.5317 49.4652 49.4905 49.8756 49.8475C50.286 50.2045 50.3272 50.7965 49.9906 51.1834Z" fill="#274760"/>
<path d="M60.323 51.5341L57.0806 47.702L56.2383 48.4147L55.4854 47.5249L56.3278 46.8122L54.9425 45.1749L56.0221 44.2614L57.4074 45.8987L59.104 44.4632L59.8568 45.353L58.1603 46.7885L61.4026 50.6206C61.9447 51.2612 62.3727 51.2859 63.037 50.7238L63.8319 50.0512L64.6049 50.9647L63.632 51.7879C62.4812 52.7616 61.4272 52.8391 60.323 51.5341Z" fill="#274760"/>
<path d="M70.019 45.6692L69.0018 38.3508L70.2812 37.6456L71.8365 51.0912L70.5571 51.7964L70.0465 47.3931L62.9725 41.6743L64.3471 40.9166L70.019 45.6692Z" fill="#274760"/>
<path d="M107.959 37.4686L109.954 38.0642C111.503 38.5264 112.376 37.9923 112.723 36.8308C113.083 35.6245 112.641 34.7141 111.092 34.2519L109.097 33.6563L107.959 37.4686ZM114.108 37.2441C113.637 38.8226 112.197 39.95 109.621 39.1811L107.626 38.5855L106.332 42.919L104.977 42.5145L108.075 32.135L111.426 33.135C113.868 33.8639 114.615 35.5464 114.108 37.2441Z" fill="#274760"/>
<path d="M118.892 42.9681L116.719 47.0576L115.47 46.3939L119.467 38.8736L120.716 39.5373L120.067 40.7587C120.937 40.1477 122.024 40.0565 123.218 40.691L122.532 41.981L122.203 41.806C121.009 41.1714 119.819 41.2253 118.892 42.9681Z" fill="#274760"/>
<path d="M131.295 52.3649C129.564 54.4425 126.977 54.5125 125.114 52.9607C123.264 51.4189 122.949 48.9317 124.68 46.8541C126.401 44.7884 128.942 44.7005 130.792 46.2423C132.655 47.7941 133.016 50.2992 131.295 52.3649ZM125.79 47.7792C124.408 49.4389 124.776 51.0605 125.91 52.0055C127.045 52.9505 128.802 53.0995 130.184 51.4398C131.557 49.792 131.117 48.1107 129.995 47.1756C128.848 46.2207 127.163 46.1314 125.79 47.7792Z" fill="#274760"/>
<path d="M131.179 58.9166L136.94 54.3511L136.255 53.4863L137.168 52.7624L137.854 53.6272L138.329 53.2508C139.815 52.0732 141.064 52.2732 142.415 53.9784L141.489 54.7119C140.698 53.7132 140.072 53.6739 139.207 54.3592L138.732 54.7356L139.842 56.1363L138.928 56.8602L137.818 55.4595L132.057 60.025L131.179 58.9166Z" fill="#274760"/>
<path d="M143.968 65.0777C143.339 63.8455 142 63.2377 140.448 63.8548L142.891 68.6449C144.38 67.9032 144.631 66.379 143.968 65.0777ZM141.47 70.8178C139.888 71.1363 138.186 70.4688 137.226 68.586C136.125 66.4263 136.835 64.0575 139.244 62.8288C141.639 61.6072 143.932 62.3743 145.062 64.5893C146.185 66.7905 145.368 69.0212 143.292 70.0804C143.015 70.2216 142.786 70.3207 142.509 70.4272L139.416 64.3635C137.929 65.2442 137.635 66.7548 138.292 68.0423C138.871 69.1775 139.82 69.6008 140.778 69.4611L141.47 70.8178Z" fill="#274760"/>
<path d="M143.888 80.7797C142.533 81.1261 141.205 80.1984 140.739 78.3766C140.247 76.4493 140.954 74.8248 142.437 74.3495L142.798 75.7648C142.02 76.0441 141.598 76.9058 141.895 78.0651C142.172 79.1492 142.868 79.6129 143.545 79.4396C145.382 78.97 143.066 74.365 146.138 73.5797C147.402 73.2563 148.745 74.1802 149.215 76.0171C149.681 77.8389 149.01 79.2937 147.422 79.7959L147.072 78.4258C147.885 78.1538 148.325 77.3675 148.044 76.2683C147.786 75.2595 147.15 74.7804 146.488 74.9498C144.531 75.4503 146.824 79.965 143.888 80.7797Z" fill="#274760"/>
<path d="M144.646 91.6095C143.248 91.6606 142.147 90.4724 142.078 88.5932C142.006 86.6053 143.042 85.1677 144.591 85.0177L144.645 86.4776C143.824 86.5853 143.23 87.338 143.274 88.5339C143.315 89.6521 143.896 90.2528 144.595 90.2273C146.49 90.1579 145.203 85.1664 148.371 85.0504C149.676 85.0026 150.793 86.1903 150.862 88.0851C150.931 89.9643 149.967 91.2436 148.308 91.3977L148.257 89.9844C149.108 89.891 149.706 89.216 149.664 88.0822C149.626 87.0417 149.106 86.4387 148.423 86.4637C146.404 86.5376 147.688 91.4359 144.646 91.6095Z" fill="#274760"/>
<path d="M141.815 96.0472L150.249 97.2269L150.053 98.6275L141.619 97.4477L141.815 96.0472ZM151.517 98.1418C151.593 97.6032 152.067 97.2457 152.605 97.3211C153.144 97.3964 153.501 97.8701 153.426 98.4088C153.355 98.9167 152.881 99.2741 152.343 99.1988C151.804 99.1234 151.446 98.6498 151.517 98.1418Z" fill="#274760"/>
<path d="M142.071 111.439C139.513 110.563 138.524 108.171 139.31 105.878C140.09 103.599 142.301 102.417 144.859 103.293C147.403 104.164 148.392 106.506 147.612 108.785C146.827 111.079 144.615 112.309 142.071 111.439ZM144.391 104.66C142.348 103.961 140.964 104.884 140.486 106.28C140.008 107.677 140.495 109.372 142.539 110.071C144.568 110.766 145.982 109.755 146.455 108.373C146.938 106.961 146.42 105.355 144.391 104.66Z" fill="#274760"/>
<path d="M132.804 118.597L136.85 121.214C138.311 122.159 139.57 121.844 140.346 120.643C141.131 119.429 140.914 118.105 139.375 117.109L135.42 114.552L136.188 113.364L143.34 117.989L142.572 119.177L141.554 118.518C141.994 119.469 141.841 120.592 141.217 121.558C140.145 123.215 138.309 123.823 136.26 122.498L132.045 119.772L132.804 118.597Z" fill="#274760"/>
<path d="M132.53 125.687C134.347 127.627 134.233 130.075 132.566 131.636C131.408 132.719 130.062 132.873 129.093 132.566L130.156 133.701L129.112 134.678L123.291 128.461L124.335 127.484L125.418 128.641C125.166 127.621 125.419 126.277 126.565 125.204C128.221 123.654 130.725 123.758 132.53 125.687ZM127.256 130.604C128.605 132.044 130.388 131.993 131.522 130.931C132.657 129.869 132.846 128.138 131.475 126.674C130.105 125.211 128.334 125.252 127.199 126.314C126.065 127.376 125.886 129.14 127.256 130.604Z" fill="#274760"/>
<path d="M119.92 130.516L126.045 140.249L124.848 141.002L118.723 131.269L119.92 130.516Z" fill="#274760"/>
<path d="M109.435 138.155C108.908 136.86 109.647 135.418 111.389 134.71C113.232 133.961 114.937 134.442 115.609 135.847L114.256 136.397C113.874 135.663 112.963 135.362 111.854 135.813C110.818 136.234 110.453 136.987 110.716 137.635C111.43 139.391 115.679 136.472 116.873 139.409C117.365 140.619 116.631 142.074 114.875 142.789C113.133 143.497 111.6 143.029 110.888 141.524L112.198 140.991C112.577 141.76 113.416 142.09 114.467 141.662C115.432 141.27 115.82 140.575 115.563 139.942C114.802 138.07 110.639 140.954 109.435 138.155Z" fill="#274760"/>
<path d="M98.4693 83.9264L91.4605 90.5428L88.0969 87.0841C87.724 86.7004 87.1099 86.6917 86.7264 87.0644C86.3425 87.4375 86.3337 88.0508 86.7066 88.4345L90.7409 92.5737C91.1157 92.9506 91.7214 92.9635 92.1118 92.6026L99.8208 85.3352C100.008 85.1587 100.117 84.9151 100.125 84.6581C100.132 84.4012 100.036 84.1518 99.8595 83.9651C99.4843 83.5753 98.8657 83.5582 98.4693 83.9264Z" fill="#188C99"/>
<path d="M93.2694 73.7439C85.2593 73.7439 78.7461 80.2537 78.7461 88.2596C78.7461 96.2659 85.2593 102.776 93.2694 102.776C101.28 102.776 107.793 96.2659 107.793 88.2596C107.793 80.2537 101.28 73.7439 93.2694 73.7439ZM93.2694 100.832C86.3286 100.832 80.6903 95.1872 80.6903 88.2596C80.6903 81.3319 86.3286 75.6871 93.2694 75.6871C100.217 75.6871 105.849 81.316 105.849 88.2596C105.849 95.2032 100.217 100.832 93.2694 100.832Z" fill="#188C99"/>
<path d="M113.255 82.9157L113.576 77.154C113.599 76.7673 113.388 76.4041 113.041 76.231L107.909 73.6369L105.313 68.5067C105.137 68.1632 104.775 67.9541 104.39 67.9723L98.615 68.2835L93.803 65.1061C93.4787 64.8924 93.0583 64.8924 92.7336 65.1061L87.9217 68.2835L82.1573 67.9628C81.77 67.94 81.4069 68.1503 81.2338 68.4972L78.6379 73.6274L73.5054 76.2215C73.1614 76.3976 72.9525 76.7585 72.9708 77.1445L73.2912 82.9062L70.1125 87.7157C69.8987 88.0398 69.8987 88.46 70.1125 88.7845L73.2818 93.6034L72.9609 99.3652C72.9385 99.7519 73.1485 100.115 73.4955 100.288L78.6284 102.882L81.2239 108.012C81.4001 108.356 81.7612 108.565 82.1474 108.547L87.9122 108.226L92.7242 111.403C93.0465 111.624 93.4711 111.624 93.7935 111.403L98.6055 108.226L104.37 108.547C104.757 108.569 105.12 108.359 105.294 108.012L107.889 102.882L113.022 100.288C113.366 100.112 113.575 99.7512 113.557 99.3652L113.236 93.6034L116.415 88.794C116.628 88.4699 116.628 88.0493 116.415 87.7252L113.255 82.9157ZM111.447 92.8068C111.328 92.9806 111.273 93.1898 111.292 93.3996L111.593 98.8501L106.742 101.299C106.557 101.391 106.407 101.541 106.314 101.726L103.864 106.574L98.4111 106.273C98.2022 106.266 97.996 106.32 97.8179 106.429L93.2683 109.431L88.7191 106.429C88.5611 106.322 88.3751 106.264 88.1844 106.264H88.1358L82.6821 106.565L80.2324 101.716C80.1398 101.532 79.9898 101.382 79.8045 101.289L74.9439 98.8501L75.2454 93.3996C75.253 93.1909 75.1987 92.9848 75.0897 92.8068L72.086 88.2596L75.0897 83.7124C75.2085 83.5389 75.2636 83.3294 75.2454 83.1199L74.9439 77.669L79.795 75.2207C79.9799 75.1281 80.1299 74.9781 80.2225 74.7933L82.6722 69.9448L88.126 70.2461C88.3344 70.2533 88.5406 70.1994 88.7191 70.0905L93.2683 67.0884L97.8179 70.0905C97.9918 70.2093 98.2014 70.2643 98.4111 70.2461L103.864 69.9448L106.314 74.7933C106.407 74.9781 106.557 75.1281 106.742 75.2207L111.593 77.669L111.292 83.1199C111.284 83.3283 111.338 83.5344 111.447 83.7124L114.451 88.2596L111.447 92.8068Z" fill="#188C99"/>
<defs>
<filter id="filter0_d_1_1539" x="0.0188966" y="0.839314" width="185.52" height="185.52" filterUnits="userSpaceOnUse" color-interpolation-filters="sRGB">
<feFlood flood-opacity="0" result="BackgroundImageFix"/>
<feColorMatrix in="SourceAlpha" type="matrix" values="0 0 0 0 0 0 0 0 0 0 0 0 0 0 0 0 0 0 127 0" result="hardAlpha"/>
<feMorphology radius="0.971309" operator="dilate" in="SourceAlpha" result="effect1_dropShadow_1_1539"/>
<feOffset dy="3.88524"/>
<feGaussianBlur stdDeviation="10.1987"/>
<feComposite in2="hardAlpha" operator="out"/>
<feColorMatrix type="matrix" values="0 0 0 0 0.188235 0 0 0 0 0.482353 0 0 0 0 0.768627 0 0 0 0.1 0"/>
<feBlend mode="normal" in2="BackgroundImageFix" result="effect1_dropShadow_1_1539"/>
<feBlend mode="normal" in="SourceGraphic" in2="effect1_dropShadow_1_1539" result="shape"/>
</filter>
</defs>
</svg>
