<svg width="60" height="60" viewBox="0 0 60 60" fill="none" xmlns="http://www.w3.org/2000/svg">
<g clip-path="url(#clip0_1_673)">
<g clip-path="url(#clip1_1_673)">
<path d="M7.9258 55H44.2238C44.704 55 45.0437 54.5567 45.0437 54.0761V35.3121L56.6656 23.6893C57.0078 23.353 57.0129 22.8032 56.6771 22.4605L52.0524 17.8299C51.7047 17.4907 51.1497 17.4902 50.8016 17.8291L45.0437 23.5521V14.7227C45.053 14.4952 44.9698 14.2735 44.8135 14.1075L36.027 5.2815C35.8716 5.11082 35.6547 5.00934 35.4241 5H7.9258C7.44601 5 7.10889 5.44327 7.10889 5.92349V54.0765C7.10889 54.5567 7.44601 55 7.9258 55ZM35.6865 36.1536L38.3657 38.8328L34.341 40.1783L35.6865 36.1536ZM39.9736 37.9811L36.5378 34.5457L47.5721 23.536L50.9833 26.9472L39.9736 37.9811ZM51.4431 19.6739L54.8454 23.0762L52.2112 25.7163L48.8034 22.3077L51.4431 19.6739ZM36.348 8.02267L42.1246 13.8043H36.348V8.02267ZM8.84802 6.73913H34.6089V14.7227C34.5987 14.9427 34.6806 15.1567 34.836 15.3125C34.991 15.4688 35.2042 15.5524 35.4241 15.5435H43.3045V25.2875L34.6683 33.9288C34.577 34.0179 34.5091 34.1279 34.4705 34.2493L33.2442 37.9348H14.4675C13.9873 37.9348 13.5979 38.3241 13.5979 38.8044C13.5979 39.2846 13.9873 39.6739 14.4675 39.6739H32.6634L32.1395 41.261C32.035 41.5701 32.1165 41.9124 32.3492 42.1412C32.4104 42.2024 32.4796 42.2826 32.553 42.2826H14.4675C13.9873 42.2826 13.5979 42.672 13.5979 43.1522C13.5979 43.6324 13.9873 44.0217 14.4675 44.0217H37.6201C38.1007 44.0217 38.4897 43.6324 38.4897 43.1522C38.4897 42.672 38.1007 42.2826 37.6201 42.2826H33.4145L40.25 40.0166C40.3702 39.9771 40.4789 39.9079 40.5655 39.8162L43.3045 37.055V53.2609H8.84802V6.73913Z" fill="#188C99"/>
<path d="M37.6198 46.6306H14.4672C13.987 46.6306 13.5977 47.02 13.5977 47.5002C13.5977 47.9804 13.987 48.3697 14.4672 48.3697H37.6198C38.1005 48.3697 38.4894 47.9804 38.4894 47.5002C38.4894 47.02 38.1005 46.6306 37.6198 46.6306Z" fill="#188C99"/>
<path d="M14.4672 35.3263H26.7503C27.2309 35.3263 27.6198 34.9369 27.6198 34.4567C27.6198 33.9765 27.2309 33.5872 26.7503 33.5872H14.4672C13.987 33.5872 13.5977 33.9765 13.5977 34.4567C13.5977 34.9369 13.987 35.3263 14.4672 35.3263Z" fill="#188C99"/>
</g>
</g>
<defs>
<clipPath id="clip0_1_673">
<rect width="60" height="60" fill="white"/>
</clipPath>
<clipPath id="clip1_1_673">
<rect width="50" height="50" fill="white" transform="translate(7 5)"/>
</clipPath>
</defs>
</svg>
