<svg width="43" height="43" viewBox="0 0 43 43" fill="none" xmlns="http://www.w3.org/2000/svg">
<path d="M39.1229 27.8451L29.1801 19.5592V2.04523C29.1801 1.13914 28.4457 0.404785 27.5396 0.404785H14.6342C13.7281 0.404785 12.9937 1.13914 12.9937 2.04523V19.5592L3.05094 27.8451C1.16883 29.4138 0.0893555 31.7187 0.0893555 34.1685C0.0893555 38.7076 3.78213 42.4002 8.32144 42.4002H33.8527C38.3917 42.4002 42.0848 38.7076 42.0848 34.1685C42.0844 31.7184 41.005 29.4138 39.1229 27.8451ZM33.8527 39.1193H22.7154V36.8092C28.6367 36.2764 32.1641 32.6575 30.5104 26.9252C30.3544 26.3834 29.9308 25.9599 29.389 25.8035C26.0339 24.8359 22.9378 25.5558 21.0714 28.5182C19.2011 25.5677 16.112 24.8673 12.7842 25.8269C12.2423 25.9832 11.8188 26.4068 11.6624 26.9486C10.0084 32.6828 13.5516 36.278 19.4344 36.8089V39.1193H8.32144C3.72766 39.1193 1.59626 33.3281 5.1519 30.3654L15.6846 21.5877C16.0588 21.2759 16.2748 20.8142 16.2748 20.3276V3.68568H25.8994V20.3276C25.8994 20.8146 26.1153 21.2763 26.4896 21.5877L37.0225 30.3657C40.5785 33.329 38.4445 39.1193 33.8527 39.1193ZM22.8211 33.4963C23.0698 31.5403 23.7446 30.0193 24.7295 29.2782C25.5434 28.6663 26.5681 28.5894 27.5652 28.7486C27.7523 29.9203 27.5738 30.8748 27.0311 31.5938C26.2877 32.579 24.7699 33.2518 22.8211 33.4963ZM19.3277 33.496C17.3892 33.2515 15.8797 32.5819 15.1399 31.6015C14.6006 30.8866 14.4224 29.9376 14.6076 28.7723C15.7695 28.5878 16.7153 28.764 17.4279 29.3C18.4074 30.0373 19.0797 31.5502 19.3277 33.496Z" fill="#10D0A1"/>
</svg>
