<svg width="474" height="764" viewBox="0 0 474 764" fill="none" xmlns="http://www.w3.org/2000/svg">
<path d="M434.024 775.383H473.993C474.143 776.605 475.24 777.591 476.588 777.591C478.035 777.591 479.182 776.511 479.182 775.148C479.182 774.35 478.733 773.598 478.085 773.175L498.094 740.573C498.444 740.714 498.793 740.808 499.142 740.808C500.589 740.808 501.737 739.727 501.737 738.365C501.737 737.002 500.589 735.922 499.142 735.922C498.743 735.922 498.394 736.016 498.094 736.157L478.085 703.554C478.733 703.131 479.182 702.38 479.182 701.581C479.182 700.782 478.733 700.031 478.085 699.608L498.094 667.005C498.444 667.146 498.793 667.24 499.142 667.24C500.589 667.24 501.737 666.16 501.737 664.797C501.737 663.435 500.589 662.354 499.142 662.354C498.743 662.354 498.394 662.448 498.094 662.589L478.085 629.987C478.733 629.564 479.182 628.812 479.182 628.014C479.182 627.591 479.083 627.215 478.883 626.839C478.684 626.51 478.434 626.229 478.135 626.041L498.144 593.438C498.493 593.579 498.843 593.673 499.192 593.673C500.539 593.673 501.637 592.686 501.787 591.465H541.756C541.906 592.686 543.004 593.673 544.351 593.673C544.75 593.673 545.099 593.579 545.399 593.438L565.408 626.041C564.76 626.463 564.311 627.215 564.311 628.014C564.311 629.376 565.458 630.457 566.905 630.457C568.253 630.457 569.35 629.47 569.5 628.249H609.469C609.619 629.47 610.717 630.457 612.064 630.457C612.463 630.457 612.813 630.363 613.112 630.222L633.122 662.824C632.473 663.247 632.024 663.999 632.024 664.797C632.024 666.16 633.172 667.24 634.619 667.24C635.966 667.24 637.064 666.254 637.213 665.032H677.183C677.332 666.254 678.43 667.24 679.777 667.24C681.225 667.24 682.372 666.16 682.372 664.797C682.372 663.999 681.923 663.247 681.274 662.824L701.284 630.222C701.633 630.363 701.983 630.457 702.332 630.457C703.779 630.457 704.927 629.376 704.927 628.014C704.927 626.651 703.779 625.571 702.332 625.571C701.933 625.571 701.583 625.665 701.284 625.806L681.274 593.203C681.923 592.78 682.372 592.029 682.372 591.23C682.372 590.431 681.923 589.68 681.274 589.257L701.284 556.654C701.284 556.654 701.334 556.654 701.334 556.701C701.633 556.842 701.983 556.889 702.332 556.889C703.679 556.889 704.777 555.903 704.927 554.681H744.896C745.046 555.903 746.143 556.889 747.491 556.889C748.938 556.889 750.086 555.809 750.086 554.446C750.086 553.648 749.636 552.896 748.988 552.473L768.997 519.871C769.347 520.012 769.696 520.106 770.045 520.106C771.393 520.106 772.49 519.119 772.64 517.898H812.609C812.759 519.119 813.857 520.106 815.204 520.106C816.651 520.106 817.799 519.025 817.799 517.663C817.799 516.864 817.35 516.112 816.701 515.69L836.711 483.087C837.06 483.228 837.409 483.322 837.758 483.322C839.206 483.322 840.353 482.241 840.353 480.879C840.353 479.517 839.206 478.436 837.758 478.436C837.359 478.436 837.01 478.53 836.711 478.671L816.701 446.068C817.35 445.646 817.799 444.894 817.799 444.095C817.799 442.733 816.651 441.653 815.204 441.653C813.857 441.653 812.759 442.639 812.609 443.86H772.64C772.59 443.485 772.49 443.156 772.291 442.874C771.842 442.169 770.993 441.653 770.045 441.653C769.646 441.653 769.297 441.746 768.997 441.887L748.988 409.285C749.636 408.862 750.086 408.11 750.086 407.312C750.086 405.949 748.938 404.869 747.491 404.869C746.143 404.869 745.046 405.855 744.896 407.077H704.927C704.877 406.513 704.577 405.996 704.178 405.574C703.729 405.151 703.031 404.869 702.332 404.869C701.933 404.869 701.583 404.963 701.284 405.104L681.274 372.501C681.923 372.078 682.372 371.327 682.372 370.528C682.372 370.105 682.272 369.729 682.073 369.354C681.873 369.025 681.624 368.743 681.324 368.508L701.334 335.905C701.683 336.046 702.032 336.14 702.382 336.14C703.829 336.14 704.977 335.06 704.977 333.697C704.977 332.335 703.829 331.255 702.382 331.255C701.983 331.255 701.633 331.349 701.334 331.49L681.324 298.887C681.973 298.464 682.422 297.712 682.422 296.914C682.422 296.491 682.322 296.115 682.123 295.739C681.923 295.411 681.674 295.129 681.374 294.941L701.384 262.338C701.733 262.479 702.082 262.573 702.432 262.573C703.779 262.573 704.877 261.586 705.026 260.365H744.996C745.146 261.586 746.243 262.573 747.591 262.573C749.038 262.573 750.185 261.493 750.185 260.13C750.185 259.332 749.736 258.58 749.088 258.157L769.097 225.554C769.446 225.695 769.796 225.789 770.145 225.789C771.592 225.789 772.74 224.709 772.74 223.347C772.74 221.984 771.592 220.904 770.145 220.904C769.746 220.904 769.396 220.998 769.097 221.139L749.088 188.536C749.736 188.113 750.185 187.361 750.185 186.563C750.185 185.201 749.038 184.12 747.591 184.12C746.243 184.12 745.146 185.107 744.996 186.328H705.026C704.977 185.764 704.677 185.247 704.278 184.825C703.829 184.402 703.13 184.12 702.432 184.12C702.033 184.12 701.683 184.214 701.384 184.355L681.374 151.752C682.023 151.329 682.472 150.578 682.472 149.779C682.472 148.417 681.324 147.336 679.877 147.336C678.53 147.336 677.432 148.323 677.283 149.544H637.313C637.164 148.323 636.066 147.336 634.718 147.336C633.271 147.336 632.124 148.417 632.124 149.779C632.124 150.578 632.573 151.329 633.221 151.752L613.212 184.355C612.863 184.214 612.513 184.12 612.164 184.12C610.817 184.12 609.719 185.107 609.569 186.328H569.6C569.55 185.764 569.251 185.247 568.851 184.825C568.402 184.402 567.704 184.12 567.005 184.12C566.606 184.12 566.257 184.214 565.957 184.355L545.948 151.752C546.247 151.517 546.546 151.236 546.696 150.907C546.896 150.578 546.996 150.155 546.996 149.732C546.996 148.934 546.546 148.182 545.898 147.759L565.907 115.157C566.257 115.297 566.606 115.391 566.955 115.391C568.402 115.391 569.55 114.311 569.55 112.949C569.55 111.586 568.402 110.506 566.955 110.506C566.556 110.506 566.207 110.6 565.907 110.741L545.898 78.138C546.546 77.7152 546.996 76.9636 546.996 76.1649C546.996 75.8361 546.946 75.5072 546.796 75.2254C546.596 74.8026 546.297 74.4737 545.898 74.1919L565.907 41.5892C566.257 41.7302 566.606 41.8241 566.955 41.8241C568.402 41.8241 569.55 40.7436 569.55 39.3813C569.55 38.0189 568.402 36.9384 566.955 36.9384C566.556 36.9384 566.207 37.0324 565.907 37.1733L545.898 4.5707C546.546 4.1479 546.996 3.39626 546.996 2.59764C546.996 1.23528 545.848 0.154785 544.401 0.154785C543.054 0.154785 541.956 1.14132 541.806 2.36275H501.837C501.687 1.14132 500.589 0.154785 499.242 0.154785C497.795 0.154785 496.647 1.23528 496.647 2.59764C496.647 3.39626 497.096 4.1479 497.745 4.5707L477.735 37.1733C477.386 37.0324 477.037 36.9384 476.638 36.9384C475.29 36.9384 474.193 37.925 474.043 39.1464H434.074C433.924 37.925 432.826 36.9384 431.479 36.9384C430.032 36.9384 428.884 38.0189 428.884 39.3813C428.884 40.1799 429.333 40.9315 429.982 41.3544L409.872 73.3463C409.523 73.2053 409.174 73.1114 408.825 73.1114C407.477 73.1114 406.379 74.0979 406.23 75.3193H366.26C366.211 74.7556 365.911 74.2388 365.512 73.816C365.063 73.3932 364.364 73.1114 363.666 73.1114C363.267 73.1114 362.917 73.2053 362.618 73.3463L342.608 40.7436C343.257 40.3208 343.706 39.5692 343.706 38.7706C343.706 37.4082 342.558 36.3277 341.111 36.3277C339.764 36.3277 338.666 37.3143 338.517 38.5357H298.547C298.398 37.3143 297.3 36.3277 295.952 36.3277C294.505 36.3277 293.358 37.4082 293.358 38.7706C293.358 39.5692 293.807 40.3208 294.455 40.7436L274.446 73.3463C274.097 73.2053 273.747 73.1114 273.398 73.1114C271.951 73.1114 270.803 74.1919 270.803 75.5542C270.803 76.9166 271.951 77.9971 273.398 77.9971C273.797 77.9971 274.146 77.9031 274.446 77.7622L294.455 110.365C293.807 110.788 293.358 111.539 293.358 112.338C293.358 113.136 293.807 113.888 294.455 114.311L274.446 146.914C274.097 146.773 273.747 146.679 273.398 146.679C272.25 146.679 271.252 147.383 270.903 148.417C270.853 148.558 270.803 148.746 270.803 148.887H230.834C230.684 147.665 229.586 146.679 228.239 146.679C226.792 146.679 225.644 147.759 225.644 149.122C225.644 149.92 226.093 150.672 226.742 151.095L206.733 183.697C206.383 183.556 206.034 183.462 205.685 183.462C204.337 183.462 203.24 184.449 203.09 185.67H163.121C163.071 185.107 162.771 184.59 162.372 184.167C161.923 183.744 161.224 183.462 160.526 183.462C160.127 183.462 159.777 183.556 159.478 183.697L139.468 151.095C140.117 150.672 140.566 149.92 140.566 149.122C140.566 147.759 139.419 146.679 137.971 146.679C136.624 146.679 135.526 147.665 135.377 148.887H95.4074C95.2577 147.665 94.1599 146.679 92.8126 146.679C91.3655 146.679 90.2178 147.759 90.2178 149.122C90.2178 149.92 90.6669 150.672 91.3156 151.095L71.306 183.697C70.9567 183.556 70.6074 183.462 70.2581 183.462C68.8111 183.462 67.6634 184.543 67.6634 185.905C67.6634 187.268 68.8111 188.348 70.2581 188.348C70.6573 188.348 71.0066 188.254 71.306 188.113L91.3156 220.716C90.6669 221.139 90.2178 221.89 90.2178 222.689C90.2178 223.487 90.6669 224.239 91.3156 224.662L71.306 257.264C70.9567 257.124 70.6074 257.03 70.2581 257.03C68.8111 257.03 67.6634 258.11 67.6634 259.473C67.6634 260.835 68.8111 261.915 70.2581 261.915C70.6573 261.915 71.0066 261.821 71.306 261.68L91.3156 294.283C90.6669 294.706 90.2178 295.457 90.2178 296.256C90.2178 297.618 91.3655 298.699 92.8126 298.699C94.1599 298.699 95.2577 297.712 95.4074 296.491H135.377C135.526 297.712 136.624 298.699 137.971 298.699C138.371 298.699 138.72 298.605 139.019 298.464L159.029 331.067C158.38 331.49 157.931 332.241 157.931 333.04C157.931 333.838 158.38 334.59 159.029 335.013L139.069 367.568C138.77 367.428 138.371 367.334 138.021 367.334C137.472 367.334 136.973 367.475 136.574 367.756C135.926 368.132 135.526 368.79 135.427 369.542H95.4573C95.3076 368.32 94.2098 367.334 92.8625 367.334C91.4154 367.334 90.2677 368.414 90.2677 369.776C90.2677 370.575 90.7168 371.327 91.3655 371.75L71.3559 404.352C71.0066 404.211 70.6573 404.117 70.308 404.117C68.9608 404.117 67.863 405.104 67.7133 406.325H27.744C27.5943 405.104 26.4965 404.117 25.1492 404.117C23.7021 404.117 22.5545 405.198 22.5545 406.56C22.5545 407.359 23.0036 408.11 23.6522 408.533L3.64265 441.136C3.29335 440.995 2.94406 440.901 2.59476 440.901C1.14768 440.901 0 441.981 0 443.344C0 444.706 1.14768 445.787 2.59476 445.787C2.99396 445.787 3.34325 445.693 3.64265 445.552L23.6522 478.154C23.0036 478.577 22.5545 479.329 22.5545 480.127C22.5545 481.49 23.7021 482.57 25.1492 482.57C26.4965 482.57 27.5943 481.584 27.744 480.362H67.5636C67.7133 481.584 68.8111 482.57 70.1583 482.57C70.5575 482.57 70.9068 482.476 71.2062 482.335L91.2158 514.938C90.5671 515.361 90.118 516.112 90.118 516.911C90.118 518.273 91.2657 519.354 92.7128 519.354C94.0601 519.354 95.1579 518.367 95.3076 517.146H135.277C135.427 518.367 136.524 519.354 137.872 519.354C138.271 519.354 138.62 519.26 138.919 519.119L158.929 551.722C158.28 552.144 157.831 552.896 157.831 553.695C157.831 554.493 158.28 555.245 158.929 555.668L138.919 588.27C138.57 588.13 138.221 588.036 137.872 588.036C136.425 588.036 135.277 589.116 135.277 590.478C135.277 591.841 136.425 592.921 137.872 592.921C138.271 592.921 138.62 592.827 138.919 592.686L158.929 625.289C158.28 625.712 157.831 626.463 157.831 627.262C157.831 628.624 158.979 629.705 160.426 629.705C161.773 629.705 162.871 628.718 163.021 627.497H202.99C203.14 628.718 204.238 629.705 205.585 629.705C207.032 629.705 208.18 628.624 208.18 627.262C208.18 626.463 207.731 625.712 207.082 625.289L227.091 592.686C227.441 592.827 227.79 592.921 228.139 592.921C229.487 592.921 230.584 591.935 230.734 590.713H270.703C270.753 590.948 270.803 591.183 270.903 591.418C271.302 592.311 272.2 592.921 273.298 592.921C273.697 592.921 274.047 592.827 274.346 592.686L294.356 625.289C293.707 625.712 293.258 626.463 293.258 627.262C293.258 628.624 294.406 629.705 295.853 629.705C297.2 629.705 298.298 628.718 298.447 627.497H338.517C338.616 628.671 339.614 629.564 340.862 629.705C340.962 629.705 341.061 629.705 341.111 629.705C341.211 629.705 341.311 629.705 341.361 629.705C341.66 629.658 341.91 629.611 342.159 629.517L362.169 662.12C361.52 662.542 361.071 663.294 361.071 664.093C361.071 664.891 361.52 665.643 362.169 666.066L342.159 698.668C341.81 698.527 341.461 698.433 341.111 698.433C339.664 698.433 338.517 699.514 338.517 700.876C338.517 702.239 339.664 703.319 341.111 703.319C341.51 703.319 341.86 703.225 342.159 703.084L362.169 735.687C361.52 736.11 361.071 736.861 361.071 737.66C361.071 739.022 362.219 740.103 363.666 740.103C365.013 740.103 366.111 739.116 366.26 737.895H406.23C406.379 739.116 407.477 740.103 408.825 740.103C409.224 740.103 409.573 740.009 409.872 739.868L429.882 772.471C429.233 772.893 428.784 773.645 428.784 774.444C428.784 775.806 429.932 776.886 431.379 776.886C432.776 777.591 433.874 776.652 434.024 775.383ZM610.218 187.784C610.667 188.207 611.366 188.489 612.064 188.489C612.463 188.489 612.813 188.395 613.112 188.254L633.122 220.857C632.473 221.279 632.024 222.031 632.024 222.83C632.024 223.628 632.473 224.38 633.122 224.803L615.457 253.6L613.112 257.405C612.763 257.264 612.413 257.171 612.064 257.171C610.717 257.171 609.619 258.157 609.469 259.379H569.5C569.45 259.05 569.35 258.721 569.201 258.439C568.752 257.687 567.903 257.171 566.905 257.171C566.506 257.171 566.157 257.264 565.857 257.405L545.848 224.803C546.497 224.38 546.946 223.628 546.946 222.83C546.946 222.031 546.497 221.279 545.848 220.857L565.857 188.254C566.207 188.395 566.556 188.489 566.905 188.489C568.253 188.489 569.35 187.502 569.5 186.281H609.469C609.519 186.845 609.819 187.362 610.218 187.784ZM208.23 333.322C208.23 332.523 207.78 331.771 207.132 331.349L227.141 298.746C227.491 298.887 227.84 298.981 228.189 298.981C229.537 298.981 230.634 297.994 230.784 296.773H270.753C270.803 297.102 270.903 297.431 271.053 297.712C271.502 298.464 272.35 298.981 273.348 298.981C273.747 298.981 274.097 298.887 274.396 298.746L294.356 331.349C293.956 331.63 293.657 331.959 293.507 332.382C293.358 332.664 293.308 332.993 293.308 333.369C293.308 334.167 293.757 334.919 294.406 335.342L274.446 367.897H274.396C274.097 367.756 273.747 367.709 273.398 367.709C272.3 367.709 271.402 368.32 271.003 369.213C270.903 369.448 270.853 369.682 270.803 369.917H230.834C230.684 368.696 229.586 367.709 228.239 367.709C227.84 367.709 227.491 367.803 227.141 367.944L207.132 335.342C207.78 334.872 208.23 334.167 208.23 333.322ZM363.666 151.658C365.013 151.658 366.111 150.672 366.26 149.45H406.23C406.379 150.672 407.477 151.658 408.825 151.658C409.224 151.658 409.573 151.564 409.872 151.423L429.882 184.026C429.233 184.449 428.784 185.2 428.784 185.999C428.784 186.751 429.134 187.455 429.732 187.878C429.782 187.925 429.832 187.925 429.882 187.972L409.872 220.622C409.523 220.481 409.174 220.387 408.825 220.387C407.477 220.387 406.379 221.373 406.23 222.595H366.26C366.111 221.373 365.013 220.387 363.666 220.387C363.267 220.387 362.917 220.481 362.618 220.622L342.608 188.019C343.057 187.69 343.407 187.268 343.556 186.751C343.656 186.516 343.656 186.281 343.656 185.999C343.656 185.2 343.207 184.449 342.558 184.026L362.568 151.423C362.917 151.611 363.267 151.658 363.666 151.658ZM609.469 259.942C609.619 261.164 610.717 262.15 612.064 262.15C612.463 262.15 612.813 262.056 613.112 261.915L633.122 294.518C632.473 294.941 632.024 295.692 632.024 296.491C632.024 297.243 632.373 297.947 632.972 298.37C633.022 298.417 633.072 298.417 633.122 298.464L613.112 331.067C612.763 330.926 612.413 330.832 612.064 330.832C610.717 330.832 609.619 331.818 609.469 333.04H569.5C569.45 332.805 569.4 332.57 569.301 332.335C568.901 331.443 568.003 330.832 566.905 330.832C566.506 330.832 566.157 330.926 565.857 331.067L545.848 298.464C546.497 298.041 546.946 297.29 546.946 296.491C546.946 295.833 546.646 295.223 546.197 294.753C546.097 294.659 545.998 294.565 545.898 294.518L565.907 261.915C566.257 262.056 566.606 262.15 566.955 262.15C568.303 262.15 569.4 261.164 569.55 259.942H609.469ZM632.024 370.152C632.024 370.575 632.124 370.998 632.323 371.327C632.523 371.656 632.772 371.937 633.072 372.125L613.062 404.728C612.713 404.587 612.364 404.493 612.014 404.493C610.667 404.493 609.569 405.48 609.42 406.701H569.45C569.4 406.466 569.35 406.231 569.251 405.996C568.851 405.104 567.953 404.493 566.855 404.493C566.456 404.493 566.107 404.587 565.808 404.728L545.798 372.125C546.447 371.703 546.896 370.951 546.896 370.152C546.896 369.823 546.846 369.495 546.696 369.213C546.596 368.978 546.447 368.79 546.297 368.602C546.147 368.461 545.998 368.32 545.798 368.179L565.808 335.577C566.157 335.718 566.506 335.811 566.855 335.811C567.953 335.811 568.851 335.201 569.251 334.308C569.35 334.073 569.4 333.838 569.45 333.604H609.42C609.469 333.932 609.569 334.261 609.719 334.543C610.168 335.295 611.016 335.811 612.014 335.811C612.413 335.811 612.763 335.718 613.062 335.577L633.072 368.179C632.473 368.602 632.024 369.307 632.024 370.152ZM632.024 443.767C632.024 444.565 632.473 445.317 633.122 445.74L615.457 474.537L613.112 478.342C612.763 478.201 612.413 478.107 612.064 478.107C610.717 478.107 609.619 479.094 609.469 480.315H569.5C569.45 479.986 569.35 479.658 569.201 479.376C568.752 478.624 567.903 478.107 566.905 478.107C566.506 478.107 566.157 478.201 565.857 478.342L545.848 445.74C546.497 445.317 546.946 444.565 546.946 443.767C546.946 442.968 546.497 442.216 545.848 441.793L565.857 409.191C566.207 409.332 566.556 409.426 566.905 409.426C568.253 409.426 569.35 408.439 569.5 407.218H609.469C609.519 407.453 609.569 407.688 609.669 407.922C610.068 408.815 610.966 409.426 612.064 409.426C612.463 409.426 612.813 409.332 613.112 409.191L633.122 441.793C632.473 442.263 632.024 442.968 632.024 443.767ZM298.348 479.658C297.948 478.765 297.05 478.154 295.952 478.154C295.553 478.154 295.204 478.248 294.905 478.389L274.895 445.787C275.544 445.364 275.993 444.612 275.993 443.814C275.993 443.015 275.544 442.263 274.895 441.84L294.905 409.238H294.954C295.254 409.379 295.603 409.426 295.952 409.426C297.3 409.426 298.398 408.439 298.547 407.218H338.517C338.616 408.11 339.265 408.909 340.113 409.238C340.413 409.379 340.762 409.426 341.111 409.426C341.51 409.426 341.86 409.332 342.159 409.191L362.169 441.793C361.52 442.216 361.071 442.968 361.071 443.767C361.071 444.565 361.52 445.317 362.169 445.74L342.159 478.342C341.91 478.248 341.66 478.154 341.361 478.154C341.261 478.154 341.161 478.154 341.111 478.154C339.764 478.154 338.666 479.141 338.517 480.362H298.547C298.497 480.08 298.447 479.846 298.348 479.658ZM275.993 370.152C275.993 369.307 275.544 368.602 274.895 368.179L294.855 335.624C295.204 335.764 295.553 335.858 295.903 335.858C297 335.858 297.899 335.248 298.298 334.355C298.398 334.12 298.447 333.885 298.497 333.65H338.517C338.566 333.979 338.666 334.308 338.816 334.59C339.265 335.342 340.113 335.858 341.111 335.858C341.51 335.858 341.86 335.764 342.159 335.624L362.169 368.226C361.52 368.649 361.071 369.401 361.071 370.199C361.071 370.81 361.271 371.327 361.67 371.75C361.819 371.89 361.969 372.031 362.169 372.172L342.159 404.775H342.109C341.81 404.634 341.461 404.587 341.111 404.587C339.764 404.587 338.666 405.574 338.517 406.795H298.547C298.497 406.231 298.198 405.714 297.799 405.292C297.549 405.057 297.3 404.869 296.95 404.775C296.651 404.634 296.302 404.587 295.952 404.587C295.553 404.587 295.204 404.681 294.905 404.822L274.945 372.219C275.544 371.703 275.993 370.951 275.993 370.152ZM564.311 406.936C564.311 407.265 564.36 407.594 564.51 407.875C564.66 408.251 564.909 408.58 565.259 408.815C565.309 408.862 565.358 408.862 565.408 408.909L545.399 441.512C545.049 441.371 544.7 441.277 544.351 441.277C543.004 441.277 541.906 442.263 541.756 443.485H501.787C501.737 443.156 501.637 442.827 501.487 442.545C501.038 441.793 500.19 441.277 499.192 441.277C498.793 441.277 498.444 441.371 498.144 441.512L478.135 408.909C478.783 408.486 479.232 407.735 479.232 406.936C479.232 406.607 479.182 406.278 479.033 405.996C478.983 405.902 478.983 405.855 478.933 405.761C478.733 405.433 478.484 405.151 478.185 404.963L498.194 372.36C498.543 372.501 498.893 372.595 499.242 372.595C500.589 372.595 501.687 371.609 501.837 370.387H541.806C541.856 370.622 541.906 370.857 542.006 371.092C542.405 371.984 543.303 372.595 544.401 372.595C544.8 372.595 545.149 372.501 545.449 372.36L565.458 404.963C564.71 405.433 564.311 406.137 564.311 406.936ZM363.666 298.934C364.664 298.934 365.512 298.417 365.961 297.665C366.111 297.384 366.211 297.055 366.26 296.726H406.23C406.379 297.947 407.477 298.934 408.825 298.934C409.224 298.934 409.573 298.84 409.922 298.699L429.932 331.302C429.283 331.724 428.834 332.476 428.834 333.275C428.834 334.073 429.283 334.825 429.932 335.248L415.461 358.831L409.922 367.85C409.573 367.709 409.224 367.615 408.874 367.615C407.527 367.615 406.429 368.602 406.28 369.823H366.31C366.26 369.495 366.161 369.166 366.011 368.884C365.562 368.132 364.714 367.615 363.716 367.615C363.316 367.615 362.967 367.709 362.668 367.85L342.658 335.248C343.307 334.825 343.756 334.073 343.756 333.275C343.756 332.476 343.307 331.724 342.658 331.302L362.668 298.699C362.917 298.887 363.267 298.934 363.666 298.934ZM474.292 334.496C474.741 335.248 475.59 335.764 476.588 335.764C476.987 335.764 477.336 335.671 477.636 335.53L497.645 368.132C496.997 368.555 496.547 369.307 496.547 370.105C496.547 370.434 496.647 370.763 496.747 371.045C496.947 371.468 497.246 371.797 497.595 372.078L477.586 404.681C477.236 404.54 476.887 404.446 476.538 404.446C475.191 404.446 474.093 405.433 473.943 406.654H433.974C433.924 406.325 433.824 405.996 433.674 405.715C433.225 404.963 432.377 404.446 431.379 404.446C430.98 404.446 430.631 404.54 430.331 404.681L410.371 372.125C411.02 371.703 411.469 370.951 411.469 370.152C411.469 369.354 411.02 368.602 410.371 368.179L430.381 335.577C430.73 335.718 431.08 335.811 431.429 335.811C432.776 335.811 433.874 334.825 434.024 333.604H473.993C473.993 333.885 474.143 334.214 474.292 334.496ZM364.664 441.512C364.364 441.371 364.015 441.324 363.666 441.324C363.267 441.324 362.917 441.418 362.618 441.559L342.658 408.956C343.307 408.533 343.756 407.782 343.756 406.983C343.756 406.137 343.307 405.433 342.658 404.963L362.668 372.36C363.017 372.501 363.366 372.595 363.716 372.595C365.063 372.595 366.161 371.609 366.31 370.387H406.28C406.429 371.609 407.527 372.595 408.874 372.595C409.274 372.595 409.623 372.501 409.922 372.36L429.932 404.963C429.283 405.386 428.834 406.137 428.834 406.936C428.834 407.688 429.183 408.392 429.782 408.815C429.832 408.862 429.882 408.862 429.932 408.909L409.922 441.512C409.573 441.371 409.224 441.277 408.874 441.277C407.527 441.277 406.429 442.263 406.28 443.485H366.31C366.161 442.639 365.562 441.84 364.664 441.512ZM431.678 478.154C431.579 478.154 431.479 478.154 431.429 478.154C431.03 478.154 430.68 478.248 430.381 478.389L410.371 445.787C410.87 445.411 411.27 444.894 411.419 444.283C411.469 444.142 411.469 443.954 411.469 443.767C411.469 442.968 411.02 442.216 410.371 441.793L430.381 409.191C430.73 409.332 431.08 409.426 431.429 409.426C432.776 409.426 433.874 408.439 434.024 407.218H473.993C474.043 407.453 474.093 407.688 474.193 407.922C474.592 408.815 475.49 409.426 476.588 409.426C476.987 409.426 477.336 409.332 477.636 409.191L497.645 441.793C496.997 442.216 496.547 442.968 496.547 443.767C496.547 444.095 496.647 444.424 496.747 444.706C496.947 445.129 497.246 445.458 497.595 445.74L477.586 478.342C477.286 478.201 476.887 478.107 476.538 478.107C475.191 478.107 474.093 479.094 473.943 480.315H433.974C433.874 479.188 432.926 478.248 431.678 478.154ZM543.054 298.652C543.403 298.84 543.852 298.934 544.301 298.934C544.7 298.934 545.049 298.84 545.349 298.699L565.358 331.302C564.859 331.677 564.46 332.194 564.311 332.805C564.261 332.946 564.261 333.134 564.261 333.322C564.261 333.51 564.261 333.65 564.311 333.838C564.46 334.449 564.81 334.966 565.358 335.342L545.349 367.944C545 367.803 544.65 367.709 544.301 367.709C542.954 367.709 541.856 368.696 541.706 369.917H501.737C501.687 369.682 501.637 369.448 501.537 369.213C501.487 369.119 501.487 369.072 501.438 368.978C500.988 368.226 500.14 367.709 499.142 367.709C498.743 367.709 498.394 367.803 498.094 367.944L478.085 335.342C478.733 334.919 479.182 334.167 479.182 333.369C479.182 332.57 478.733 331.818 478.085 331.396L498.094 298.793C498.444 298.934 498.793 299.028 499.142 299.028C500.489 299.028 501.587 298.041 501.737 296.82H541.706C541.806 297.572 542.355 298.276 543.054 298.652ZM496.547 296.491C496.547 297.243 496.897 297.947 497.495 298.37C497.545 298.417 497.595 298.417 497.645 298.464L477.636 331.067C477.286 330.926 476.937 330.832 476.588 330.832C475.24 330.832 474.143 331.818 473.993 333.04H434.024C433.874 331.818 432.776 330.832 431.429 330.832C431.03 330.832 430.68 330.926 430.381 331.067L410.371 298.464C410.671 298.229 410.97 297.994 411.12 297.665C411.319 297.337 411.419 296.914 411.419 296.491C411.419 295.833 411.12 295.223 410.671 294.753C410.571 294.659 410.471 294.565 410.371 294.518L422.048 275.445L430.331 261.915C430.68 262.056 431.03 262.15 431.379 262.15C432.377 262.15 433.225 261.633 433.674 260.882C433.824 260.6 433.924 260.271 433.974 259.942H473.943C474.093 261.164 475.191 262.15 476.538 262.15C476.937 262.15 477.286 262.056 477.636 261.915L497.645 294.518C496.997 294.941 496.547 295.692 496.547 296.491ZM406.978 224.615C407.427 225.038 408.126 225.32 408.825 225.32C409.224 225.32 409.573 225.226 409.872 225.085L429.882 257.687C429.633 257.875 429.433 258.063 429.233 258.298C428.934 258.674 428.784 259.144 428.784 259.66C428.784 260.271 428.984 260.788 429.383 261.211C429.533 261.352 429.682 261.493 429.882 261.633L424.593 270.277L409.922 294.236C409.573 294.095 409.224 294.001 408.874 294.001C407.876 294.001 407.028 294.518 406.579 295.27C406.429 295.551 406.33 295.88 406.28 296.209H366.31C366.26 295.645 365.961 295.129 365.562 294.706C365.113 294.283 364.414 294.001 363.716 294.001C363.316 294.001 362.967 294.095 362.668 294.236L342.658 261.633C343.057 261.352 343.357 261.023 343.506 260.6C343.656 260.318 343.706 259.989 343.706 259.66C343.706 258.862 343.257 258.11 342.608 257.687L362.568 225.085C362.917 225.226 363.267 225.32 363.616 225.32C364.763 225.32 365.761 224.615 366.111 223.581C366.161 223.44 366.211 223.253 366.211 223.112H406.18C406.28 223.675 406.579 224.192 406.978 224.615ZM295.903 262.15C297 262.15 297.899 261.54 298.298 260.647C298.398 260.412 298.447 260.177 298.497 259.942H338.517C338.666 261.164 339.764 262.15 341.111 262.15C341.51 262.15 341.86 262.056 342.209 261.915L362.169 294.518C361.77 294.8 361.47 295.129 361.32 295.551C361.171 295.833 361.121 296.162 361.121 296.491C361.121 297.29 361.57 298.041 362.219 298.464L342.209 331.067C341.86 330.926 341.51 330.832 341.161 330.832C339.814 330.832 338.716 331.818 338.566 333.04H298.597C298.447 331.818 297.35 330.832 296.002 330.832C295.603 330.832 295.254 330.926 294.954 331.067L274.945 298.464C275.344 298.182 275.643 297.853 275.793 297.431C275.943 297.149 275.993 296.82 275.993 296.491C275.993 295.692 275.544 294.941 274.895 294.518L294.855 261.915C295.204 262.056 295.553 262.15 295.903 262.15ZM343.706 480.597C343.706 480.268 343.656 479.939 343.506 479.658C343.307 479.235 343.007 478.906 342.608 478.624L362.618 446.022H362.668C362.967 446.162 363.316 446.209 363.666 446.209C365.013 446.209 366.111 445.223 366.26 444.001H406.23C406.33 444.753 406.729 445.411 407.377 445.787C407.777 446.068 408.276 446.209 408.825 446.209C409.224 446.209 409.573 446.115 409.872 445.974L429.882 478.577C429.233 479 428.784 479.752 428.784 480.55C428.784 481.161 428.984 481.678 429.383 482.1C429.533 482.241 429.682 482.382 429.882 482.523L409.872 515.126C409.623 515.032 409.373 514.938 409.074 514.938C408.974 514.938 408.874 514.938 408.825 514.938C407.477 514.938 406.379 515.924 406.23 517.146H366.26C366.211 516.582 365.911 516.065 365.512 515.643C365.113 515.267 364.564 514.985 363.915 514.938C363.815 514.938 363.716 514.938 363.666 514.938C363.267 514.938 362.917 515.032 362.618 515.173L342.658 482.57C343.307 482.147 343.706 481.443 343.706 480.597ZM501.737 517.146C501.687 516.582 501.388 516.065 500.988 515.643C500.539 515.22 499.841 514.938 499.142 514.938C498.743 514.938 498.394 515.032 498.094 515.173L478.085 482.57C478.135 482.523 478.185 482.523 478.234 482.476C478.833 482.007 479.182 481.349 479.182 480.597C479.182 479.799 478.733 479.047 478.085 478.624L498.044 446.022C498.394 446.162 498.743 446.256 499.092 446.256C500.44 446.256 501.537 445.27 501.687 444.048H541.656C541.806 445.27 542.904 446.256 544.251 446.256C544.351 446.256 544.451 446.256 544.501 446.256C544.8 446.209 545.049 446.162 545.299 446.068L565.309 478.671C564.66 479.094 564.211 479.846 564.211 480.644C564.211 481.255 564.41 481.772 564.81 482.194C564.959 482.335 565.109 482.476 565.309 482.617L545.299 515.22C544.95 515.079 544.6 514.985 544.251 514.985C543.702 514.985 543.203 515.126 542.804 515.408C542.155 515.784 541.756 516.441 541.656 517.193H501.737V517.146ZM496.847 221.702C496.647 222.031 496.547 222.454 496.547 222.877C496.547 223.675 496.997 224.427 497.645 224.85L477.636 257.452C477.286 257.311 476.937 257.218 476.588 257.218C475.49 257.218 474.592 257.828 474.193 258.721C474.093 258.956 474.043 259.191 473.993 259.426H434.024C433.874 258.204 432.776 257.218 431.429 257.218C431.03 257.218 430.68 257.311 430.331 257.452L410.371 224.85C411.02 224.427 411.469 223.675 411.469 222.877C411.469 222.078 411.02 221.326 410.371 220.904L430.381 188.301C430.73 188.442 431.08 188.536 431.429 188.536C432.776 188.536 433.874 187.549 434.024 186.328H473.993C474.043 186.657 474.143 186.986 474.292 187.268C474.741 188.019 475.59 188.536 476.588 188.536C476.987 188.536 477.336 188.442 477.636 188.301L497.645 220.904C497.296 221.092 497.046 221.373 496.847 221.702ZM295.903 188.489C297.05 188.489 298.048 187.737 298.397 186.751C298.447 186.61 298.497 186.422 298.497 186.281H338.517C338.666 187.502 339.764 188.489 341.111 188.489C341.51 188.489 341.86 188.395 342.159 188.254L362.169 220.857C361.72 221.186 361.37 221.608 361.221 222.125C361.121 222.36 361.121 222.595 361.121 222.877C361.121 223.675 361.57 224.427 362.219 224.85L342.259 257.452C341.91 257.311 341.56 257.218 341.211 257.218C340.213 257.218 339.365 257.734 338.916 258.486C338.816 258.627 338.766 258.768 338.716 258.956C338.666 259.097 338.616 259.285 338.616 259.426H298.647C298.497 258.204 297.4 257.218 296.052 257.218C295.653 257.218 295.304 257.311 294.954 257.452L274.995 224.85C275.643 224.427 276.093 223.675 276.093 222.877C276.093 222.078 275.643 221.326 274.995 220.904L295.004 188.301C295.204 188.442 295.553 188.489 295.903 188.489ZM228.189 372.595C228.738 372.595 229.237 372.454 229.636 372.172C230.285 371.796 230.684 371.139 230.784 370.387H270.753C270.903 371.609 272.001 372.595 273.348 372.595C273.747 372.595 274.097 372.501 274.446 372.36L294.406 404.963C293.757 405.386 293.308 406.137 293.308 406.936C293.308 407.782 293.757 408.486 294.406 408.909L274.396 441.512C274.047 441.371 273.697 441.277 273.348 441.277C272.001 441.277 270.903 442.263 270.753 443.485H230.784C230.634 442.263 229.537 441.277 228.189 441.277C227.79 441.277 227.441 441.371 227.141 441.512L207.132 408.909C207.78 408.486 208.23 407.735 208.23 406.936C208.23 406.278 207.93 405.668 207.481 405.198C207.381 405.104 207.281 405.01 207.182 404.963L227.141 372.407C227.441 372.548 227.79 372.595 228.189 372.595ZM208.23 480.597C208.23 479.799 207.78 479.047 207.132 478.624L227.141 446.022C227.491 446.162 227.84 446.256 228.189 446.256C229.537 446.256 230.634 445.27 230.784 444.048H270.753C270.903 445.27 272.001 446.256 273.348 446.256C273.448 446.256 273.548 446.256 273.598 446.256C273.897 446.209 274.146 446.162 274.396 446.068L294.406 478.671C293.757 479.094 293.308 479.846 293.308 480.644C293.308 480.879 293.358 481.161 293.408 481.396C293.408 481.49 293.457 481.537 293.507 481.584C293.607 481.819 293.757 482.007 293.907 482.194C294.056 482.335 294.206 482.476 294.406 482.617L274.396 515.22C274.047 515.079 273.697 514.985 273.348 514.985C272.001 514.985 270.903 515.972 270.753 517.193H230.784C230.734 516.864 230.634 516.535 230.485 516.253C230.036 515.502 229.187 514.985 228.189 514.985C227.79 514.985 227.441 515.079 227.141 515.22L207.132 482.617C207.78 482.147 208.23 481.443 208.23 480.597ZM431.429 551.769C431.03 551.769 430.68 551.863 430.381 552.004L410.371 519.401C411.02 518.978 411.469 518.227 411.469 517.428C411.469 517.005 411.369 516.629 411.17 516.253C410.97 515.925 410.721 515.643 410.421 515.455L430.431 482.852C430.68 482.946 430.93 483.04 431.229 483.04C431.329 483.04 431.429 483.04 431.479 483.04C432.826 483.04 433.924 482.054 434.074 480.832H474.043C474.093 481.067 474.143 481.302 474.242 481.537C474.642 482.429 475.54 483.04 476.638 483.04C477.037 483.04 477.386 482.946 477.686 482.805L497.695 515.408C497.645 515.455 497.595 515.455 497.545 515.502C496.947 515.971 496.597 516.629 496.597 517.381C496.597 518.179 497.046 518.931 497.695 519.354L477.735 551.957C477.386 551.816 477.037 551.722 476.688 551.722C475.34 551.722 474.242 552.708 474.093 553.93H434.123C433.874 552.755 432.776 551.769 431.429 551.769ZM566.905 551.769C566.506 551.769 566.157 551.863 565.857 552.004L545.848 519.401C545.898 519.354 545.948 519.354 545.998 519.307C546.596 518.837 546.946 518.18 546.946 517.428C546.946 516.629 546.497 515.878 545.848 515.455L565.857 482.852C566.207 482.993 566.556 483.087 566.905 483.087C568.253 483.087 569.35 482.1 569.5 480.879H609.469C609.569 482.053 610.567 482.946 611.815 483.087C611.914 483.087 612.014 483.087 612.064 483.087C612.164 483.087 612.264 483.087 612.314 483.087C612.613 483.04 612.863 482.993 613.112 482.899L633.122 515.502C632.473 515.924 632.024 516.676 632.024 517.475C632.024 518.227 632.373 518.931 632.972 519.354C633.022 519.401 633.072 519.401 633.122 519.448L613.112 552.051C612.763 551.91 612.413 551.816 612.064 551.816C610.717 551.816 609.619 552.802 609.469 554.024H569.5C569.35 552.755 568.253 551.769 566.905 551.769ZM679.777 446.256C679.877 446.256 679.977 446.256 680.027 446.256C680.326 446.209 680.576 446.162 680.825 446.068L700.835 478.671C700.186 479.094 699.737 479.846 699.737 480.644C699.737 481.255 699.937 481.772 700.336 482.194C700.486 482.335 700.635 482.476 700.835 482.617L680.825 515.22C680.476 515.079 680.127 514.985 679.777 514.985C678.43 514.985 677.332 515.972 677.183 517.193H637.213C637.163 516.864 637.064 516.535 636.914 516.253C636.465 515.502 635.617 514.985 634.619 514.985C634.219 514.985 633.87 515.079 633.571 515.22L613.561 482.617C614.21 482.194 614.659 481.443 614.659 480.644C614.659 479.846 614.21 479.094 613.561 478.671L614.559 477.027L633.521 446.068C633.87 446.209 634.219 446.303 634.569 446.303C635.916 446.303 637.014 445.317 637.164 444.095H677.133C677.332 445.27 678.43 446.256 679.777 446.256ZM542.455 224.568C542.904 224.991 543.602 225.273 544.301 225.273C544.7 225.273 545.049 225.179 545.349 225.038L565.358 257.64C564.71 258.063 564.261 258.815 564.261 259.613C564.261 260.224 564.46 260.741 564.859 261.164C565.009 261.305 565.159 261.446 565.358 261.586L545.349 294.189C545 294.048 544.65 293.954 544.301 293.954C542.954 293.954 541.856 294.941 541.706 296.162H501.737C501.687 295.598 501.388 295.082 500.988 294.659C500.539 294.236 499.841 293.954 499.142 293.954C498.743 293.954 498.394 294.048 498.094 294.189L478.085 261.586C478.384 261.352 478.684 261.07 478.833 260.788C479.033 260.459 479.133 260.036 479.133 259.613C479.133 258.956 478.833 258.345 478.384 257.875C478.284 257.781 478.185 257.687 478.085 257.64L498.094 225.038C498.444 225.179 498.793 225.273 499.142 225.273C500.14 225.273 500.988 224.756 501.438 224.004C501.587 223.722 501.687 223.393 501.737 223.065H541.706C541.756 223.675 542.056 224.192 542.455 224.568ZM474.741 114.123C475.191 114.546 475.889 114.828 476.588 114.828C476.987 114.828 477.336 114.734 477.636 114.593L497.645 147.195C497.346 147.43 497.046 147.665 496.897 147.994C496.697 148.323 496.597 148.746 496.597 149.169C496.597 149.779 496.797 150.296 497.196 150.719C497.346 150.86 497.496 151.001 497.695 151.142L477.686 183.744C477.336 183.603 476.987 183.509 476.638 183.509C475.64 183.509 474.791 184.026 474.342 184.778C474.193 185.06 474.093 185.388 474.043 185.717H434.074C434.024 185.388 433.924 185.06 433.774 184.778C433.325 184.026 432.477 183.509 431.479 183.509C431.08 183.509 430.73 183.603 430.431 183.744L410.371 151.236C411.02 150.813 411.469 150.061 411.469 149.262C411.469 148.464 411.02 147.712 410.371 147.289L430.381 114.687C430.73 114.828 431.08 114.922 431.429 114.922C432.776 114.922 433.874 113.935 434.024 112.714H473.993C474.043 113.23 474.292 113.747 474.741 114.123ZM271.502 224.615C271.951 225.038 272.65 225.32 273.348 225.32C273.747 225.32 274.097 225.226 274.396 225.085L294.356 257.687C293.956 257.969 293.657 258.298 293.507 258.721C293.358 259.003 293.308 259.332 293.308 259.707C293.308 260.318 293.507 260.835 293.907 261.258C294.056 261.399 294.206 261.54 294.406 261.68L274.446 294.283C274.097 294.142 273.747 294.048 273.398 294.048C272.3 294.048 271.402 294.659 271.003 295.551C270.903 295.786 270.853 296.021 270.803 296.256H230.834C230.784 295.927 230.684 295.598 230.535 295.317C230.085 294.565 229.237 294.048 228.239 294.048C227.84 294.048 227.491 294.142 227.191 294.283L207.182 261.68C207.83 261.258 208.279 260.506 208.279 259.707C208.279 258.909 207.83 258.157 207.182 257.734L227.191 225.132C227.541 225.273 227.89 225.367 228.239 225.367C229.586 225.367 230.684 224.38 230.834 223.159H270.803C270.803 223.722 271.103 224.239 271.502 224.615ZM162.771 479.423C162.322 478.671 161.474 478.154 160.476 478.154C160.077 478.154 159.727 478.248 159.428 478.389L139.418 445.787C140.067 445.364 140.516 444.612 140.516 443.814C140.516 443.015 140.067 442.263 139.418 441.84L159.378 409.285C159.678 409.426 160.077 409.52 160.426 409.52C160.875 409.52 161.324 409.426 161.674 409.191C162.422 408.815 162.921 408.11 163.021 407.312H202.99C203.14 408.533 204.238 409.52 205.585 409.52C205.984 409.52 206.333 409.426 206.683 409.285L226.692 441.887C226.044 442.31 225.594 443.062 225.594 443.86C225.594 444.659 226.044 445.411 226.692 445.834L211.224 471.061L206.683 478.436C206.333 478.295 205.984 478.201 205.635 478.201C204.288 478.201 203.19 479.188 203.04 480.409H163.071C163.021 480.033 162.921 479.705 162.771 479.423ZM298.447 553.507C298.098 552.52 297.15 551.769 295.952 551.769C295.553 551.769 295.204 551.863 294.905 552.004L274.895 519.401C275.544 518.978 275.993 518.227 275.993 517.428C275.993 517.099 275.943 516.77 275.793 516.488C275.594 516.066 275.294 515.737 274.895 515.455L294.905 482.852C295.254 482.993 295.603 483.087 295.952 483.087C297.3 483.087 298.398 482.1 298.547 480.879H338.517C338.616 481.772 339.265 482.57 340.113 482.899C340.413 483.04 340.762 483.087 341.111 483.087C341.51 483.087 341.86 482.993 342.159 482.852L362.169 515.455C361.52 515.878 361.071 516.629 361.071 517.428C361.071 518.273 361.52 518.978 362.169 519.401L342.159 552.004C341.81 551.863 341.461 551.769 341.111 551.769C339.764 551.769 338.666 552.755 338.517 553.977H298.547C298.497 553.836 298.497 553.648 298.447 553.507ZM365.961 589.868C365.512 589.116 364.664 588.599 363.666 588.599C363.267 588.599 362.917 588.693 362.618 588.834L342.608 556.232C343.257 555.809 343.706 555.057 343.706 554.258C343.706 553.46 343.257 552.708 342.608 552.285L362.618 519.683C362.867 519.777 363.117 519.871 363.416 519.871C363.516 519.871 363.616 519.871 363.666 519.871C365.013 519.871 366.111 518.884 366.26 517.663H406.23C406.33 518.837 407.328 519.73 408.575 519.871C408.675 519.871 408.775 519.871 408.825 519.871C409.224 519.871 409.573 519.777 409.872 519.636L429.882 552.238C429.233 552.661 428.784 553.413 428.784 554.211C428.784 555.01 429.233 555.762 429.882 556.185L415.411 579.814L409.922 588.787C409.573 588.646 409.224 588.552 408.874 588.552C407.527 588.552 406.429 589.539 406.28 590.76H366.31C366.26 590.478 366.161 590.15 365.961 589.868ZM501.438 589.868C500.988 589.116 500.14 588.599 499.142 588.599C498.743 588.599 498.394 588.693 498.094 588.834L478.085 556.232C478.733 555.809 479.182 555.057 479.182 554.258C479.182 553.46 478.733 552.708 478.085 552.285L498.044 519.683C498.394 519.824 498.743 519.918 499.092 519.918C499.741 519.918 500.29 519.73 500.739 519.354C501.238 518.931 501.587 518.367 501.687 517.71H541.656C541.756 518.884 542.754 519.777 544.002 519.918C544.101 519.918 544.201 519.918 544.251 519.918C544.351 519.918 544.451 519.918 544.501 519.918C544.8 519.871 545.049 519.824 545.299 519.73L565.309 552.332C565.259 552.379 565.209 552.379 565.159 552.426C564.56 552.896 564.211 553.554 564.211 554.305C564.211 555.104 564.66 555.856 565.309 556.279L545.299 588.881C544.95 588.74 544.6 588.646 544.251 588.646C543.602 588.646 543.054 588.834 542.604 589.21C542.105 589.586 541.756 590.197 541.656 590.854H501.687C501.737 590.478 501.637 590.15 501.438 589.868ZM406.978 77.3394C407.427 77.7622 408.126 78.044 408.825 78.044C409.224 78.044 409.573 77.9501 409.872 77.8092L429.882 110.412C429.233 110.835 428.784 111.586 428.784 112.385C428.784 113.183 429.233 113.935 429.882 114.358L415.411 137.988L409.922 146.961C409.573 146.82 409.224 146.726 408.874 146.726C407.527 146.726 406.429 147.712 406.28 148.934H366.31C366.26 148.605 366.161 148.276 366.011 147.994C365.562 147.242 364.714 146.726 363.716 146.726C363.316 146.726 362.967 146.82 362.668 146.961L342.658 114.358C343.307 113.935 343.756 113.183 343.756 112.385C343.756 111.586 343.307 110.835 342.658 110.412L362.668 77.8092C363.017 77.9501 363.366 78.044 363.716 78.044C365.063 78.044 366.161 77.0575 366.31 75.8361H406.28C406.28 76.3998 406.579 76.9166 406.978 77.3394ZM203.789 187.784C204.238 188.207 204.886 188.489 205.635 188.489C206.034 188.489 206.383 188.395 206.683 188.254L226.692 220.857C226.044 221.279 225.594 222.031 225.594 222.83C225.594 223.628 226.044 224.38 226.692 224.803L211.224 250.03L206.683 257.405C206.333 257.264 205.984 257.171 205.635 257.171C204.288 257.171 203.19 258.157 203.04 259.379H163.071C163.021 259.05 162.921 258.721 162.771 258.439C162.322 257.687 161.474 257.171 160.476 257.171C160.077 257.171 159.727 257.264 159.428 257.405L139.369 224.85C140.017 224.427 140.466 223.675 140.466 222.877C140.466 222.078 140.017 221.326 139.369 220.904L159.378 188.301C159.727 188.442 160.077 188.536 160.426 188.536C161.773 188.536 162.871 187.549 163.021 186.328H202.99C203.09 186.892 203.339 187.408 203.789 187.784ZM230.485 589.868C230.036 589.116 229.187 588.599 228.189 588.599C227.79 588.599 227.441 588.693 227.141 588.834L207.132 556.232C207.78 555.809 208.23 555.057 208.23 554.258C208.23 553.46 207.78 552.708 207.132 552.285L227.141 519.683C227.491 519.824 227.84 519.918 228.189 519.918C229.537 519.918 230.634 518.931 230.784 517.71H270.753C270.803 517.945 270.853 518.18 270.953 518.414C271.003 518.508 271.003 518.555 271.053 518.649C271.502 519.401 272.35 519.918 273.348 519.918C273.747 519.918 274.097 519.824 274.396 519.683L294.406 552.285C293.757 552.708 293.308 553.46 293.308 554.258C293.308 554.587 293.358 554.916 293.507 555.198C293.707 555.621 294.006 555.95 294.406 556.232L274.396 588.834C274.047 588.693 273.697 588.599 273.348 588.599C272.001 588.599 270.903 589.586 270.753 590.807H230.784C230.784 590.478 230.634 590.15 230.485 589.868ZM497.645 662.73C496.997 663.153 496.547 663.905 496.547 664.703C496.547 665.502 496.997 666.254 497.645 666.676L477.636 699.279C477.286 699.138 476.937 699.044 476.588 699.044C476.139 699.044 475.69 699.138 475.34 699.326C474.592 699.702 474.093 700.407 473.993 701.252H434.024C433.974 700.876 433.874 700.547 433.674 700.266C433.225 699.561 432.377 699.044 431.429 699.044C431.03 699.044 430.68 699.138 430.381 699.279L410.371 666.676C411.02 666.254 411.469 665.502 411.469 664.703C411.469 663.905 411.02 663.153 410.371 662.73L430.381 630.128C430.73 630.269 431.08 630.363 431.429 630.363C432.776 630.363 433.874 629.376 434.024 628.155H473.993C474.043 628.483 474.143 628.812 474.292 629.094C474.741 629.846 475.59 630.363 476.588 630.363C476.987 630.363 477.336 630.269 477.636 630.128L497.645 662.73ZM477.636 625.618C477.286 625.477 476.937 625.383 476.588 625.383C475.24 625.383 474.143 626.37 473.993 627.591H434.024C433.974 627.262 433.874 626.933 433.724 626.651C433.275 625.9 432.427 625.383 431.429 625.383C431.03 625.383 430.68 625.477 430.381 625.618L410.371 593.015C411.02 592.592 411.469 591.841 411.469 591.042C411.469 590.243 411.02 589.492 410.371 589.069L430.381 556.466C430.73 556.607 431.08 556.701 431.429 556.701C432.776 556.701 433.874 555.715 434.024 554.493H473.993C474.143 555.715 475.24 556.701 476.588 556.701C476.688 556.701 476.787 556.701 476.837 556.701C477.137 556.654 477.386 556.607 477.636 556.513L497.645 589.116C496.997 589.539 496.547 590.29 496.547 591.089C496.547 591.7 496.747 592.217 497.146 592.639C497.296 592.78 497.446 592.921 497.645 593.062L477.636 625.618ZM545.848 593.062C545.898 593.015 545.948 593.015 545.998 592.968C546.596 592.498 546.946 591.841 546.946 591.089C546.946 590.29 546.497 589.539 545.848 589.116L565.857 556.513C566.207 556.654 566.556 556.748 566.905 556.748C567.554 556.748 568.103 556.513 568.552 556.185C569.051 555.762 569.4 555.198 569.5 554.54H609.469C609.519 554.963 609.669 555.386 609.919 555.715C610.368 556.326 611.166 556.748 612.064 556.748C612.463 556.748 612.813 556.654 613.112 556.513L633.122 589.116C632.473 589.539 632.024 590.29 632.024 591.089C632.024 591.7 632.224 592.217 632.623 592.639C632.772 592.78 632.922 592.921 633.122 593.062L613.112 625.665C612.763 625.524 612.413 625.43 612.064 625.43C610.717 625.43 609.619 626.416 609.469 627.638H569.5C569.35 626.416 568.253 625.43 566.905 625.43C566.506 625.43 566.157 625.524 565.857 625.665L545.848 593.062ZM700.835 625.9C700.186 626.322 699.737 627.074 699.737 627.873C699.737 628.671 700.186 629.423 700.835 629.846L680.825 662.448C680.476 662.307 680.127 662.214 679.777 662.214C678.43 662.214 677.332 663.2 677.183 664.421H637.213C637.064 663.2 635.966 662.214 634.619 662.214C634.219 662.214 633.87 662.307 633.571 662.448L613.561 629.846C614.21 629.423 614.659 628.671 614.659 627.873C614.659 627.074 614.21 626.322 613.561 625.9L633.571 593.297C633.92 593.438 634.269 593.532 634.619 593.532C635.966 593.532 637.064 592.545 637.213 591.324H677.183C677.332 592.545 678.43 593.532 679.777 593.532C680.177 593.532 680.526 593.438 680.825 593.297L700.835 625.9ZM680.875 588.834C680.526 588.693 680.177 588.599 679.827 588.599C679.378 588.599 678.979 588.693 678.58 588.881C677.831 589.257 677.332 589.962 677.233 590.807H637.263C637.213 590.431 637.114 590.103 636.914 589.821C636.465 589.116 635.617 588.599 634.669 588.599C634.269 588.599 633.92 588.693 633.621 588.834L613.611 556.232C614.26 555.809 614.709 555.057 614.709 554.258C614.709 553.46 614.26 552.708 613.611 552.285L633.621 519.683C633.97 519.824 634.319 519.918 634.669 519.918C636.016 519.918 637.114 518.931 637.263 517.71H677.233C677.283 518.039 677.382 518.367 677.532 518.649C677.831 519.119 678.28 519.542 678.829 519.73C679.129 519.871 679.478 519.918 679.827 519.918C680.227 519.918 680.576 519.824 680.875 519.683L700.885 552.285C700.236 552.708 699.787 553.46 699.787 554.258C699.787 555.057 700.236 555.809 700.885 556.232L680.875 588.834ZM744.946 553.977H704.977C704.877 553.084 704.278 552.285 703.38 551.957C703.08 551.816 702.731 551.769 702.382 551.769C701.983 551.769 701.633 551.863 701.334 552.004L681.324 519.401C681.973 518.978 682.422 518.227 682.422 517.428C682.422 516.629 681.973 515.878 681.324 515.455L701.334 482.852H701.384C701.683 482.993 702.032 483.04 702.382 483.04C703.729 483.04 704.827 482.054 704.977 480.832H744.946C745.046 481.725 745.644 482.523 746.543 482.852C746.842 482.993 747.191 483.04 747.541 483.04C747.94 483.04 748.289 482.946 748.589 482.805L768.598 515.408C767.949 515.831 767.5 516.582 767.5 517.381C767.5 518.179 767.949 518.931 768.598 519.354L748.589 551.957C748.239 551.816 747.89 551.722 747.541 551.722C746.193 551.816 745.096 552.755 744.946 553.977ZM836.311 478.624C835.663 479.047 835.214 479.799 835.214 480.597C835.214 481.396 835.663 482.147 836.311 482.57L816.302 515.173C815.953 515.032 815.603 514.938 815.254 514.938C813.907 514.938 812.809 515.924 812.659 517.146H772.69C772.59 516.253 771.991 515.455 771.093 515.126C770.794 514.985 770.444 514.938 770.095 514.938C769.696 514.938 769.347 515.032 769.047 515.173L749.038 482.57C749.686 482.147 750.135 481.396 750.135 480.597C750.135 479.799 749.686 479.047 749.038 478.624L769.047 446.022C769.397 446.162 769.746 446.256 770.095 446.256C771.442 446.256 772.54 445.27 772.69 444.048H812.659C812.809 445.27 813.907 446.256 815.254 446.256C815.653 446.256 816.002 446.162 816.302 446.022L836.311 478.624ZM768.598 441.793C767.949 442.216 767.5 442.968 767.5 443.767C767.5 444.565 767.949 445.317 768.598 445.74L748.589 478.342H748.539C748.239 478.201 747.89 478.154 747.541 478.154C746.193 478.154 745.096 479.141 744.946 480.362H704.977C704.877 479.517 704.378 478.812 703.629 478.436C703.28 478.248 702.831 478.154 702.382 478.154C701.983 478.154 701.633 478.248 701.334 478.389L681.324 445.787C681.973 445.364 682.422 444.612 682.422 443.814C682.422 443.015 681.973 442.263 681.324 441.84L701.334 409.238C701.683 409.379 702.032 409.473 702.382 409.473C703.729 409.473 704.827 408.486 704.977 407.265H744.946C745.096 408.486 746.193 409.473 747.541 409.473C747.94 409.473 748.289 409.379 748.589 409.238L768.598 441.793ZM700.835 404.963C700.186 405.386 699.737 406.137 699.737 406.936C699.737 407.688 700.086 408.392 700.685 408.815C700.735 408.862 700.785 408.862 700.835 408.909L680.825 441.512C680.476 441.371 680.127 441.277 679.777 441.277C678.43 441.277 677.332 442.263 677.183 443.485H637.213C637.064 442.263 635.966 441.277 634.619 441.277C634.219 441.277 633.87 441.371 633.571 441.512L613.561 408.909C614.21 408.486 614.659 407.735 614.659 406.936C614.659 406.607 614.609 406.278 614.459 405.996C614.26 405.574 613.96 405.245 613.611 404.963L633.621 372.36C633.97 372.501 634.319 372.595 634.669 372.595C636.016 372.595 637.114 371.609 637.263 370.387H677.233C677.283 370.622 677.332 370.904 677.432 371.092C677.831 371.984 678.73 372.595 679.827 372.595C680.227 372.595 680.576 372.501 680.875 372.36L700.835 404.963ZM700.835 331.349C700.186 331.771 699.737 332.523 699.737 333.322C699.737 334.12 700.186 334.872 700.835 335.295L680.825 367.897C680.476 367.756 680.127 367.662 679.777 367.662C678.43 367.662 677.332 368.649 677.183 369.87H637.213C637.163 369.542 637.064 369.213 636.914 368.978C636.465 368.226 635.617 367.709 634.619 367.709C634.219 367.709 633.87 367.803 633.571 367.944L613.561 335.342C614.21 334.919 614.659 334.167 614.659 333.369C614.659 332.57 614.21 331.818 613.561 331.396L633.571 298.793C633.92 298.934 634.269 299.028 634.619 299.028C635.966 299.028 637.064 298.041 637.213 296.82H677.183C677.233 297.149 677.332 297.478 677.482 297.759C677.931 298.511 678.779 299.028 679.777 299.028C680.177 299.028 680.526 298.934 680.825 298.793L700.835 331.349ZM680.875 294.283C680.526 294.142 680.177 294.048 679.827 294.048C678.48 294.048 677.382 295.035 677.233 296.256H637.263C637.213 295.927 637.114 295.598 636.964 295.317C636.515 294.565 635.667 294.048 634.669 294.048C634.269 294.048 633.92 294.142 633.621 294.283L613.611 261.68C614.26 261.258 614.709 260.506 614.709 259.707C614.709 258.909 614.26 258.157 613.611 257.734L614.609 256.09L633.571 225.132C633.92 225.273 634.269 225.367 634.619 225.367C635.966 225.367 637.064 224.38 637.213 223.159H677.183C677.233 223.722 677.532 224.239 677.931 224.662C678.38 225.085 679.079 225.367 679.777 225.367C680.177 225.367 680.526 225.273 680.825 225.132L700.835 257.734C700.186 258.157 699.737 258.909 699.737 259.707C699.737 260.318 699.937 260.835 700.336 261.258C700.486 261.399 700.635 261.54 700.835 261.68L680.875 294.283ZM768.598 220.857C767.949 221.279 767.5 222.031 767.5 222.83C767.5 223.628 767.949 224.38 768.598 224.803L748.589 257.405C748.239 257.264 747.89 257.171 747.541 257.171C746.193 257.171 745.096 258.157 744.946 259.379H704.977C704.927 259.05 704.827 258.721 704.677 258.439C704.228 257.687 703.38 257.171 702.382 257.171C701.983 257.171 701.633 257.264 701.334 257.405L681.324 224.85C681.973 224.427 682.422 223.675 682.422 222.877C682.422 222.078 681.973 221.326 681.324 220.904L701.334 188.301C701.683 188.442 702.032 188.536 702.382 188.536C703.729 188.536 704.827 187.549 704.977 186.328H744.946C745.096 187.549 746.193 188.536 747.541 188.536C747.94 188.536 748.289 188.442 748.589 188.301L768.598 220.857ZM633.571 151.47C633.92 151.611 634.269 151.705 634.619 151.705C635.966 151.705 637.064 150.719 637.213 149.497H677.183C677.332 150.719 678.43 151.705 679.777 151.705C680.177 151.705 680.526 151.611 680.825 151.47L700.835 184.073C700.186 184.496 699.737 185.247 699.737 186.046C699.737 186.798 700.086 187.502 700.685 187.925C700.735 187.972 700.785 187.972 700.835 188.019L680.825 220.622C680.476 220.481 680.127 220.387 679.777 220.387C678.43 220.387 677.332 221.373 677.183 222.595H637.213C637.064 221.373 635.966 220.387 634.619 220.387C634.219 220.387 633.87 220.481 633.571 220.622L613.561 188.019C614.21 187.596 614.659 186.845 614.659 186.046C614.659 185.388 614.36 184.778 613.91 184.308C613.811 184.214 613.711 184.12 613.611 184.073L633.571 151.47ZM565.358 184.073C564.71 184.496 564.261 185.247 564.261 186.046C564.261 186.798 564.61 187.502 565.209 187.925C565.259 187.972 565.309 187.972 565.358 188.019L545.349 220.622C545 220.481 544.65 220.387 544.301 220.387C542.954 220.387 541.856 221.373 541.706 222.595H501.737C501.587 221.373 500.489 220.387 499.142 220.387C498.743 220.387 498.394 220.481 498.094 220.622L478.085 188.019C478.484 187.737 478.783 187.408 478.933 186.986C479.083 186.704 479.133 186.375 479.133 186.046C479.133 185.247 478.683 184.496 478.035 184.073L498.044 151.47C498.394 151.611 498.743 151.705 499.092 151.705C500.09 151.705 500.939 151.189 501.388 150.437C501.537 150.155 501.637 149.873 501.687 149.544H541.656C541.806 150.766 542.904 151.752 544.251 151.752C544.65 151.752 545 151.658 545.349 151.517L565.358 184.073ZM565.358 110.412C564.71 110.835 564.261 111.586 564.261 112.385C564.261 113.183 564.71 113.935 565.358 114.358L545.349 146.961C545 146.82 544.65 146.726 544.301 146.726C543.303 146.726 542.455 147.242 542.006 147.994C541.856 148.276 541.756 148.558 541.706 148.887H501.737C501.587 147.665 500.489 146.679 499.142 146.679C498.743 146.679 498.394 146.773 498.044 146.914L478.035 114.311C478.683 113.888 479.133 113.136 479.133 112.338C479.133 111.539 478.683 110.788 478.035 110.365L498.044 77.7622C498.394 77.9031 498.743 77.9971 499.142 77.9971C500.489 77.9971 501.587 77.0105 501.737 75.7891H541.706C541.756 76.024 541.806 76.2589 541.906 76.4938C542.305 77.3864 543.203 77.9971 544.301 77.9971C544.7 77.9971 545.049 77.9031 545.349 77.7622L565.358 110.412ZM498.094 4.19488C498.444 4.33582 498.793 4.42977 499.142 4.42977C500.489 4.42977 501.587 3.44323 501.737 2.22181H541.706C541.856 3.44323 542.954 4.42977 544.301 4.42977C544.7 4.42977 545.049 4.33582 545.349 4.19488L565.358 36.7975C564.71 37.2203 564.261 37.972 564.261 38.7706C564.261 39.5692 564.71 40.3208 565.358 40.7436L545.349 73.3463C545 73.2053 544.65 73.1114 544.251 73.1114C542.904 73.1114 541.806 74.0979 541.656 75.3193H501.687C501.637 75.0844 501.587 74.8496 501.487 74.6147C501.338 74.3328 501.188 74.0509 500.939 73.816C500.489 73.3932 499.791 73.1114 499.092 73.1114C498.693 73.1114 498.344 73.2053 498.044 73.3463L478.085 40.7436C478.733 40.3208 479.182 39.5692 479.182 38.7706C479.182 38.4417 479.133 38.1129 478.983 37.831C478.783 37.4082 478.484 37.0794 478.085 36.7975L498.094 4.19488ZM430.331 40.9785C430.68 41.1195 431.03 41.2134 431.379 41.2134C432.726 41.2134 433.824 40.2269 433.974 39.0055H473.943C473.993 39.2403 474.043 39.4752 474.143 39.7101C474.542 40.6027 475.44 41.2134 476.538 41.2134C476.937 41.2134 477.286 41.1195 477.586 40.9785L497.545 73.5812C496.897 74.004 496.448 74.7556 496.448 75.5542C496.448 75.8831 496.498 76.2119 496.647 76.4938C496.847 76.9166 497.146 77.2454 497.495 77.5273L477.486 110.13C477.137 109.989 476.787 109.895 476.438 109.895C475.091 109.895 473.993 110.882 473.843 112.103H433.874C433.724 110.882 432.626 109.895 431.279 109.895C430.88 109.895 430.531 109.989 430.231 110.13L410.371 77.5743C411.02 77.1515 411.469 76.3998 411.469 75.6012C411.469 74.9435 411.17 74.3328 410.721 73.863C410.621 73.7691 410.521 73.6751 410.421 73.6281L430.331 40.9785ZM274.895 77.5743C275.544 77.1515 275.993 76.3998 275.993 75.6012C275.993 74.8026 275.544 74.0509 274.895 73.6281L294.905 41.0255C295.254 41.1664 295.603 41.2604 295.952 41.2604C297.3 41.2604 298.398 40.2739 298.547 39.0524H338.517C338.666 40.2739 339.764 41.2604 341.111 41.2604C341.51 41.2604 341.86 41.1664 342.159 41.0255L362.169 73.6281C361.52 74.0509 361.071 74.8026 361.071 75.6012C361.071 76.3529 361.42 77.0575 362.019 77.4803C362.069 77.5273 362.119 77.5273 362.169 77.5743L342.159 110.177C341.81 110.036 341.461 109.942 341.111 109.942C339.764 109.942 338.666 110.929 338.517 112.15H298.547C298.398 110.929 297.3 109.942 295.952 109.942C295.553 109.942 295.204 110.036 294.905 110.177L274.895 77.5743ZM294.855 114.64C295.204 114.781 295.553 114.875 295.903 114.875C297.25 114.875 298.348 113.888 298.497 112.667H338.517C338.566 113.23 338.866 113.747 339.265 114.17C339.714 114.593 340.363 114.875 341.111 114.875C341.51 114.875 341.86 114.781 342.159 114.64L362.169 147.242C361.52 147.665 361.071 148.417 361.071 149.215C361.071 149.826 361.271 150.343 361.67 150.766C361.819 150.907 361.969 151.048 362.169 151.189L342.159 183.791C341.81 183.65 341.461 183.556 341.111 183.556C339.964 183.556 338.966 184.308 338.616 185.294C338.566 185.435 338.517 185.623 338.517 185.764H298.547C298.398 184.543 297.3 183.556 295.952 183.556C295.553 183.556 295.204 183.65 294.905 183.791L274.895 151.189C275.344 150.86 275.693 150.437 275.843 149.92C275.943 149.685 275.943 149.45 275.943 149.169C275.943 148.37 275.494 147.618 274.845 147.195L294.855 114.64ZM227.141 151.47C227.491 151.611 227.84 151.705 228.189 151.705C229.537 151.705 230.634 150.719 230.784 149.497H270.753C270.903 150.719 272.001 151.705 273.348 151.705C273.747 151.705 274.097 151.611 274.396 151.47L294.406 184.073C294.006 184.355 293.707 184.684 293.507 185.107C293.358 185.388 293.308 185.717 293.308 186.046C293.308 186.798 293.657 187.502 294.256 187.925C294.306 187.972 294.356 187.972 294.406 188.019L274.396 220.622C274.047 220.481 273.697 220.387 273.348 220.387C272.001 220.387 270.903 221.373 270.753 222.595H230.784C230.634 221.373 229.537 220.387 228.189 220.387C227.79 220.387 227.441 220.481 227.141 220.622L207.132 188.019C207.78 187.596 208.23 186.845 208.23 186.046C208.23 185.388 207.93 184.778 207.481 184.308C207.381 184.214 207.281 184.12 207.182 184.073L227.141 151.47ZM71.6553 188.066C72.304 187.643 72.7531 186.892 72.7531 186.093C72.7531 185.294 72.304 184.543 71.6553 184.12L91.6649 151.517C92.0142 151.658 92.3635 151.752 92.7128 151.752C94.0601 151.752 95.1579 150.766 95.3076 149.544H135.277C135.427 150.766 136.524 151.752 137.872 151.752C138.271 151.752 138.62 151.658 138.919 151.517L158.929 184.12C158.28 184.543 157.831 185.294 157.831 186.093C157.831 186.845 158.181 187.549 158.779 187.972C158.829 188.019 158.879 188.019 158.929 188.066L138.919 220.622C138.57 220.481 138.221 220.387 137.872 220.387C136.524 220.387 135.427 221.373 135.277 222.595H95.3076C95.1579 221.373 94.0601 220.387 92.7128 220.387C92.3136 220.387 91.9643 220.481 91.6649 220.622L71.6553 188.066ZM71.6553 261.68C72.304 261.258 72.7531 260.506 72.7531 259.707C72.7531 258.909 72.304 258.157 71.6553 257.734L91.6649 225.132C92.0142 225.273 92.3635 225.367 92.7128 225.367C94.0601 225.367 95.1579 224.38 95.3076 223.159H135.277C135.327 223.722 135.626 224.239 136.025 224.662C136.474 225.085 137.173 225.367 137.872 225.367C138.271 225.367 138.62 225.273 138.919 225.132L158.929 257.734C158.28 258.157 157.831 258.909 157.831 259.707C157.831 260.318 158.031 260.835 158.43 261.258C158.58 261.399 158.73 261.54 158.929 261.68L138.919 294.283C138.57 294.142 138.221 294.048 137.872 294.048C136.524 294.048 135.427 295.035 135.277 296.256H95.3076C95.1579 295.035 94.0601 294.048 92.7128 294.048C92.3136 294.048 91.9643 294.142 91.6649 294.283L71.6553 261.68ZM139.369 298.511C140.017 298.088 140.466 297.337 140.466 296.538C140.466 295.739 140.017 294.988 139.369 294.565L159.378 261.962C159.727 262.103 160.077 262.197 160.426 262.197C161.773 262.197 162.871 261.211 163.021 259.989H202.99C203.14 261.211 204.238 262.197 205.585 262.197C205.984 262.197 206.333 262.103 206.633 261.962L226.642 294.565C225.994 294.988 225.545 295.739 225.545 296.538C225.545 297.29 225.894 297.994 226.493 298.417C226.543 298.464 226.592 298.464 226.642 298.511L206.633 331.114C206.283 330.973 205.934 330.879 205.585 330.879C204.238 330.879 203.14 331.865 202.99 333.087H163.021C162.871 331.865 161.773 330.879 160.426 330.879C160.027 330.879 159.678 330.973 159.378 331.114L139.369 298.511ZM159.378 335.577C159.727 335.718 160.077 335.811 160.426 335.811C161.773 335.811 162.871 334.825 163.021 333.604H202.99C203.04 334.167 203.339 334.684 203.739 335.107C204.188 335.53 204.886 335.811 205.585 335.811C205.984 335.811 206.333 335.718 206.633 335.577L226.642 368.179C225.994 368.602 225.545 369.354 225.545 370.152C225.545 370.763 225.744 371.28 226.143 371.703C226.293 371.843 226.443 371.984 226.642 372.125L206.683 404.681C206.383 404.54 205.984 404.446 205.635 404.446C205.086 404.446 204.587 404.587 204.188 404.869C203.539 405.245 203.14 405.902 203.04 406.654H163.071C163.021 406.09 162.721 405.574 162.322 405.151C161.873 404.728 161.175 404.446 160.476 404.446C160.077 404.446 159.727 404.54 159.428 404.681L139.418 372.125C140.067 371.703 140.516 370.951 140.516 370.152C140.516 369.307 140.067 368.602 139.418 368.179L159.378 335.577ZM91.6649 372.36C92.0142 372.501 92.3635 372.595 92.7128 372.595C94.0601 372.595 95.1579 371.609 95.3076 370.387H135.277C135.427 371.609 136.524 372.595 137.872 372.595C138.271 372.595 138.62 372.501 138.919 372.36L158.929 404.963C158.28 405.386 157.831 406.137 157.831 406.936C157.831 407.782 158.28 408.486 158.929 408.909L138.969 441.465C138.62 441.324 138.271 441.23 137.922 441.23C136.574 441.23 135.476 442.216 135.327 443.438H95.3575C95.2078 442.216 94.11 441.23 92.7627 441.23C92.3635 441.23 92.0142 441.324 91.7148 441.465L71.7052 408.862C72.3539 408.439 72.803 407.688 72.803 406.889C72.803 406.795 72.803 406.701 72.803 406.654C72.7032 405.949 72.304 405.339 71.7551 404.916L91.6649 372.36ZM3.94204 445.787C4.59073 445.364 5.03982 444.612 5.03982 443.814C5.03982 443.015 4.59073 442.263 3.94204 441.84L23.9516 409.238C24.3009 409.379 24.6502 409.473 24.9995 409.473C26.3468 409.473 27.4446 408.486 27.5943 407.265H67.5636C67.7133 408.486 68.8111 409.473 70.1583 409.473C70.5575 409.473 70.9068 409.379 71.2062 409.238L91.2158 441.84C90.617 442.263 90.2178 442.874 90.1679 443.579C90.1679 443.673 90.1679 443.767 90.1679 443.814C90.1679 444.612 90.617 445.364 91.2657 445.787L71.2561 478.389C70.9068 478.248 70.5575 478.154 70.2082 478.154C68.861 478.154 67.7632 479.141 67.6135 480.362H27.6442C27.4945 479.141 26.3967 478.154 25.0494 478.154C24.6502 478.154 24.3009 478.248 24.0015 478.389L3.94204 445.787ZM71.6553 482.57C72.304 482.147 72.7531 481.396 72.7531 480.597C72.7531 479.799 72.304 479.047 71.6553 478.624L91.6649 446.022C92.0142 446.162 92.3635 446.256 92.7128 446.256C94.0601 446.256 95.1579 445.27 95.3076 444.048H135.277C135.327 444.612 135.626 445.129 136.025 445.552C136.474 445.975 137.173 446.256 137.872 446.256C138.271 446.256 138.62 446.162 138.919 446.022L158.929 478.624C158.28 479.047 157.831 479.799 157.831 480.597C157.831 481.208 158.031 481.725 158.43 482.147C158.58 482.288 158.73 482.429 158.929 482.57L138.919 515.173C138.57 515.032 138.221 514.938 137.872 514.938C136.524 514.938 135.427 515.924 135.277 517.146H95.3076C95.1579 515.924 94.0601 514.938 92.7128 514.938C92.3136 514.938 91.9643 515.032 91.6649 515.173L71.6553 482.57ZM139.418 519.401C140.067 518.978 140.516 518.227 140.516 517.428C140.516 516.629 140.067 515.878 139.418 515.455L159.428 482.852C159.777 482.993 160.127 483.087 160.476 483.087C161.823 483.087 162.921 482.1 163.071 480.879H203.04C203.19 482.1 204.288 483.087 205.635 483.087C206.034 483.087 206.383 482.993 206.683 482.852L226.692 515.455C226.044 515.878 225.594 516.629 225.594 517.428C225.594 518.18 225.944 518.884 226.543 519.307C226.592 519.354 226.642 519.354 226.692 519.401L206.683 552.004C206.333 551.863 205.984 551.769 205.635 551.769C204.288 551.769 203.19 552.755 203.04 553.977H163.071C162.921 552.755 161.823 551.769 160.476 551.769C160.077 551.769 159.727 551.863 159.428 552.004L139.418 519.401ZM206.683 625.665C206.333 625.524 205.984 625.43 205.635 625.43C204.288 625.43 203.19 626.416 203.04 627.638H163.071C162.921 626.416 161.823 625.43 160.476 625.43C160.077 625.43 159.727 625.524 159.428 625.665L139.418 593.062C140.067 592.639 140.516 591.888 140.516 591.089C140.516 590.29 140.067 589.539 139.418 589.116L159.428 556.513C159.777 556.654 160.127 556.748 160.476 556.748C161.823 556.748 162.921 555.762 163.071 554.54H203.04C203.09 555.104 203.389 555.621 203.789 556.044C204.238 556.466 204.936 556.748 205.635 556.748C206.034 556.748 206.383 556.654 206.683 556.513L226.692 589.116C226.044 589.539 225.594 590.29 225.594 591.089C225.594 591.7 225.794 592.217 226.193 592.639C226.343 592.78 226.493 592.921 226.692 593.062L206.683 625.665ZM274.895 593.062C275.544 592.639 275.993 591.888 275.993 591.089C275.993 590.76 275.943 590.431 275.793 590.15C275.594 589.727 275.294 589.398 274.895 589.116L294.905 556.513C295.254 556.654 295.603 556.748 295.952 556.748C297.3 556.748 298.398 555.762 298.547 554.54H338.517C338.666 555.762 339.764 556.748 341.111 556.748C341.211 556.748 341.311 556.748 341.361 556.748C341.66 556.701 341.91 556.654 342.159 556.56L362.169 589.163C361.52 589.586 361.071 590.337 361.071 591.136C361.071 591.747 361.271 592.264 361.67 592.686C361.819 592.827 361.969 592.968 362.169 593.109L342.159 625.712C341.81 625.571 341.461 625.477 341.111 625.477C339.764 625.477 338.666 626.463 338.517 627.685H298.547C298.398 626.463 297.3 625.477 295.952 625.477C295.553 625.477 295.204 625.571 294.905 625.712L274.895 593.062ZM342.608 629.846C343.257 629.423 343.706 628.671 343.706 627.873C343.706 627.074 343.257 626.322 342.608 625.9L362.618 593.297C362.967 593.438 363.316 593.532 363.666 593.532C365.013 593.532 366.111 592.545 366.26 591.324H406.23C406.33 592.498 407.328 593.391 408.575 593.532C408.675 593.532 408.775 593.532 408.825 593.532C408.924 593.532 409.024 593.532 409.074 593.532C409.373 593.485 409.623 593.438 409.872 593.344L429.882 625.947C429.233 626.369 428.784 627.121 428.784 627.92C428.784 628.671 429.134 629.376 429.732 629.799C429.782 629.846 429.832 629.846 429.882 629.893L409.872 662.495C409.523 662.354 409.174 662.26 408.825 662.26C407.477 662.26 406.379 663.247 406.23 664.469H366.26C366.111 663.247 365.013 662.26 363.666 662.26C363.267 662.26 362.917 662.354 362.618 662.495L342.608 629.846ZM342.608 703.507C343.257 703.084 343.706 702.333 343.706 701.534C343.706 700.735 343.257 699.984 342.608 699.561L362.618 666.958C362.967 667.099 363.316 667.193 363.666 667.193C365.013 667.193 366.111 666.207 366.26 664.985H406.23C406.28 665.408 406.429 665.831 406.679 666.16C407.128 666.77 407.926 667.193 408.825 667.193C409.224 667.193 409.573 667.099 409.872 666.958L429.882 699.561C429.233 699.984 428.784 700.735 428.784 701.534C428.784 702.145 428.984 702.661 429.383 703.084C429.533 703.225 429.682 703.366 429.882 703.507L409.872 736.11C409.523 735.969 409.174 735.875 408.825 735.875C407.477 735.875 406.379 736.861 406.23 738.083H366.26C366.111 736.861 365.013 735.875 363.666 735.875C363.267 735.875 362.917 735.969 362.618 736.11L342.608 703.507ZM410.371 740.338C411.02 739.915 411.469 739.163 411.469 738.365C411.469 737.566 411.02 736.814 410.371 736.392L430.381 703.789C430.73 703.93 431.08 704.024 431.429 704.024C432.776 704.024 433.874 703.037 434.024 701.816H473.993C474.143 703.037 475.24 704.024 476.588 704.024C476.987 704.024 477.336 703.93 477.636 703.789L497.645 736.392C496.997 736.814 496.547 737.566 496.547 738.365C496.547 739.163 496.997 739.915 497.645 740.338L477.636 772.94C477.286 772.799 476.937 772.705 476.588 772.705C475.24 772.705 474.143 773.692 473.993 774.913H434.024C433.874 773.692 432.776 772.705 431.429 772.705C431.03 772.705 430.68 772.799 430.381 772.94L410.371 740.338Z" fill="#CFD8E9" fill-opacity="0.85"/>
</svg>
