<svg width="308" height="700" viewBox="0 0 308 700" fill="none" xmlns="http://www.w3.org/2000/svg">
<path d="M434.315 697.181H474.284C474.434 698.402 475.532 699.389 476.879 699.389C478.326 699.389 479.474 698.308 479.474 696.946C479.474 696.147 479.025 695.396 478.376 694.973L498.386 662.37C498.735 662.511 499.084 662.605 499.434 662.605C500.881 662.605 502.028 661.525 502.028 660.162C502.028 658.8 500.881 657.72 499.434 657.72C499.034 657.72 498.685 657.813 498.386 657.954L478.376 625.352C479.025 624.929 479.474 624.177 479.474 623.379C479.474 622.58 479.025 621.828 478.376 621.406L498.386 588.803C498.735 588.944 499.084 589.038 499.434 589.038C500.881 589.038 502.028 587.957 502.028 586.595C502.028 585.233 500.881 584.152 499.434 584.152C499.034 584.152 498.685 584.246 498.386 584.387L478.376 551.784C479.025 551.362 479.474 550.61 479.474 549.811C479.474 549.389 479.374 549.013 479.174 548.637C478.975 548.308 478.725 548.026 478.426 547.838L498.436 515.236C498.785 515.377 499.134 515.471 499.483 515.471C500.831 515.471 501.928 514.484 502.078 513.263H542.047C542.197 514.484 543.295 515.471 544.642 515.471C545.041 515.471 545.391 515.377 545.69 515.236L565.7 547.838C565.051 548.261 564.602 549.013 564.602 549.811C564.602 551.174 565.75 552.254 567.197 552.254C568.544 552.254 569.642 551.268 569.791 550.046H609.761C609.91 551.268 611.008 552.254 612.355 552.254C612.755 552.254 613.104 552.16 613.403 552.019L633.413 584.622C632.764 585.045 632.315 585.796 632.315 586.595C632.315 587.957 633.463 589.038 634.91 589.038C636.257 589.038 637.355 588.051 637.505 586.83H677.474C677.624 588.051 678.721 589.038 680.069 589.038C681.516 589.038 682.664 587.957 682.664 586.595C682.664 585.796 682.214 585.045 681.566 584.622L701.575 552.019C701.925 552.16 702.274 552.254 702.623 552.254C704.07 552.254 705.218 551.174 705.218 549.811C705.218 548.449 704.07 547.369 702.623 547.369C702.224 547.369 701.875 547.463 701.575 547.603L681.566 515.001C682.214 514.578 682.664 513.826 682.664 513.028C682.664 512.229 682.214 511.478 681.566 511.055L701.575 478.452C701.575 478.452 701.625 478.452 701.625 478.499C701.925 478.64 702.274 478.687 702.623 478.687C703.971 478.687 705.068 477.7 705.218 476.479H745.187C745.337 477.7 746.435 478.687 747.782 478.687C749.229 478.687 750.377 477.607 750.377 476.244C750.377 475.446 749.928 474.694 749.279 474.271L769.289 441.668C769.638 441.809 769.987 441.903 770.336 441.903C771.684 441.903 772.782 440.917 772.931 439.695H812.901C813.05 440.917 814.148 441.903 815.495 441.903C816.942 441.903 818.09 440.823 818.09 439.46C818.09 438.662 817.641 437.91 816.992 437.487L837.002 404.885C837.351 405.026 837.701 405.12 838.05 405.12C839.497 405.12 840.645 404.039 840.645 402.677C840.645 401.314 839.497 400.234 838.05 400.234C837.651 400.234 837.301 400.328 837.002 400.469L816.992 367.866C817.641 367.443 818.09 366.692 818.09 365.893C818.09 364.531 816.942 363.45 815.495 363.45C814.148 363.45 813.05 364.437 812.901 365.658H772.931C772.881 365.282 772.782 364.954 772.582 364.672C772.133 363.967 771.285 363.45 770.336 363.45C769.937 363.45 769.588 363.544 769.289 363.685L749.279 331.083C749.928 330.66 750.377 329.908 750.377 329.109C750.377 327.747 749.229 326.667 747.782 326.667C746.435 326.667 745.337 327.653 745.187 328.875H705.218C705.168 328.311 704.869 327.794 704.469 327.371C704.02 326.949 703.322 326.667 702.623 326.667C702.224 326.667 701.875 326.761 701.575 326.902L681.566 294.299C682.214 293.876 682.664 293.124 682.664 292.326C682.664 291.903 682.564 291.527 682.364 291.151C682.165 290.823 681.915 290.541 681.616 290.306L701.625 257.703C701.975 257.844 702.324 257.938 702.673 257.938C704.12 257.938 705.268 256.858 705.268 255.495C705.268 254.133 704.12 253.052 702.673 253.052C702.274 253.052 701.925 253.146 701.625 253.287L681.616 220.685C682.264 220.262 682.713 219.51 682.713 218.712C682.713 218.289 682.614 217.913 682.414 217.537C682.214 217.208 681.965 216.926 681.666 216.738L701.675 184.136C702.024 184.277 702.374 184.371 702.723 184.371C704.07 184.371 705.168 183.384 705.318 182.163H745.287C745.437 183.384 746.535 184.371 747.882 184.371C749.329 184.371 750.477 183.29 750.477 181.928C750.477 181.129 750.027 180.378 749.379 179.955L769.388 147.352C769.738 147.493 770.087 147.587 770.436 147.587C771.883 147.587 773.031 146.507 773.031 145.144C773.031 143.782 771.883 142.701 770.436 142.701C770.037 142.701 769.688 142.795 769.388 142.936L749.379 110.334C750.027 109.911 750.477 109.159 750.477 108.361C750.477 106.998 749.329 105.918 747.882 105.918C746.535 105.918 745.437 106.904 745.287 108.126H705.318C705.268 107.562 704.969 107.045 704.569 106.622C704.12 106.2 703.422 105.918 702.723 105.918C702.324 105.918 701.975 106.012 701.675 106.153L681.666 73.55C682.314 73.1272 682.763 72.3756 682.763 71.577C682.763 70.2146 681.616 69.1341 680.169 69.1341C678.821 69.1341 677.723 70.1207 677.574 71.3421H637.604C637.455 70.1207 636.357 69.1341 635.01 69.1341C633.563 69.1341 632.415 70.2146 632.415 71.577C632.415 72.3756 632.864 73.1272 633.513 73.55L613.503 106.153C613.154 106.012 612.805 105.918 612.455 105.918C611.108 105.918 610.01 106.904 609.861 108.126H569.891C569.841 107.562 569.542 107.045 569.143 106.622C568.694 106.2 567.995 105.918 567.296 105.918C566.897 105.918 566.548 106.012 566.249 106.153L546.239 73.55C546.538 73.3151 546.838 73.0333 546.987 72.7044C547.187 72.3756 547.287 71.9528 547.287 71.53C547.287 70.7314 546.838 69.9797 546.189 69.5569L566.199 36.9543C566.548 37.0952 566.897 37.1892 567.247 37.1892C568.694 37.1892 569.841 36.1087 569.841 34.7463C569.841 33.384 568.694 32.3035 567.247 32.3035C566.847 32.3035 566.498 32.3974 566.199 32.5384L546.189 -0.0642548C546.838 -0.487061 547.287 -1.2387 547.287 -2.03732C547.287 -2.36617 547.237 -2.69501 547.087 -2.97688C546.888 -3.39968 546.588 -3.72853 546.189 -4.01039L566.199 -36.613C566.548 -36.4721 566.897 -36.3781 567.247 -36.3781C568.694 -36.3781 569.841 -37.4586 569.841 -38.821C569.841 -40.1833 568.694 -41.2638 567.247 -41.2638C566.847 -41.2638 566.498 -41.1699 566.199 -41.0289L546.189 -73.6316C546.838 -74.0544 547.287 -74.806 547.287 -75.6046C547.287 -76.967 546.139 -78.0475 544.692 -78.0475C543.345 -78.0475 542.247 -77.061 542.097 -75.8395H502.128C501.978 -77.061 500.881 -78.0475 499.533 -78.0475C498.086 -78.0475 496.939 -76.967 496.939 -75.6046C496.939 -74.806 497.388 -74.0544 498.036 -73.6316L478.027 -41.0289C477.677 -41.1699 477.328 -41.2638 476.929 -41.2638C475.582 -41.2638 474.484 -40.2773 474.334 -39.0559H434.365C434.215 -40.2773 433.117 -41.2638 431.77 -41.2638C430.323 -41.2638 429.175 -40.1833 429.175 -38.821C429.175 -38.0224 429.624 -37.2707 430.273 -36.8479L410.264 -4.24529C409.914 -4.38622 409.565 -4.48017 409.216 -4.48017C407.868 -4.48017 406.771 -3.49364 406.621 -2.27222H366.652C366.602 -2.83595 366.302 -3.35271 365.903 -3.77551C365.454 -4.1983 364.755 -4.48017 364.057 -4.48017C363.658 -4.48017 363.308 -4.38622 363.009 -4.24529L342.9 -37.4586C343.548 -37.8814 343.997 -38.6331 343.997 -39.4317C343.997 -40.7941 342.85 -41.8745 341.403 -41.8745C340.055 -41.8745 338.957 -40.888 338.808 -39.6666H298.839C298.689 -40.888 297.591 -41.8745 296.244 -41.8745C294.797 -41.8745 293.649 -40.7941 293.649 -39.4317C293.649 -38.6331 294.098 -37.8814 294.747 -37.4586L274.737 -4.856C274.388 -4.99693 274.039 -5.09089 273.689 -5.09089C272.242 -5.09089 271.095 -4.0104 271.095 -2.64804C271.095 -1.28568 272.242 -0.205185 273.689 -0.205185C274.088 -0.205185 274.438 -0.299141 274.737 -0.440079L294.747 32.1626C294.098 32.5854 293.649 33.337 293.649 34.1356C293.649 34.9342 294.098 35.6859 294.747 36.1087L274.737 68.7113C274.388 68.5704 274.039 68.4764 273.689 68.4764C272.542 68.4764 271.544 69.1811 271.194 70.2146C271.144 70.3555 271.095 70.5435 271.095 70.6844H231.125C230.976 69.463 229.878 68.4764 228.53 68.4764C227.083 68.4764 225.936 69.5569 225.936 70.9193C225.936 71.7179 226.385 72.4695 227.033 72.8923L207.024 105.495C206.675 105.354 206.325 105.26 205.976 105.26C204.629 105.26 203.531 106.247 203.381 107.468H163.412C163.362 106.904 163.063 106.388 162.663 105.965C162.214 105.542 161.516 105.26 160.817 105.26C160.418 105.26 160.069 105.354 159.769 105.495L139.66 73.0333C140.309 72.6105 140.758 71.8588 140.758 71.0602C140.758 69.6978 139.61 68.6174 138.163 68.6174C136.816 68.6174 135.718 69.6039 135.568 70.8253H95.5989C95.4492 69.6039 94.3514 68.6174 93.0041 68.6174C91.557 68.6174 90.4093 69.6978 90.4093 71.0602C90.4093 71.8588 90.8584 72.6105 91.5071 73.0333L71.4975 105.636C71.1482 105.495 70.7989 105.401 70.4496 105.401C69.0026 105.401 67.8549 106.482 67.8549 107.844C67.8549 109.206 69.0026 110.287 70.4496 110.287C70.8488 110.287 71.1981 110.193 71.4975 110.052L91.5071 142.654C90.8584 143.077 90.4093 143.829 90.4093 144.628C90.4093 145.426 90.8584 146.178 91.5071 146.601L71.4975 179.203C71.1482 179.062 70.7989 178.968 70.4496 178.968C69.0026 178.968 67.8549 180.049 67.8549 181.411C67.8549 182.774 69.0026 183.854 70.4496 183.854C70.8488 183.854 71.1981 183.76 71.4975 183.619L91.5071 216.222C90.8584 216.645 90.4093 217.396 90.4093 218.195C90.4093 219.557 91.557 220.638 93.0041 220.638C94.3514 220.638 95.4492 219.651 95.5989 218.43H135.568C135.718 219.651 136.816 220.638 138.163 220.638C138.562 220.638 138.911 220.544 139.211 220.403L159.22 253.005C158.572 253.428 158.123 254.18 158.123 254.978C158.123 255.777 158.572 256.529 159.22 256.952L139.261 289.507C138.961 289.366 138.562 289.272 138.213 289.272C137.664 289.272 137.165 289.413 136.766 289.695C136.117 290.071 135.718 290.729 135.618 291.48H95.6488C95.4991 290.259 94.4013 289.272 93.054 289.272C91.6069 289.272 90.4592 290.353 90.4592 291.715C90.4592 292.514 90.9083 293.265 91.557 293.688L71.5474 326.291C71.1981 326.15 70.8488 326.056 70.4995 326.056C69.1523 326.056 68.0545 327.042 67.9048 328.264H27.8856C27.7359 327.042 26.6381 326.056 25.2908 326.056C23.8437 326.056 22.6961 327.136 22.6961 328.499C22.6961 329.297 23.1452 330.049 23.7938 330.472L3.78425 363.356C3.43495 363.215 3.08566 363.121 2.73636 363.121C1.28928 363.121 0.141602 364.202 0.141602 365.564C0.141602 366.927 1.28928 368.007 2.73636 368.007C3.13556 368.007 3.48485 367.913 3.78425 367.772L23.7938 400.375C23.1452 400.798 22.6961 401.549 22.6961 402.348C22.6961 403.71 23.8437 404.791 25.2908 404.791C26.6381 404.791 27.7359 403.804 27.8856 402.583H67.8549C68.0046 403.804 69.1024 404.791 70.4496 404.791C70.8488 404.791 71.1981 404.697 71.4975 404.556L91.5071 437.159C90.8584 437.581 90.4093 438.333 90.4093 439.132C90.4093 440.494 91.557 441.574 93.0041 441.574C94.3514 441.574 95.4492 440.588 95.5989 439.367H135.568C135.718 440.588 136.816 441.574 138.163 441.574C138.562 441.574 138.911 441.481 139.211 441.34L159.22 473.942C158.572 474.365 158.123 475.117 158.123 475.915C158.123 476.714 158.572 477.466 159.22 477.888L139.211 510.491C138.861 510.35 138.512 510.256 138.163 510.256C136.716 510.256 135.568 511.337 135.568 512.699C135.568 514.061 136.716 515.142 138.163 515.142C138.562 515.142 138.911 515.048 139.211 514.907L159.22 547.51C158.572 547.932 158.123 548.684 158.123 549.483C158.123 550.845 159.27 551.925 160.717 551.925C162.065 551.925 163.162 550.939 163.312 549.717H203.281C203.431 550.939 204.529 551.925 205.876 551.925C207.323 551.925 208.471 550.845 208.471 549.483C208.471 548.684 208.022 547.932 207.373 547.51L227.383 514.907C227.732 515.048 228.081 515.142 228.431 515.142C229.778 515.142 230.876 514.155 231.025 512.934H271.045C271.095 513.169 271.144 513.404 271.244 513.638C271.643 514.531 272.542 515.142 273.639 515.142C274.039 515.142 274.388 515.048 274.687 514.907L294.697 547.51C294.048 547.932 293.599 548.684 293.599 549.483C293.599 550.845 294.747 551.925 296.194 551.925C297.541 551.925 298.639 550.939 298.789 549.717H338.758C338.858 550.892 339.856 551.785 341.103 551.925C341.203 551.925 341.303 551.925 341.353 551.925C341.452 551.925 341.552 551.925 341.602 551.925C341.902 551.878 342.151 551.831 342.401 551.738L362.41 584.34C361.761 584.763 361.312 585.515 361.312 586.313C361.312 587.112 361.761 587.864 362.41 588.286L342.401 620.889C342.051 620.748 341.702 620.654 341.353 620.654C339.906 620.654 338.758 621.735 338.758 623.097C338.758 624.459 339.906 625.54 341.353 625.54C341.752 625.54 342.101 625.446 342.401 625.305L362.41 657.907C361.761 658.33 361.312 659.082 361.312 659.88C361.312 661.243 362.46 662.323 363.907 662.323C365.254 662.323 366.352 661.337 366.502 660.115H406.471C406.621 661.337 407.719 662.323 409.066 662.323C409.465 662.323 409.814 662.229 410.114 662.089L430.123 694.691C429.475 695.114 429.026 695.866 429.026 696.664C429.026 698.027 430.173 699.107 431.62 699.107C433.067 699.389 434.165 698.449 434.315 697.181ZM610.509 109.582C610.958 110.005 611.657 110.287 612.355 110.287C612.755 110.287 613.104 110.193 613.403 110.052L633.413 142.654C632.764 143.077 632.315 143.829 632.315 144.628C632.315 145.426 632.764 146.178 633.413 146.601L615.749 175.398L613.403 179.203C613.054 179.062 612.705 178.968 612.355 178.968C611.008 178.968 609.91 179.955 609.761 181.176H569.791C569.742 180.847 569.642 180.519 569.492 180.237C569.043 179.485 568.195 178.968 567.197 178.968C566.797 178.968 566.448 179.062 566.149 179.203L546.139 146.601C546.788 146.178 547.237 145.426 547.237 144.628C547.237 143.829 546.788 143.077 546.139 142.654L566.149 110.052C566.498 110.193 566.847 110.287 567.197 110.287C568.544 110.287 569.642 109.3 569.791 108.079H609.761C609.811 108.642 610.06 109.159 610.509 109.582ZM208.521 255.119C208.521 254.321 208.072 253.569 207.423 253.146L227.433 220.544C227.782 220.685 228.131 220.779 228.481 220.779C229.828 220.779 230.926 219.792 231.075 218.571H271.045C271.095 218.899 271.194 219.228 271.344 219.51C271.793 220.262 272.641 220.779 273.639 220.779C274.039 220.779 274.388 220.685 274.687 220.544L294.647 253.146C294.248 253.428 293.948 253.757 293.799 254.18C293.649 254.462 293.599 254.791 293.599 255.166C293.599 255.965 294.048 256.717 294.697 257.139L274.737 289.695H274.687C274.388 289.554 274.039 289.507 273.689 289.507C272.591 289.507 271.693 290.118 271.294 291.01C271.194 291.245 271.144 291.48 271.095 291.715H231.125C230.976 290.494 229.878 289.507 228.53 289.507C228.131 289.507 227.782 289.601 227.433 289.742L207.423 257.139C208.072 256.67 208.521 255.965 208.521 255.119ZM363.957 73.4561C365.304 73.4561 366.402 72.4695 366.552 71.2481H406.521C406.671 72.4695 407.769 73.4561 409.116 73.4561C409.515 73.4561 409.864 73.3621 410.164 73.2212L430.173 105.824C429.525 106.247 429.076 106.998 429.076 107.797C429.076 108.549 429.425 109.253 430.024 109.676C430.074 109.723 430.123 109.723 430.173 109.77L410.164 142.373C409.814 142.232 409.465 142.138 409.116 142.138C407.769 142.138 406.671 143.124 406.521 144.346H366.552C366.402 143.124 365.304 142.138 363.957 142.138C363.558 142.138 363.209 142.232 362.909 142.373L342.9 109.817C343.349 109.488 343.698 109.065 343.848 108.549C343.947 108.314 343.947 108.079 343.947 107.797C343.947 106.998 343.498 106.247 342.85 105.824L362.859 73.2212C363.209 73.4091 363.558 73.4561 363.957 73.4561ZM609.761 181.693C609.91 182.914 611.008 183.901 612.355 183.901C612.755 183.901 613.104 183.807 613.403 183.666L633.413 216.269C632.764 216.692 632.315 217.443 632.315 218.242C632.315 218.993 632.664 219.698 633.263 220.121C633.313 220.168 633.363 220.168 633.413 220.215L613.403 252.818C613.054 252.677 612.705 252.583 612.355 252.583C611.008 252.583 609.91 253.569 609.761 254.791H569.791C569.742 254.556 569.692 254.321 569.592 254.086C569.193 253.193 568.294 252.583 567.197 252.583C566.797 252.583 566.448 252.677 566.149 252.818L546.139 220.215C546.788 219.792 547.237 219.04 547.237 218.242C547.237 217.584 546.938 216.973 546.488 216.504C546.389 216.41 546.289 216.316 546.189 216.269L566.199 183.666C566.548 183.807 566.897 183.901 567.247 183.901C568.594 183.901 569.692 182.914 569.841 181.693H609.761ZM632.315 291.903C632.315 292.326 632.415 292.749 632.615 293.078C632.814 293.406 633.064 293.688 633.363 293.876L613.353 326.479C613.004 326.338 612.655 326.244 612.306 326.244C610.958 326.244 609.86 327.23 609.711 328.452H569.742C569.692 328.217 569.642 327.982 569.542 327.747C569.143 326.855 568.245 326.244 567.147 326.244C566.748 326.244 566.398 326.338 566.099 326.479L546.089 293.876C546.738 293.453 547.187 292.702 547.187 291.903C547.187 291.574 547.137 291.245 546.987 290.964C546.888 290.729 546.738 290.541 546.588 290.353C546.439 290.212 546.289 290.071 546.089 289.93L566.099 257.327C566.448 257.468 566.797 257.562 567.147 257.562C568.245 257.562 569.143 256.952 569.542 256.059C569.642 255.824 569.692 255.589 569.742 255.354H609.711C609.761 255.683 609.861 256.012 610.01 256.294C610.459 257.045 611.308 257.562 612.306 257.562C612.705 257.562 613.054 257.468 613.353 257.327L633.363 289.93C632.764 290.4 632.315 291.104 632.315 291.903ZM632.315 365.564C632.315 366.363 632.764 367.115 633.413 367.537L615.749 396.335L613.403 400.14C613.054 399.999 612.705 399.905 612.355 399.905C611.008 399.905 609.91 400.892 609.761 402.113H569.791C569.742 401.784 569.642 401.455 569.492 401.174C569.043 400.422 568.195 399.905 567.197 399.905C566.797 399.905 566.448 399.999 566.149 400.14L546.139 367.537C546.788 367.115 547.237 366.363 547.237 365.564C547.237 364.766 546.788 364.014 546.139 363.591L566.149 330.989C566.498 331.13 566.847 331.224 567.197 331.224C568.544 331.224 569.642 330.237 569.791 329.016H609.761C609.811 329.25 609.86 329.485 609.96 329.72C610.359 330.613 611.258 331.224 612.355 331.224C612.755 331.224 613.104 331.13 613.403 330.989L633.413 363.591C632.764 364.014 632.315 364.766 632.315 365.564ZM298.639 401.455C298.24 400.563 297.342 399.952 296.244 399.952C295.845 399.952 295.495 400.046 295.196 400.187L275.186 367.584C275.835 367.162 276.284 366.41 276.284 365.611C276.284 364.813 275.835 364.061 275.186 363.638L295.196 331.036H295.246C295.545 331.177 295.894 331.224 296.244 331.224C297.591 331.224 298.689 330.237 298.839 329.016H338.808C338.908 329.908 339.556 330.707 340.405 331.036C340.704 331.177 341.053 331.224 341.403 331.224C341.802 331.224 342.151 331.13 342.45 330.989L362.46 363.591C361.811 364.014 361.362 364.766 361.362 365.564C361.362 366.363 361.811 367.115 362.46 367.537L342.45 400.14C342.201 400.046 341.951 399.952 341.652 399.952C341.552 399.952 341.452 399.952 341.403 399.952C340.055 399.952 338.957 400.939 338.808 402.16H298.839C298.789 401.878 298.739 401.643 298.639 401.455ZM276.284 291.95C276.284 291.104 275.835 290.4 275.186 289.977L295.146 257.421C295.495 257.562 295.845 257.656 296.194 257.656C297.292 257.656 298.19 257.045 298.589 256.153C298.689 255.918 298.739 255.683 298.789 255.448H338.758C338.808 255.777 338.908 256.106 339.057 256.388C339.506 257.139 340.355 257.656 341.353 257.656C341.752 257.656 342.101 257.562 342.401 257.421L362.41 290.024C361.761 290.447 361.312 291.198 361.312 291.997C361.312 292.608 361.512 293.124 361.911 293.547C362.061 293.688 362.211 293.829 362.41 293.97L342.401 326.573H342.351C342.051 326.432 341.702 326.385 341.353 326.385C340.005 326.385 338.908 327.371 338.758 328.593H298.789C298.739 328.029 298.439 327.512 298.04 327.089C297.791 326.855 297.541 326.667 297.192 326.573C296.892 326.432 296.543 326.385 296.194 326.385C295.795 326.385 295.445 326.479 295.146 326.62L275.186 294.017C275.835 293.453 276.284 292.749 276.284 291.95ZM564.552 328.734C564.552 329.063 564.602 329.391 564.752 329.673C564.901 330.049 565.151 330.378 565.5 330.613C565.55 330.66 565.6 330.66 565.65 330.707L545.64 363.309C545.291 363.168 544.942 363.074 544.592 363.074C543.245 363.074 542.147 364.061 541.998 365.282H502.028C501.978 364.954 501.879 364.625 501.729 364.343C501.28 363.591 500.431 363.074 499.434 363.074C499.034 363.074 498.685 363.168 498.386 363.309L478.376 330.707C479.025 330.284 479.474 329.532 479.474 328.734C479.474 328.405 479.424 328.076 479.274 327.794C479.224 327.7 479.224 327.653 479.174 327.559C478.975 327.23 478.725 326.949 478.426 326.761L498.436 294.158C498.785 294.299 499.134 294.393 499.483 294.393C500.831 294.393 501.928 293.406 502.078 292.185H542.047C542.097 292.42 542.147 292.655 542.247 292.89C542.646 293.782 543.544 294.393 544.642 294.393C545.041 294.393 545.391 294.299 545.69 294.158L565.7 326.761C565.001 327.183 564.552 327.935 564.552 328.734ZM363.957 220.732C364.955 220.732 365.803 220.215 366.252 219.463C366.402 219.181 366.502 218.853 366.552 218.524H406.521C406.671 219.745 407.769 220.732 409.116 220.732C409.515 220.732 409.864 220.638 410.214 220.497L430.223 253.099C429.575 253.522 429.125 254.274 429.125 255.072C429.125 255.871 429.575 256.623 430.223 257.046L415.752 280.628L410.214 289.648C409.864 289.507 409.515 289.413 409.166 289.413C407.818 289.413 406.721 290.4 406.571 291.621H366.602C366.552 291.292 366.452 290.964 366.302 290.682C365.853 289.93 365.005 289.413 364.007 289.413C363.608 289.413 363.258 289.507 362.959 289.648L342.9 257.092C343.548 256.67 343.997 255.918 343.997 255.119C343.997 254.321 343.548 253.569 342.9 253.146L362.909 220.544C363.209 220.685 363.558 220.732 363.957 220.732ZM474.584 256.294C475.033 257.045 475.881 257.562 476.879 257.562C477.278 257.562 477.628 257.468 477.927 257.327L497.937 289.93C497.288 290.353 496.839 291.104 496.839 291.903C496.839 292.232 496.939 292.561 497.038 292.843C497.238 293.265 497.537 293.594 497.887 293.876L477.877 326.479C477.528 326.338 477.178 326.244 476.829 326.244C475.482 326.244 474.384 327.23 474.234 328.452H434.265C434.215 328.123 434.115 327.794 433.966 327.512C433.517 326.761 432.668 326.244 431.67 326.244C431.271 326.244 430.922 326.338 430.622 326.479L410.613 293.876C411.262 293.453 411.711 292.702 411.711 291.903C411.711 291.104 411.262 290.353 410.613 289.93L430.622 257.327C430.972 257.468 431.321 257.562 431.67 257.562C433.018 257.562 434.115 256.576 434.265 255.354H474.234C474.284 255.683 474.384 256.012 474.584 256.294ZM364.955 363.309C364.656 363.168 364.306 363.121 363.957 363.121C363.558 363.121 363.209 363.215 362.909 363.356L342.949 330.754C343.598 330.331 344.047 329.579 344.047 328.781C344.047 327.935 343.598 327.23 342.949 326.761L362.959 294.158C363.308 294.299 363.658 294.393 364.007 294.393C365.354 294.393 366.452 293.406 366.602 292.185H406.571C406.721 293.406 407.818 294.393 409.166 294.393C409.565 294.393 409.914 294.299 410.214 294.158L430.223 326.761C429.575 327.183 429.125 327.935 429.125 328.734C429.125 329.485 429.475 330.19 430.074 330.613C430.123 330.66 430.173 330.66 430.223 330.707L410.214 363.309C409.864 363.168 409.515 363.074 409.166 363.074C407.818 363.074 406.721 364.061 406.571 365.282H366.602C366.452 364.39 365.853 363.638 364.955 363.309ZM431.97 399.952C431.87 399.952 431.77 399.952 431.72 399.952C431.321 399.952 430.972 400.046 430.672 400.187L410.663 367.584C411.162 367.209 411.561 366.692 411.711 366.081C411.761 365.94 411.76 365.752 411.76 365.564C411.76 364.766 411.311 364.014 410.663 363.591L430.672 330.989C431.022 331.13 431.371 331.224 431.72 331.224C433.067 331.224 434.165 330.237 434.315 329.016H474.284C474.334 329.25 474.384 329.485 474.484 329.72C474.883 330.613 475.781 331.224 476.879 331.224C477.278 331.224 477.628 331.13 477.927 330.989L497.937 363.591C497.288 364.014 496.839 364.766 496.839 365.564C496.839 365.893 496.939 366.222 497.038 366.504C497.238 366.927 497.537 367.256 497.887 367.537L477.877 400.14C477.578 399.999 477.178 399.905 476.829 399.905C475.482 399.905 474.384 400.892 474.234 402.113H434.265C434.165 400.986 433.217 400.046 431.97 399.952ZM543.345 220.45C543.694 220.638 544.143 220.732 544.592 220.732C544.991 220.732 545.341 220.638 545.64 220.497L565.65 253.099C565.151 253.475 564.752 253.992 564.602 254.603C564.552 254.744 564.552 254.931 564.552 255.119C564.552 255.307 564.552 255.448 564.602 255.636C564.752 256.247 565.101 256.764 565.65 257.139L545.64 289.742C545.291 289.601 544.942 289.507 544.592 289.507C543.245 289.507 542.147 290.494 541.998 291.715H502.028C501.978 291.48 501.928 291.245 501.829 291.01C501.779 290.917 501.779 290.87 501.729 290.776C501.28 290.024 500.431 289.507 499.434 289.507C499.034 289.507 498.685 289.601 498.386 289.742L478.376 257.139C479.025 256.717 479.474 255.965 479.474 255.166C479.474 254.368 479.025 253.616 478.376 253.193L498.386 220.591C498.735 220.732 499.084 220.826 499.434 220.826C500.781 220.826 501.879 219.839 502.028 218.618H541.998C542.097 219.369 542.596 220.074 543.345 220.45ZM496.839 218.289C496.839 219.04 497.188 219.745 497.787 220.168C497.837 220.215 497.887 220.215 497.937 220.262L477.927 252.864C477.578 252.724 477.228 252.63 476.879 252.63C475.532 252.63 474.434 253.616 474.284 254.838H434.315C434.165 253.616 433.067 252.63 431.72 252.63C431.321 252.63 430.972 252.724 430.672 252.864L410.663 220.262C410.962 220.027 411.262 219.792 411.411 219.463C411.611 219.134 411.711 218.712 411.711 218.289C411.711 217.631 411.411 217.02 410.962 216.551C410.862 216.457 410.763 216.363 410.663 216.316L422.339 197.243L430.622 183.713C430.972 183.854 431.321 183.948 431.67 183.948C432.668 183.948 433.517 183.431 433.966 182.68C434.115 182.398 434.215 182.069 434.265 181.74H474.234C474.384 182.961 475.482 183.948 476.829 183.948C477.228 183.948 477.578 183.854 477.927 183.713L497.937 216.316C497.238 216.738 496.839 217.49 496.839 218.289ZM407.27 146.413C407.719 146.835 408.417 147.117 409.116 147.117C409.515 147.117 409.864 147.023 410.164 146.882L430.173 179.485C429.924 179.673 429.724 179.861 429.525 180.096C429.225 180.472 429.076 180.941 429.076 181.458C429.076 182.069 429.275 182.586 429.674 183.008C429.824 183.149 429.974 183.29 430.173 183.431L424.884 192.075L410.214 216.034C409.864 215.893 409.515 215.799 409.166 215.799C408.168 215.799 407.319 216.316 406.87 217.067C406.721 217.349 406.621 217.678 406.571 218.007H366.602C366.552 217.443 366.252 216.926 365.853 216.504C365.404 216.081 364.706 215.799 364.007 215.799C363.608 215.799 363.258 215.893 362.959 216.034L342.9 183.478C343.299 183.196 343.598 182.867 343.748 182.445C343.898 182.163 343.947 181.834 343.947 181.505C343.947 180.707 343.498 179.955 342.85 179.532L362.809 146.929C363.159 147.07 363.508 147.164 363.857 147.164C365.005 147.164 366.003 146.46 366.352 145.426C366.402 145.285 366.452 145.097 366.452 144.956H406.421C406.571 145.473 406.87 145.99 407.27 146.413ZM296.194 183.948C297.292 183.948 298.19 183.337 298.589 182.445C298.689 182.21 298.739 181.975 298.789 181.74H338.758C338.908 182.961 340.005 183.948 341.353 183.948C341.752 183.948 342.101 183.854 342.45 183.713L362.41 216.316C362.011 216.598 361.712 216.926 361.562 217.349C361.412 217.631 361.362 217.96 361.362 218.289C361.362 219.087 361.811 219.839 362.46 220.262L342.45 252.864C342.101 252.724 341.752 252.63 341.403 252.63C340.055 252.63 338.957 253.616 338.808 254.838H298.839C298.689 253.616 297.591 252.63 296.244 252.63C295.845 252.63 295.495 252.724 295.196 252.864L275.186 220.262C275.585 219.98 275.885 219.651 276.035 219.228C276.184 218.946 276.234 218.618 276.234 218.289C276.234 217.49 275.785 216.738 275.136 216.316L295.096 183.713C295.445 183.854 295.845 183.948 296.194 183.948ZM343.997 402.395C343.997 402.066 343.947 401.737 343.798 401.455C343.598 401.033 343.299 400.704 342.9 400.422L362.909 367.819H362.959C363.258 367.96 363.608 368.007 363.957 368.007C365.304 368.007 366.402 367.021 366.552 365.799H406.521C406.621 366.551 407.02 367.209 407.669 367.584C408.068 367.866 408.567 368.007 409.116 368.007C409.515 368.007 409.864 367.913 410.164 367.772L430.173 400.375C429.525 400.798 429.076 401.549 429.076 402.348C429.076 402.959 429.275 403.475 429.674 403.898C429.824 404.039 429.974 404.18 430.173 404.321L410.164 436.924C409.914 436.83 409.665 436.736 409.365 436.736C409.266 436.736 409.166 436.736 409.116 436.736C407.769 436.736 406.671 437.722 406.521 438.944H366.552C366.502 438.38 366.203 437.863 365.803 437.44C365.404 437.065 364.855 436.783 364.207 436.736C364.107 436.736 364.007 436.736 363.957 436.736C363.558 436.736 363.209 436.83 362.909 436.971L342.949 404.368C343.548 403.945 343.997 403.194 343.997 402.395ZM502.028 438.944C501.978 438.38 501.679 437.863 501.28 437.44C500.831 437.018 500.132 436.736 499.434 436.736C499.034 436.736 498.685 436.83 498.386 436.971L478.376 404.368C478.426 404.321 478.476 404.321 478.526 404.274C479.124 403.804 479.474 403.147 479.474 402.395C479.474 401.596 479.025 400.845 478.376 400.422L498.336 367.819C498.685 367.96 499.034 368.054 499.384 368.054C500.731 368.054 501.829 367.068 501.978 365.846H541.948C542.097 367.068 543.195 368.054 544.542 368.054C544.642 368.054 544.742 368.054 544.792 368.054C545.091 368.007 545.341 367.96 545.59 367.866L565.6 400.469C564.951 400.892 564.502 401.643 564.502 402.442C564.502 403.053 564.702 403.569 565.101 403.992C565.251 404.133 565.4 404.274 565.6 404.415L545.59 437.018C545.241 436.877 544.892 436.783 544.542 436.783C543.993 436.783 543.495 436.924 543.095 437.206C542.447 437.581 542.047 438.239 541.948 438.991H502.028V438.944ZM497.138 143.5C496.939 143.829 496.839 144.252 496.839 144.674C496.839 145.473 497.288 146.225 497.937 146.648L477.927 179.25C477.578 179.109 477.228 179.015 476.879 179.015C475.781 179.015 474.883 179.626 474.484 180.519C474.384 180.753 474.334 180.988 474.284 181.223H434.315C434.165 180.002 433.067 179.015 431.72 179.015C431.321 179.015 430.972 179.109 430.622 179.25L410.613 146.648C411.262 146.225 411.711 145.473 411.711 144.674C411.711 143.876 411.262 143.124 410.613 142.701L430.622 110.099C430.972 110.24 431.321 110.334 431.67 110.334C433.018 110.334 434.115 109.347 434.265 108.126H474.234C474.284 108.455 474.384 108.783 474.534 109.065C474.983 109.817 475.831 110.334 476.829 110.334C477.228 110.334 477.578 110.24 477.877 110.099L497.887 142.701C497.587 142.889 497.338 143.171 497.138 143.5ZM296.194 110.287C297.342 110.287 298.34 109.535 298.689 108.549C298.739 108.408 298.789 108.22 298.789 108.079H338.758C338.908 109.3 340.005 110.287 341.353 110.287C341.752 110.287 342.101 110.193 342.401 110.052L362.41 142.654C361.961 142.983 361.612 143.406 361.462 143.923C361.362 144.158 361.362 144.393 361.362 144.674C361.362 145.473 361.811 146.225 362.46 146.648L342.5 179.25C342.151 179.109 341.802 179.015 341.452 179.015C340.454 179.015 339.606 179.532 339.157 180.284C339.057 180.425 339.007 180.566 338.957 180.753C338.908 180.894 338.858 181.082 338.858 181.223H298.888C298.739 180.002 297.641 179.015 296.294 179.015C295.894 179.015 295.545 179.109 295.196 179.25L275.236 146.648C275.885 146.225 276.334 145.473 276.334 144.674C276.334 143.876 275.885 143.124 275.236 142.701L295.246 110.099C295.495 110.24 295.845 110.287 296.194 110.287ZM228.481 294.393C229.029 294.393 229.528 294.252 229.928 293.97C230.576 293.594 230.976 292.937 231.075 292.185H271.045C271.194 293.406 272.292 294.393 273.639 294.393C274.039 294.393 274.388 294.299 274.737 294.158L294.697 326.761C294.048 327.183 293.599 327.935 293.599 328.734C293.599 329.579 294.048 330.284 294.697 330.707L274.737 363.356C274.388 363.215 274.039 363.121 273.689 363.121C272.342 363.121 271.244 364.108 271.095 365.329H231.125C230.976 364.108 229.878 363.121 228.53 363.121C228.131 363.121 227.782 363.215 227.483 363.356L207.473 330.754C208.122 330.331 208.571 329.579 208.571 328.781C208.571 328.123 208.271 327.512 207.822 327.042C207.722 326.949 207.623 326.855 207.523 326.808L227.483 294.252C227.732 294.299 228.081 294.393 228.481 294.393ZM208.521 402.395C208.521 401.596 208.072 400.845 207.423 400.422L227.433 367.819C227.782 367.96 228.131 368.054 228.481 368.054C229.828 368.054 230.926 367.068 231.075 365.846H271.045C271.194 367.068 272.292 368.054 273.639 368.054C273.739 368.054 273.839 368.054 273.889 368.054C274.188 368.007 274.438 367.96 274.687 367.866L294.697 400.469C294.048 400.892 293.599 401.643 293.599 402.442C293.599 402.677 293.649 402.959 293.699 403.194C293.699 403.288 293.749 403.334 293.799 403.381C293.898 403.616 294.048 403.804 294.198 403.992C294.348 404.133 294.497 404.274 294.697 404.415L274.687 437.018C274.338 436.877 273.989 436.783 273.639 436.783C272.292 436.783 271.194 437.769 271.045 438.991H231.075C231.025 438.662 230.926 438.333 230.776 438.051C230.327 437.299 229.479 436.783 228.481 436.783C228.081 436.783 227.732 436.877 227.433 437.018L207.423 404.415C208.072 403.945 208.521 403.194 208.521 402.395ZM431.72 473.566C431.321 473.566 430.972 473.66 430.672 473.801L410.663 441.199C411.311 440.776 411.76 440.024 411.76 439.226C411.76 438.803 411.661 438.427 411.461 438.051C411.262 437.722 411.012 437.44 410.713 437.253L430.722 404.65C430.972 404.744 431.221 404.838 431.521 404.838C431.62 404.838 431.72 404.838 431.77 404.838C433.117 404.838 434.215 403.851 434.365 402.63H474.334C474.384 402.865 474.434 403.1 474.534 403.335C474.933 404.227 475.831 404.838 476.929 404.838C477.328 404.838 477.677 404.744 477.977 404.603L497.986 437.206C497.936 437.253 497.887 437.253 497.837 437.299C497.238 437.769 496.889 438.427 496.889 439.179C496.889 439.977 497.338 440.729 497.986 441.152L478.027 473.754C477.677 473.613 477.328 473.519 476.979 473.519C475.632 473.519 474.534 474.506 474.384 475.727H434.415C434.165 474.553 433.067 473.566 431.72 473.566ZM567.197 473.566C566.797 473.566 566.448 473.66 566.149 473.801L546.139 441.199C546.189 441.152 546.239 441.152 546.289 441.105C546.888 440.635 547.237 439.977 547.237 439.226C547.237 438.427 546.788 437.675 546.139 437.253L566.149 404.65C566.498 404.791 566.847 404.885 567.197 404.885C568.544 404.885 569.642 403.898 569.791 402.677H609.761C609.861 403.851 610.859 404.744 612.106 404.885C612.206 404.885 612.306 404.885 612.355 404.885C612.455 404.885 612.555 404.885 612.605 404.885C612.904 404.838 613.154 404.791 613.403 404.697L633.413 437.299C632.764 437.722 632.315 438.474 632.315 439.273C632.315 440.024 632.664 440.729 633.263 441.152C633.313 441.199 633.363 441.199 633.413 441.246L613.403 473.848C613.054 473.707 612.705 473.613 612.355 473.613C611.008 473.613 609.91 474.6 609.761 475.821H569.791C569.642 474.553 568.544 473.566 567.197 473.566ZM680.069 368.007C680.169 368.007 680.268 368.007 680.318 368.007C680.618 367.96 680.867 367.913 681.117 367.819L701.126 400.422C700.478 400.845 700.028 401.596 700.028 402.395C700.028 403.006 700.228 403.522 700.627 403.945C700.777 404.086 700.927 404.227 701.126 404.368L681.117 436.971C680.767 436.83 680.418 436.736 680.069 436.736C678.721 436.736 677.624 437.722 677.474 438.944H637.505C637.455 438.615 637.355 438.286 637.205 438.004C636.756 437.253 635.908 436.736 634.91 436.736C634.511 436.736 634.161 436.83 633.862 436.971L613.852 404.368C614.501 403.945 614.95 403.194 614.95 402.395C614.95 401.596 614.501 400.845 613.852 400.422L614.85 398.778L633.812 367.819C634.161 367.96 634.511 368.054 634.86 368.054C636.207 368.054 637.305 367.068 637.455 365.846H677.424C677.624 367.068 678.721 368.007 680.069 368.007ZM542.746 146.366C543.195 146.788 543.894 147.07 544.592 147.07C544.991 147.07 545.341 146.976 545.64 146.835L565.65 179.438C565.001 179.861 564.552 180.613 564.552 181.411C564.552 182.022 564.752 182.539 565.151 182.961C565.3 183.102 565.45 183.243 565.65 183.384L545.64 215.987C545.291 215.846 544.942 215.752 544.592 215.752C543.245 215.752 542.147 216.738 541.998 217.96H502.028C501.978 217.396 501.679 216.879 501.28 216.457C500.831 216.034 500.132 215.752 499.434 215.752C499.034 215.752 498.685 215.846 498.386 215.987L478.376 183.384C478.675 183.149 478.975 182.867 479.124 182.586C479.324 182.257 479.424 181.834 479.424 181.411C479.424 180.753 479.124 180.143 478.675 179.673C478.576 179.579 478.476 179.485 478.376 179.438L498.386 146.835C498.735 146.976 499.084 147.07 499.434 147.07C500.431 147.07 501.28 146.554 501.729 145.802C501.879 145.52 501.978 145.191 502.028 144.862H541.998C542.047 145.473 542.347 145.99 542.746 146.366ZM475.033 35.9208C475.482 36.3436 476.18 36.6254 476.879 36.6254C477.278 36.6254 477.628 36.5315 477.927 36.3906L497.937 68.9932C497.637 69.2281 497.338 69.463 497.188 69.7918C496.988 70.1207 496.889 70.5435 496.889 70.9662C496.889 71.577 497.088 72.0937 497.487 72.5165C497.637 72.6575 497.787 72.7984 497.986 72.9393L477.977 105.542C477.628 105.401 477.278 105.307 476.929 105.307C475.931 105.307 475.083 105.824 474.634 106.575C474.484 106.857 474.384 107.186 474.334 107.515H434.365C434.315 107.186 434.215 106.857 434.065 106.575C433.616 105.824 432.768 105.307 431.77 105.307C431.371 105.307 431.022 105.401 430.722 105.542L410.713 72.9393C411.361 72.5165 411.81 71.7649 411.81 70.9662C411.81 70.1676 411.361 69.416 410.713 68.9932L430.722 36.3906C431.072 36.5315 431.421 36.6254 431.77 36.6254C433.117 36.6254 434.215 35.6389 434.365 34.4175H474.334C474.334 35.0282 474.584 35.545 475.033 35.9208ZM271.793 146.413C272.242 146.835 272.941 147.117 273.639 147.117C274.039 147.117 274.388 147.023 274.687 146.882L294.647 179.485C294.248 179.767 293.948 180.096 293.799 180.519C293.649 180.8 293.599 181.129 293.599 181.505C293.599 182.116 293.799 182.633 294.198 183.055C294.348 183.196 294.497 183.337 294.697 183.478L274.737 216.081C274.388 215.94 274.039 215.846 273.689 215.846C272.591 215.846 271.693 216.457 271.294 217.349C271.194 217.584 271.144 217.819 271.095 218.054H231.125C231.075 217.725 230.976 217.396 230.826 217.114C230.377 216.363 229.528 215.846 228.53 215.846C228.131 215.846 227.782 215.94 227.483 216.081L207.473 183.478C208.122 183.055 208.571 182.304 208.571 181.505C208.571 180.707 208.122 179.955 207.473 179.532L227.483 146.929C227.832 147.07 228.181 147.164 228.53 147.164C229.878 147.164 230.976 146.178 231.125 144.956H271.045C271.095 145.473 271.394 145.99 271.793 146.413ZM163.063 401.22C162.614 400.469 161.765 399.952 160.767 399.952C160.368 399.952 160.019 400.046 159.719 400.187L139.71 367.584C140.358 367.162 140.808 366.41 140.808 365.611C140.808 364.813 140.358 364.061 139.71 363.638L159.669 331.083C159.969 331.224 160.368 331.317 160.717 331.317C161.166 331.317 161.616 331.224 161.965 330.989C162.713 330.613 163.212 329.908 163.312 329.109H203.281C203.431 330.331 204.529 331.317 205.876 331.317C206.275 331.317 206.625 331.224 206.974 331.083L226.984 363.685C226.335 364.108 225.886 364.86 225.886 365.658C225.886 366.457 226.335 367.209 226.984 367.631L211.515 392.858L206.974 400.234C206.625 400.093 206.275 399.999 205.926 399.999C204.579 399.999 203.481 400.986 203.331 402.207H163.362C163.312 401.831 163.212 401.502 163.063 401.22ZM298.739 475.305C298.389 474.318 297.441 473.566 296.244 473.566C295.845 473.566 295.495 473.66 295.196 473.801L275.186 441.199C275.835 440.776 276.284 440.024 276.284 439.226C276.284 438.897 276.234 438.568 276.084 438.286C275.885 437.863 275.585 437.534 275.186 437.253L295.196 404.65C295.545 404.791 295.894 404.885 296.244 404.885C297.591 404.885 298.689 403.898 298.839 402.677H338.808C338.908 403.569 339.556 404.368 340.405 404.697C340.704 404.838 341.053 404.885 341.403 404.885C341.802 404.885 342.151 404.791 342.45 404.65L362.46 437.253C361.811 437.675 361.362 438.427 361.362 439.226C361.362 440.071 361.811 440.776 362.46 441.199L342.45 473.801C342.101 473.66 341.752 473.566 341.403 473.566C340.055 473.566 338.957 474.553 338.808 475.774H298.839C298.789 475.633 298.789 475.446 298.739 475.305ZM366.252 511.665C365.803 510.914 364.955 510.397 363.957 510.397C363.558 510.397 363.209 510.491 362.909 510.632L342.9 478.029C343.548 477.606 343.997 476.855 343.997 476.056C343.997 475.258 343.548 474.506 342.9 474.083L362.909 441.481C363.159 441.575 363.408 441.668 363.708 441.668C363.807 441.668 363.907 441.668 363.957 441.668C365.304 441.668 366.402 440.682 366.552 439.46H406.521C406.621 440.635 407.619 441.527 408.866 441.668C408.966 441.668 409.066 441.668 409.116 441.668C409.515 441.668 409.864 441.574 410.164 441.434L430.173 474.036C429.525 474.459 429.076 475.211 429.076 476.009C429.076 476.808 429.525 477.56 430.173 477.982L415.703 501.612L410.214 510.585C409.864 510.444 409.515 510.35 409.166 510.35C407.818 510.35 406.721 511.337 406.571 512.558H366.602C366.552 512.276 366.402 511.947 366.252 511.665ZM501.729 511.665C501.28 510.914 500.431 510.397 499.434 510.397C499.034 510.397 498.685 510.491 498.386 510.632L478.376 478.029C479.025 477.606 479.474 476.855 479.474 476.056C479.474 475.258 479.025 474.506 478.376 474.083L498.336 441.481C498.685 441.621 499.034 441.715 499.384 441.715C500.032 441.715 500.581 441.527 501.03 441.152C501.529 440.729 501.879 440.165 501.978 439.507H541.948C542.047 440.682 543.045 441.575 544.293 441.715C544.393 441.715 544.492 441.715 544.542 441.715C544.642 441.715 544.742 441.715 544.792 441.715C545.091 441.668 545.341 441.621 545.59 441.528L565.6 474.13C565.55 474.177 565.5 474.177 565.45 474.224C564.851 474.694 564.502 475.352 564.502 476.103C564.502 476.902 564.951 477.653 565.6 478.076L545.59 510.679C545.241 510.538 544.892 510.444 544.542 510.444C543.894 510.444 543.345 510.632 542.896 511.008C542.397 511.384 542.047 511.994 541.948 512.652H501.978C502.028 512.276 501.879 511.947 501.729 511.665ZM407.27 -0.909851C407.719 -0.487053 408.417 -0.205185 409.116 -0.205185C409.515 -0.205185 409.864 -0.299141 410.164 -0.440079L430.173 32.1626C429.525 32.5854 429.076 33.337 429.076 34.1356C429.076 34.9342 429.525 35.6859 430.173 36.1087L415.703 59.7386L410.214 68.7113C409.864 68.5704 409.515 68.4764 409.166 68.4764C407.818 68.4764 406.721 69.463 406.571 70.6844H366.602C366.552 70.3555 366.452 70.0267 366.302 69.7448C365.853 68.9932 365.005 68.4764 364.007 68.4764C363.608 68.4764 363.258 68.5704 362.959 68.7113L342.9 36.2026C343.548 35.7798 343.997 35.0282 343.997 34.2296C343.997 33.4309 343.548 32.6793 342.9 32.2565L362.909 -0.346123C363.258 -0.205185 363.608 -0.111229 363.957 -0.111229C365.304 -0.111229 366.402 -1.09776 366.552 -2.31919H406.521C406.571 -1.80243 406.87 -1.28568 407.27 -0.909851ZM204.03 109.582C204.479 110.005 205.128 110.287 205.876 110.287C206.275 110.287 206.625 110.193 206.924 110.052L226.934 142.654C226.285 143.077 225.836 143.829 225.836 144.628C225.836 145.426 226.285 146.178 226.934 146.601L211.465 171.828L206.924 179.203C206.575 179.062 206.225 178.968 205.876 178.968C204.529 178.968 203.431 179.955 203.281 181.176H163.312C163.262 180.847 163.162 180.519 163.013 180.237C162.564 179.485 161.715 178.968 160.717 178.968C160.318 178.968 159.969 179.062 159.669 179.203L139.66 146.601C140.309 146.178 140.758 145.426 140.758 144.628C140.758 143.829 140.309 143.077 139.66 142.654L159.669 110.052C160.019 110.193 160.368 110.287 160.717 110.287C162.065 110.287 163.162 109.3 163.312 108.079H203.281C203.381 108.689 203.631 109.206 204.03 109.582ZM230.776 511.665C230.327 510.914 229.479 510.397 228.481 510.397C228.081 510.397 227.732 510.491 227.433 510.632L207.423 478.029C208.072 477.606 208.521 476.855 208.521 476.056C208.521 475.258 208.072 474.506 207.423 474.083L227.433 441.481C227.782 441.621 228.131 441.715 228.481 441.715C229.828 441.715 230.926 440.729 231.075 439.507H271.045C271.095 439.742 271.144 439.977 271.244 440.212C271.294 440.306 271.294 440.353 271.344 440.447C271.793 441.199 272.641 441.715 273.639 441.715C274.039 441.715 274.388 441.621 274.687 441.481L294.697 474.083C294.048 474.506 293.599 475.258 293.599 476.056C293.599 476.385 293.649 476.714 293.799 476.996C293.998 477.419 294.298 477.747 294.697 478.029L274.687 510.632C274.338 510.491 273.989 510.397 273.639 510.397C272.292 510.397 271.194 511.384 271.045 512.605H231.075C231.075 512.276 230.926 511.947 230.776 511.665ZM497.937 584.481C497.288 584.904 496.839 585.656 496.839 586.454C496.839 587.253 497.288 588.004 497.937 588.427L477.927 621.03C477.578 620.889 477.228 620.795 476.879 620.795C476.43 620.795 475.981 620.889 475.632 621.077C474.883 621.453 474.384 622.157 474.284 623.003H434.315C434.265 622.627 434.165 622.298 433.966 622.016C433.517 621.312 432.668 620.795 431.72 620.795C431.321 620.795 430.972 620.889 430.672 621.03L410.663 588.427C411.311 588.004 411.76 587.253 411.76 586.454C411.76 585.656 411.311 584.904 410.663 584.481L430.672 551.878C431.022 552.019 431.371 552.113 431.72 552.113C433.067 552.113 434.165 551.127 434.315 549.905H474.284C474.334 550.234 474.434 550.563 474.584 550.845C475.033 551.597 475.881 552.113 476.879 552.113C477.278 552.113 477.628 552.019 477.927 551.878L497.937 584.481ZM477.927 547.416C477.578 547.275 477.228 547.181 476.879 547.181C475.532 547.181 474.434 548.167 474.284 549.389H434.315C434.265 549.06 434.165 548.731 434.016 548.449C433.566 547.697 432.718 547.181 431.72 547.181C431.321 547.181 430.972 547.275 430.672 547.416L410.663 514.813C411.311 514.39 411.76 513.638 411.76 512.84C411.76 512.041 411.311 511.29 410.663 510.867L430.672 478.264C431.022 478.405 431.371 478.499 431.72 478.499C433.067 478.499 434.165 477.513 434.315 476.291H474.284C474.434 477.513 475.532 478.499 476.879 478.499C476.979 478.499 477.079 478.499 477.129 478.499C477.428 478.452 477.677 478.405 477.927 478.311L497.937 510.914C497.288 511.337 496.839 512.088 496.839 512.887C496.839 513.498 497.038 514.014 497.438 514.437C497.587 514.578 497.737 514.719 497.937 514.86L477.927 547.416ZM546.139 514.86C546.189 514.813 546.239 514.813 546.289 514.766C546.888 514.296 547.237 513.639 547.237 512.887C547.237 512.088 546.788 511.337 546.139 510.914L566.149 478.311C566.498 478.452 566.847 478.546 567.197 478.546C567.845 478.546 568.394 478.311 568.843 477.982C569.342 477.56 569.692 476.996 569.791 476.338H609.761C609.811 476.761 609.96 477.184 610.21 477.513C610.659 478.123 611.457 478.546 612.355 478.546C612.755 478.546 613.104 478.452 613.403 478.311L633.413 510.914C632.764 511.337 632.315 512.088 632.315 512.887C632.315 513.498 632.515 514.014 632.914 514.437C633.064 514.578 633.213 514.719 633.413 514.86L613.403 547.463C613.054 547.322 612.705 547.228 612.355 547.228C611.008 547.228 609.91 548.214 609.761 549.436H569.791C569.642 548.214 568.544 547.228 567.197 547.228C566.797 547.228 566.448 547.322 566.149 547.463L546.139 514.86ZM701.126 547.697C700.478 548.12 700.028 548.872 700.028 549.67C700.028 550.469 700.478 551.221 701.126 551.644L681.117 584.246C680.767 584.105 680.418 584.011 680.069 584.011C678.721 584.011 677.624 584.998 677.474 586.219H637.505C637.355 584.998 636.257 584.011 634.91 584.011C634.511 584.011 634.161 584.105 633.862 584.246L613.852 551.644C614.501 551.221 614.95 550.469 614.95 549.67C614.95 548.872 614.501 548.12 613.852 547.697L633.862 515.095C634.211 515.236 634.561 515.33 634.91 515.33C636.257 515.33 637.355 514.343 637.505 513.122H677.474C677.624 514.343 678.721 515.33 680.069 515.33C680.468 515.33 680.817 515.236 681.117 515.095L701.126 547.697ZM681.167 510.632C680.817 510.491 680.468 510.397 680.119 510.397C679.67 510.397 679.27 510.491 678.871 510.679C678.123 511.055 677.624 511.759 677.524 512.605H637.555C637.505 512.229 637.405 511.9 637.205 511.618C636.756 510.914 635.908 510.397 634.96 510.397C634.561 510.397 634.211 510.491 633.912 510.632L613.902 478.029C614.551 477.606 615 476.855 615 476.056C615 475.258 614.551 474.506 613.902 474.083L633.912 441.481C634.261 441.621 634.611 441.715 634.96 441.715C636.307 441.715 637.405 440.729 637.555 439.507H677.524C677.574 439.836 677.674 440.165 677.823 440.447C678.123 440.917 678.572 441.34 679.121 441.528C679.42 441.668 679.769 441.715 680.119 441.715C680.518 441.715 680.867 441.621 681.167 441.481L701.176 474.083C700.527 474.506 700.078 475.258 700.078 476.056C700.078 476.855 700.527 477.606 701.176 478.029L681.167 510.632ZM745.237 475.774H705.268C705.168 474.882 704.569 474.083 703.671 473.754C703.372 473.613 703.022 473.566 702.673 473.566C702.274 473.566 701.925 473.66 701.625 473.801L681.616 441.199C682.264 440.776 682.713 440.024 682.713 439.226C682.713 438.427 682.264 437.675 681.616 437.253L701.625 404.65H701.675C701.975 404.791 702.324 404.838 702.673 404.838C704.02 404.838 705.118 403.851 705.268 402.63H745.237C745.337 403.522 745.936 404.321 746.834 404.65C747.133 404.791 747.483 404.838 747.832 404.838C748.231 404.838 748.58 404.744 748.88 404.603L768.889 437.206C768.241 437.628 767.792 438.38 767.792 439.179C767.792 439.977 768.241 440.729 768.889 441.152L748.88 473.754C748.531 473.613 748.181 473.519 747.832 473.519C746.485 473.566 745.387 474.553 745.237 475.774ZM836.603 400.422C835.954 400.845 835.505 401.596 835.505 402.395C835.505 403.194 835.954 403.945 836.603 404.368L816.593 436.971C816.244 436.83 815.894 436.736 815.545 436.736C814.198 436.736 813.1 437.722 812.95 438.944H772.981C772.881 438.051 772.283 437.253 771.384 436.924C771.085 436.783 770.736 436.736 770.386 436.736C769.987 436.736 769.638 436.83 769.339 436.971L749.329 404.368C749.978 403.945 750.427 403.194 750.427 402.395C750.427 401.596 749.978 400.845 749.329 400.422L769.339 367.819C769.688 367.96 770.037 368.054 770.386 368.054C771.734 368.054 772.831 367.068 772.981 365.846H812.95C813.1 367.068 814.198 368.054 815.545 368.054C815.944 368.054 816.294 367.96 816.593 367.819L836.603 400.422ZM768.889 363.591C768.241 364.014 767.792 364.766 767.792 365.564C767.792 366.363 768.241 367.115 768.889 367.537L748.88 400.14H748.83C748.531 399.999 748.181 399.952 747.832 399.952C746.485 399.952 745.387 400.939 745.237 402.16H705.268C705.168 401.314 704.669 400.61 703.921 400.234C703.571 400.046 703.122 399.952 702.673 399.952C702.274 399.952 701.925 400.046 701.625 400.187L681.616 367.584C682.264 367.162 682.713 366.41 682.713 365.611C682.713 364.813 682.264 364.061 681.616 363.638L701.625 331.036C701.975 331.177 702.324 331.271 702.673 331.271C704.02 331.271 705.118 330.284 705.268 329.063H745.237C745.387 330.284 746.485 331.271 747.832 331.271C748.231 331.271 748.58 331.177 748.88 331.036L768.889 363.591ZM701.126 326.761C700.478 327.183 700.028 327.935 700.028 328.734C700.028 329.485 700.378 330.19 700.977 330.613C701.026 330.66 701.076 330.66 701.126 330.707L681.117 363.309C680.767 363.168 680.418 363.074 680.069 363.074C678.721 363.074 677.624 364.061 677.474 365.282H637.505C637.355 364.061 636.257 363.074 634.91 363.074C634.511 363.074 634.161 363.168 633.862 363.309L613.852 330.707C614.501 330.284 614.95 329.532 614.95 328.734C614.95 328.405 614.9 328.076 614.751 327.794C614.551 327.371 614.252 327.042 613.902 326.761L633.912 294.158C634.261 294.299 634.611 294.393 634.96 294.393C636.307 294.393 637.405 293.406 637.555 292.185H677.524C677.574 292.42 677.624 292.702 677.724 292.89C678.123 293.782 679.021 294.393 680.119 294.393C680.518 294.393 680.867 294.299 681.167 294.158L701.126 326.761ZM701.126 253.099C700.478 253.522 700.028 254.274 700.028 255.072C700.028 255.871 700.478 256.623 701.126 257.046L681.117 289.648C680.767 289.507 680.418 289.413 680.069 289.413C678.721 289.413 677.624 290.4 677.474 291.621H637.505C637.455 291.292 637.355 290.964 637.205 290.729C636.756 289.977 635.908 289.46 634.91 289.46C634.511 289.46 634.161 289.554 633.862 289.695L613.852 257.092C614.501 256.67 614.95 255.918 614.95 255.119C614.95 254.321 614.501 253.569 613.852 253.146L633.862 220.544C634.211 220.685 634.561 220.779 634.91 220.779C636.257 220.779 637.355 219.792 637.505 218.571H677.474C677.524 218.899 677.624 219.228 677.773 219.51C678.222 220.262 679.071 220.779 680.069 220.779C680.468 220.779 680.817 220.685 681.117 220.544L701.126 253.099ZM681.167 216.034C680.817 215.893 680.468 215.799 680.119 215.799C678.771 215.799 677.674 216.785 677.524 218.007H637.555C637.505 217.678 637.405 217.349 637.255 217.067C636.806 216.316 635.958 215.799 634.96 215.799C634.561 215.799 634.211 215.893 633.912 216.034L613.852 183.431C614.501 183.008 614.95 182.257 614.95 181.458C614.95 180.66 614.501 179.908 613.852 179.485L614.85 177.841L633.812 146.882C634.161 147.023 634.511 147.117 634.86 147.117C636.207 147.117 637.305 146.131 637.455 144.909H677.424C677.474 145.473 677.773 145.99 678.173 146.413C678.622 146.835 679.32 147.117 680.019 147.117C680.418 147.117 680.767 147.023 681.067 146.882L701.076 179.485C700.428 179.908 699.979 180.66 699.979 181.458C699.979 182.069 700.178 182.586 700.577 183.008C700.727 183.149 700.877 183.29 701.076 183.431L681.167 216.034ZM768.889 142.654C768.241 143.077 767.792 143.829 767.792 144.628C767.792 145.426 768.241 146.178 768.889 146.601L748.88 179.203C748.531 179.062 748.181 178.968 747.832 178.968C746.485 178.968 745.387 179.955 745.237 181.176H705.268C705.218 180.847 705.118 180.519 704.968 180.237C704.519 179.485 703.671 178.968 702.673 178.968C702.274 178.968 701.925 179.062 701.625 179.203L681.616 146.601C682.264 146.178 682.713 145.426 682.713 144.628C682.713 143.829 682.264 143.077 681.616 142.654L701.625 110.052C701.975 110.193 702.324 110.287 702.673 110.287C704.02 110.287 705.118 109.3 705.268 108.079H745.237C745.387 109.3 746.485 110.287 747.832 110.287C748.231 110.287 748.58 110.193 748.88 110.052L768.889 142.654ZM633.862 73.2212C634.211 73.3621 634.561 73.4561 634.91 73.4561C636.257 73.4561 637.355 72.4695 637.505 71.2481H677.474C677.624 72.4695 678.721 73.4561 680.069 73.4561C680.468 73.4561 680.817 73.3621 681.117 73.2212L701.126 105.824C700.478 106.247 700.028 106.998 700.028 107.797C700.028 108.549 700.378 109.253 700.977 109.676C701.026 109.723 701.076 109.723 701.126 109.77L681.117 142.373C680.767 142.232 680.418 142.138 680.069 142.138C678.721 142.138 677.624 143.124 677.474 144.346H637.505C637.355 143.124 636.257 142.138 634.91 142.138C634.511 142.138 634.161 142.232 633.862 142.373L613.852 109.77C614.501 109.347 614.95 108.596 614.95 107.797C614.95 107.139 614.651 106.528 614.202 106.059C614.102 105.965 614.002 105.871 613.902 105.824L633.862 73.2212ZM565.65 105.824C565.001 106.247 564.552 106.998 564.552 107.797C564.552 108.549 564.901 109.253 565.5 109.676C565.55 109.723 565.6 109.723 565.65 109.77L545.64 142.373C545.291 142.232 544.942 142.138 544.592 142.138C543.245 142.138 542.147 143.124 541.998 144.346H502.028C501.879 143.124 500.781 142.138 499.434 142.138C499.034 142.138 498.685 142.232 498.386 142.373L478.376 109.77C478.775 109.488 479.075 109.159 479.224 108.736C479.374 108.455 479.424 108.126 479.424 107.797C479.424 106.998 478.975 106.247 478.326 105.824L498.336 73.2212C498.685 73.3621 499.034 73.4561 499.384 73.4561C500.382 73.4561 501.23 72.9393 501.679 72.1877C501.829 71.9058 501.928 71.6239 501.978 71.2951H541.948C542.097 72.5165 543.195 73.5031 544.542 73.5031C544.942 73.5031 545.291 73.4091 545.64 73.2682L565.65 105.824ZM565.65 32.2095C565.001 32.6323 564.552 33.384 564.552 34.1826C564.552 34.9812 565.001 35.7329 565.65 36.1557L545.64 68.7583C545.291 68.6174 544.942 68.5234 544.592 68.5234C543.594 68.5234 542.746 69.0402 542.297 69.7918C542.147 70.0737 542.047 70.3555 541.998 70.6844H502.028C501.879 69.463 500.781 68.4764 499.434 68.4764C499.034 68.4764 498.685 68.5704 498.336 68.7113L478.326 36.1087C478.975 35.6859 479.424 34.9342 479.424 34.1356C479.424 33.337 478.975 32.5854 478.326 32.1626L498.336 -0.440079C498.685 -0.299141 499.034 -0.205185 499.434 -0.205185C500.781 -0.205185 501.879 -1.19173 502.028 -2.41315H541.998C542.047 -2.17826 542.097 -1.94337 542.197 -1.70848C542.596 -0.815903 543.495 -0.205185 544.592 -0.205185C544.991 -0.205185 545.341 -0.299141 545.64 -0.440079L565.65 32.2095ZM498.386 -74.0074C498.735 -73.8665 499.084 -73.7725 499.434 -73.7725C500.781 -73.7725 501.879 -74.759 502.028 -75.9805H541.998C542.147 -74.759 543.245 -73.7725 544.592 -73.7725C544.991 -73.7725 545.341 -73.8665 545.64 -74.0074L565.65 -41.4048C565.001 -40.982 564.552 -40.2303 564.552 -39.4317C564.552 -38.6331 565.001 -37.8814 565.65 -37.4586L545.64 -4.856C545.291 -4.99693 544.942 -5.09089 544.542 -5.09089C543.195 -5.09089 542.097 -4.10435 541.948 -2.88293H501.978C501.928 -3.11782 501.879 -3.35271 501.779 -3.58759C501.629 -3.86946 501.479 -4.15133 501.23 -4.38622C500.781 -4.80902 500.082 -5.09089 499.384 -5.09089C498.984 -5.09089 498.635 -4.99693 498.336 -4.856L478.376 -37.4586C479.025 -37.8814 479.474 -38.6331 479.474 -39.4317C479.474 -39.7605 479.424 -40.0894 479.274 -40.3713C479.075 -40.7941 478.775 -41.1229 478.376 -41.4048L498.386 -74.0074ZM430.622 -37.2237C430.972 -37.0828 431.321 -36.9888 431.67 -36.9888C433.018 -36.9888 434.115 -37.9754 434.265 -39.1968H474.234C474.284 -38.9619 474.334 -38.727 474.434 -38.4921C474.833 -37.5996 475.731 -36.9888 476.829 -36.9888C477.228 -36.9888 477.578 -37.0828 477.877 -37.2237L497.837 -4.62111C497.188 -4.19831 496.739 -3.44666 496.739 -2.64804C496.739 -2.31919 496.789 -1.99035 496.939 -1.70848C497.138 -1.28568 497.438 -0.956833 497.787 -0.674965L477.777 31.9277C477.428 31.7867 477.079 31.6928 476.729 31.6928C475.382 31.6928 474.284 32.6793 474.135 33.9007H434.165C434.016 32.6793 432.918 31.6928 431.571 31.6928C431.171 31.6928 430.822 31.7867 430.523 31.9277L410.513 -0.674965C411.162 -1.09776 411.611 -1.84942 411.611 -2.64804C411.611 -3.30573 411.311 -3.91644 410.862 -4.38622C410.763 -4.48017 410.663 -4.57413 410.563 -4.62111L430.622 -37.2237ZM275.136 -0.627991C275.785 -1.05079 276.234 -1.80244 276.234 -2.60106C276.234 -3.39968 275.785 -4.15133 275.136 -4.57413L295.146 -37.1768C295.495 -37.0358 295.845 -36.9419 296.194 -36.9419C297.541 -36.9419 298.639 -37.9284 298.789 -39.1498H338.758C338.908 -37.9284 340.005 -36.9419 341.353 -36.9419C341.752 -36.9419 342.101 -37.0358 342.401 -37.1768L362.41 -4.57413C361.761 -4.15133 361.312 -3.39968 361.312 -2.60106C361.312 -1.84941 361.662 -1.14474 362.26 -0.721947C362.31 -0.674965 362.36 -0.674965 362.41 -0.627991L342.401 31.9746C342.051 31.8337 341.702 31.7398 341.353 31.7398C340.005 31.7398 338.908 32.7263 338.758 33.9477H298.789C298.639 32.7263 297.541 31.7398 296.194 31.7398C295.795 31.7398 295.445 31.8337 295.146 31.9746L275.136 -0.627991ZM295.146 36.4375C295.495 36.5785 295.845 36.6724 296.194 36.6724C297.541 36.6724 298.639 35.6859 298.789 34.4645H338.758C338.808 35.0282 339.107 35.545 339.506 35.9678C339.956 36.3906 340.604 36.6724 341.353 36.6724C341.752 36.6724 342.101 36.5785 342.401 36.4375L362.41 69.0402C361.761 69.463 361.312 70.2146 361.312 71.0132C361.312 71.6239 361.512 72.1407 361.911 72.5635C362.061 72.7044 362.211 72.8454 362.41 72.9863L342.401 105.589C342.051 105.448 341.702 105.354 341.353 105.354C340.205 105.354 339.207 106.106 338.858 107.092C338.808 107.233 338.758 107.421 338.758 107.562H298.789C298.639 106.341 297.541 105.354 296.194 105.354C295.795 105.354 295.445 105.448 295.146 105.589L275.136 72.9863C275.585 72.6575 275.935 72.2347 276.084 71.7179C276.184 71.483 276.184 71.2481 276.184 70.9662C276.184 70.1676 275.735 69.416 275.086 68.9932L295.146 36.4375ZM227.383 73.2682C227.732 73.4091 228.081 73.5031 228.431 73.5031C229.778 73.5031 230.876 72.5165 231.025 71.2951H271.045C271.194 72.5165 272.292 73.5031 273.639 73.5031C274.039 73.5031 274.388 73.4091 274.687 73.2682L294.697 105.871C294.298 106.153 293.998 106.482 293.799 106.904C293.649 107.186 293.599 107.515 293.599 107.844C293.599 108.596 293.948 109.3 294.547 109.723C294.597 109.77 294.647 109.77 294.697 109.817L274.687 142.42C274.338 142.279 273.989 142.185 273.639 142.185C272.292 142.185 271.194 143.171 271.045 144.393H231.075C230.926 143.171 229.828 142.185 228.481 142.185C228.081 142.185 227.732 142.279 227.433 142.42L207.423 109.817C208.072 109.394 208.521 108.642 208.521 107.844C208.521 107.186 208.221 106.575 207.772 106.106C207.673 106.012 207.573 105.918 207.473 105.871L227.383 73.2682ZM71.9466 109.817C72.5953 109.394 73.0444 108.642 73.0444 107.844C73.0444 107.045 72.5953 106.294 71.9466 105.871L91.9562 73.2682C92.3055 73.4091 92.6548 73.5031 93.0041 73.5031C94.3514 73.5031 95.4492 72.5165 95.5989 71.2951H135.568C135.718 72.5165 136.816 73.5031 138.163 73.5031C138.562 73.5031 138.911 73.4091 139.211 73.2682L159.22 105.871C158.572 106.294 158.123 107.045 158.123 107.844C158.123 108.596 158.472 109.3 159.071 109.723C159.121 109.77 159.171 109.77 159.22 109.817L139.211 142.42C138.861 142.279 138.512 142.185 138.163 142.185C136.816 142.185 135.718 143.171 135.568 144.393H95.5989C95.4492 143.171 94.3514 142.185 93.0041 142.185C92.6049 142.185 92.2556 142.279 91.9562 142.42L71.9466 109.817ZM71.9466 183.478C72.5953 183.055 73.0444 182.304 73.0444 181.505C73.0444 180.707 72.5953 179.955 71.9466 179.532L91.9562 146.929C92.3055 147.07 92.6548 147.164 93.0041 147.164C94.3514 147.164 95.4492 146.178 95.5989 144.956H135.568C135.618 145.52 135.917 146.037 136.317 146.46C136.766 146.882 137.464 147.164 138.163 147.164C138.562 147.164 138.911 147.07 139.211 146.929L159.22 179.532C158.572 179.955 158.123 180.707 158.123 181.505C158.123 182.116 158.322 182.633 158.721 183.055C158.871 183.196 159.021 183.337 159.22 183.478L139.211 216.081C138.861 215.94 138.512 215.846 138.163 215.846C136.816 215.846 135.718 216.832 135.568 218.054H95.5989C95.4492 216.832 94.3514 215.846 93.0041 215.846C92.6049 215.846 92.2556 215.94 91.9562 216.081L71.9466 183.478ZM139.66 220.309C140.309 219.886 140.758 219.134 140.758 218.336C140.758 217.537 140.309 216.785 139.66 216.363L159.669 183.76C160.019 183.901 160.368 183.995 160.717 183.995C162.065 183.995 163.162 183.008 163.312 181.787H203.281C203.431 183.008 204.529 183.995 205.876 183.995C206.275 183.995 206.625 183.901 206.924 183.76L226.934 216.363C226.285 216.785 225.836 217.537 225.836 218.336C225.836 219.087 226.185 219.792 226.784 220.215C226.834 220.262 226.884 220.262 226.934 220.309L206.924 252.911C206.575 252.771 206.225 252.677 205.876 252.677C204.529 252.677 203.431 253.663 203.281 254.884H163.312C163.162 253.663 162.065 252.677 160.717 252.677C160.318 252.677 159.969 252.771 159.669 252.911L139.66 220.309ZM159.669 257.374C160.019 257.515 160.368 257.609 160.717 257.609C162.065 257.609 163.162 256.623 163.312 255.401H203.281C203.331 255.965 203.631 256.482 204.03 256.905C204.479 257.327 205.178 257.609 205.876 257.609C206.275 257.609 206.625 257.515 206.924 257.374L226.934 289.977C226.285 290.4 225.836 291.151 225.836 291.95C225.836 292.561 226.035 293.077 226.435 293.5C226.584 293.641 226.734 293.782 226.934 293.923L206.974 326.479C206.675 326.338 206.275 326.244 205.926 326.244C205.377 326.244 204.878 326.385 204.479 326.667C203.83 327.043 203.431 327.7 203.331 328.452H163.362C163.312 327.888 163.013 327.371 162.614 326.949C162.164 326.526 161.466 326.244 160.767 326.244C160.368 326.244 160.019 326.338 159.719 326.479L139.71 293.876C140.358 293.453 140.808 292.702 140.808 291.903C140.808 291.057 140.358 290.353 139.71 289.93L159.669 257.374ZM91.9562 294.158C92.3055 294.299 92.6548 294.393 93.0041 294.393C94.3514 294.393 95.4492 293.406 95.5989 292.185H135.568C135.718 293.406 136.816 294.393 138.163 294.393C138.562 294.393 138.911 294.299 139.211 294.158L159.22 326.761C158.572 327.183 158.123 327.935 158.123 328.734C158.123 329.579 158.572 330.284 159.22 330.707L139.261 363.262C138.911 363.121 138.562 363.027 138.213 363.027C136.866 363.027 135.768 364.014 135.618 365.235H95.6488C95.4991 364.014 94.4013 363.027 93.054 363.027C92.6548 363.027 92.3055 363.121 92.0061 363.262L71.9466 330.754C72.5953 330.331 73.0444 329.579 73.0444 328.781C73.0444 328.687 73.0444 328.593 73.0444 328.546C72.9446 327.841 72.5454 327.23 71.9965 326.808L91.9562 294.158ZM4.23334 367.584C4.88203 367.162 5.33112 366.41 5.33112 365.611C5.33112 364.813 4.88203 364.061 4.23334 363.638L24.2429 331.036C24.5922 331.177 24.9415 331.271 25.2908 331.271C26.6381 331.271 27.7359 330.284 27.8856 329.063H67.8549C68.0046 330.284 69.1024 331.271 70.4496 331.271C70.8488 331.271 71.1981 331.177 71.4975 331.036L91.5071 363.638C90.9083 364.061 90.5091 364.672 90.4592 365.376C90.4592 365.47 90.4592 365.564 90.4592 365.611C90.4592 366.41 90.9083 367.162 91.557 367.584L71.5474 400.187C71.1981 400.046 70.8488 399.952 70.4995 399.952C69.1523 399.952 68.0545 400.939 67.9048 402.16H27.8856C27.7359 400.939 26.6381 399.952 25.2908 399.952C24.8916 399.952 24.5423 400.046 24.2429 400.187L4.23334 367.584ZM71.9466 404.368C72.5953 403.945 73.0444 403.194 73.0444 402.395C73.0444 401.596 72.5953 400.845 71.9466 400.422L91.9562 367.819C92.3055 367.96 92.6548 368.054 93.0041 368.054C94.3514 368.054 95.4492 367.068 95.5989 365.846H135.568C135.618 366.41 135.917 366.927 136.317 367.349C136.766 367.772 137.464 368.054 138.163 368.054C138.562 368.054 138.911 367.96 139.211 367.819L159.22 400.422C158.572 400.845 158.123 401.596 158.123 402.395C158.123 403.006 158.322 403.522 158.721 403.945C158.871 404.086 159.021 404.227 159.22 404.368L139.211 436.971C138.861 436.83 138.512 436.736 138.163 436.736C136.816 436.736 135.718 437.722 135.568 438.944H95.5989C95.4492 437.722 94.3514 436.736 93.0041 436.736C92.6049 436.736 92.2556 436.83 91.9562 436.971L71.9466 404.368ZM139.71 441.199C140.358 440.776 140.808 440.024 140.808 439.226C140.808 438.427 140.358 437.675 139.71 437.253L159.719 404.65C160.069 404.791 160.418 404.885 160.767 404.885C162.115 404.885 163.212 403.898 163.362 402.677H203.331C203.481 403.898 204.579 404.885 205.926 404.885C206.325 404.885 206.675 404.791 206.974 404.65L226.984 437.253C226.335 437.675 225.886 438.427 225.886 439.226C225.886 439.977 226.235 440.682 226.834 441.105C226.884 441.152 226.934 441.152 226.984 441.199L206.974 473.801C206.625 473.66 206.275 473.566 205.926 473.566C204.579 473.566 203.481 474.553 203.331 475.774H163.362C163.212 474.553 162.115 473.566 160.767 473.566C160.368 473.566 160.019 473.66 159.719 473.801L139.71 441.199ZM206.974 547.416C206.625 547.275 206.275 547.181 205.926 547.181C204.579 547.181 203.481 548.167 203.331 549.389H163.362C163.212 548.167 162.115 547.181 160.767 547.181C160.368 547.181 160.019 547.275 159.719 547.416L139.71 514.813C140.358 514.39 140.808 513.638 140.808 512.84C140.808 512.041 140.358 511.29 139.71 510.867L159.719 478.264C160.069 478.405 160.418 478.499 160.767 478.499C162.115 478.499 163.212 477.513 163.362 476.291H203.331C203.381 476.855 203.681 477.372 204.08 477.794C204.529 478.217 205.228 478.499 205.926 478.499C206.325 478.499 206.675 478.405 206.974 478.264L226.984 510.867C226.335 511.29 225.886 512.041 225.886 512.84C225.886 513.451 226.085 513.967 226.485 514.39C226.634 514.531 226.784 514.672 226.984 514.813L206.974 547.416ZM275.186 514.86C275.835 514.437 276.284 513.685 276.284 512.887C276.284 512.558 276.234 512.229 276.084 511.947C275.885 511.525 275.585 511.196 275.186 510.914L295.196 478.311C295.545 478.452 295.894 478.546 296.244 478.546C297.591 478.546 298.689 477.56 298.839 476.338H338.808C338.957 477.56 340.055 478.546 341.403 478.546C341.502 478.546 341.602 478.546 341.652 478.546C341.951 478.499 342.201 478.452 342.45 478.358L362.46 510.961C361.811 511.384 361.362 512.135 361.362 512.934C361.362 513.545 361.562 514.061 361.961 514.484C362.111 514.625 362.26 514.766 362.46 514.907L342.45 547.51C342.101 547.369 341.752 547.275 341.403 547.275C340.055 547.275 338.957 548.261 338.808 549.483H298.839C298.689 548.261 297.591 547.275 296.244 547.275C295.845 547.275 295.495 547.369 295.196 547.51L275.186 514.86ZM342.9 551.644C343.548 551.221 343.997 550.469 343.997 549.67C343.997 548.872 343.548 548.12 342.9 547.697L362.909 515.095C363.258 515.236 363.608 515.33 363.957 515.33C365.304 515.33 366.402 514.343 366.552 513.122H406.521C406.621 514.296 407.619 515.189 408.866 515.33C408.966 515.33 409.066 515.33 409.116 515.33C409.216 515.33 409.315 515.33 409.365 515.33C409.665 515.283 409.914 515.236 410.164 515.142L430.173 547.744C429.525 548.167 429.076 548.919 429.076 549.717C429.076 550.469 429.425 551.174 430.024 551.597C430.074 551.644 430.123 551.644 430.173 551.691L410.164 584.293C409.814 584.152 409.465 584.058 409.116 584.058C407.769 584.058 406.671 585.045 406.521 586.266H366.552C366.402 585.045 365.304 584.058 363.957 584.058C363.558 584.058 363.209 584.152 362.909 584.293L342.9 551.644ZM342.9 625.305C343.548 624.882 343.997 624.13 343.997 623.332C343.997 622.533 343.548 621.781 342.9 621.359L362.909 588.756C363.258 588.897 363.608 588.991 363.957 588.991C365.304 588.991 366.402 588.004 366.552 586.783H406.521C406.571 587.206 406.721 587.629 406.97 587.957C407.419 588.568 408.218 588.991 409.116 588.991C409.515 588.991 409.864 588.897 410.164 588.756L430.173 621.359C429.525 621.781 429.076 622.533 429.076 623.332C429.076 623.943 429.275 624.459 429.674 624.882C429.824 625.023 429.974 625.164 430.173 625.305L410.164 657.907C409.814 657.767 409.465 657.673 409.116 657.673C407.769 657.673 406.671 658.659 406.521 659.88H366.552C366.402 658.659 365.304 657.673 363.957 657.673C363.558 657.673 363.209 657.767 362.909 657.907L342.9 625.305ZM410.663 662.135C411.311 661.713 411.76 660.961 411.76 660.162C411.76 659.364 411.311 658.612 410.663 658.189L430.672 625.587C431.022 625.728 431.371 625.822 431.72 625.822C433.067 625.822 434.165 624.835 434.315 623.614H474.284C474.434 624.835 475.532 625.822 476.879 625.822C477.278 625.822 477.628 625.728 477.927 625.587L497.937 658.189C497.288 658.612 496.839 659.364 496.839 660.162C496.839 660.961 497.288 661.713 497.937 662.135L477.927 694.738C477.578 694.597 477.228 694.503 476.879 694.503C475.532 694.503 474.434 695.49 474.284 696.711H434.315C434.165 695.49 433.067 694.503 431.72 694.503C431.321 694.503 430.972 694.597 430.672 694.738L410.663 662.135Z" fill="#CFD8E9" fill-opacity="0.85"/>
</svg>
