<svg width="51" height="51" viewBox="0 0 51 51" fill="none" xmlns="http://www.w3.org/2000/svg">
<path d="M47.2464 14.0509C47.2368 14.9198 47.1155 15.7632 46.8966 16.5676L34.0867 3.87985C34.9258 3.64072 35.8087 3.50755 36.7204 3.49739L36.6878 0.540405C29.5635 0.619658 23.7879 6.48326 23.813 13.6078L23.8244 24.0198L13.443 24.0083C13.4274 24.0082 13.4127 24.0082 13.3971 24.0082C6.30872 24.0082 0.484879 29.7897 0.406128 36.9167L3.35541 36.9495C3.36505 36.0795 3.48548 35.2354 3.70276 34.4306L16.5125 47.118C15.6739 47.3586 14.7918 47.4929 13.8813 47.503L13.9141 50.4599C21.0048 50.3811 26.7806 44.5206 26.7891 37.3926L26.7772 26.9805L37.1658 26.9922C44.2717 26.9837 50.1168 21.193 50.1956 14.0837L47.2464 14.0509ZM26.7739 24.0231L26.7675 18.1749L32.6789 24.0298L26.7739 24.0231ZM13.4007 26.9654C13.4124 26.9654 13.4245 26.9655 13.4362 26.9655L13.7216 26.9658L23.8392 36.9868L23.8396 37.3926C23.8382 38.6227 23.6142 39.8038 23.2069 40.8978L9.81526 27.6339C10.9305 27.2025 12.1395 26.9654 13.4007 26.9654ZM19.3623 45.7837L4.99257 31.5514C5.58473 30.6433 6.31865 29.8366 7.16152 29.1623L21.7152 43.5769C21.0532 44.4316 20.258 45.1776 19.3623 45.7837ZM23.8344 32.8253L17.9232 26.9704L23.8277 26.9771L23.8344 32.8253ZM36.8807 24.0347L26.763 14.0136L26.7625 13.601C26.7582 12.3693 26.9786 11.1868 27.3841 10.0918L40.7764 23.3564C39.6535 23.7928 38.4356 24.0335 37.1658 24.035L36.8807 24.0347ZM43.4293 21.827L28.875 7.41162C29.5372 6.55828 30.3337 5.81356 31.2316 5.20881L45.6016 19.4416C45.0081 20.3474 44.273 21.153 43.4293 21.827Z" fill="#42BFFF"/>
</svg>
