<svg width="31" height="36" viewBox="0 0 31 36" fill="none" xmlns="http://www.w3.org/2000/svg">
<path fill-rule="evenodd" clip-rule="evenodd" d="M10.8646 12.9062C10.5542 12.9062 10.3016 12.6509 10.3016 12.3376C10.3016 12.0244 10.5542 11.7696 10.8646 11.7696C11.175 11.7696 11.428 12.0244 11.428 12.3376C11.428 12.6509 11.175 12.9062 10.8646 12.9062ZM10.8646 10.6777C9.95751 10.6777 9.21949 11.4223 9.21949 12.3377C9.21949 13.2535 9.95751 13.9977 10.8646 13.9977C11.7722 13.9977 12.5097 13.2535 12.5097 12.3377C12.5097 11.4223 11.7722 10.6777 10.8646 10.6777ZM10.3021 4.66835C10.4898 4.4823 10.6752 4.4756 10.9234 4.4756C11.2799 4.4756 11.6016 4.71184 11.5593 5.01929L10.9795 9.21086C10.9598 9.25696 10.7702 9.25623 10.7502 9.21086L10.1704 5.01929C10.1581 4.92961 10.1617 4.80814 10.3021 4.66835ZM9.67899 9.36814C9.75636 9.92695 10.2617 10.3386 10.8728 10.3386C11.4677 10.3386 11.9741 9.92098 12.0506 9.36814L12.6309 5.1697C12.7669 4.18557 11.93 3.38373 10.9233 3.38373H10.8057C9.79897 3.38373 8.96268 4.18614 9.09862 5.1697L9.67899 9.36814ZM3.29558 13.6159C3.02597 14.0872 3.35933 14.671 3.89952 14.671H17.8301C18.3703 14.671 18.7036 14.0868 18.4336 13.6159L11.4685 1.44456C11.1984 0.969459 10.5305 0.968969 10.2606 1.44456L3.29558 13.6159ZM19.3708 13.0699L16.9691 8.87235C17.6268 8.48464 18.3699 8.28174 19.1443 8.28174C21.5292 8.28174 23.4692 10.2393 23.4692 12.6467C23.4692 15.0532 21.5292 17.0112 19.1443 17.0112C17.9884 17.0112 16.9117 16.5572 16.1131 15.7629H17.8302C19.199 15.7629 20.0559 14.2681 19.3708 13.0699ZM17.3259 5.5248C17.5055 5.47878 17.6491 5.34308 17.7061 5.16553L18.2436 3.49817H20.0445L20.5815 5.16553C20.6384 5.34308 20.7821 5.47878 20.9617 5.5248C21.6231 5.69679 22.2576 5.96222 22.8475 6.31454C23.007 6.40978 23.2039 6.41623 23.3689 6.33114L24.9174 5.53494L26.1919 6.82006L25.4023 8.38343C25.3185 8.54995 25.3244 8.74818 25.4188 8.90873C25.768 9.50392 26.031 10.1446 26.2014 10.8125C26.2466 10.9932 26.3815 11.1377 26.5574 11.1951L28.2107 11.7374V13.5556L26.5574 14.097C26.3815 14.1545 26.2475 14.2989 26.2014 14.4806C26.031 15.1475 25.768 15.7883 25.4188 16.3834C25.3244 16.5449 25.3185 16.7426 25.4023 16.9096L26.1919 18.4726L24.9174 19.7577L23.3689 18.962C23.2039 18.8765 23.007 18.8825 22.8475 18.9776C22.2576 19.33 21.6231 19.5958 20.9617 19.7674C20.7821 19.8138 20.6385 19.949 20.5815 20.1271L20.0445 21.7948H18.2436L17.7061 20.1275C17.6491 19.9499 17.5055 19.8138 17.3259 19.7673C16.665 19.5962 16.03 19.3308 15.4402 18.9776C15.2807 18.8832 15.0838 18.8763 14.9188 18.9619L13.3703 19.7576L12.0958 18.4725L12.8858 16.9096C12.9692 16.7426 12.9637 16.5444 12.8689 16.3834C12.7509 16.1823 12.6423 15.9749 12.5449 15.7628H14.7055C15.7179 17.2333 17.3552 18.1031 19.1443 18.1031C22.1259 18.1031 24.5514 15.6548 24.5514 12.6467C24.5514 9.63716 22.1259 7.18979 19.1443 7.18979C18.178 7.18979 17.2495 7.44418 16.4281 7.92713L15.4891 6.28601C16.0656 5.9484 16.6837 5.69132 17.3259 5.5248ZM3.89952 15.7629H11.366C11.4895 16.0748 11.6299 16.3802 11.7894 16.6754L10.9535 18.3299C10.8477 18.541 10.8878 18.7967 11.0529 18.9637L12.8826 20.81C13.0485 20.9774 13.3024 21.0174 13.5107 20.9107L15.1512 20.0671C15.6658 20.35 16.2073 20.5767 16.7671 20.7437L17.3355 22.5095C17.408 22.7344 17.6158 22.8862 17.8501 22.8862H20.4374C20.6717 22.8862 20.8795 22.7344 20.952 22.5095L21.5204 20.7437C22.0811 20.5768 22.6226 20.3496 23.1368 20.0671L24.7769 20.9107C24.9851 21.0173 25.239 20.9774 25.405 20.81L27.2348 18.9637C27.3998 18.7967 27.4404 18.5409 27.3342 18.3299L26.4986 16.6754C26.778 16.1562 27.0032 15.6097 27.1691 15.0445L28.9182 14.4709C29.141 14.3974 29.2925 14.1876 29.2925 13.9521V11.3409C29.2925 11.1045 29.1411 10.8947 28.9182 10.8221L27.1682 10.248C27.0027 9.68229 26.778 9.1359 26.4986 8.61706L27.3342 6.96213C27.4404 6.75196 27.3998 6.49577 27.2348 6.32828L25.405 4.48296C25.2391 4.31554 24.9852 4.27459 24.7769 4.38225L23.1368 5.22488C22.6217 4.94245 22.0811 4.71568 21.5204 4.54876L20.9521 2.78347C20.8796 2.55859 20.6717 2.40679 20.4374 2.40679H17.8502C17.6159 2.40679 17.408 2.55859 17.3356 2.78347L16.7672 4.54876C16.207 4.71568 15.6654 4.94245 15.1513 5.22488L14.7712 5.02983L12.4053 0.897196C11.7194 -0.299964 10.0081 -0.298166 9.32391 0.897196L2.35884 13.0699C1.67372 14.2668 2.52945 15.7629 3.89952 15.7629ZM28.5166 23.8697C29.7419 22.6048 29.8969 22.0809 29.9155 21.9599C29.7109 21.724 29.4793 21.6835 28.9392 21.6885C28.755 21.6899 28.1 21.8348 25.985 23.1448C24.5988 24.0035 23.0417 25.0784 21.9044 25.8635C21.3137 26.271 20.804 26.6234 20.4731 26.8377C19.9202 27.196 19.3317 27.3662 18.6762 27.356L18.3393 27.351C17.9414 28.1392 17.0564 28.6263 16.2142 28.3169L13.0362 27.1509L11.6118 27.362C11.3164 27.4061 11.0415 27.1997 10.9982 26.9011C10.9544 26.6035 11.1591 26.3257 11.4549 26.282L13.0138 26.0506C13.1027 26.0373 13.1934 26.047 13.2773 26.0773L16.5834 27.2911C16.95 27.4256 17.3504 27.0532 17.4458 26.6679L17.4746 26.5529C17.5708 26.1656 17.3861 25.7788 17.0256 25.6136L12.2495 23.4234C11.7946 23.2145 11.3205 23.2307 10.8802 23.4698L5.20195 26.5547L7.80705 32.1238C10.4878 30.8718 11.4427 31.0094 12.8344 31.3543C13.747 31.5806 14.8816 31.8621 17.3434 31.5084C18.6243 31.3244 21.6902 29.5167 24.8008 27.1126C26.2735 25.9744 27.5931 24.8222 28.5166 23.8697ZM7.21112 33.7784C7.16235 33.9159 7.06344 34.025 6.93447 34.0852L5.28393 34.8598C5.01862 34.9839 4.70089 34.8657 4.57378 34.5953L1.13094 27.2333C1.00683 26.9676 1.12664 26.6444 1.39123 26.5208L3.04087 25.7462C3.30659 25.6221 3.62481 25.7403 3.75151 26.0107L7.19484 33.3732C7.25398 33.4997 7.25941 33.6437 7.21112 33.7784ZM30.7966 21.3215C30.2624 20.6435 29.6096 20.5925 28.93 20.5971C27.7034 20.6072 24.6183 22.6674 21.2935 24.9625C20.7101 25.365 20.2059 25.7136 19.8877 25.9197C19.4408 26.2094 19.0909 26.2695 18.5781 26.2633C18.5448 25.5651 18.131 24.9221 17.4732 24.6199L12.6975 22.4296C11.9336 22.0795 11.1058 22.1076 10.3673 22.5087L4.73969 25.5665L4.72965 25.5449C4.35035 24.7336 3.38817 24.3799 2.58494 24.7565L0.934808 25.5302C0.128334 25.9091 -0.227551 26.8864 0.152557 27.6989L3.59589 35.0614C3.97932 35.8814 4.94733 36.2221 5.7406 35.8497L7.39024 35.0761C8.12234 34.7326 8.49144 33.895 8.25269 33.1189C10.7315 31.9576 11.4426 32.1332 12.5762 32.4148C13.5786 32.6636 14.8262 32.9727 17.4964 32.5895C19.178 32.3472 22.4408 30.2562 24.9328 28.38C27.428 26.502 30.2997 23.9723 30.8782 22.5073C31.1134 21.912 30.9644 21.5345 30.7966 21.3215Z" fill="white"/>
</svg>
