<svg width="36" height="36" viewBox="0 0 36 36" fill="none" xmlns="http://www.w3.org/2000/svg">
<g clip-path="url(#clip0_1_1465)">
<path d="M33.086 9.26947C33.0675 8.29752 33.0499 7.37933 33.0499 6.49105C33.0499 5.79514 32.4859 5.23095 31.7898 5.23095C26.4008 5.23095 22.2978 3.68222 18.8777 0.356917C18.3884 -0.118894 17.6099 -0.118726 17.1208 0.356917C13.7011 3.68222 9.59871 5.23095 4.21006 5.23095C3.51415 5.23095 2.94996 5.79514 2.94996 6.49105C2.94996 7.3795 2.93249 8.29802 2.91384 9.27014C2.74112 18.3153 2.50456 30.703 17.5865 35.9307C17.7203 35.977 17.8597 36.0002 17.9992 36.0002C18.1386 36.0002 18.2782 35.977 18.4118 35.9307C33.4949 30.7028 33.2587 18.3147 33.086 9.26947ZM17.9993 33.4029C5.06457 28.7041 5.26013 18.4108 5.43369 9.31819C5.44411 8.77249 5.45419 8.24358 5.46124 7.7251C10.5083 7.51206 14.5443 5.98264 17.9993 2.97287C21.4547 5.98264 25.4913 7.51223 30.5388 7.7251C30.5458 8.24342 30.5559 8.77198 30.5663 9.31735C30.7397 18.4103 30.9351 28.704 17.9993 33.4029Z" fill="white"/>
<path d="M22.3384 13.6228L16.2566 19.7043L13.6613 17.109C13.1692 16.6171 12.3713 16.6171 11.8793 17.109C11.3872 17.6013 11.3872 18.399 11.8793 18.8911L15.3656 22.3774C15.6116 22.6234 15.9341 22.7464 16.2566 22.7464C16.579 22.7464 16.9016 22.6234 17.1475 22.3774L24.1202 15.4049C24.6125 14.9128 24.6125 14.1149 24.1204 13.6229C23.6284 13.1308 22.8305 13.1307 22.3384 13.6228Z" fill="white"/>
</g>
<defs>
<clipPath id="clip0_1_1465">
<rect width="36" height="36" fill="white"/>
</clipPath>
</defs>
</svg>
