<svg width="25" height="25" viewBox="0 0 25 25" fill="none" xmlns="http://www.w3.org/2000/svg">
<path d="M9.87093 14.329L23.2 1M9.87093 14.329L14.112 22.8112C14.1652 22.9272 14.2505 23.0255 14.3579 23.0944C14.4653 23.1633 14.5902 23.2 14.7179 23.2C14.8455 23.2 14.9704 23.1633 15.0778 23.0944C15.1852 23.0255 15.2706 22.9272 15.3237 22.8112L23.2 1M9.87093 14.329L1.38881 10.088C1.2728 10.0348 1.17449 9.94947 1.10556 9.84207C1.03664 9.73466 1 9.60973 1 9.48212C1 9.3545 1.03664 9.22957 1.10556 9.12217C1.17449 9.01477 1.2728 8.92942 1.38881 8.87625L23.2 1" stroke="white" stroke-width="2" stroke-linecap="round" stroke-linejoin="round"/>
</svg>
