<svg width="45" height="43" viewBox="0 0 45 43" fill="none" xmlns="http://www.w3.org/2000/svg">
<path d="M22.8808 24.9461C22.8578 24.9461 22.8345 24.9457 22.8113 24.9449H22.8045C22.3099 24.9438 21.8312 24.7698 21.4513 24.4531C21.3714 24.3865 13.4321 17.7684 10.7461 14.706C7.56592 11.0797 7.59901 5.85139 10.8231 2.54451C11.6003 1.73849 12.5324 1.09769 13.5632 0.66051C14.5941 0.223328 15.7026 -0.00123492 16.8224 0.000277532H16.8229C17.9429 -0.00129795 19.0516 0.223239 20.0827 0.660432C21.1138 1.09763 22.046 1.73848 22.8235 2.54459L22.8309 2.55208L22.8385 2.54421C23.617 1.73944 24.5494 1.09948 25.5802 0.662398C26.611 0.225318 27.7193 5.06747e-05 28.8389 8.54864e-09C29.9586 -5.06576e-05 31.0668 0.225116 32.0977 0.662103C33.1286 1.09909 34.061 1.73897 34.8396 2.54367C38.0623 5.85165 38.0956 11.0799 34.9171 14.7051L34.9169 14.7053C32.1987 17.8041 24.2883 24.3874 24.2088 24.4535C23.8377 24.7686 23.3676 24.9429 22.8808 24.9461ZM16.8224 1.8825C15.954 1.88181 15.0944 2.05645 14.2952 2.39595C13.4959 2.73545 12.7734 3.23283 12.171 3.85826C9.63949 6.45488 9.63529 10.5847 12.1611 13.4649C14.7508 16.4175 22.5766 22.9409 22.6553 23.0063C22.6967 23.0423 22.7497 23.0623 22.8045 23.0625H22.8307C22.8461 23.0625 22.8613 23.063 22.8766 23.0637C22.9238 23.0591 22.9683 23.0396 23.0035 23.0078C23.0844 22.9406 30.9223 16.405 33.5019 13.4641L33.5017 13.4643C36.0265 10.5847 36.0221 6.45465 33.4917 3.85731C32.8885 3.2326 32.1657 2.73577 31.3664 2.39644C30.5671 2.05712 29.7076 1.88225 28.8392 1.88228C27.9709 1.88231 27.1114 2.05722 26.3121 2.3966C25.5128 2.73597 24.79 3.23285 24.1869 3.85759L23.506 4.55711C23.4183 4.64713 23.3135 4.71871 23.1978 4.76761C23.0821 4.81651 22.9577 4.84175 22.8321 4.84184H22.8315C22.706 4.84185 22.5817 4.81672 22.466 4.76793C22.3503 4.71913 22.2455 4.64767 22.1578 4.55774L21.476 3.85853C20.8733 3.2329 20.1504 2.7354 19.3508 2.39585C18.5511 2.05631 17.6911 1.8817 16.8224 1.8825Z" fill="white"/>
<path d="M24.2344 42.5126C23.6958 42.5046 23.1598 42.4379 22.6357 42.3138C22.626 42.3118 22.6165 42.3096 22.607 42.3072L8.62177 38.8222C8.50185 38.7924 8.38899 38.7392 8.28963 38.6657C8.19028 38.5922 8.10637 38.4998 8.0427 38.3939C7.97903 38.288 7.93685 38.1705 7.91856 38.0483C7.90028 37.9261 7.90624 37.8015 7.93612 37.6815C7.966 37.5616 8.01921 37.4488 8.0927 37.3494C8.1662 37.25 8.25854 37.1661 8.36447 37.1025C8.47039 37.0388 8.58782 36.9966 8.71004 36.9783C8.83227 36.96 8.9569 36.966 9.07682 36.9959L23.0476 40.4771C23.9043 40.6615 24.7097 40.7694 25.8485 40.2575C26.6626 39.7604 37.4874 33.1367 40.8998 30.2996C41.0483 30.176 41.1977 30.0585 41.3438 29.944C42.1739 29.2921 42.3291 29.0986 42.2677 28.7466L42.1823 28.4645C42.1059 28.2971 41.9411 28.0716 41.096 28.1908L28.4221 33.8062C28.194 33.907 27.9352 33.9131 27.7025 33.8232C27.4698 33.7333 27.2824 33.5547 27.1813 33.3267C27.0802 33.0986 27.0739 32.8398 27.1635 32.607C27.2532 32.3743 27.4316 32.1866 27.6596 32.0853L40.4479 26.4192C40.5206 26.3869 40.5972 26.364 40.6757 26.3511C42.7285 26.0115 43.5816 26.9377 43.9345 27.7747C43.9473 27.805 43.9585 27.836 43.968 27.8674L44.083 28.2471C44.0912 28.2741 44.0982 28.3014 44.1038 28.329C44.4319 29.9122 43.3188 30.7862 42.5061 31.4243C42.3735 31.5285 42.2378 31.6349 42.103 31.7469C38.4685 34.7688 27.2553 41.6048 26.7796 41.8943C26.7488 41.913 26.717 41.93 26.6843 41.9451C25.9197 42.3132 25.0829 42.507 24.2344 42.5126Z" fill="white"/>
<path d="M25.3568 36.2616C25.3418 36.2616 25.3271 36.2616 25.3121 36.2614C21.9268 36.2341 16.9495 35.015 16.7394 34.9632C16.4978 34.9027 16.29 34.7489 16.1615 34.5355C16.0331 34.3221 15.9945 34.0665 16.0541 33.8247C16.1138 33.5829 16.2669 33.3746 16.4799 33.2454C16.6929 33.1163 16.9484 33.0768 17.1904 33.1357C17.2398 33.1479 22.1643 34.3537 25.3271 34.3792H25.3552C26.4232 34.3792 27.0247 33.8893 27.0492 33.4237C27.0499 33.4095 27.051 33.3953 27.0523 33.3811L27.1018 32.8765C27.1247 32.3732 27.0067 31.8803 26.054 31.659C25.5269 31.5545 24.9941 31.4814 24.4584 31.4401C22.9513 31.2876 21.0758 31.0979 19.0792 30.0742C18.1496 29.5584 17.2578 28.977 16.4108 28.3344C15.3707 27.5862 14.2952 26.8126 13.3532 26.4257C12.1768 25.9427 10.0333 25.8736 9.30479 25.8867C9.05522 25.8914 8.81399 25.7968 8.63416 25.6237C8.45433 25.4506 8.35063 25.2132 8.34587 24.9636C8.34112 24.714 8.4357 24.4728 8.60881 24.293C8.78192 24.1131 9.01938 24.0094 9.26894 24.0047C9.3911 24.0026 12.2938 23.956 14.0685 24.6845C15.2149 25.1553 16.3816 25.9946 17.5099 26.8063C18.2812 27.3933 19.0926 27.9255 19.9381 28.3992C21.6187 29.2609 23.228 29.4238 24.648 29.5674C25.2634 29.6157 25.8751 29.7019 26.4799 29.8256C28.1544 30.2145 29.0659 31.3697 28.9806 32.9949C28.9799 33.0092 28.9788 33.0234 28.9775 33.0375L28.9276 33.5464C28.8427 34.9044 27.5944 36.2616 25.3568 36.2616Z" fill="white"/>
<path d="M8.8487 40.094H0.941066C0.691471 40.094 0.452107 39.9948 0.275626 39.8183C0.0991447 39.6418 -1.23514e-09 39.4025 0 39.1529V24.05C-1.23515e-09 23.8005 0.0991447 23.5611 0.275626 23.3846C0.452107 23.2081 0.691471 23.1089 0.941066 23.1089H8.8487C9.0983 23.1089 9.33766 23.2081 9.51414 23.3846C9.69062 23.5611 9.78977 23.8005 9.78977 24.05V39.1529C9.78977 39.4025 9.69062 39.6418 9.51414 39.8183C9.33766 39.9948 9.0983 40.094 8.8487 40.094ZM1.88213 38.2117H7.90762V24.9912H1.88213V38.2117Z" fill="white"/>
</svg>
