<svg width="39" height="38" viewBox="0 0 39 38" fill="none" xmlns="http://www.w3.org/2000/svg">
<path d="M19.2797 0C8.86404 0 0.390137 8.47391 0.390137 18.8896C0.390137 29.3045 8.86404 37.7791 19.2797 37.7791C29.6946 37.7791 38.1693 29.3045 38.1693 18.8896C38.1693 8.47391 29.6961 0 19.2797 0ZM27.7064 14.5663C27.7148 14.7534 27.7194 14.9421 27.7194 15.1308C27.7194 20.8762 23.3474 27.4989 15.3483 27.4989C12.8929 27.4989 10.6072 26.7814 8.68371 25.5473C9.02383 25.5876 9.37003 25.6081 9.72079 25.6081C11.7584 25.6081 13.6325 24.9127 15.1207 23.747C13.2186 23.712 11.6123 22.4551 11.0592 20.7271C11.324 20.7773 11.5971 20.8055 11.8764 20.8055C12.2728 20.8055 12.6578 20.7537 13.0222 20.6541C11.0333 20.2554 9.53514 18.4985 9.53514 16.3908C9.53514 16.3726 9.53514 16.3536 9.5359 16.3361C10.1218 16.661 10.7921 16.8573 11.5043 16.8793C10.3386 16.101 9.5709 14.7694 9.5709 13.2614C9.5709 12.464 9.78471 11.7168 10.1591 11.0746C12.3025 13.7057 15.5073 15.4359 19.1199 15.6186C19.0454 15.2997 19.0081 14.9688 19.0081 14.6271C19.0081 12.2266 20.9544 10.2795 23.355 10.2795C24.6059 10.2795 25.7342 10.8075 26.5286 11.6521C27.52 11.4573 28.4483 11.0967 29.2906 10.5968C28.9634 11.6125 28.2763 12.464 27.3762 13.0027C28.2566 12.8977 29.0966 12.6648 29.8734 12.3186C29.2936 13.1891 28.5563 13.9553 27.7064 14.5663Z" fill="#188C99"/>
</svg>
