<svg width="16" height="13" viewBox="0 0 16 13" fill="none" xmlns="http://www.w3.org/2000/svg">
<path d="M13.9818 3.77832C13.9818 3.9248 13.9818 4.04199 13.9818 4.18848C13.9818 8.26074 10.9056 12.9189 5.25133 12.9189C3.49352 12.9189 1.88219 12.4209 0.534534 11.542C0.768909 11.5713 1.00328 11.6006 1.26696 11.6006C2.7025 11.6006 4.02086 11.1025 5.07555 10.2822C3.72789 10.2529 2.58531 9.37402 2.20446 8.14355C2.40953 8.17285 2.58531 8.20215 2.79039 8.20215C3.05406 8.20215 3.34703 8.14355 3.58141 8.08496C2.17516 7.79199 1.12047 6.56152 1.12047 5.06738V5.03809C1.53063 5.27246 2.02867 5.38965 2.52672 5.41895C1.67711 4.8623 1.14977 3.9248 1.14977 2.87012C1.14977 2.28418 1.29625 1.75684 1.55992 1.31738C3.08336 3.16309 5.36852 4.39355 7.91735 4.54004C7.85875 4.30566 7.82946 4.07129 7.82946 3.83691C7.82946 2.1377 9.20641 0.760742 10.9056 0.760742C11.7845 0.760742 12.5755 1.1123 13.1615 1.72754C13.8353 1.58105 14.5091 1.31738 15.0951 0.96582C14.8607 1.69824 14.392 2.28418 13.7474 2.66504C14.3627 2.60645 14.9779 2.43066 15.5052 2.19629C15.0951 2.81152 14.5677 3.33887 13.9818 3.77832Z" fill="white"/>
</svg>
