<svg width="17" height="12" viewBox="0 0 17 12" fill="none" xmlns="http://www.w3.org/2000/svg">
<path d="M16.1341 1.9873C16.4857 3.21777 16.4857 5.85449 16.4857 5.85449C16.4857 5.85449 16.4857 8.46191 16.1341 9.72168C15.9583 10.4248 15.4017 10.9521 14.7279 11.1279C13.4681 11.4502 8.48763 11.4502 8.48763 11.4502C8.48763 11.4502 3.47787 11.4502 2.2181 11.1279C1.54428 10.9521 0.987635 10.4248 0.811853 9.72168C0.460291 8.46191 0.460291 5.85449 0.460291 5.85449C0.460291 5.85449 0.460291 3.21777 0.811853 1.9873C0.987635 1.28418 1.54428 0.727539 2.2181 0.551758C3.47787 0.200195 8.48763 0.200195 8.48763 0.200195C8.48763 0.200195 13.4681 0.200195 14.7279 0.551758C15.4017 0.727539 15.9583 1.28418 16.1341 1.9873ZM6.84701 8.22754L11.0072 5.85449L6.84701 3.48145V8.22754Z" fill="white"/>
</svg>
